<svg id="Layer_1" data-name="Layer 1" xmlns="http://www.w3.org/2000/svg" viewBox="0 0 105.32 32.79"><defs><style>.cls-1{fill:#101820;}.cls-2{fill:#ff671c;}</style></defs><path class="cls-1" d="M94.77,31.41H84.51L74.21,18.19V31.41H66.28V.92h7.93V13.5L83.89.92h9.76L81.57,15.35Z"/><path class="cls-1" d="M105.32,31.41H97.39V.92h7.93Z"/><path class="cls-1" d="M16.33,32.79A16.34,16.34,0,1,1,27.89,4.9l-5.52,5.52a8.54,8.54,0,1,0,0,12.08L27.89,28A16.28,16.28,0,0,1,16.33,32.79Z"/><path class="cls-1" d="M45.3,32.68A16.34,16.34,0,1,1,45.3,0V7.8a8.54,8.54,0,1,0,8.54,8.54h7.8A16.36,16.36,0,0,1,45.3,32.68Z"/><rect class="cls-2" x="49.57" y="4.25" width="7.76" height="7.76" transform="translate(9.91 40.18) rotate(-45)"/></svg>