<svg xmlns="http://www.w3.org/2000/svg" viewBox="0 0 177.3 32.79"><defs><style>.cls-1{fill:#101820;}.cls-2{fill:#ff671c;}</style></defs><g id="Layer_7" data-name="Layer 7"><path class="cls-1" d="M94.77,31.41H84.51L74.21,18.19V31.41H66.28V.92h7.93V13.5L83.89.92h9.76L81.57,15.35Z"/><path class="cls-1" d="M105.32,31.41H97.39V.92h7.93Z"/><path class="cls-1" d="M115.27,1.49a3.36,3.36,0,0,1,2.44.94.19.19,0,0,1,0,.28l-.79.82a.18.18,0,0,1-.25,0,2,2,0,0,0-3.34,1.56,2,2,0,0,0,2,2.05,2.12,2.12,0,0,0,1.35-.48.21.21,0,0,1,.27,0l.78.83a.21.21,0,0,1,0,.28,3.46,3.46,0,0,1-2.45,1,3.63,3.63,0,1,1,0-7.26Z"/><path class="cls-1" d="M118.83,1.78a.2.2,0,0,1,.19-.19h1.24a.19.19,0,0,1,.19.19V5.87a1.24,1.24,0,0,0,1.24,1.27A1.25,1.25,0,0,0,123,5.87V1.78a.19.19,0,0,1,.19-.19h1.24a.2.2,0,0,1,.19.19V6a2.88,2.88,0,0,1-5.75,0Z"/><path class="cls-1" d="M126.2,1.78a.19.19,0,0,1,.19-.19h3a2.2,2.2,0,0,1,2.2,2.18,2.22,2.22,0,0,1-1.49,2l1.38,2.56a.19.19,0,0,1-.17.29H130a.18.18,0,0,1-.16-.09l-1.35-2.67h-.69V8.46a.2.2,0,0,1-.2.19h-1.2a.19.19,0,0,1-.19-.19Zm3.08,2.83a.82.82,0,0,0,.77-.81.78.78,0,0,0-.77-.77h-1.49V4.61Z"/><path class="cls-1" d="M133.87,3.07h-1.44a.19.19,0,0,1-.2-.19V1.78a.19.19,0,0,1,.2-.19h4.48a.19.19,0,0,1,.19.19v1.1a.19.19,0,0,1-.19.19h-1.45V8.46a.2.2,0,0,1-.19.19h-1.21a.2.2,0,0,1-.19-.19Z"/><path class="cls-1" d="M138.1,1.78a.2.2,0,0,1,.2-.19h1.21a.2.2,0,0,1,.19.19V8.46a.2.2,0,0,1-.19.19H138.3a.2.2,0,0,1-.2-.19Z"/><path class="cls-1" d="M141.42,1.67a.19.19,0,0,1,.19-.18h.26l4,3.87h0V1.78a.19.19,0,0,1,.19-.19h1.22a.2.2,0,0,1,.19.19V8.57a.19.19,0,0,1-.19.18h-.17A.29.29,0,0,1,147,8.7l-4-4h0V8.46a.19.19,0,0,1-.2.19h-1.2a.2.2,0,0,1-.19-.19Z"/><path class="cls-1" d="M154.57,1.49a3.63,3.63,0,1,1-3.63,3.64A3.62,3.62,0,0,1,154.57,1.49Zm0,5.65a2,2,0,1,0-2-2A2,2,0,0,0,154.57,7.14Z"/><path class="cls-1" d="M159.42,1.78a.19.19,0,0,1,.19-.19H162a2.25,2.25,0,1,1,0,4.5H161V8.46a.2.2,0,0,1-.19.19h-1.19a.19.19,0,0,1-.19-.19ZM162,4.62a.8.8,0,0,0,.8-.8.78.78,0,0,0-.8-.75h-1V4.62Z"/><path class="cls-1" d="M165.33,1.78a.19.19,0,0,1,.19-.19h4.18a.19.19,0,0,1,.19.19v1.1a.19.19,0,0,1-.19.19h-2.8V4.32h2.3a.2.2,0,0,1,.19.2v1.1a.19.19,0,0,1-.19.19h-2.3V7.17h2.8a.19.19,0,0,1,.19.19v1.1a.19.19,0,0,1-.19.19h-4.18a.19.19,0,0,1-.19-.19Z"/><path class="cls-1" d="M171.23,1.67a.19.19,0,0,1,.19-.18h.25l4,3.87h0V1.78a.19.19,0,0,1,.19-.19h1.21a.2.2,0,0,1,.19.19V8.57a.19.19,0,0,1-.19.18H177a.29.29,0,0,1-.13-.05l-4-4h0V8.46a.19.19,0,0,1-.19.19h-1.2a.2.2,0,0,1-.19-.19Z"/><path class="cls-1" d="M112.14,13.27a.24.24,0,0,1,.24-.24h1.18a.25.25,0,0,1,.25.24v2.65l2.24-2.79a.3.3,0,0,1,.19-.1h1.27a.23.23,0,0,1,.18.37l-2.36,3,2.57,3.35a.23.23,0,0,1-.19.37h-1.39a.27.27,0,0,1-.18-.07l-2.33-3.17v3a.25.25,0,0,1-.25.24h-1.18a.24.24,0,0,1-.24-.24Z"/><path class="cls-1" d="M118.92,13.11a.19.19,0,0,1,.19-.18h.25l4,3.87h0V13.22a.19.19,0,0,1,.19-.19h1.21a.2.2,0,0,1,.19.19V20a.19.19,0,0,1-.19.18h-.16a.29.29,0,0,1-.13-.05l-4-4h0V19.9a.19.19,0,0,1-.19.19h-1.2a.2.2,0,0,1-.19-.19Z"/><path class="cls-1" d="M129.84,12.93a3.63,3.63,0,1,1-3.63,3.64A3.63,3.63,0,0,1,129.84,12.93Zm0,5.65a2,2,0,1,0-2-2A2,2,0,0,0,129.84,18.58Z"/><path class="cls-1" d="M134,13.27a.17.17,0,0,1,.18-.24h1.18a.21.21,0,0,1,.18.14l.87,3.42h0L138,13a.19.19,0,0,1,.17-.11h.18a.17.17,0,0,1,.17.11l1.56,3.55h0l.86-3.42a.21.21,0,0,1,.18-.14h1.18a.18.18,0,0,1,.19.24l-1.91,6.78a.19.19,0,0,1-.18.14h-.16a.19.19,0,0,1-.17-.11L138.3,16h0l-1.84,4.13a.2.2,0,0,1-.17.11h-.16a.19.19,0,0,1-.18-.14Z"/><path class="cls-1" d="M143.64,13.22a.19.19,0,0,1,.19-.19H145a.2.2,0,0,1,.2.19v5.39h2.4a.19.19,0,0,1,.19.19v1.1a.19.19,0,0,1-.19.19h-3.8a.19.19,0,0,1-.19-.19Z"/><path class="cls-1" d="M148.8,13.22A.19.19,0,0,1,149,13h4.18a.19.19,0,0,1,.19.19v1.1a.19.19,0,0,1-.19.19h-2.8v1.25h2.3a.2.2,0,0,1,.19.19v1.1a.19.19,0,0,1-.19.2h-2.3v1.36h2.8a.19.19,0,0,1,.19.19v1.1a.19.19,0,0,1-.19.19H149a.19.19,0,0,1-.19-.19Z"/><path class="cls-1" d="M154.71,13.22a.19.19,0,0,1,.18-.19h2.46a3.53,3.53,0,1,1,0,7.06h-2.46a.19.19,0,0,1-.18-.19Zm2.54,5.38a2,2,0,0,0,0-4.09h-1V18.6Z"/><path class="cls-1" d="M165.24,12.94a3.87,3.87,0,0,1,2.46,1,.18.18,0,0,1,0,.27l-.8.85a.21.21,0,0,1-.27,0,1.83,1.83,0,0,0-1.32-.49,2,2,0,0,0,0,4,2.45,2.45,0,0,0,.9-.16v-.59h-.64a.18.18,0,0,1-.19-.18v-1a.18.18,0,0,1,.19-.19h2a.19.19,0,0,1,.18.19v2.72a.25.25,0,0,1-.08.16,5.13,5.13,0,0,1-2.5.65,3.62,3.62,0,1,1,0-7.24Z"/><path class="cls-1" d="M169.2,13.22a.19.19,0,0,1,.19-.19h4.18a.19.19,0,0,1,.19.19v1.1a.19.19,0,0,1-.19.19h-2.8v1.25h2.31a.2.2,0,0,1,.19.19v1.1a.19.19,0,0,1-.19.2h-2.31v1.36h2.8a.19.19,0,0,1,.19.19v1.1a.19.19,0,0,1-.19.19h-4.18a.19.19,0,0,1-.19-.19Z"/><path class="cls-2" d="M112.14,24.66a.2.2,0,0,1,.19-.19h1.21a.2.2,0,0,1,.2.19v6.68a.2.2,0,0,1-.2.19h-1.21a.2.2,0,0,1-.19-.19Z"/><path class="cls-2" d="M115.46,24.55a.19.19,0,0,1,.19-.18h.25l4,3.87h0V24.66a.19.19,0,0,1,.19-.19h1.21a.21.21,0,0,1,.2.19v6.79a.2.2,0,0,1-.2.18h-.16a.29.29,0,0,1-.13-.05l-4-4h0v3.76a.19.19,0,0,1-.19.19h-1.2a.2.2,0,0,1-.19-.19Z"/><path class="cls-2" d="M123.27,24.66a.2.2,0,0,1,.19-.19h1.21a.2.2,0,0,1,.19.19v6.68a.2.2,0,0,1-.19.19h-1.21a.2.2,0,0,1-.19-.19Z"/><path class="cls-2" d="M127.5,26h-1.44a.19.19,0,0,1-.19-.19v-1.1a.19.19,0,0,1,.19-.19h4.48a.19.19,0,0,1,.19.19v1.1a.19.19,0,0,1-.19.19H129.1v5.39a.2.2,0,0,1-.19.19h-1.22a.2.2,0,0,1-.19-.19Z"/><path class="cls-2" d="M131.74,24.66a.2.2,0,0,1,.19-.19h1.21a.2.2,0,0,1,.19.19v6.68a.2.2,0,0,1-.19.19h-1.21a.2.2,0,0,1-.19-.19Z"/><path class="cls-2" d="M134.16,31.27l3.16-6.79a.2.2,0,0,1,.17-.11h.1a.2.2,0,0,1,.17.11l3.16,6.79a.18.18,0,0,1-.17.26h-1.12c-.18,0-.26-.06-.35-.25l-.37-.8h-2.74l-.37.81a.37.37,0,0,1-.36.24h-1.11A.18.18,0,0,1,134.16,31.27Zm4.15-2.16-.77-1.66h0l-.76,1.66Z"/><path class="cls-2" d="M142.29,26h-1.44a.19.19,0,0,1-.19-.19v-1.1a.19.19,0,0,1,.19-.19h4.48a.19.19,0,0,1,.19.19v1.1a.19.19,0,0,1-.19.19h-1.45v5.39a.2.2,0,0,1-.19.19h-1.21a.2.2,0,0,1-.19-.19Z"/><path class="cls-2" d="M146.53,24.66a.2.2,0,0,1,.19-.19h1.21a.2.2,0,0,1,.19.19v6.68a.2.2,0,0,1-.19.19h-1.21a.2.2,0,0,1-.19-.19Z"/><path class="cls-2" d="M149,24.73a.18.18,0,0,1,.17-.26h1.34a.2.2,0,0,1,.17.11l1.67,3.68h.06L154,24.58a.2.2,0,0,1,.17-.11h1.35a.18.18,0,0,1,.17.26l-3.17,6.79a.19.19,0,0,1-.17.11h-.1a.22.22,0,0,1-.18-.11Z"/><path class="cls-2" d="M156.53,24.66a.19.19,0,0,1,.19-.19h4.18a.19.19,0,0,1,.19.19v1.1a.19.19,0,0,1-.19.19h-2.79V27.2h2.3a.2.2,0,0,1,.19.2v1.1a.19.19,0,0,1-.19.19h-2.3v1.36h2.79a.19.19,0,0,1,.19.19v1.1a.19.19,0,0,1-.19.19h-4.18a.19.19,0,0,1-.19-.19Z"/><path class="cls-1" d="M16.33,32.79A16.34,16.34,0,1,1,27.89,4.9l-5.52,5.52a8.54,8.54,0,1,0,0,12.08L27.89,28A16.28,16.28,0,0,1,16.33,32.79Z"/><path class="cls-1" d="M45.3,32.68A16.34,16.34,0,1,1,45.3,0V7.8a8.54,8.54,0,1,0,8.54,8.54h7.8A16.36,16.36,0,0,1,45.3,32.68Z"/><rect class="cls-2" x="49.57" y="4.25" width="7.76" height="7.76" transform="translate(9.91 40.18) rotate(-45)"/></g></svg>