<svg xmlns="http://www.w3.org/2000/svg" viewBox="0 0 783.98 101.08"><defs><style>.cls-1{fill:none;stroke:#bfbfbf;stroke-miterlimit:10;stroke-width:2.71px;}.cls-2{fill:#bfbfbf;}.cls-3{fill:#9ed68a;}.cls-4{font-size:14px;font-family:BrandonGrotesque-Bold, Brandon Grotesque;font-weight:700;}.cls-15,.cls-17,.cls-19,.cls-4{fill:#fff;}.cls-5{letter-spacing:-0.01em;}.cls-6{letter-spacing:-0.02em;}.cls-7{letter-spacing:0em;}.cls-8{letter-spacing:-0.02em;}.cls-9{letter-spacing:-0.01em;}.cls-10{letter-spacing:-0.02em;}.cls-11{letter-spacing:-0.12em;}.cls-12{letter-spacing:-0.01em;}.cls-13{letter-spacing:0em;}.cls-14{letter-spacing:-0.01em;}.cls-15,.cls-17,.cls-19{font-size:14.41px;font-family:BrandonGrotesque-Black, Brandon Grotesque;font-weight:800;}.cls-15{letter-spacing:-0.02em;}.cls-16{letter-spacing:0em;}.cls-18{letter-spacing:-0.02em;}.cls-19{letter-spacing:-0.02em;}.cls-20{letter-spacing:0em;}</style></defs><g id="Layer_4" data-name="Layer 4"><line class="cls-1" x1="137.97" y1="50.54" x2="155.59" y2="50.54"/><polygon class="cls-2" points="153.61 57.29 165.3 50.54 153.61 43.79 153.61 57.29"/><line class="cls-1" x1="269.99" y1="50.54" x2="281.38" y2="50.54"/><polygon class="cls-2" points="279.41 57.29 291.1 50.54 279.41 43.79 279.41 57.29"/><path class="cls-3" d="M110,27.31a33.25,33.25,0,0,0-5.52.46,38.59,38.59,0,0,0-73,9.18c-.73-.05-1.43-.08-2.14-.08A29.44,29.44,0,0,0,0,66.28C0,82.73,12.54,95.61,28.55,95.61c.54,0,2.37.07,2.57.08h79.05c18.44-1.46,34-17.11,34-34.18A34.22,34.22,0,0,0,110,27.31Z"/><circle class="cls-2" cx="219.45" cy="50.54" r="50.54"/><text class="cls-4" transform="translate(208.02 27.26)"><tspan class="cls-5">J</tspan><tspan x="5.68" y="0">oin</tspan><tspan class="cls-6" x="-12.61" y="17">D</tspan><tspan x="-2.55" y="17">atasets</tspan><tspan x="0.45" y="34">i</tspan><tspan class="cls-7" x="3.82" y="34">n</tspan><tspan x="11.05" y="34">to</tspan><tspan class="cls-8" x="-22.48" y="51">P</tspan><tspan x="-14.51" y="51">ublications</tspan></text><line class="cls-1" x1="392.47" y1="50.54" x2="403.86" y2="50.54"/><polygon class="cls-2" points="401.88 57.29 413.57 50.54 401.88 43.79 401.88 57.29"/><circle class="cls-2" cx="467.72" cy="50.54" r="50.54"/><text class="cls-4" transform="translate(441.87 27.26)"><tspan class="cls-9">G</tspan><tspan class="cls-7" x="9.81" y="0">r</tspan><tspan x="14.55" y="0">oup by</tspan><tspan class="cls-10" x="-3.17" y="17">E</tspan><tspan class="cls-7" x="4.81" y="17">n</tspan><tspan x="12.03" y="17">tity and</tspan><tspan class="cls-8" x="-5.51" y="34">P</tspan><tspan x="2.46" y="34">ublication</tspan><tspan class="cls-11" x="14.1" y="51">Y</tspan><tspan x="20.64" y="51">ear</tspan></text><line class="cls-1" x1="518.26" y1="50.54" x2="529.65" y2="50.54"/><polygon class="cls-2" points="527.68 57.29 539.37 50.54 527.68 43.79 527.68 57.29"/><line class="cls-1" x1="644.06" y1="50.54" x2="655.45" y2="50.54"/><polygon class="cls-2" points="653.47 57.29 665.16 50.54 653.47 43.79 653.47 57.29"/><circle class="cls-2" cx="593.52" cy="50.54" r="50.54"/><text class="cls-4" transform="translate(565.22 27.26)">A<tspan class="cls-12" x="9.28" y="0">g</tspan><tspan x="15.67" y="0">g</tspan><tspan class="cls-7" x="22.13" y="0">r</tspan><tspan class="cls-13" x="26.87" y="0">egate</tspan><tspan class="cls-9" x="8.18" y="17">G</tspan><tspan class="cls-7" x="18" y="17">r</tspan><tspan x="22.73" y="17">oups</tspan><tspan x="17.31" y="34">i</tspan><tspan class="cls-7" x="20.68" y="34">n</tspan><tspan x="27.91" y="34">to</tspan><tspan class="cls-14" x="2.93" y="51">S</tspan><tspan x="10.3" y="51">tatistics</tspan></text><rect class="cls-2" x="294.71" y="7.87" width="97.76" height="85.33"/><text class="cls-15" transform="translate(47.31 62.83)">D<tspan class="cls-16" x="10.27" y="0">atasets</tspan></text><text class="cls-17" transform="translate(309.85 55.61)"><tspan class="cls-18">P</tspan><tspan x="8.14" y="0">ublications</tspan></text><rect class="cls-3" x="668.77" y="7.87" width="115.2" height="85.33"/><text class="cls-19" transform="translate(699.95 55.61)">S<tspan class="cls-20" x="7.67" y="0">tatistics</tspan></text></g></svg>