<svg xmlns="http://www.w3.org/2000/svg" viewBox="0 0 777.6 456.11"><defs><style>.cls-1,.cls-10{fill:#bfbfbf;}.cls-2{fill:none;stroke:#bfbfbf;stroke-miterlimit:10;stroke-width:2.71px;}.cls-3{fill:#9ed68a;}.cls-4{font-size:14.41px;fill:#fff;}.cls-10,.cls-4{font-family:BrandonGrotesque-Bold, Brandon Grotesque;font-weight:700;}.cls-5{letter-spacing:-0.02em;}.cls-6{letter-spacing:-0.01em;}.cls-7{letter-spacing:0em;}.cls-8{letter-spacing:-0.01em;}.cls-9{letter-spacing:-0.12em;}.cls-10{font-size:14px;}.cls-11{letter-spacing:-0.01em;}.cls-12{letter-spacing:0em;}.cls-13{letter-spacing:-0.01em;}.cls-14{letter-spacing:-0.01em;}.cls-15{letter-spacing:-0.02em;}.cls-16{letter-spacing:0em;}.cls-17{letter-spacing:-0.01em;}.cls-18{letter-spacing:0em;}.cls-19{letter-spacing:0em;}.cls-20{letter-spacing:-0.01em;}</style></defs><g id="Layer_6" data-name="Layer 6"><rect class="cls-1" x="639.09" y="121.62" width="138.51" height="24.17"/><rect class="cls-1" x="639.09" y="152.2" width="138.51" height="24.17"/><rect class="cls-1" x="639.09" y="182.78" width="138.51" height="24.17"/><rect class="cls-1" x="639.09" y="213.36" width="138.51" height="24.17"/><polyline class="cls-2" points="187.79 189.29 187.79 129.28 236.55 129.28"/><polygon class="cls-1" points="234.57 136.03 246.26 129.28 234.57 122.53 234.57 136.03"/><polyline class="cls-2" points="187.79 290.37 187.79 350.38 236.55 350.38"/><polygon class="cls-1" points="234.57 357.13 246.26 350.38 234.57 343.63 234.57 357.13"/><line class="cls-2" x1="97.76" y1="239.83" x2="122.15" y2="239.83"/><polygon class="cls-1" points="120.17 246.58 131.86 239.83 120.17 233.08 120.17 246.58"/><rect class="cls-3" y="197.17" width="97.76" height="85.33"/><text class="cls-4" transform="translate(15.58 244.9)"><tspan class="cls-5">P</tspan><tspan x="8.2" y="0">ublications</tspan></text><rect class="cls-1" x="502.59" y="37.21" width="97.76" height="85.33"/><circle class="cls-1" cx="187.8" cy="239.83" r="50.54"/><text class="cls-4" transform="translate(161.18 227.45)"><tspan class="cls-6">G</tspan><tspan class="cls-7" x="10.1" y="0">r</tspan><tspan x="14.97" y="0">oup by</tspan><tspan class="cls-8" x="-3.57" y="17.7">I</tspan><tspan x="0.75" y="17.7">nstitution</tspan><tspan x="7.96" y="35.4">&amp; </tspan><tspan class="cls-9" x="21.07" y="35.4">Y</tspan><tspan x="27.8" y="35.4">ear</tspan></text><text class="cls-10" transform="translate(175.23 86.26)"><tspan class="cls-11">I</tspan><tspan x="4.2" y="0">nstitution A</tspan></text><rect class="cls-1" x="270.52" y="37.21" width="97.76" height="85.33"/><rect class="cls-1" x="407.02" y="258.31" width="138.51" height="24.17"/><text class="cls-10" transform="translate(175.87 407.05)"><tspan class="cls-11">I</tspan><tspan x="4.2" y="0">nstitution B</tspan></text><text class="cls-4" transform="translate(286.11 74.34)"><tspan class="cls-5">P</tspan><tspan x="8.2" y="0">ublications</tspan><tspan x="20.4" y="17.7">2</tspan><tspan class="cls-12" x="27.86" y="17.7">0</tspan><tspan x="36.81" y="17.7">21</tspan></text><text class="cls-4" transform="translate(516.53 74.34)"><tspan class="cls-13">I</tspan><tspan x="4.32" y="0">nstitution A</tspan><tspan x="22.05" y="17.7">2</tspan><tspan class="cls-12" x="29.51" y="17.7">0</tspan><tspan x="38.46" y="17.7">21</tspan></text><rect class="cls-1" x="270.52" y="136.91" width="97.76" height="85.33"/><text class="cls-4" transform="translate(286.11 174.04)"><tspan class="cls-5">P</tspan><tspan x="8.2" y="0">ublications</tspan><tspan x="18.46" y="17.7">2</tspan><tspan class="cls-12" x="25.92" y="17.7">0</tspan><tspan x="34.87" y="17.7">20</tspan></text><rect class="cls-1" x="502.59" y="136.91" width="97.76" height="85.33"/><text class="cls-4" transform="translate(516.53 174.04)"><tspan class="cls-13">I</tspan><tspan x="4.32" y="0">nstitution A</tspan><tspan x="20.11" y="17.7">2</tspan><tspan class="cls-12" x="27.57" y="17.7">0</tspan><tspan x="36.52" y="17.7">20</tspan></text><polyline class="cls-2" points="272.76 233.65 258.7 233.65 258.7 136.69 252.07 129.28 258.7 121.87 258.7 24.91 272.76 24.91"/><polyline class="cls-2" points="409.26 355.06 395.2 355.06 395.2 308.39 388.57 300.98 395.2 293.57 395.2 246.01 409.26 246.01"/><polyline class="cls-2" points="272.76 454.75 258.7 454.75 258.7 357.79 252.07 350.38 258.7 342.97 258.7 246.01 272.76 246.01"/><rect class="cls-1" x="270.52" y="258.31" width="97.76" height="85.33"/><text class="cls-4" transform="translate(286.11 295.44)"><tspan class="cls-5">P</tspan><tspan x="8.2" y="0">ublications</tspan><tspan x="20.4" y="17.7">2</tspan><tspan class="cls-12" x="27.86" y="17.7">0</tspan><tspan x="36.81" y="17.7">21</tspan></text><rect class="cls-1" x="270.52" y="358.01" width="97.76" height="85.33"/><text class="cls-4" transform="translate(286.11 395.14)"><tspan class="cls-5">P</tspan><tspan x="8.2" y="0">ublications</tspan><tspan x="18.46" y="17.7">2</tspan><tspan class="cls-12" x="25.92" y="17.7">0</tspan><tspan x="34.87" y="17.7">20</tspan></text><text class="cls-4" transform="translate(424.59 273.71)">open access status</text><text class="cls-10" transform="translate(426.29 249)"><tspan class="cls-14">S</tspan><tspan x="7.43" y="0">ingle </tspan><tspan class="cls-15" x="37.25" y="0">P</tspan><tspan class="cls-16" x="45.22" y="0">ublication</tspan></text><text class="cls-10" transform="translate(404.07 69.38)">A<tspan class="cls-17" x="9.28" y="0">g</tspan><tspan x="15.67" y="0">g</tspan><tspan class="cls-18" x="22.13" y="0">r</tspan><tspan x="26.87" y="0">egate</tspan></text><rect class="cls-1" x="407.02" y="288.89" width="138.51" height="24.17"/><text class="cls-4" transform="translate(436.72 304.29)">citation cou<tspan class="cls-19" x="66.72" y="0">n</tspan><tspan x="74.16" y="0">t</tspan></text><rect class="cls-1" x="407.02" y="319.47" width="138.51" height="24.17"/><text class="cls-4" transform="translate(447.78 334.87)">altmetrics</text><polyline class="cls-2" points="641.33 248.94 627.27 248.94 627.27 186.99 620.63 179.57 627.27 172.16 627.27 109.32 641.33 109.32"/><text class="cls-4" transform="translate(658.7 137.02)">publication cou<tspan class="cls-7" x="86.89" y="0">n</tspan><tspan x="94.33" y="0">t</tspan></text><text class="cls-10" transform="translate(649.63 112.31)">A<tspan class="cls-17" x="9.28" y="0">g</tspan><tspan x="15.67" y="0">g</tspan><tspan class="cls-18" x="22.13" y="0">r</tspan><tspan x="26.87" y="0">egated </tspan><tspan class="cls-20" x="66.69" y="0">S</tspan><tspan x="74.07" y="0">tatistics</tspan></text><text class="cls-4" transform="translate(656.66 167.6)">open access status</text><text class="cls-4" transform="translate(666.16 198.18)">citations cou<tspan class="cls-7" x="71.96" y="0">n</tspan><tspan x="79.4" y="0">t</tspan></text><text class="cls-4" transform="translate(679.85 228.76)">altmetrics</text><line class="cls-2" x1="385.03" y1="79.88" x2="480.65" y2="79.88"/><polygon class="cls-1" points="478.68 86.63 490.37 79.88 478.68 73.13 478.68 86.63"/><text class="cls-10" transform="translate(404.07 169.08)">A<tspan class="cls-17" x="9.28" y="0">g</tspan><tspan x="15.67" y="0">g</tspan><tspan class="cls-18" x="22.13" y="0">r</tspan><tspan x="26.87" y="0">egate</tspan></text><line class="cls-2" x1="385.03" y1="179.57" x2="480.65" y2="179.57"/><polygon class="cls-1" points="478.68 186.32 490.37 179.57 478.68 172.82 478.68 186.32"/><text class="cls-10" transform="translate(519.67 11.9)">A<tspan class="cls-17" x="9.28" y="0">g</tspan><tspan x="15.67" y="0">g</tspan><tspan class="cls-18" x="22.13" y="0">r</tspan><tspan x="26.87" y="0">egated</tspan><tspan class="cls-11" x="-29.95" y="17">I</tspan><tspan class="cls-16" x="-25.75" y="17">nstitution </tspan><tspan class="cls-14" x="31.81" y="17">S</tspan><tspan x="39.24" y="17">ummaries</tspan></text></g></svg>