<svg xmlns="http://www.w3.org/2000/svg" viewBox="0 0 783.98 101.08"><defs><style>.cls-1{fill:none;stroke:#bfbfbf;stroke-miterlimit:10;stroke-width:2.71px;}.cls-2{fill:#bfbfbf;}.cls-3{fill:#9ed68a;}.cls-4{fill:#fff;}</style></defs><g id="Layer_4" data-name="Layer 4"><line class="cls-1" x1="137.97" y1="50.54" x2="155.59" y2="50.54"/><polygon class="cls-2" points="153.61 57.29 165.3 50.54 153.61 43.79 153.61 57.29"/><line class="cls-1" x1="269.99" y1="50.54" x2="281.38" y2="50.54"/><polygon class="cls-2" points="279.41 57.29 291.1 50.54 279.41 43.79 279.41 57.29"/><path class="cls-3" d="M110,27.31a33.25,33.25,0,0,0-5.52.46,38.59,38.59,0,0,0-73,9.18c-.73-.05-1.43-.08-2.14-.08A29.44,29.44,0,0,0,0,66.28C0,82.73,12.54,95.61,28.55,95.61c.54,0,2.37.07,2.57.08h79.05c18.44-1.46,34-17.11,34-34.18A34.22,34.22,0,0,0,110,27.31Z"/><circle class="cls-2" cx="219.45" cy="50.54" r="50.54"/><path class="cls-4" d="M207.82,26l.73-.75a.27.27,0,0,1,.42,0,1.23,1.23,0,0,0,.92.45c.55,0,1.12-.45,1.12-1.42V17.72a.28.28,0,0,1,.27-.27h1.32a.27.27,0,0,1,.26.27v6.61a2.85,2.85,0,0,1-2.94,3.07,2.7,2.7,0,0,1-2.13-1A.3.3,0,0,1,207.82,26Z"/><path class="cls-4" d="M217,21.52a2.94,2.94,0,1,1-2.87,2.92A2.92,2.92,0,0,1,217,21.52Zm0,4.37a1.4,1.4,0,0,0,1.34-1.45,1.35,1.35,0,1,0-2.69,0A1.39,1.39,0,0,0,217,25.89Z"/><path class="cls-4" d="M221,18.7a1,1,0,0,1,.95-1,1,1,0,1,1,0,1.94A1,1,0,0,1,221,18.7Zm.12,3.22a.27.27,0,0,1,.27-.26h1.16a.27.27,0,0,1,.27.26V27a.28.28,0,0,1-.27.27h-1.16a.28.28,0,0,1-.27-.27Z"/><path class="cls-4" d="M224.47,21.92a.26.26,0,0,1,.26-.26h.53a.24.24,0,0,1,.24.16l.2.52a2.78,2.78,0,0,1,2-.82c1.78,0,2.5,1.33,2.5,2.78V27a.28.28,0,0,1-.27.27h-1.15a.27.27,0,0,1-.26-.27V24.22c0-.73-.38-1.19-1.05-1.19a1.41,1.41,0,0,0-1.32.88V27c0,.2-.09.27-.35.27h-1a.27.27,0,0,1-.26-.27Z"/><path class="cls-4" d="M196.68,34.72a.27.27,0,0,1,.25-.27h3.32a4.91,4.91,0,1,1,0,9.81h-3.32a.27.27,0,0,1-.25-.27Zm3.4,7.83a3.2,3.2,0,0,0,0-6.4h-1.6v6.4Z"/><path class="cls-4" d="M208.14,40.72a3.78,3.78,0,0,1,1,.15c0-.71-.21-1-.73-1a6.63,6.63,0,0,0-1.57.21c-.2.06-.3-.07-.32-.25l-.13-.73a.27.27,0,0,1,.2-.35,7.71,7.71,0,0,1,1.9-.26c1.75,0,2.16.91,2.16,2.43v3a.28.28,0,0,1-.27.27h-.5c-.1,0-.17,0-.24-.2l-.17-.38a2.38,2.38,0,0,1-1.71.72,1.79,1.79,0,0,1-1.89-1.92C205.9,41.49,206.72,40.72,208.14,40.72Zm0,2.49a1.31,1.31,0,0,0,1-.55v-.77a2.2,2.2,0,0,0-.79-.17c-.54,0-.91.31-.91.76A.7.7,0,0,0,208.17,43.21Z"/><path class="cls-4" d="M212.58,40.13h-.47a.27.27,0,0,1-.26-.27v-.94a.25.25,0,0,1,.26-.26h.47V37.1a.27.27,0,0,1,.27-.26l1.15,0a.27.27,0,0,1,.25.27v1.57h1.23a.25.25,0,0,1,.27.26v.94a.27.27,0,0,1-.27.27h-1.23v2.24c0,.39.21.45.43.45a2.19,2.19,0,0,0,.69-.16.23.23,0,0,1,.31.16l.28.88a.27.27,0,0,1-.16.34,5.36,5.36,0,0,1-1.66.36c-1.08,0-1.56-.67-1.56-1.81Z"/><path class="cls-4" d="M219,40.72a3.66,3.66,0,0,1,1,.15c0-.71-.21-1-.72-1a6.63,6.63,0,0,0-1.57.21c-.2.06-.3-.07-.32-.25l-.13-.73a.28.28,0,0,1,.19-.35,7.82,7.82,0,0,1,1.91-.26c1.75,0,2.16.91,2.16,2.43v3a.28.28,0,0,1-.27.27h-.5c-.1,0-.17,0-.24-.2l-.17-.38a2.38,2.38,0,0,1-1.71.72,1.79,1.79,0,0,1-1.89-1.92C216.71,41.49,217.52,40.72,219,40.72Zm0,2.49a1.31,1.31,0,0,0,1-.55v-.77a2.2,2.2,0,0,0-.79-.17c-.54,0-.91.31-.91.76A.7.7,0,0,0,219,43.21Z"/><path class="cls-4" d="M222.79,43.59l.37-.76a.22.22,0,0,1,.33-.1,3.09,3.09,0,0,0,1.27.34c.28,0,.48-.11.48-.35s-.2-.41-.94-.7c-1.08-.42-1.58-1-1.58-1.85s.63-1.65,2.06-1.65a3.22,3.22,0,0,1,1.72.43.3.3,0,0,1,.12.38l-.35.71a.26.26,0,0,1-.33.1,3.35,3.35,0,0,0-1.16-.29c-.34,0-.48.14-.48.32s.25.34.77.55c1.08.42,1.89.88,1.89,2,0,.92-.81,1.71-2.23,1.71a3.19,3.19,0,0,1-1.86-.52A.23.23,0,0,1,222.79,43.59Z"/><path class="cls-4" d="M230.63,38.52a2.57,2.57,0,0,1,2.62,2.6c0,.1,0,.28,0,.38a.27.27,0,0,1-.27.24h-3.58A1.34,1.34,0,0,0,230.71,43a2,2,0,0,0,1.1-.35c.13-.09.26-.12.36,0l.57.65a.24.24,0,0,1,0,.37,3,3,0,0,1-2.09.77,2.94,2.94,0,0,1,0-5.88Zm1,2.24a1,1,0,0,0-1-1,1.11,1.11,0,0,0-1.1,1Z"/><path class="cls-4" d="M234.72,40.13h-.48a.27.27,0,0,1-.25-.27v-.94a.25.25,0,0,1,.25-.26h.48V37.1a.26.26,0,0,1,.26-.26l1.15,0a.27.27,0,0,1,.25.27v1.57h1.23a.25.25,0,0,1,.27.26v.94a.27.27,0,0,1-.27.27h-1.23v2.24c0,.39.21.45.44.45a2.12,2.12,0,0,0,.68-.16.22.22,0,0,1,.31.16l.28.88a.25.25,0,0,1-.15.34,5.37,5.37,0,0,1-1.67.36c-1.08,0-1.55-.67-1.55-1.81Z"/><path class="cls-4" d="M238.94,43.59l.38-.76a.21.21,0,0,1,.32-.1,3.1,3.1,0,0,0,1.28.34c.28,0,.47-.11.47-.35s-.19-.41-.94-.7c-1.07-.42-1.58-1-1.58-1.85s.63-1.65,2.06-1.65a3.16,3.16,0,0,1,1.72.43.3.3,0,0,1,.13.38l-.35.71a.27.27,0,0,1-.34.1,3.35,3.35,0,0,0-1.16-.29c-.33,0-.48.14-.48.32s.26.34.78.55c1.07.42,1.89.88,1.89,2,0,.92-.82,1.71-2.23,1.71a3.16,3.16,0,0,1-1.86-.52A.24.24,0,0,1,238.94,43.59Z"/><path class="cls-4" d="M209.18,52.7a1,1,0,0,1,.95-1,1,1,0,1,1,0,1.94A1,1,0,0,1,209.18,52.7Zm.12,3.22a.27.27,0,0,1,.27-.26h1.16a.27.27,0,0,1,.27.26V61a.28.28,0,0,1-.27.27h-1.16a.28.28,0,0,1-.27-.27Z"/><path class="cls-4" d="M212.68,55.92a.26.26,0,0,1,.26-.26h.54a.27.27,0,0,1,.24.16l.19.52a2.79,2.79,0,0,1,2-.82c1.78,0,2.49,1.33,2.49,2.78V61a.28.28,0,0,1-.27.27H217a.27.27,0,0,1-.27-.27V58.22c0-.73-.38-1.19-1-1.19a1.41,1.41,0,0,0-1.32.88V61c0,.2-.08.27-.35.27h-1a.27.27,0,0,1-.26-.27Z"/><path class="cls-4" d="M220.2,57.13h-.48a.27.27,0,0,1-.25-.27v-.94a.25.25,0,0,1,.25-.26h.48V54.1a.26.26,0,0,1,.26-.26l1.15,0a.27.27,0,0,1,.25.27v1.57h1.24a.25.25,0,0,1,.26.26v.94a.27.27,0,0,1-.26.27h-1.24v2.24c0,.39.21.45.44.45a2.06,2.06,0,0,0,.68-.16.22.22,0,0,1,.31.16l.28.88a.25.25,0,0,1-.15.34,5.37,5.37,0,0,1-1.67.36c-1.08,0-1.55-.67-1.55-1.81Z"/><path class="cls-4" d="M227.17,55.52a2.94,2.94,0,1,1-2.87,2.92A2.92,2.92,0,0,1,227.17,55.52Zm0,4.37a1.4,1.4,0,0,0,1.34-1.45,1.35,1.35,0,1,0-2.69,0A1.39,1.39,0,0,0,227.17,59.89Z"/><path class="cls-4" d="M186.81,68.72a.28.28,0,0,1,.27-.27h3.29a3.13,3.13,0,1,1,0,6.25h-1.75V78a.28.28,0,0,1-.27.27h-1.29a.28.28,0,0,1-.27-.27ZM190.26,73a1.44,1.44,0,0,0,1.44-1.45,1.39,1.39,0,0,0-1.44-1.36h-1.62V73Z"/><path class="cls-4" d="M194.25,72.92a.26.26,0,0,1,.26-.26h1.15a.27.27,0,0,1,.27.26v2.76c0,.74.38,1.21,1,1.21a1.23,1.23,0,0,0,1.12-1V72.92c0-.21.09-.26.31-.26h1.06a.27.27,0,0,1,.27.26V78a.28.28,0,0,1-.27.27h-.51a.29.29,0,0,1-.27-.21l-.17-.46a2.51,2.51,0,0,1-1.87.81c-1.74,0-2.37-1.33-2.37-2.76Z"/><path class="cls-4" d="M201.39,68.72a.27.27,0,0,1,.26-.27h1.2a.28.28,0,0,1,.26.27v4a3.35,3.35,0,0,1,1.25-.25,2.77,2.77,0,0,1,2.77,2.94,2.8,2.8,0,0,1-2.69,2.94,2.46,2.46,0,0,1-1.83-.84l-.14.43c-.05.16-.14.27-.27.27h-.55a.27.27,0,0,1-.26-.27Zm2.84,8.17a1.35,1.35,0,0,0,1.28-1.43A1.38,1.38,0,0,0,204.15,74a1.81,1.81,0,0,0-1.09.32V76A1.21,1.21,0,0,0,204.23,76.89Z"/><path class="cls-4" d="M208.39,68.72a.27.27,0,0,1,.26-.27h1.18a.28.28,0,0,1,.27.27V78a.28.28,0,0,1-.27.27h-1.18a.27.27,0,0,1-.26-.27Z"/><path class="cls-4" d="M211.65,69.7a1,1,0,0,1,.95-1,1,1,0,1,1,0,1.94A1,1,0,0,1,211.65,69.7Zm.13,3.22a.26.26,0,0,1,.26-.26h1.16a.27.27,0,0,1,.27.26V78a.28.28,0,0,1-.27.27H212a.27.27,0,0,1-.26-.27Z"/><path class="cls-4" d="M217.7,72.52a2.56,2.56,0,0,1,2.07,1,.26.26,0,0,1-.07.39l-.64.62c-.13.11-.25,0-.35,0a1.31,1.31,0,0,0-1-.45,1.4,1.4,0,0,0-1.37,1.43,1.38,1.38,0,0,0,1.36,1.43,1.45,1.45,0,0,0,1.12-.54.28.28,0,0,1,.35,0l.6.52c.14.11.2.25.1.39a2.49,2.49,0,0,1-2.21,1.18,3,3,0,0,1-3-2.94A3,3,0,0,1,217.7,72.52Z"/><path class="cls-4" d="M223,74.72a3.66,3.66,0,0,1,1,.15c0-.71-.21-1-.73-1a6.71,6.71,0,0,0-1.57.21c-.19.06-.29-.07-.32-.25l-.12-.73a.27.27,0,0,1,.19-.35,7.73,7.73,0,0,1,1.91-.26c1.75,0,2.15.91,2.15,2.43v3a.27.27,0,0,1-.26.27h-.51c-.09,0-.16,0-.23-.2l-.17-.38a2.4,2.4,0,0,1-1.71.72,1.79,1.79,0,0,1-1.89-1.92C220.71,75.49,221.52,74.72,223,74.72Zm0,2.49a1.26,1.26,0,0,0,1-.55v-.77a2.11,2.11,0,0,0-.78-.17c-.55,0-.91.31-.91.76A.7.7,0,0,0,223,77.21Z"/><path class="cls-4" d="M227.39,74.13h-.48a.27.27,0,0,1-.25-.27v-.94a.25.25,0,0,1,.25-.26h.48V71.1a.26.26,0,0,1,.26-.26l1.15,0a.27.27,0,0,1,.25.27v1.57h1.24a.25.25,0,0,1,.26.26v.94a.27.27,0,0,1-.26.27h-1.24v2.24c0,.39.21.45.44.45a2.06,2.06,0,0,0,.68-.16.22.22,0,0,1,.31.16l.28.88a.25.25,0,0,1-.15.34,5.37,5.37,0,0,1-1.67.36c-1.08,0-1.55-.67-1.55-1.81Z"/><path class="cls-4" d="M231.8,69.7a1,1,0,0,1,.95-1,1,1,0,1,1,0,1.94A1,1,0,0,1,231.8,69.7Zm.12,3.22a.27.27,0,0,1,.27-.26h1.16a.27.27,0,0,1,.27.26V78a.28.28,0,0,1-.27.27h-1.16a.28.28,0,0,1-.27-.27Z"/><path class="cls-4" d="M237.73,72.52a2.94,2.94,0,1,1-2.87,2.92A2.91,2.91,0,0,1,237.73,72.52Zm0,4.37a1.4,1.4,0,0,0,1.35-1.45,1.35,1.35,0,1,0-2.69,0A1.39,1.39,0,0,0,237.73,76.89Z"/><path class="cls-4" d="M241.85,72.92a.26.26,0,0,1,.26-.26h.54a.24.24,0,0,1,.23.16l.2.52a2.79,2.79,0,0,1,2-.82c1.77,0,2.49,1.33,2.49,2.78V78a.28.28,0,0,1-.27.27h-1.15a.27.27,0,0,1-.26-.27V75.22c0-.73-.38-1.19-1.05-1.19a1.41,1.41,0,0,0-1.32.88V78c0,.2-.08.27-.35.27h-1a.27.27,0,0,1-.26-.27Z"/><path class="cls-4" d="M248.81,77.59l.37-.76a.22.22,0,0,1,.33-.1,3.09,3.09,0,0,0,1.27.34c.28,0,.48-.11.48-.35s-.2-.41-.94-.7c-1.08-.42-1.59-1-1.59-1.85s.64-1.65,2.06-1.65a3.23,3.23,0,0,1,1.73.43.3.3,0,0,1,.12.38l-.35.71a.26.26,0,0,1-.33.1,3.36,3.36,0,0,0-1.17-.29c-.33,0-.47.14-.47.32s.25.34.77.55c1.08.42,1.89.88,1.89,2,0,.92-.81,1.71-2.23,1.71a3.19,3.19,0,0,1-1.86-.52A.23.23,0,0,1,248.81,77.59Z"/><line class="cls-1" x1="392.47" y1="50.54" x2="403.86" y2="50.54"/><polygon class="cls-2" points="401.88 57.29 413.57 50.54 401.88 43.79 401.88 57.29"/><circle class="cls-2" cx="467.72" cy="50.54" r="50.54"/><path class="cls-4" d="M447.47,17.31a5.26,5.26,0,0,1,3.42,1.31.27.27,0,0,1,0,.39l-.87.91a.24.24,0,0,1-.36,0,3.19,3.19,0,1,0-2.1,5.64,4.21,4.21,0,0,0,1.66-.35V24h-1.12a.25.25,0,0,1-.26-.25v-1.1a.25.25,0,0,1,.26-.27h2.69a.27.27,0,0,1,.26.27v3.58a.26.26,0,0,1-.12.22,7.06,7.06,0,0,1-3.47.91,5,5,0,0,1,0-10.07Z"/><path class="cls-4" d="M452.52,21.92a.27.27,0,0,1,.27-.26h.53a.26.26,0,0,1,.25.18l.2.54a1.93,1.93,0,0,1,1.58-.86c.66,0,1.25.21,1.08.56l-.52.91a.25.25,0,0,1-.32.12,1.7,1.7,0,0,0-.41-.08,1.14,1.14,0,0,0-1,.57V27c0,.2-.13.27-.32.27h-1.08a.28.28,0,0,1-.27-.27Z"/><path class="cls-4" d="M459.69,21.52a2.94,2.94,0,1,1-2.87,2.92A2.92,2.92,0,0,1,459.69,21.52Zm0,4.37A1.4,1.4,0,0,0,461,24.44a1.34,1.34,0,1,0-1.34,1.45Z"/><path class="cls-4" d="M463.71,21.92a.26.26,0,0,1,.26-.26h1.15a.27.27,0,0,1,.27.26v2.76c0,.74.38,1.21,1,1.21a1.23,1.23,0,0,0,1.12-1.05V21.92c0-.21.08-.26.31-.26h1.06a.27.27,0,0,1,.27.26V27a.28.28,0,0,1-.27.27h-.51a.29.29,0,0,1-.27-.21l-.17-.46a2.52,2.52,0,0,1-1.88.81c-1.73,0-2.36-1.33-2.36-2.76Z"/><path class="cls-4" d="M472.57,31.2c0,.16-.08.26-.34.26h-1.12a.26.26,0,0,1-.26-.26V21.92a.26.26,0,0,1,.26-.26h.55a.25.25,0,0,1,.24.16l.18.47a2.43,2.43,0,0,1,1.81-.77,2.8,2.8,0,0,1,2.7,2.94,2.76,2.76,0,0,1-4,2.63Zm1-5.31A1.38,1.38,0,0,0,475,24.46a1.34,1.34,0,0,0-1.3-1.43,1.2,1.2,0,0,0-1.15.85v1.68A1.77,1.77,0,0,0,473.59,25.89Z"/><path class="cls-4" d="M480.94,17.72a.28.28,0,0,1,.27-.27h1.19a.27.27,0,0,1,.26.27v4.05a3.39,3.39,0,0,1,1.25-.25,2.76,2.76,0,0,1,2.77,2.94A2.8,2.8,0,0,1,484,27.4a2.46,2.46,0,0,1-1.83-.84L482,27c0,.16-.14.27-.27.27h-.54a.28.28,0,0,1-.27-.27Zm2.84,8.17a1.34,1.34,0,0,0,1.28-1.43A1.38,1.38,0,0,0,483.7,23a1.81,1.81,0,0,0-1.09.32V25A1.22,1.22,0,0,0,483.78,25.89Z"/><path class="cls-4" d="M487.21,22a.25.25,0,0,1,.24-.36h1.26a.25.25,0,0,1,.24.15L490.36,25h0l1.4-3.17c.07-.14.17-.15.33-.15h1.13a.23.23,0,0,1,.23.36l-4.28,9.27a.27.27,0,0,1-.24.17h-1.21a.25.25,0,0,1-.23-.38l2-4.21Z"/><path class="cls-4" d="M440,34.72a.27.27,0,0,1,.27-.27h5.7a.27.27,0,0,1,.26.27v1.15a.26.26,0,0,1-.26.26h-4.15v2.3h3.46a.28.28,0,0,1,.27.27v1.16a.28.28,0,0,1-.27.27h-3.46v2.45h4.15a.26.26,0,0,1,.26.26V44a.27.27,0,0,1-.26.27h-5.7A.27.27,0,0,1,440,44Z"/><path class="cls-4" d="M447.52,38.92a.26.26,0,0,1,.26-.26h.54a.24.24,0,0,1,.23.16l.2.52a2.78,2.78,0,0,1,2-.82c1.78,0,2.5,1.33,2.5,2.78V44a.28.28,0,0,1-.27.27H451.8a.27.27,0,0,1-.26-.27V41.22c0-.73-.38-1.19-1.05-1.19a1.41,1.41,0,0,0-1.32.88V44c0,.2-.08.27-.35.27h-1a.27.27,0,0,1-.26-.27Z"/><path class="cls-4" d="M455,40.13h-.47a.27.27,0,0,1-.25-.27v-.94a.25.25,0,0,1,.25-.26H455V37.1a.27.27,0,0,1,.27-.26l1.15,0a.27.27,0,0,1,.25.27v1.57h1.23a.25.25,0,0,1,.27.26v.94a.27.27,0,0,1-.27.27H456.7v2.24c0,.39.21.45.44.45a2.12,2.12,0,0,0,.68-.16.22.22,0,0,1,.31.16l.28.88a.25.25,0,0,1-.15.34,5.37,5.37,0,0,1-1.67.36c-1.08,0-1.56-.67-1.56-1.81Z"/><path class="cls-4" d="M459.44,35.7a1,1,0,0,1,1-1,1,1,0,1,1,0,1.94A1,1,0,0,1,459.44,35.7Zm.13,3.22a.27.27,0,0,1,.27-.26H461a.27.27,0,0,1,.27.26V44a.28.28,0,0,1-.27.27h-1.16a.28.28,0,0,1-.27-.27Z"/><path class="cls-4" d="M463.24,40.13h-.48a.27.27,0,0,1-.25-.27v-.94a.25.25,0,0,1,.25-.26h.48V37.1a.26.26,0,0,1,.26-.26l1.15,0a.27.27,0,0,1,.26.27v1.57h1.23a.25.25,0,0,1,.26.26v.94a.27.27,0,0,1-.26.27h-1.23v2.24c0,.39.21.45.43.45a2.19,2.19,0,0,0,.69-.16.22.22,0,0,1,.3.16l.28.88a.25.25,0,0,1-.15.34,5.37,5.37,0,0,1-1.67.36c-1.07,0-1.55-.67-1.55-1.81Z"/><path class="cls-4" d="M467.05,39a.24.24,0,0,1,.23-.36h1.27a.25.25,0,0,1,.23.15L470.2,42h0l1.4-3.17c.07-.14.17-.15.34-.15h1.12c.22,0,.34.18.24.36L469,48.29a.26.26,0,0,1-.24.17h-1.2a.25.25,0,0,1-.24-.38l2-4.21Z"/><path class="cls-4" d="M479.19,40.72a3.66,3.66,0,0,1,1,.15c0-.71-.21-1-.73-1a6.63,6.63,0,0,0-1.57.21c-.19.06-.29-.07-.32-.25l-.13-.73a.27.27,0,0,1,.2-.35,7.71,7.71,0,0,1,1.9-.26c1.76,0,2.16.91,2.16,2.43v3a.28.28,0,0,1-.27.27H481c-.1,0-.17,0-.24-.2l-.17-.38a2.37,2.37,0,0,1-1.7.72,1.8,1.8,0,0,1-1.9-1.92C476.94,41.49,477.76,40.72,479.19,40.72Zm0,2.49a1.29,1.29,0,0,0,1-.55v-.77a2.18,2.18,0,0,0-.78-.17c-.55,0-.92.31-.92.76A.7.7,0,0,0,479.21,43.21Z"/><path class="cls-4" d="M483.33,38.92a.26.26,0,0,1,.26-.26h.54a.24.24,0,0,1,.23.16l.2.52a2.79,2.79,0,0,1,2-.82c1.78,0,2.49,1.33,2.49,2.78V44a.28.28,0,0,1-.27.27h-1.15a.27.27,0,0,1-.26-.27V41.22c0-.73-.38-1.19-1.05-1.19a1.41,1.41,0,0,0-1.32.88V44c0,.2-.08.27-.35.27h-1a.27.27,0,0,1-.26-.27Z"/><path class="cls-4" d="M493,38.52a3.28,3.28,0,0,1,1.24.25V34.72a.28.28,0,0,1,.27-.27h1.19a.28.28,0,0,1,.27.27V44a.28.28,0,0,1-.27.27h-.55c-.12,0-.22-.11-.26-.27l-.14-.43a2.47,2.47,0,0,1-1.84.84,2.81,2.81,0,0,1-2.69-2.94A2.77,2.77,0,0,1,493,38.52Zm.12,4.37a1.23,1.23,0,0,0,1.18-.91V40.35a1.81,1.81,0,0,0-1.09-.32,1.37,1.37,0,0,0-1.36,1.43A1.34,1.34,0,0,0,493.07,42.89Z"/><path class="cls-4" d="M437.63,51.72a.27.27,0,0,1,.27-.27h3.29a3.13,3.13,0,1,1,0,6.25h-1.75V61a.27.27,0,0,1-.26.27H437.9a.27.27,0,0,1-.27-.27ZM441.08,56a1.44,1.44,0,0,0,1.44-1.45,1.39,1.39,0,0,0-1.44-1.36h-1.63V56Z"/><path class="cls-4" d="M445.07,55.92a.26.26,0,0,1,.26-.26h1.15a.27.27,0,0,1,.27.26v2.76c0,.74.38,1.21,1,1.21a1.23,1.23,0,0,0,1.12-1V55.92c0-.21.08-.26.31-.26h1.06a.27.27,0,0,1,.27.26V61a.28.28,0,0,1-.27.27h-.52a.29.29,0,0,1-.26-.21l-.17-.46a2.52,2.52,0,0,1-1.88.81c-1.73,0-2.36-1.33-2.36-2.76Z"/><path class="cls-4" d="M452.21,51.72a.27.27,0,0,1,.26-.27h1.19a.28.28,0,0,1,.27.27v4.05a3.35,3.35,0,0,1,1.25-.25A2.77,2.77,0,0,1,458,58.46a2.8,2.8,0,0,1-2.69,2.94,2.43,2.43,0,0,1-1.83-.84l-.15.43c0,.16-.13.27-.26.27h-.55a.27.27,0,0,1-.26-.27Zm2.84,8.17a1.34,1.34,0,0,0,1.27-1.43A1.37,1.37,0,0,0,455,57a1.86,1.86,0,0,0-1.1.32V59A1.24,1.24,0,0,0,455.05,59.89Z"/><path class="cls-4" d="M459.21,51.72a.27.27,0,0,1,.26-.27h1.18a.28.28,0,0,1,.27.27V61a.28.28,0,0,1-.27.27h-1.18a.27.27,0,0,1-.26-.27Z"/><path class="cls-4" d="M462.47,52.7a1,1,0,0,1,.95-1,1,1,0,1,1,0,1.94A1,1,0,0,1,462.47,52.7Zm.12,3.22a.27.27,0,0,1,.27-.26H464a.27.27,0,0,1,.27.26V61a.28.28,0,0,1-.27.27h-1.16a.28.28,0,0,1-.27-.27Z"/><path class="cls-4" d="M468.52,55.52a2.56,2.56,0,0,1,2.07,1,.26.26,0,0,1-.07.39l-.64.62a.25.25,0,0,1-.35,0,1.31,1.31,0,0,0-1-.45,1.4,1.4,0,0,0-1.37,1.43,1.38,1.38,0,0,0,1.36,1.43,1.47,1.47,0,0,0,1.12-.54.27.27,0,0,1,.35,0l.6.52c.14.11.2.25.1.39a2.49,2.49,0,0,1-2.22,1.18,3,3,0,0,1-3-2.94A3,3,0,0,1,468.52,55.52Z"/><path class="cls-4" d="M473.77,57.72a3.66,3.66,0,0,1,1,.15c0-.71-.21-1-.73-1a6.63,6.63,0,0,0-1.57.21c-.19.06-.29-.07-.32-.25l-.13-.73a.27.27,0,0,1,.2-.35,7.73,7.73,0,0,1,1.91-.26c1.75,0,2.15.91,2.15,2.43v3a.27.27,0,0,1-.26.27h-.51c-.1,0-.17,0-.24-.2l-.16-.38a2.42,2.42,0,0,1-1.71.72,1.79,1.79,0,0,1-1.89-1.92C471.53,58.49,472.34,57.72,473.77,57.72Zm0,2.49a1.29,1.29,0,0,0,1-.55v-.77a2.18,2.18,0,0,0-.78-.17c-.55,0-.91.31-.91.76A.7.7,0,0,0,473.79,60.21Z"/><path class="cls-4" d="M478.2,57.13h-.47a.27.27,0,0,1-.25-.27v-.94a.25.25,0,0,1,.25-.26h.47V54.1a.27.27,0,0,1,.27-.26l1.15,0a.27.27,0,0,1,.25.27v1.57h1.23a.25.25,0,0,1,.27.26v.94a.27.27,0,0,1-.27.27h-1.23v2.24c0,.39.21.45.43.45a2.12,2.12,0,0,0,.69-.16.22.22,0,0,1,.31.16l.28.88a.25.25,0,0,1-.15.34,5.45,5.45,0,0,1-1.67.36c-1.08,0-1.56-.67-1.56-1.81Z"/><path class="cls-4" d="M482.61,52.7a1,1,0,0,1,1-1,1,1,0,1,1,0,1.94A1,1,0,0,1,482.61,52.7Zm.13,3.22a.27.27,0,0,1,.27-.26h1.16a.26.26,0,0,1,.26.26V61a.27.27,0,0,1-.26.27H483a.28.28,0,0,1-.27-.27Z"/><path class="cls-4" d="M488.55,55.52a2.94,2.94,0,1,1-2.87,2.92A2.92,2.92,0,0,1,488.55,55.52Zm0,4.37a1.41,1.41,0,0,0,1.35-1.45A1.38,1.38,0,0,0,488.55,57a1.36,1.36,0,0,0-1.34,1.41A1.39,1.39,0,0,0,488.55,59.89Z"/><path class="cls-4" d="M492.67,55.92a.26.26,0,0,1,.26-.26h.53a.24.24,0,0,1,.24.16l.2.52a2.76,2.76,0,0,1,2-.82c1.78,0,2.5,1.33,2.5,2.78V61a.28.28,0,0,1-.27.27H497a.27.27,0,0,1-.26-.27V58.22c0-.73-.38-1.19-1.05-1.19a1.41,1.41,0,0,0-1.32.88V61c0,.2-.09.27-.35.27h-1a.27.27,0,0,1-.26-.27Z"/><path class="cls-4" d="M459.12,73.54l-3.2-4.68a.26.26,0,0,1,.23-.41h1.43a.26.26,0,0,1,.22.13L460,71.8l2.24-3.22a.27.27,0,0,1,.23-.13H464a.26.26,0,0,1,.22.41l-3.23,4.66V78a.28.28,0,0,1-.27.27h-1.29a.27.27,0,0,1-.26-.27Z"/><path class="cls-4" d="M465.78,72.52a2.57,2.57,0,0,1,2.62,2.6,2.43,2.43,0,0,1,0,.38.27.27,0,0,1-.26.24h-3.59A1.34,1.34,0,0,0,465.86,77a2,2,0,0,0,1.1-.35c.14-.09.26-.12.36,0l.58.65a.24.24,0,0,1,0,.37,3,3,0,0,1-2.09.77,2.94,2.94,0,0,1,0-5.88Zm1,2.24a1,1,0,0,0-1-1,1.1,1.1,0,0,0-1.09,1Z"/><path class="cls-4" d="M471.41,74.72a3.66,3.66,0,0,1,1,.15c0-.71-.21-1-.73-1a6.63,6.63,0,0,0-1.57.21c-.19.06-.29-.07-.32-.25l-.13-.73a.27.27,0,0,1,.2-.35,7.73,7.73,0,0,1,1.91-.26c1.75,0,2.15.91,2.15,2.43v3a.27.27,0,0,1-.26.27h-.51c-.1,0-.17,0-.24-.2l-.16-.38a2.4,2.4,0,0,1-1.71.72,1.79,1.79,0,0,1-1.89-1.92C469.17,75.49,470,74.72,471.41,74.72Zm0,2.49a1.28,1.28,0,0,0,1-.55v-.77a2.18,2.18,0,0,0-.78-.17c-.55,0-.91.31-.91.76A.7.7,0,0,0,471.44,77.21Z"/><path class="cls-4" d="M475.55,72.92a.27.27,0,0,1,.27-.26h.53a.26.26,0,0,1,.25.18l.2.54a1.93,1.93,0,0,1,1.58-.86c.66,0,1.25.21,1.08.56l-.52.91a.25.25,0,0,1-.32.12,1.7,1.7,0,0,0-.41-.08,1.14,1.14,0,0,0-1,.57V78c0,.2-.13.27-.32.27h-1.08a.28.28,0,0,1-.27-.27Z"/><line class="cls-1" x1="518.26" y1="50.54" x2="529.65" y2="50.54"/><polygon class="cls-2" points="527.68 57.29 539.37 50.54 527.68 43.79 527.68 57.29"/><line class="cls-1" x1="644.06" y1="50.54" x2="655.45" y2="50.54"/><polygon class="cls-2" points="653.47 57.29 665.16 50.54 653.47 43.79 653.47 57.29"/><circle class="cls-2" cx="593.52" cy="50.54" r="50.54"/><path class="cls-4" d="M565.22,26.89l4.35-9.42a.25.25,0,0,1,.24-.16H570a.24.24,0,0,1,.24.16l4.31,9.42a.24.24,0,0,1-.23.37h-1.22a.4.4,0,0,1-.41-.28L572,25.47h-4.18L567.08,27a.43.43,0,0,1-.41.28h-1.22A.24.24,0,0,1,565.22,26.89Zm6-3-1.4-3.08h0l-1.37,3.08Z"/><path class="cls-4" d="M575.8,25.27a2.11,2.11,0,0,1-.42-1.32,2.43,2.43,0,0,1,2.44-2.43h2.55a.25.25,0,0,1,.26.26v.46a.24.24,0,0,1-.15.24l-.78.25a1.84,1.84,0,0,1,.56,1.43,2.28,2.28,0,0,1-2.4,2.2c-.53,0-.9-.11-1.12-.11a.56.56,0,0,0-.52.53.5.5,0,0,0,.56.48h1.79a2.07,2.07,0,0,1,2.32,2c0,1.29-1,2.38-3.07,2.38s-2.86-1-2.86-1.92a1.59,1.59,0,0,1,.84-1.33v0a1.51,1.51,0,0,1-1-1.47A1.85,1.85,0,0,1,575.8,25.27Zm2,4.93c.79,0,1.31-.35,1.31-.88,0-.25-.2-.69-1-.69a7,7,0,0,0-.91.06c-.16,0-.6.25-.6.68S577.05,30.2,577.8,30.2Zm.06-5.17a1,1,0,0,0,0-2,1,1,0,0,0,0,2Z"/><path class="cls-4" d="M582.19,25.27a2.11,2.11,0,0,1-.42-1.32,2.43,2.43,0,0,1,2.43-2.43h2.55a.25.25,0,0,1,.27.26v.46a.25.25,0,0,1-.16.24l-.78.25a1.84,1.84,0,0,1,.56,1.43,2.28,2.28,0,0,1-2.4,2.2c-.53,0-.89-.11-1.12-.11a.56.56,0,0,0-.51.53.5.5,0,0,0,.56.48H585a2.07,2.07,0,0,1,2.31,2c0,1.29-1,2.38-3.07,2.38s-2.86-1-2.86-1.92a1.59,1.59,0,0,1,.85-1.33v0a1.52,1.52,0,0,1-1.06-1.47A1.86,1.86,0,0,1,582.19,25.27Zm2,4.93c.78,0,1.3-.35,1.3-.88,0-.25-.2-.69-1-.69a6.73,6.73,0,0,0-.91.06c-.17,0-.6.25-.6.68S583.43,30.2,584.19,30.2Zm0-5.17a1,1,0,0,0,0-2,1,1,0,0,0,0,2Z"/><path class="cls-4" d="M588.19,21.92a.27.27,0,0,1,.27-.26H589a.26.26,0,0,1,.25.18l.2.54a1.93,1.93,0,0,1,1.58-.86c.66,0,1.25.21,1.08.56l-.52.91a.25.25,0,0,1-.32.12,1.7,1.7,0,0,0-.41-.08,1.14,1.14,0,0,0-1,.57V27c0,.2-.13.27-.32.27h-1.08a.28.28,0,0,1-.27-.27Z"/><path class="cls-4" d="M595.36,21.52a2.57,2.57,0,0,1,2.62,2.6c0,.1,0,.28,0,.38a.27.27,0,0,1-.27.24H594.1A1.34,1.34,0,0,0,595.44,26a2,2,0,0,0,1.1-.35c.14-.09.26-.12.36,0l.57.65a.24.24,0,0,1,0,.37,3,3,0,0,1-2.09.77,2.94,2.94,0,0,1,0-5.88Zm1,2.24a1,1,0,0,0-1-1,1.09,1.09,0,0,0-1.09,1Z"/><path class="cls-4" d="M599.61,25.27a2.11,2.11,0,0,1-.42-1.32,2.43,2.43,0,0,1,2.44-2.43h2.55a.26.26,0,0,1,.27.26v.46a.25.25,0,0,1-.16.24l-.78.25a1.84,1.84,0,0,1,.56,1.43,2.28,2.28,0,0,1-2.4,2.2c-.53,0-.89-.11-1.12-.11a.57.57,0,0,0-.52.53.51.51,0,0,0,.56.48h1.8a2.07,2.07,0,0,1,2.31,2c0,1.29-1,2.38-3.07,2.38s-2.86-1-2.86-1.92a1.59,1.59,0,0,1,.84-1.33v0a1.53,1.53,0,0,1-1.05-1.47A1.85,1.85,0,0,1,599.61,25.27Zm2,4.93c.78,0,1.3-.35,1.3-.88,0-.25-.2-.69-1-.69a6.73,6.73,0,0,0-.91.06c-.17,0-.61.25-.61.68S600.86,30.2,601.62,30.2Zm0-5.17a1,1,0,0,0,0-2,1,1,0,0,0,0,2Z"/><path class="cls-4" d="M607.45,23.72a3.78,3.78,0,0,1,1,.15c0-.71-.21-1-.73-1a6.63,6.63,0,0,0-1.57.21c-.2.06-.29-.07-.32-.25l-.13-.73a.27.27,0,0,1,.2-.35,7.71,7.71,0,0,1,1.9-.26c1.75,0,2.16.91,2.16,2.43v3a.28.28,0,0,1-.27.27h-.5c-.1,0-.17,0-.24-.2l-.17-.38a2.38,2.38,0,0,1-1.71.72,1.79,1.79,0,0,1-1.89-1.92C605.21,24.49,606,23.72,607.45,23.72Zm0,2.49a1.31,1.31,0,0,0,1-.55v-.77a2.2,2.2,0,0,0-.79-.17c-.54,0-.91.31-.91.76A.7.7,0,0,0,607.48,26.21Z"/><path class="cls-4" d="M611.89,23.13h-.48a.27.27,0,0,1-.25-.27v-.94a.25.25,0,0,1,.25-.26h.48V20.1a.27.27,0,0,1,.27-.26l1.15,0a.27.27,0,0,1,.25.27v1.57h1.23a.26.26,0,0,1,.27.26v.94a.28.28,0,0,1-.27.27h-1.23v2.24c0,.39.21.45.43.45a2.19,2.19,0,0,0,.69-.16.23.23,0,0,1,.31.16l.28.88a.27.27,0,0,1-.16.34,5.36,5.36,0,0,1-1.66.36c-1.08,0-1.56-.67-1.56-1.81Z"/><path class="cls-4" d="M618.86,21.52a2.56,2.56,0,0,1,2.62,2.6c0,.1,0,.28,0,.38a.28.28,0,0,1-.27.24H617.6A1.35,1.35,0,0,0,619,26a2,2,0,0,0,1.09-.35c.14-.09.27-.12.36,0l.58.65a.24.24,0,0,1,0,.37,3.06,3.06,0,0,1-2.09.77,2.94,2.94,0,0,1,0-5.88Zm1,2.24a1,1,0,0,0-1-1,1.1,1.1,0,0,0-1.09,1Z"/><path class="cls-4" d="M579,34.31a5.26,5.26,0,0,1,3.42,1.31.26.26,0,0,1,0,.39l-.86.91a.25.25,0,0,1-.37,0,3.17,3.17,0,0,0-2.11-.81,3.23,3.23,0,0,0,0,6.45,4.27,4.27,0,0,0,1.67-.35V41h-1.12a.25.25,0,0,1-.27-.25v-1.1a.26.26,0,0,1,.27-.27h2.69a.26.26,0,0,1,.25.27v3.58a.28.28,0,0,1-.11.22,7.12,7.12,0,0,1-3.48.91,5,5,0,0,1,0-10.07Z"/><path class="cls-4" d="M584.05,38.92a.27.27,0,0,1,.27-.26h.53a.25.25,0,0,1,.25.18l.2.54a2,2,0,0,1,1.58-.86c.66,0,1.25.21,1.08.56l-.52.91a.25.25,0,0,1-.32.12,1.71,1.71,0,0,0-.4-.08,1.14,1.14,0,0,0-1,.57V44c0,.2-.13.27-.32.27h-1.08a.28.28,0,0,1-.27-.27Z"/><path class="cls-4" d="M591.22,38.52a2.94,2.94,0,1,1-2.87,2.92A2.91,2.91,0,0,1,591.22,38.52Zm0,4.37a1.4,1.4,0,0,0,1.35-1.45,1.35,1.35,0,1,0-2.69,0A1.39,1.39,0,0,0,591.22,42.89Z"/><path class="cls-4" d="M595.24,38.92a.26.26,0,0,1,.27-.26h1.14a.27.27,0,0,1,.27.26v2.76c0,.74.38,1.21,1,1.21a1.23,1.23,0,0,0,1.12-1V38.92c0-.21.09-.26.31-.26h1.07a.26.26,0,0,1,.26.26V44a.27.27,0,0,1-.26.27h-.52a.29.29,0,0,1-.27-.21l-.17-.46a2.51,2.51,0,0,1-1.87.81c-1.74,0-2.37-1.33-2.37-2.76Z"/><path class="cls-4" d="M604.1,48.2c0,.16-.08.26-.33.26h-1.12a.27.27,0,0,1-.27-.26V38.92a.27.27,0,0,1,.27-.26h.54a.25.25,0,0,1,.24.16l.18.47a2.43,2.43,0,0,1,1.81-.77,2.8,2.8,0,0,1,2.7,2.94,2.76,2.76,0,0,1-4,2.63Zm1-5.31a1.38,1.38,0,0,0,1.36-1.43,1.34,1.34,0,0,0-1.3-1.43,1.22,1.22,0,0,0-1.15.85v1.68A1.77,1.77,0,0,0,605.12,42.89Z"/><path class="cls-4" d="M609.07,43.59l.38-.76a.21.21,0,0,1,.32-.1,3.1,3.1,0,0,0,1.28.34c.28,0,.47-.11.47-.35s-.19-.41-.94-.7c-1.07-.42-1.58-1-1.58-1.85s.63-1.65,2.06-1.65a3.16,3.16,0,0,1,1.72.43.3.3,0,0,1,.13.38l-.35.71a.27.27,0,0,1-.34.1,3.35,3.35,0,0,0-1.16-.29c-.34,0-.48.14-.48.32s.26.34.77.55c1.08.42,1.89.88,1.89,2,0,.92-.81,1.71-2.22,1.71a3.23,3.23,0,0,1-1.87-.52A.25.25,0,0,1,609.07,43.59Z"/><path class="cls-4" d="M583.24,52.7a1,1,0,0,1,1-1,1,1,0,1,1,0,1.94A1,1,0,0,1,583.24,52.7Zm.13,3.22a.26.26,0,0,1,.26-.26h1.17a.26.26,0,0,1,.26.26V61a.27.27,0,0,1-.26.27h-1.17a.27.27,0,0,1-.26-.27Z"/><path class="cls-4" d="M586.74,55.92a.27.27,0,0,1,.27-.26h.53a.24.24,0,0,1,.24.16l.19.52a2.79,2.79,0,0,1,2-.82c1.78,0,2.49,1.33,2.49,2.78V61a.27.27,0,0,1-.26.27H591a.27.27,0,0,1-.27-.27V58.22c0-.73-.38-1.19-1-1.19a1.41,1.41,0,0,0-1.32.88V61c0,.2-.08.27-.35.27h-1a.28.28,0,0,1-.27-.27Z"/><path class="cls-4" d="M594.26,57.13h-.48a.27.27,0,0,1-.25-.27v-.94a.25.25,0,0,1,.25-.26h.48V54.1a.27.27,0,0,1,.26-.26l1.15,0a.27.27,0,0,1,.26.27v1.57h1.23a.26.26,0,0,1,.27.26v.94a.28.28,0,0,1-.27.27h-1.23v2.24c0,.39.21.45.43.45a2.19,2.19,0,0,0,.69-.16.23.23,0,0,1,.31.16l.28.88a.27.27,0,0,1-.16.34,5.37,5.37,0,0,1-1.67.36c-1.07,0-1.55-.67-1.55-1.81Z"/><path class="cls-4" d="M601.23,55.52a2.94,2.94,0,1,1-2.87,2.92A2.91,2.91,0,0,1,601.23,55.52Zm0,4.37a1.4,1.4,0,0,0,1.35-1.45,1.35,1.35,0,1,0-2.69,0A1.39,1.39,0,0,0,601.23,59.89Z"/><path class="cls-4" d="M568.84,76.89l.51-.87a.31.31,0,0,1,.47-.1,4.69,4.69,0,0,0,2.12.87,1.17,1.17,0,0,0,1.27-1.08c0-.71-.6-1.2-1.77-1.68-1.32-.53-2.64-1.37-2.64-3,0-1.24.93-2.69,3.15-2.69a4.92,4.92,0,0,1,2.8.94.35.35,0,0,1,.09.47l-.53.79c-.12.17-.33.28-.49.17a4.68,4.68,0,0,0-2-.77,1.11,1.11,0,0,0-1.23,1c0,.66.51,1.11,1.65,1.57,1.36.55,2.93,1.36,2.93,3.17A3,3,0,0,1,572,78.4a4.56,4.56,0,0,1-3.09-1.09C568.79,77.18,568.72,77.11,568.84,76.89Z"/><path class="cls-4" d="M576.66,74.13h-.48a.27.27,0,0,1-.25-.27v-.94a.25.25,0,0,1,.25-.26h.48V71.1a.26.26,0,0,1,.26-.26l1.15,0a.27.27,0,0,1,.25.27v1.57h1.24a.25.25,0,0,1,.26.26v.94a.27.27,0,0,1-.26.27h-1.24v2.24c0,.39.21.45.44.45a2.12,2.12,0,0,0,.68-.16.22.22,0,0,1,.31.16l.28.88a.25.25,0,0,1-.15.34,5.37,5.37,0,0,1-1.67.36c-1.08,0-1.55-.67-1.55-1.81Z"/><path class="cls-4" d="M583,74.72a3.66,3.66,0,0,1,1,.15c0-.71-.21-1-.73-1a6.63,6.63,0,0,0-1.57.21c-.19.06-.29-.07-.32-.25l-.13-.73a.27.27,0,0,1,.2-.35,7.71,7.71,0,0,1,1.9-.26c1.76,0,2.16.91,2.16,2.43v3a.27.27,0,0,1-.26.27h-.51c-.1,0-.17,0-.24-.2l-.16-.38a2.42,2.42,0,0,1-1.71.72,1.79,1.79,0,0,1-1.89-1.92C580.79,75.49,581.6,74.72,583,74.72Zm0,2.49a1.29,1.29,0,0,0,1-.55v-.77a2.18,2.18,0,0,0-.78-.17c-.55,0-.91.31-.91.76A.7.7,0,0,0,583.05,77.21Z"/><path class="cls-4" d="M587.46,74.13H587a.27.27,0,0,1-.26-.27v-.94a.26.26,0,0,1,.26-.26h.47V71.1a.27.27,0,0,1,.27-.26l1.15,0a.27.27,0,0,1,.25.27v1.57h1.23a.25.25,0,0,1,.27.26v.94a.27.27,0,0,1-.27.27h-1.23v2.24c0,.39.21.45.43.45a2.12,2.12,0,0,0,.69-.16.23.23,0,0,1,.31.16l.28.88a.26.26,0,0,1-.15.34,5.53,5.53,0,0,1-1.67.36c-1.08,0-1.56-.67-1.56-1.81Z"/><path class="cls-4" d="M591.87,69.7a1,1,0,0,1,1-1,1,1,0,1,1,0,1.94A1,1,0,0,1,591.87,69.7Zm.13,3.22a.27.27,0,0,1,.27-.26h1.16a.26.26,0,0,1,.26.26V78a.27.27,0,0,1-.26.27h-1.16A.28.28,0,0,1,592,78Z"/><path class="cls-4" d="M595.07,77.59l.37-.76a.22.22,0,0,1,.33-.1,3.09,3.09,0,0,0,1.27.34c.28,0,.48-.11.48-.35s-.2-.41-.94-.7c-1.08-.42-1.59-1-1.59-1.85s.64-1.65,2.06-1.65a3.23,3.23,0,0,1,1.73.43.3.3,0,0,1,.12.38l-.35.71a.26.26,0,0,1-.33.1,3.36,3.36,0,0,0-1.17-.29c-.33,0-.47.14-.47.32s.25.34.77.55c1.08.42,1.89.88,1.89,2,0,.92-.81,1.71-2.23,1.71a3.19,3.19,0,0,1-1.86-.52A.23.23,0,0,1,595.07,77.59Z"/><path class="cls-4" d="M600.76,74.13h-.47a.27.27,0,0,1-.26-.27v-.94a.26.26,0,0,1,.26-.26h.47V71.1a.27.27,0,0,1,.27-.26l1.15,0a.27.27,0,0,1,.25.27v1.57h1.23a.25.25,0,0,1,.27.26v.94a.27.27,0,0,1-.27.27h-1.23v2.24c0,.39.21.45.43.45a2.12,2.12,0,0,0,.69-.16.23.23,0,0,1,.31.16l.28.88A.27.27,0,0,1,604,78a5.36,5.36,0,0,1-1.66.36c-1.08,0-1.56-.67-1.56-1.81Z"/><path class="cls-4" d="M605.17,69.7a1,1,0,0,1,1-1,1,1,0,1,1,0,1.94A1,1,0,0,1,605.17,69.7Zm.13,3.22a.27.27,0,0,1,.27-.26h1.16a.26.26,0,0,1,.26.26V78a.27.27,0,0,1-.26.27h-1.16a.28.28,0,0,1-.27-.27Z"/><path class="cls-4" d="M611.22,72.52a2.59,2.59,0,0,1,2.08,1,.27.27,0,0,1-.07.39l-.65.62c-.13.11-.25,0-.35,0a1.28,1.28,0,0,0-1-.45,1.41,1.41,0,0,0-1.37,1.43,1.38,1.38,0,0,0,1.36,1.43,1.45,1.45,0,0,0,1.12-.54.28.28,0,0,1,.35,0l.6.52c.14.11.2.25.1.39a2.49,2.49,0,0,1-2.21,1.18,2.94,2.94,0,1,1,0-5.88Z"/><path class="cls-4" d="M614.33,77.59l.38-.76a.21.21,0,0,1,.32-.1,3.09,3.09,0,0,0,1.27.34c.28,0,.48-.11.48-.35s-.2-.41-.94-.7c-1.08-.42-1.58-1-1.58-1.85s.63-1.65,2.06-1.65A3.19,3.19,0,0,1,618,73a.3.3,0,0,1,.13.38l-.35.71a.27.27,0,0,1-.34.1,3.35,3.35,0,0,0-1.16-.29c-.34,0-.48.14-.48.32s.25.34.77.55c1.08.42,1.89.88,1.89,2,0,.92-.81,1.71-2.22,1.71a3.23,3.23,0,0,1-1.87-.52A.23.23,0,0,1,614.33,77.59Z"/><rect class="cls-2" x="294.71" y="7.87" width="97.76" height="85.33"/><path class="cls-4" d="M48.55,53a.28.28,0,0,1,.26-.28h3.52a5,5,0,1,1,0,10.09H48.81a.28.28,0,0,1-.26-.28Zm3.63,7.67a2.92,2.92,0,0,0,0-5.83H50.8v5.83Z"/><path class="cls-4" d="M60.1,59.14a2.69,2.69,0,0,1,1.1.23c0-.56-.08-.85-.77-.85a5.84,5.84,0,0,0-1.44.22c-.22.07-.32-.09-.35-.31l-.13-.9a.31.31,0,0,1,.22-.39,9.34,9.34,0,0,1,1.91-.22c1.79,0,2.44.75,2.44,2.45v3.18a.29.29,0,0,1-.28.28h-.63a.27.27,0,0,1-.26-.19l-.2-.39A2.42,2.42,0,0,1,60,63a1.87,1.87,0,0,1-2-1.9A1.92,1.92,0,0,1,60.1,59.14Zm.37,2.42a.63.63,0,0,0,.63-.63.62.62,0,0,0-.63-.61.61.61,0,0,0-.62.61A.63.63,0,0,0,60.47,61.56Z"/><path class="cls-4" d="M64.78,58.89H64.4a.27.27,0,0,1-.25-.27V57.34a.26.26,0,0,1,.25-.28h.38V55.47a.28.28,0,0,1,.27-.28h1.54a.27.27,0,0,1,.26.28v1.59h1.07a.27.27,0,0,1,.27.28v1.28a.27.27,0,0,1-.27.27H66.85v1.8c0,.32.22.35.39.35a2.69,2.69,0,0,0,.56-.1.25.25,0,0,1,.32.19l.32,1.19a.28.28,0,0,1-.19.33,7.32,7.32,0,0,1-1.74.32c-1.1,0-1.73-.69-1.73-2Z"/><path class="cls-4" d="M71.23,59.14a2.71,2.71,0,0,1,1.11.23c0-.56-.08-.85-.77-.85a5.84,5.84,0,0,0-1.44.22c-.22.07-.32-.09-.35-.31l-.13-.9a.31.31,0,0,1,.22-.39,9.34,9.34,0,0,1,1.91-.22c1.79,0,2.44.75,2.44,2.45v3.18a.29.29,0,0,1-.28.28h-.63a.27.27,0,0,1-.26-.19l-.2-.39a2.42,2.42,0,0,1-1.74.72,1.87,1.87,0,0,1-2-1.9A1.92,1.92,0,0,1,71.23,59.14Zm.38,2.42a.64.64,0,0,0,.63-.63.63.63,0,0,0-.63-.61.61.61,0,0,0-.62.61A.63.63,0,0,0,71.61,61.56Z"/><path class="cls-4" d="M75.39,62.19l.5-1a.25.25,0,0,1,.3-.12,3.17,3.17,0,0,0,1.3.38.25.25,0,0,0,.27-.26c0-.15-.08-.35-.82-.61-1.12-.39-1.61-1-1.61-1.93s.69-1.74,2.24-1.74a3.84,3.84,0,0,1,1.92.45c.13.08.23.21.15.36l-.54,1a.25.25,0,0,1-.3.08,3.31,3.31,0,0,0-1.23-.33c-.18,0-.31,0-.31.2s.16.29.65.46c1.16.41,2,.87,2,2S79.07,63,77.45,63a3.44,3.44,0,0,1-2-.47C75.39,62.41,75.31,62.32,75.39,62.19Z"/><path class="cls-4" d="M83.58,56.92a2.69,2.69,0,0,1,2.74,2.71,2.56,2.56,0,0,1,0,.39.27.27,0,0,1-.27.24H82.56a1.07,1.07,0,0,0,1.11,1,1.9,1.9,0,0,0,1-.34.25.25,0,0,1,.36,0l.72.86a.31.31,0,0,1,0,.42,2.93,2.93,0,0,1-2.13.82,3,3,0,0,1,0-6Zm.71,2.22a.78.78,0,0,0-.76-.68.8.8,0,0,0-.78.68Z"/><path class="cls-4" d="M87.59,58.89h-.37a.27.27,0,0,1-.26-.27V57.34a.26.26,0,0,1,.26-.28h.37V55.47a.28.28,0,0,1,.27-.28h1.55a.28.28,0,0,1,.26.28v1.59h1.06a.27.27,0,0,1,.27.28v1.28a.27.27,0,0,1-.27.27H89.67v1.8c0,.32.21.35.38.35a2.79,2.79,0,0,0,.57-.1.25.25,0,0,1,.31.19l.32,1.19a.28.28,0,0,1-.19.33,7.32,7.32,0,0,1-1.74.32c-1.09,0-1.73-.69-1.73-2Z"/><path class="cls-4" d="M92,62.19l.5-1a.25.25,0,0,1,.3-.12,3.17,3.17,0,0,0,1.3.38.25.25,0,0,0,.27-.26c0-.15-.08-.35-.82-.61-1.12-.39-1.61-1-1.61-1.93s.69-1.74,2.24-1.74a3.84,3.84,0,0,1,1.92.45c.13.08.23.21.14.36l-.53,1a.25.25,0,0,1-.3.08,3.31,3.31,0,0,0-1.23-.33c-.18,0-.31,0-.31.2s.16.29.65.46c1.16.41,2,.87,2,2S95.7,63,94.07,63a3.43,3.43,0,0,1-1.95-.47C92,62.41,91.94,62.32,92,62.19Z"/><path class="cls-4" d="M311.08,45.8a.28.28,0,0,1,.28-.28h3.47a3.22,3.22,0,1,1,0,6.43h-1.51v3.38a.28.28,0,0,1-.27.28h-1.7a.28.28,0,0,1-.28-.28Zm3.62,4a1.13,1.13,0,0,0,1.14-1.13,1.1,1.1,0,0,0-1.14-1.07h-1.37v2.2Z"/><path class="cls-4" d="M318.64,50.12a.28.28,0,0,1,.27-.28h1.54a.28.28,0,0,1,.28.28v2.66a1,1,0,0,0,.92,1.11.94.94,0,0,0,.86-1V50.12c0-.23.16-.28.3-.28h1.47a.28.28,0,0,1,.28.28v5.21a.29.29,0,0,1-.28.28h-.67a.33.33,0,0,1-.28-.21l-.21-.53a2.47,2.47,0,0,1-1.95.88c-1.71,0-2.53-1.38-2.53-3Z"/><path class="cls-4" d="M326.11,45.8a.29.29,0,0,1,.28-.28H328a.28.28,0,0,1,.27.28V50a2.94,2.94,0,0,1,1.2-.27,2.76,2.76,0,0,1,2.86,3,2.91,2.91,0,0,1-2.85,3,2.48,2.48,0,0,1-1.93-.91l-.17.48c-.06.16-.16.29-.3.29h-.68a.29.29,0,0,1-.28-.28Zm3.07,8.09a1.16,1.16,0,0,0,1.17-1.18,1.16,1.16,0,1,0-1.17,1.18Z"/><path class="cls-4" d="M333.46,45.8a.29.29,0,0,1,.28-.28h1.58a.29.29,0,0,1,.28.28v9.53a.29.29,0,0,1-.28.28h-1.58a.29.29,0,0,1-.28-.28Z"/><path class="cls-4" d="M337.07,47a1.14,1.14,0,0,1,1.13-1.15A1.16,1.16,0,0,1,339.36,47a1.14,1.14,0,0,1-1.16,1.14A1.12,1.12,0,0,1,337.07,47Zm.08,3.16a.28.28,0,0,1,.28-.28H339a.28.28,0,0,1,.27.28v5.21a.28.28,0,0,1-.27.28h-1.58a.29.29,0,0,1-.28-.28Z"/><path class="cls-4" d="M343.51,49.7a2.68,2.68,0,0,1,2.16,1,.28.28,0,0,1-.07.4l-.87.82a.26.26,0,0,1-.32,0,1.14,1.14,0,0,0-2,.8,1.13,1.13,0,0,0,1.12,1.16,1.25,1.25,0,0,0,1-.44.23.23,0,0,1,.32-.06l.86.75c.13.11.2.26.1.4a2.57,2.57,0,0,1-2.32,1.21,3.06,3.06,0,0,1-3.09-3A3.1,3.1,0,0,1,343.51,49.7Z"/><path class="cls-4" d="M348.62,51.92a2.71,2.71,0,0,1,1.11.23c0-.56-.08-.85-.78-.85a6,6,0,0,0-1.44.22c-.21.07-.31-.09-.34-.31l-.13-.9a.3.3,0,0,1,.21-.39,9.47,9.47,0,0,1,1.92-.22c1.79,0,2.43.75,2.43,2.45v3.18a.28.28,0,0,1-.27.28h-.63a.27.27,0,0,1-.26-.19l-.2-.39a2.45,2.45,0,0,1-1.75.72,1.86,1.86,0,0,1-2-1.9A1.92,1.92,0,0,1,348.62,51.92Zm.38,2.42a.64.64,0,0,0,.63-.64.63.63,0,0,0-.63-.6.61.61,0,0,0-.62.6A.63.63,0,0,0,349,54.34Z"/><path class="cls-4" d="M353.31,51.67h-.38a.27.27,0,0,1-.26-.27V50.12a.27.27,0,0,1,.26-.28h.38V48.25a.28.28,0,0,1,.27-.28h1.54a.27.27,0,0,1,.26.28v1.59h1.07a.27.27,0,0,1,.27.28V51.4a.27.27,0,0,1-.27.27h-1.07v1.8c0,.32.22.35.39.35a2.69,2.69,0,0,0,.56-.1.25.25,0,0,1,.32.19L357,55.1a.3.3,0,0,1-.19.33,7.32,7.32,0,0,1-1.74.32c-1.1,0-1.73-.69-1.73-2Z"/><path class="cls-4" d="M358,47a1.14,1.14,0,0,1,1.13-1.15A1.16,1.16,0,0,1,360.24,47a1.14,1.14,0,0,1-1.16,1.14A1.12,1.12,0,0,1,358,47Zm.08,3.16a.28.28,0,0,1,.28-.28h1.58a.28.28,0,0,1,.28.28v5.21a.29.29,0,0,1-.28.28h-1.58a.29.29,0,0,1-.28-.28Z"/><path class="cls-4" d="M364.27,49.7a3,3,0,1,1-3,3A3,3,0,0,1,364.27,49.7Zm0,4.19a1.15,1.15,0,0,0,1.14-1.18,1.14,1.14,0,1,0-2.28,0A1.16,1.16,0,0,0,364.27,53.89Z"/><path class="cls-4" d="M368.38,50.12a.28.28,0,0,1,.27-.28h.68a.32.32,0,0,1,.26.18l.23.57a2.75,2.75,0,0,1,4.77,2.12v2.62a.28.28,0,0,1-.27.28h-1.55a.27.27,0,0,1-.27-.28V52.64a1,1,0,0,0-1-1.08,1,1,0,0,0-1.09,1v2.76a.25.25,0,0,1-.26.28h-1.52a.28.28,0,0,1-.27-.28Z"/><path class="cls-4" d="M375.69,55l.5-1a.25.25,0,0,1,.3-.12,3.17,3.17,0,0,0,1.3.38.25.25,0,0,0,.27-.26c0-.15-.08-.35-.82-.61-1.12-.39-1.61-1-1.61-1.93s.69-1.74,2.25-1.74a3.8,3.8,0,0,1,1.91.45c.13.08.23.21.15.36l-.54,1a.25.25,0,0,1-.3.08,3.3,3.3,0,0,0-1.22-.33c-.19,0-.32,0-.32.2s.16.29.65.46c1.16.41,2,.87,2,2s-.81,1.83-2.43,1.83a3.4,3.4,0,0,1-2-.48C375.69,55.19,375.61,55.1,375.69,55Z"/><rect class="cls-3" x="668.77" y="7.87" width="115.2" height="85.33"/><path class="cls-4" d="M700.62,54.24l.67-1.2a.36.36,0,0,1,.49-.08,4.45,4.45,0,0,0,2.05.79.9.9,0,0,0,1-.87c0-.6-.5-1.06-1.48-1.45-1.24-.49-2.8-1.46-2.8-3.18,0-1.43,1.11-2.87,3.33-2.87A5.31,5.31,0,0,1,707,46.46a.35.35,0,0,1,.09.46L706.31,48c-.1.16-.36.29-.49.19a4.41,4.41,0,0,0-2.06-.87.84.84,0,0,0-.91.74c0,.53.43.93,1.57,1.39s2.91,1.33,2.91,3.29a3.16,3.16,0,0,1-3.4,3,4.58,4.58,0,0,1-3.24-1.11C700.54,54.5,700.5,54.44,700.62,54.24Z"/><path class="cls-4" d="M708.63,51.67h-.38a.27.27,0,0,1-.26-.27V50.12a.27.27,0,0,1,.26-.28h.38V48.25a.28.28,0,0,1,.27-.28h1.54a.27.27,0,0,1,.26.28v1.59h1.07a.27.27,0,0,1,.27.28V51.4a.27.27,0,0,1-.27.27H710.7v1.8c0,.32.22.35.39.35a2.69,2.69,0,0,0,.56-.1.25.25,0,0,1,.32.19l.32,1.19a.29.29,0,0,1-.19.33,7.32,7.32,0,0,1-1.74.32c-1.1,0-1.73-.69-1.73-2Z"/><path class="cls-4" d="M715.08,51.92a2.71,2.71,0,0,1,1.11.23c0-.56-.08-.85-.78-.85a6,6,0,0,0-1.44.22c-.21.07-.31-.09-.34-.31l-.13-.9a.3.3,0,0,1,.21-.39,9.47,9.47,0,0,1,1.92-.22c1.79,0,2.44.75,2.44,2.45v3.18a.29.29,0,0,1-.28.28h-.63a.27.27,0,0,1-.26-.19l-.2-.39a2.45,2.45,0,0,1-1.75.72,1.86,1.86,0,0,1-2-1.9A1.92,1.92,0,0,1,715.08,51.92Zm.38,2.42a.64.64,0,0,0,.63-.64.63.63,0,0,0-.63-.6.61.61,0,0,0-.62.6A.63.63,0,0,0,715.46,54.34Z"/><path class="cls-4" d="M719.77,51.67h-.38a.27.27,0,0,1-.26-.27V50.12a.27.27,0,0,1,.26-.28h.38V48.25A.28.28,0,0,1,720,48h1.54a.27.27,0,0,1,.26.28v1.59h1.07a.27.27,0,0,1,.27.28V51.4a.27.27,0,0,1-.27.27h-1.07v1.8c0,.32.22.35.39.35a2.69,2.69,0,0,0,.56-.1.25.25,0,0,1,.32.19l.32,1.19a.3.3,0,0,1-.19.33,7.33,7.33,0,0,1-1.75.32c-1.09,0-1.72-.69-1.72-2Z"/><path class="cls-4" d="M724.41,47a1.14,1.14,0,0,1,1.13-1.15A1.16,1.16,0,0,1,726.7,47a1.14,1.14,0,0,1-1.16,1.14A1.12,1.12,0,0,1,724.41,47Zm.08,3.16a.28.28,0,0,1,.28-.28h1.58a.28.28,0,0,1,.28.28v5.21a.29.29,0,0,1-.28.28h-1.58a.29.29,0,0,1-.28-.28Z"/><path class="cls-4" d="M727.88,55l.5-1a.27.27,0,0,1,.31-.12,3.1,3.1,0,0,0,1.29.38.26.26,0,0,0,.28-.26c0-.15-.09-.35-.82-.61-1.13-.39-1.62-1-1.62-1.93s.69-1.74,2.25-1.74a3.77,3.77,0,0,1,1.91.45c.13.08.24.21.15.36l-.53,1a.26.26,0,0,1-.31.08,3.3,3.3,0,0,0-1.22-.33c-.19,0-.32,0-.32.2s.16.29.65.46c1.17.41,2,.87,2,2s-.8,1.83-2.43,1.83a3.4,3.4,0,0,1-2-.48C727.88,55.19,727.81,55.1,727.88,55Z"/><path class="cls-4" d="M733.76,51.67h-.38a.27.27,0,0,1-.25-.27V50.12a.26.26,0,0,1,.25-.28h.38V48.25A.28.28,0,0,1,734,48h1.54a.27.27,0,0,1,.26.28v1.59h1.07a.27.27,0,0,1,.27.28V51.4a.27.27,0,0,1-.27.27h-1.07v1.8c0,.32.22.35.39.35a2.69,2.69,0,0,0,.56-.1.25.25,0,0,1,.32.19l.32,1.19a.29.29,0,0,1-.19.33,7.32,7.32,0,0,1-1.74.32c-1.1,0-1.73-.69-1.73-2Z"/><path class="cls-4" d="M738.4,47a1.14,1.14,0,0,1,1.14-1.15A1.16,1.16,0,0,1,740.69,47a1.14,1.14,0,0,1-1.15,1.14A1.13,1.13,0,0,1,738.4,47Zm.08,3.16a.28.28,0,0,1,.28-.28h1.58a.28.28,0,0,1,.28.28v5.21a.29.29,0,0,1-.28.28h-1.58a.29.29,0,0,1-.28-.28Z"/><path class="cls-4" d="M744.84,49.7a2.66,2.66,0,0,1,2.16,1,.28.28,0,0,1-.07.4l-.87.82a.24.24,0,0,1-.31,0,1.19,1.19,0,0,0-.84-.37,1.17,1.17,0,0,0-1.15,1.17,1.13,1.13,0,0,0,1.12,1.16,1.23,1.23,0,0,0,1-.44.23.23,0,0,1,.32-.06l.86.75c.13.11.2.26.1.4a2.57,2.57,0,0,1-2.32,1.21,3.06,3.06,0,0,1-3.09-3A3.1,3.1,0,0,1,744.84,49.7Z"/><path class="cls-4" d="M747.93,55l.5-1a.25.25,0,0,1,.3-.12,3.17,3.17,0,0,0,1.3.38.25.25,0,0,0,.27-.26c0-.15-.08-.35-.82-.61-1.12-.39-1.61-1-1.61-1.93s.69-1.74,2.24-1.74a3.84,3.84,0,0,1,1.92.45c.13.08.23.21.14.36l-.53,1a.25.25,0,0,1-.3.08,3.31,3.31,0,0,0-1.23-.33c-.18,0-.31,0-.31.2s.16.29.65.46c1.16.41,2,.87,2,2s-.81,1.83-2.44,1.83a3.33,3.33,0,0,1-2-.48C747.93,55.19,747.85,55.1,747.93,55Z"/></g></svg>