<svg xmlns="http://www.w3.org/2000/svg" viewBox="0 0 667.01 915.45"><defs><style>.cls-1,.cls-8{fill:#bfbfbf;}.cls-1,.cls-7{stroke:#bfbfbf;}.cls-1,.cls-33,.cls-36,.cls-42,.cls-7{stroke-miterlimit:10;}.cls-1{stroke-width:2.72px;}.cls-2{font-size:16.71px;fill:#fff;font-family:BrandonGrotesque-Bold, Brandon Grotesque;font-weight:700;}.cls-3{letter-spacing:-0.02em;}.cls-4{letter-spacing:0em;}.cls-5{letter-spacing:-0.02em;}.cls-6{letter-spacing:0em;}.cls-36,.cls-7{fill:none;}.cls-7{stroke-width:3.06px;}.cls-9{letter-spacing:-0.01em;}.cls-10{letter-spacing:-0.01em;}.cls-11{letter-spacing:-0.01em;}.cls-12{letter-spacing:-0.01em;}.cls-13{letter-spacing:-0.03em;}.cls-14{letter-spacing:-0.01em;}.cls-15{letter-spacing:0em;}.cls-16{letter-spacing:-0.01em;}.cls-17{letter-spacing:-0.02em;}.cls-18{letter-spacing:-0.02em;}.cls-19{letter-spacing:0em;}.cls-20{letter-spacing:-0.01em;}.cls-21{letter-spacing:-0.01em;}.cls-22{letter-spacing:-0.01em;}.cls-23{letter-spacing:-0.03em;}.cls-24{letter-spacing:0em;}.cls-25{letter-spacing:-0.01em;}.cls-26{letter-spacing:-0.01em;}.cls-27{fill:#4f5858;}.cls-28{fill:#36b0c9;}.cls-29{fill:#d7d1c2;}.cls-30{fill:#ffc700;}.cls-31{fill:#f1303a;}.cls-32{fill:#00e668;}.cls-33,.cls-35{fill:#a74bee;}.cls-33,.cls-36{stroke:#a74bee;stroke-width:0.31px;}.cls-34{fill:#443ad9;}.cls-37{fill:#a4a6a9;}.cls-38{fill:#a3cb3a;}.cls-39{fill:#2d9ed7;fill-rule:evenodd;}.cls-40{fill:#54b89f;}.cls-41{fill:#202826;}.cls-42,.cls-43{fill:#363;}.cls-42{stroke:#363;stroke-width:0.11px;}</style></defs><g id="Layer_5" data-name="Layer 5"><rect class="cls-1" x="341.32" y="1.36" width="149.72" height="70.26"/><text class="cls-2" transform="translate(355.59 32.37)"><tspan class="cls-3">I</tspan><tspan x="4.9" y="0">de</tspan><tspan class="cls-4" x="20.69" y="0">n</tspan><tspan x="29.31" y="0">tify </tspan><tspan class="cls-5" x="56.28" y="0">P</tspan><tspan x="65.78" y="0">ublished</tspan><tspan class="cls-6" x="38.05" y="20.01">A</tspan><tspan x="49.04" y="20.01">rticle</tspan></text><line class="cls-7" x1="416.18" y1="71.62" x2="416.18" y2="87.9"/><polygon class="cls-8" points="408.55 85.67 416.18 98.88 423.81 85.67 408.55 85.67"/><rect class="cls-1" x="341.32" y="104.8" width="149.72" height="70.26"/><text class="cls-2" transform="translate(354.27 135.81)"><tspan class="cls-9">D</tspan><tspan x="12.1" y="0">etermine </tspan><tspan class="cls-10" x="75.27" y="0">J</tspan><tspan x="82.06" y="0">ournal</tspan><tspan x="16.87" y="20.01">and </tspan><tspan class="cls-5" x="44.72" y="20.01">P</tspan><tspan x="54.23" y="20.01">ublisher</tspan></text><line class="cls-7" x1="416.18" y1="175.06" x2="416.18" y2="191.34"/><polygon class="cls-8" points="408.55 189.11 416.18 202.32 423.81 189.11 408.55 189.11"/><rect class="cls-1" x="341.32" y="208.24" width="149.72" height="70.26"/><text class="cls-2" transform="translate(358.2 239.25)"><tspan class="cls-11">M</tspan><tspan x="14.42" y="0">atch </tspan><tspan class="cls-12" x="46.82" y="0">A</tspan><tspan x="57.76" y="0">dditional</tspan><tspan class="cls-13" x="-7.27" y="20.01">F</tspan><tspan x="1.65" y="20.01">under </tspan><tspan class="cls-14" x="43.91" y="20.01">I</tspan><tspan class="cls-15" x="48.92" y="20.01">n</tspan><tspan x="57.53" y="20.01">formation</tspan></text><line class="cls-7" x1="416.18" y1="278.5" x2="416.18" y2="294.78"/><polygon class="cls-8" points="408.55 292.54 416.18 305.76 423.81 292.54 408.55 292.54"/><rect class="cls-1" x="341.32" y="311.68" width="149.72" height="70.26"/><text class="cls-2" transform="translate(364.57 342.69)"><tspan class="cls-16">C</tspan><tspan x="11.18" y="0">ompute </tspan><tspan class="cls-17" x="65.67" y="0">O</tspan><tspan x="78.77" y="0">pen</tspan><tspan class="cls-12" x="6.4" y="20.01">A</tspan><tspan x="17.34" y="20.01">ccess </tspan><tspan class="cls-18" x="54.87" y="20.01">S</tspan><tspan x="63.68" y="20.01">tatus</tspan></text><line class="cls-7" x1="416.18" y1="381.94" x2="416.18" y2="398.21"/><polygon class="cls-8" points="408.55 395.98 416.18 409.19 423.81 395.98 408.55 395.98"/><rect class="cls-1" x="341.32" y="415.11" width="149.72" height="70.26"/><text class="cls-2" transform="translate(392.93 446.12)"><tspan class="cls-6">L<tspan class="cls-19" x="8.35" y="0">ink to</tspan></tspan><tspan class="cls-6" x="-15.42" y="20.01">A</tspan><tspan x="-4.43" y="20.01">lt</tspan><tspan class="cls-20" x="5.38" y="20.01">-</tspan><tspan class="cls-21" x="11.43" y="20.01">M</tspan><tspan x="25.8" y="20.01">etrics</tspan></text><line class="cls-7" x1="416.18" y1="485.37" x2="416.18" y2="501.65"/><polygon class="cls-8" points="408.55 499.42 416.18 512.63 423.81 499.42 408.55 499.42"/><rect class="cls-1" x="341.32" y="518.55" width="149.72" height="70.26"/><text class="cls-2" transform="translate(347.88 549.56)"><tspan class="cls-6">L<tspan class="cls-19" x="8.35" y="0">ink to other articles</tspan></tspan><tspan x="27.11" y="20.01">via </tspan><tspan class="cls-22" x="48.95" y="20.01">C</tspan><tspan x="60.19" y="20.01">itations</tspan></text><line class="cls-7" x1="416.18" y1="588.81" x2="416.18" y2="605.09"/><polygon class="cls-8" points="408.55 602.86 416.18 616.07 423.81 602.86 408.55 602.86"/><rect class="cls-1" x="166.71" y="843.83" width="149.72" height="70.26"/><text class="cls-2" transform="translate(178.08 874.84)"><tspan class="cls-11">M</tspan><tspan x="14.42" y="0">ap </tspan><tspan class="cls-14" x="33.6" y="0">I</tspan><tspan x="38.61" y="0">nstitutions to</tspan><tspan class="cls-16" x="-4.66" y="20.01">C</tspan><tspan x="6.52" y="20.01">ou</tspan><tspan class="cls-4" x="22.74" y="20.01">n</tspan><tspan x="31.36" y="20.01">tries &amp; </tspan><tspan class="cls-23" x="79.27" y="20.01">R</tspan><tspan class="cls-24" x="89.88" y="20.01">egions</tspan></text><rect class="cls-1" x="341.32" y="621.99" width="149.72" height="70.26"/><text class="cls-2" transform="translate(346.2 653)"><tspan class="cls-9">D</tspan><tspan x="12.1" y="0">etermine </tspan><tspan class="cls-10" x="75.27" y="0">A</tspan><tspan x="86.15" y="0">uthor(</tspan><tspan class="cls-25" x="128.24" y="0">s</tspan><tspan x="134.22" y="0">)</tspan><tspan class="cls-10" x="33.61" y="20.01">A</tspan><tspan x="44.49" y="20.01">ffiliations</tspan></text><polyline class="cls-7" points="416.18 692.25 416.18 708.69 241.57 708.69 241.57 721.76"/><polygon class="cls-8" points="233.94 719.52 241.57 732.74 249.2 719.52 233.94 719.52"/><polyline class="cls-7" points="416.18 692.25 416.18 708.69 590.79 708.69 590.79 721.76"/><polygon class="cls-8" points="583.16 719.52 590.79 732.74 598.42 719.52 583.16 719.52"/><rect class="cls-1" x="166.71" y="740.39" width="149.72" height="70.26"/><text class="cls-2" transform="translate(184.52 771.4)"><tspan class="cls-6">L</tspan><tspan class="cls-19" x="8.35" y="0">ink </tspan><tspan class="cls-14" x="32.92" y="0">I</tspan><tspan x="37.93" y="0">nstitutional</tspan><tspan class="cls-9" x="33.76" y="20.01">D</tspan><tspan x="45.86" y="20.01">etails</tspan></text><line class="cls-7" x1="241.57" y1="810.65" x2="241.57" y2="826.93"/><polygon class="cls-8" points="233.94 824.69 241.57 837.91 249.2 824.69 233.94 824.69"/><rect class="cls-1" x="515.93" y="740.39" width="149.72" height="70.26"/><text class="cls-2" transform="translate(567.54 771.4)"><tspan class="cls-6">L<tspan class="cls-19" x="8.35" y="0">ink to</tspan></tspan><tspan class="cls-10" x="-25.51" y="20.01">A</tspan><tspan x="-14.64" y="20.01">uthor </tspan><tspan class="cls-26" x="25.43" y="20.01">D</tspan><tspan x="37.53" y="20.01">etails</tspan></text><path class="cls-27" d="M221.62,33.71a3.85,3.85,0,0,0-3.88-3.07c-3.48,0-4.82,2.94-4.82,6.09,0,2.94,1.34,6,4.82,6,2.41,0,3.75-1.6,4-4h3.82c-.4,4.42-3.41,7.23-7.76,7.23-5.49,0-8.7-4.08-8.7-9.17,0-5.28,3.21-9.37,8.7-9.37,3.88,0,7.16,2.28,7.62,6.36h-3.81Z"/><path class="cls-27" d="M226.91,32.64h3.34v2.41h.07a4.62,4.62,0,0,1,4.08-2.74,2.65,2.65,0,0,1,.74.13v3.28a8.26,8.26,0,0,0-1.27-.13c-2.61,0-3.48,1.87-3.48,4.08v5.76h-3.48Z"/><path class="cls-27" d="M241.9,32.31c4,0,6.62,2.68,6.62,6.76s-2.61,6.76-6.62,6.76-6.63-2.68-6.63-6.76S237.88,32.31,241.9,32.31Zm0,10.84c2.41,0,3.14-2.07,3.14-4.08S244.31,35,241.9,35s-3.08,2.07-3.08,4.08S239.49,43.15,241.9,43.15Z"/><path class="cls-27" d="M252.61,41.34c0,1.54,1.33,2.15,2.67,2.15,1,0,2.28-.41,2.28-1.61s-1.47-1.41-4-2c-2-.47-4.08-1.14-4.08-3.41,0-3.28,2.81-4.08,5.55-4.08s5.36.93,5.63,4.08h-3.35c-.07-1.34-1.14-1.74-2.41-1.74-.8,0-1.94.13-1.94,1.2,0,1.27,2,1.41,4,1.94S261,39.07,261,41.48c0,3.34-3,4.48-5.82,4.48s-5.89-1.14-6-4.48h3.42Z"/><path class="cls-27" d="M265.45,41.34c0,1.54,1.34,2.15,2.68,2.15,1,0,2.28-.41,2.28-1.61s-1.48-1.41-4-2c-2-.47-4.08-1.14-4.08-3.41,0-3.28,2.81-4.08,5.55-4.08s5.36.93,5.62,4.08h-3.34c-.07-1.34-1.14-1.74-2.41-1.74-.8,0-1.94.13-1.94,1.2,0,1.27,2,1.41,4,1.94s4.09,1.21,4.09,3.62c0,3.34-2.95,4.48-5.83,4.48s-5.88-1.14-6-4.48h3.41Z"/><path class="cls-27" d="M275.16,32.64h3.34v2.41h.07a4.62,4.62,0,0,1,4.08-2.74,2.65,2.65,0,0,1,.74.13v3.28a8.26,8.26,0,0,0-1.27-.13c-2.61,0-3.48,1.87-3.48,4.08v5.76h-3.55V32.64Z"/><path class="cls-27" d="M287.27,39.94c.07,2.21,1.21,3.28,3.15,3.28a2.82,2.82,0,0,0,2.74-1.68h3.08a5.76,5.76,0,0,1-6,4.29c-4,0-6.56-2.75-6.56-6.76a6.45,6.45,0,0,1,6.56-6.76c4.35,0,6.49,3.68,6.22,7.63ZM293,37.73c-.34-1.81-1.07-2.74-2.81-2.74a2.83,2.83,0,0,0-2.95,2.74Z"/><path class="cls-27" d="M298.45,35.05h-2.08V32.71h2.08v-1c0-2.28,1.4-3.88,4.28-3.88.6,0,1.27.06,1.87.06V30.5a9,9,0,0,0-1.27-.06c-.93,0-1.34.4-1.34,1.47v.73h2.41V35H302V45.43h-3.54Z"/><polygon class="cls-28" points="170.69 54.06 170.69 40.34 181.94 36.66 201.88 43.48 170.69 54.06"/><polygon class="cls-29" points="190.63 26.09 170.69 32.98 181.94 36.66 201.88 29.83 190.63 26.09"/><polygon class="cls-27" points="181.94 36.66 201.88 29.83 201.88 43.48 181.94 36.66"/><polygon class="cls-30" points="201.88 8.75 201.88 22.41 190.63 26.09 170.69 19.26 201.88 8.75"/><polygon class="cls-31" points="190.63 26.09 170.69 32.98 170.69 19.26 190.63 26.09"/><path class="cls-27" d="M210.51,53.26h1.94l3.41,9,3.42-9h1.94V64h-1.34v-8.9h0L216.53,64h-1.2L212,55.06h0V64h-1.34V53.26Z"/><path class="cls-27" d="M229.32,61.55A3.17,3.17,0,0,1,226,64.23c-2.48,0-3.68-1.74-3.75-4.08a3.72,3.72,0,0,1,3.68-4c2.75,0,3.62,2.55,3.55,4.49h-5.82A2.27,2.27,0,0,0,226,63.16a1.85,1.85,0,0,0,2-1.54h1.28Zm-1.21-2.2a2.27,2.27,0,0,0-2.21-2.21,2.19,2.19,0,0,0-2.21,2.21Z"/><path class="cls-27" d="M232.26,56.2h1.54v1.14h-1.54v4.82c0,.6.13.67.94.67h.6V64h-1c-1.34,0-1.88-.26-1.88-1.67V57.34h-1.34V56.2h1.34V53.86h1.34Z"/><path class="cls-27" d="M241.83,64a1.71,1.71,0,0,1-.94.2c-.67,0-1.07-.33-1.07-1.2a3.59,3.59,0,0,1-2.74,1.2c-1.41,0-2.54-.6-2.54-2.2s1.33-2.15,2.61-2.41,2.61-.2,2.61-1.14c0-1.14-.94-1.27-1.74-1.27-1.07,0-1.88.33-1.94,1.47H234.8c.07-1.94,1.54-2.61,3.28-2.61,1.41,0,2.95.33,2.95,2.14v4c0,.6,0,.87.4.87a1,1,0,0,0,.4-.07Zm-2.07-4a6.57,6.57,0,0,1-2.35.54c-.87.13-1.54.47-1.54,1.41s.74,1.13,1.48,1.13c1.67,0,2.34-1.07,2.34-1.74V60Z"/><path class="cls-27" d="M249.66,64h-1.27V63h0a2.55,2.55,0,0,1-2.48,1.2c-2.41,0-3.54-1.87-3.54-4.08s1.2-4,3.54-4a3,3,0,0,1,2.55,1.2h0v-4h1.27V64Zm-3.61-1c1.74,0,2.34-1.48,2.34-3s-.67-2.94-2.48-2.94-2.34,1.47-2.34,3S244.37,63,246.05,63Z"/><path class="cls-27" d="M258,64a1.73,1.73,0,0,1-.94.2c-.67,0-1.07-.33-1.07-1.2a3.59,3.59,0,0,1-2.74,1.2c-1.41,0-2.55-.6-2.55-2.2s1.34-2.15,2.61-2.41,2.61-.2,2.61-1.14c0-1.14-.93-1.27-1.74-1.27-1.07,0-1.87.33-1.94,1.47h-1.27c.07-1.94,1.54-2.61,3.28-2.61,1.41,0,3,.33,3,2.14v4c0,.6,0,.87.4.87A1,1,0,0,0,258,63v1Zm-2.08-4a6.46,6.46,0,0,1-2.34.54c-.87.13-1.54.47-1.54,1.41s.74,1.13,1.48,1.13c1.67,0,2.34-1.07,2.34-1.74V60Z"/><path class="cls-27" d="M260.57,56.2h1.54v1.14h-1.54v4.82c0,.6.13.67.94.67h.6V64h-1c-1.33,0-1.87-.26-1.87-1.67V57.34h-1.34V56.2h1.34V53.86h1.27V56.2Z"/><path class="cls-27" d="M270.21,64a1.75,1.75,0,0,1-.94.2c-.67,0-1.07-.33-1.07-1.2a3.63,3.63,0,0,1-2.75,1.2c-1.4,0-2.54-.6-2.54-2.2s1.34-2.15,2.61-2.41,2.61-.2,2.61-1.14c0-1.14-.94-1.27-1.74-1.27-1.07,0-1.87.33-1.94,1.47h-1.27c.07-1.94,1.54-2.61,3.28-2.61,1.4,0,2.94.33,2.94,2.14v4c0,.6,0,.87.4.87a1,1,0,0,0,.41-.07v1Zm-2.08-4a6.51,6.51,0,0,1-2.34.54c-.87.13-1.54.47-1.54,1.41s.74,1.13,1.47,1.13c1.67,0,2.41-1.07,2.41-1.74Z"/><path class="cls-27" d="M221.62,137.15a3.85,3.85,0,0,0-3.88-3.08c-3.48,0-4.82,3-4.82,6.09,0,3,1.34,6,4.82,6,2.41,0,3.75-1.61,4-4h3.82c-.4,4.42-3.41,7.23-7.76,7.23-5.49,0-8.7-4.08-8.7-9.17,0-5.29,3.21-9.37,8.7-9.37,3.88,0,7.16,2.28,7.62,6.36h-3.81Z"/><path class="cls-27" d="M226.91,136.08h3.34v2.41h.07a4.61,4.61,0,0,1,4.08-2.74,2.33,2.33,0,0,1,.74.13v3.28a7.18,7.18,0,0,0-1.27-.13c-2.61,0-3.48,1.87-3.48,4.08v5.75h-3.48Z"/><path class="cls-27" d="M241.9,135.75c4,0,6.62,2.67,6.62,6.76s-2.61,6.76-6.62,6.76-6.63-2.68-6.63-6.76S237.88,135.75,241.9,135.75Zm0,10.84c2.41,0,3.14-2.08,3.14-4.08s-.73-4.09-3.14-4.09-3.08,2.08-3.08,4.09S239.49,146.59,241.9,146.59Z"/><path class="cls-27" d="M252.61,144.78c0,1.54,1.33,2.14,2.67,2.14,1,0,2.28-.4,2.28-1.6s-1.47-1.41-4-2c-2-.47-4.08-1.14-4.08-3.41,0-3.28,2.81-4.09,5.55-4.09s5.36.94,5.63,4.09h-3.35c-.07-1.34-1.14-1.74-2.41-1.74-.8,0-1.94.13-1.94,1.2,0,1.27,2,1.41,4,1.94s4.08,1.21,4.08,3.62c0,3.34-3,4.48-5.82,4.48s-5.89-1.14-6-4.48h3.42Z"/><path class="cls-27" d="M265.45,144.78c0,1.54,1.34,2.14,2.68,2.14,1,0,2.28-.4,2.28-1.6s-1.48-1.41-4-2c-2-.47-4.08-1.14-4.08-3.41,0-3.28,2.81-4.09,5.55-4.09s5.36.94,5.62,4.09h-3.34c-.07-1.34-1.14-1.74-2.41-1.74-.8,0-1.94.13-1.94,1.2,0,1.27,2,1.41,4,1.94s4.09,1.21,4.09,3.62c0,3.34-2.95,4.48-5.83,4.48s-5.88-1.14-6-4.48h3.41Z"/><path class="cls-27" d="M275.16,136.08h3.34v2.41h.07a4.61,4.61,0,0,1,4.08-2.74,2.33,2.33,0,0,1,.74.13v3.28a7.18,7.18,0,0,0-1.27-.13c-2.61,0-3.48,1.87-3.48,4.08v5.75h-3.55V136.08Z"/><path class="cls-27" d="M287.27,143.38c.07,2.2,1.21,3.28,3.15,3.28a2.82,2.82,0,0,0,2.74-1.68h3.08a5.77,5.77,0,0,1-6,4.29c-4,0-6.56-2.75-6.56-6.76a6.45,6.45,0,0,1,6.56-6.76c4.35,0,6.49,3.68,6.22,7.63Zm5.69-2.21c-.34-1.81-1.07-2.75-2.81-2.75a2.83,2.83,0,0,0-2.95,2.75Z"/><path class="cls-27" d="M298.45,138.49h-2.08v-2.34h2.08v-1c0-2.27,1.4-3.88,4.28-3.88.6,0,1.27.07,1.87.07v2.61a7.73,7.73,0,0,0-1.27-.07c-.93,0-1.34.4-1.34,1.48v.73h2.41v2.34H302v10.44h-3.54Z"/><polygon class="cls-28" points="170.69 157.5 170.69 143.78 181.94 140.1 201.88 146.92 170.69 157.5"/><polygon class="cls-29" points="190.63 129.52 170.69 136.42 181.94 140.1 201.88 133.27 190.63 129.52"/><polygon class="cls-27" points="181.94 140.1 201.88 133.27 201.88 146.92 181.94 140.1"/><polygon class="cls-30" points="201.88 112.19 201.88 125.84 190.63 129.52 170.69 122.7 201.88 112.19"/><polygon class="cls-31" points="190.63 129.52 170.69 136.42 170.69 122.7 190.63 129.52"/><path class="cls-27" d="M210.51,156.69h1.94l3.41,9,3.42-9h1.94V167.4h-1.34v-8.9h0l-3.35,8.9h-1.2L212,158.5h0v8.9h-1.34V156.69Z"/><path class="cls-27" d="M229.32,165a3.17,3.17,0,0,1-3.35,2.68c-2.48,0-3.68-1.74-3.75-4.08a3.72,3.72,0,0,1,3.68-4c2.75,0,3.62,2.54,3.55,4.49h-5.82A2.28,2.28,0,0,0,226,166.6a1.85,1.85,0,0,0,2-1.54h1.28Zm-1.21-2.21a2.27,2.27,0,0,0-2.21-2.2,2.18,2.18,0,0,0-2.21,2.2Z"/><path class="cls-27" d="M232.26,159.64h1.54v1.14h-1.54v4.81c0,.61.13.67.94.67h.6v1.14h-1c-1.34,0-1.88-.27-1.88-1.67v-4.95h-1.34v-1.14h1.34V157.3h1.34Z"/><path class="cls-27" d="M241.83,167.4a1.71,1.71,0,0,1-.94.2c-.67,0-1.07-.33-1.07-1.2a3.59,3.59,0,0,1-2.74,1.2c-1.41,0-2.54-.6-2.54-2.21s1.33-2.14,2.61-2.41,2.61-.2,2.61-1.13c0-1.14-.94-1.27-1.74-1.27-1.07,0-1.88.33-1.94,1.47H234.8c.07-1.94,1.54-2.61,3.28-2.61,1.41,0,2.95.33,2.95,2.14v4c0,.61,0,.87.4.87a1.1,1.1,0,0,0,.4-.06Zm-2.07-4a6.79,6.79,0,0,1-2.35.54c-.87.13-1.54.47-1.54,1.4s.74,1.14,1.48,1.14c1.67,0,2.34-1.07,2.34-1.74v-1.34Z"/><path class="cls-27" d="M249.66,167.47h-1.27V166.4h0a2.55,2.55,0,0,1-2.48,1.2c-2.41,0-3.54-1.87-3.54-4.08s1.2-4,3.54-4a3,3,0,0,1,2.55,1.21h0v-4h1.27v10.78Zm-3.61-1c1.74,0,2.34-1.47,2.34-2.94s-.67-2.94-2.48-2.94-2.34,1.47-2.34,3S244.37,166.46,246.05,166.46Z"/><path class="cls-27" d="M258,167.4a1.73,1.73,0,0,1-.94.2c-.67,0-1.07-.33-1.07-1.2a3.59,3.59,0,0,1-2.74,1.2c-1.41,0-2.55-.6-2.55-2.21s1.34-2.14,2.61-2.41,2.61-.2,2.61-1.13c0-1.14-.93-1.27-1.74-1.27-1.07,0-1.87.33-1.94,1.47h-1.27c.07-1.94,1.54-2.61,3.28-2.61,1.41,0,3,.33,3,2.14v4c0,.61,0,.87.4.87a1.1,1.1,0,0,0,.4-.06v1Zm-2.08-4a6.67,6.67,0,0,1-2.34.54c-.87.13-1.54.47-1.54,1.4s.74,1.14,1.48,1.14c1.67,0,2.34-1.07,2.34-1.74v-1.34Z"/><path class="cls-27" d="M260.57,159.64h1.54v1.14h-1.54v4.81c0,.61.13.67.94.67h.6v1.14h-1c-1.33,0-1.87-.27-1.87-1.67v-4.95h-1.34v-1.14h1.34V157.3h1.27v2.34Z"/><path class="cls-27" d="M270.21,167.4a1.75,1.75,0,0,1-.94.2c-.67,0-1.07-.33-1.07-1.2a3.63,3.63,0,0,1-2.75,1.2c-1.4,0-2.54-.6-2.54-2.21s1.34-2.14,2.61-2.41,2.61-.2,2.61-1.13c0-1.14-.94-1.27-1.74-1.27-1.07,0-1.87.33-1.94,1.47h-1.27c.07-1.94,1.54-2.61,3.28-2.61,1.4,0,2.94.33,2.94,2.14v4c0,.61,0,.87.4.87a1.15,1.15,0,0,0,.41-.06v1Zm-2.08-4a6.73,6.73,0,0,1-2.34.54c-.87.13-1.54.47-1.54,1.4s.74,1.14,1.47,1.14c1.67,0,2.41-1.07,2.41-1.74Z"/><polygon class="cls-28" points="170.76 259.18 170.76 245.59 182.03 241.88 201.88 248.71 170.76 259.18"/><polygon class="cls-29" points="190.61 231.33 170.76 238.17 182.03 241.88 201.88 235.04 190.61 231.33"/><polygon class="cls-27" points="182.03 241.88 201.88 235.04 201.88 248.71 182.03 241.88"/><polygon class="cls-30" points="201.88 213.95 201.88 227.63 190.61 231.33 170.76 224.5 201.88 213.95"/><polygon class="cls-31" points="190.61 231.33 170.76 238.17 170.76 224.5 190.61 231.33"/><path class="cls-27" d="M221.66,238.9a3.86,3.86,0,0,0-3.86-3.13c-3.49,0-4.8,3-4.8,6s1.31,5.89,4.8,5.89c2.4,0,3.71-1.6,4-3.92h3.78a7.39,7.39,0,0,1-7.78,7.2c-5.45,0-8.72-4.08-8.72-9.17s3.2-9.3,8.72-9.3c3.86,0,7.13,2.25,7.64,6.4Z"/><path class="cls-27" d="M227,237.88h3.34v2.4h.07a4.55,4.55,0,0,1,4.07-2.69,3.85,3.85,0,0,1,.8.14V241a6.6,6.6,0,0,0-1.23-.14c-2.55,0-3.49,1.89-3.49,4.14v5.75H227V237.88Z"/><path class="cls-27" d="M241.87,237.51c4.07,0,6.62,2.69,6.62,6.77s-2.62,6.76-6.62,6.76-6.62-2.69-6.62-6.76S237.87,237.51,241.87,237.51Zm0,10.84c2.4,0,3.13-2,3.13-4.07s-.73-4.15-3.13-4.15-3.12,2-3.12,4.15S239.47,248.35,241.87,248.35Z"/><path class="cls-27" d="M252.63,246.53c0,1.53,1.31,2.18,2.69,2.18,1,0,2.33-.36,2.33-1.6s-1.45-1.45-4-2c-2-.44-4.07-1.16-4.07-3.42,0-3.27,2.84-4.14,5.6-4.14s5.38.94,5.67,4.07h-3.34c-.08-1.38-1.17-1.75-2.4-1.75-.8,0-2,.15-2,1.17,0,1.23,2,1.45,4,1.89s4.07,1.23,4.07,3.56c0,3.35-2.9,4.44-5.81,4.44s-5.89-1.09-6-4.51h3.27Z"/><path class="cls-27" d="M265.43,246.53c0,1.53,1.31,2.18,2.69,2.18,1,0,2.33-.36,2.33-1.6s-1.45-1.45-4-2c-2-.44-4.07-1.16-4.07-3.42,0-3.27,2.83-4.14,5.6-4.14s5.38.94,5.67,4.07H270.3c-.07-1.38-1.16-1.75-2.4-1.75-.8,0-2,.15-2,1.17,0,1.23,2,1.45,4,1.89s4.07,1.23,4.07,3.56c0,3.35-2.91,4.44-5.81,4.44s-5.89-1.09-6-4.51h3.27Z"/><path class="cls-27" d="M275.1,237.88h3.35v2.4h.07a4.55,4.55,0,0,1,4.07-2.69,3.85,3.85,0,0,1,.8.14V241a6.6,6.6,0,0,0-1.23-.14c-2.55,0-3.49,1.89-3.49,4.14v5.75h-3.49V237.88Z"/><path class="cls-27" d="M287.17,245.15c.08,2.25,1.17,3.27,3.13,3.27a2.89,2.89,0,0,0,2.76-1.67h3.13a5.75,5.75,0,0,1-6,4.29c-4.07,0-6.55-2.76-6.55-6.76a6.4,6.4,0,0,1,6.55-6.77c4.36,0,6.47,3.64,6.18,7.64Zm5.75-2.25c-.29-1.82-1.09-2.7-2.76-2.7a2.71,2.71,0,0,0-2.91,2.7Z"/><path class="cls-27" d="M298.37,240.2h-2.11v-2.32h2.11v-1c0-2.25,1.38-3.85,4.29-3.85.66,0,1.24.07,1.89.07v2.62a7.15,7.15,0,0,0-1.31-.08c-.94,0-1.3.37-1.3,1.46v.8h2.4v2.32h-2.4v10.48h-3.49V240.2Z"/><path class="cls-27" d="M209.73,258.82h7.05v1.24h-5.67v3.41h4.95v1.24h-4.95v4.94h-1.45V258.82Z"/><path class="cls-27" d="M224.71,269.58h-1.24v-1.23h0a2.78,2.78,0,0,1-2.54,1.45c-2,0-2.69-1.16-2.69-2.84V261.8h1.24v5.31a1.49,1.49,0,0,0,1.6,1.6,2.22,2.22,0,0,0,2.32-2.47V261.8h1.31Z"/><path class="cls-27" d="M226.6,261.8h1.24V263h0a2.78,2.78,0,0,1,2.54-1.46c2,0,2.69,1.17,2.69,2.84v5.16h-1.31v-5.31a1.49,1.49,0,0,0-1.6-1.6,2.22,2.22,0,0,0-2.32,2.48v4.43h-1.31V261.8Z"/><path class="cls-27" d="M242,269.58h-1.31v-1.09h0a2.66,2.66,0,0,1-2.47,1.24c-2.4,0-3.57-1.89-3.57-4.15s1.17-4.07,3.57-4.07a3,3,0,0,1,2.54,1.24h0v-4H242Zm-3.64-.94c1.75,0,2.4-1.46,2.4-3s-.73-3-2.47-3S236,264.2,236,265.73,236.71,268.64,238.38,268.64Z"/><path class="cls-27" d="M250.6,267.11a3.19,3.19,0,0,1-3.35,2.69c-2.47,0-3.63-1.75-3.78-4.14,0-2.33,1.53-4.08,3.64-4.08,2.76,0,3.63,2.62,3.56,4.44h-5.82a2.25,2.25,0,0,0,2.4,2.54,1.87,1.87,0,0,0,2-1.52h1.31Zm-1.24-2.18a2.25,2.25,0,0,0-2.25-2.18,2.3,2.3,0,0,0-2.26,2.18Z"/><path class="cls-27" d="M252.05,261.8h1.24v1.67h0a2.79,2.79,0,0,1,2.83-1.81V263c-2,0-2.83,1.16-2.83,3.12v3.49H252V261.8Z"/><path class="cls-27" d="M262,258.82h5.09c2,0,3.28,1.09,3.28,2.84a2.63,2.63,0,0,1-1.89,2.76h0c1.23.22,1.52,1.16,1.6,2.25s0,2.26.65,3h-1.6c-.44-.43-.14-1.6-.36-2.69s-.44-2-1.82-2h-3.49v4.58H262V258.82Zm4.44,4.94c1.31,0,2.47-.36,2.47-1.89a1.66,1.66,0,0,0-1.89-1.81h-3.56v3.78h3Z"/><path class="cls-27" d="M278.81,267.11a3.18,3.18,0,0,1-3.34,2.69c-2.48,0-3.64-1.75-3.78-4.14s1.52-4.08,3.63-4.08c2.76,0,3.64,2.62,3.56,4.44h-5.81a2.24,2.24,0,0,0,2.4,2.54,1.86,1.86,0,0,0,2-1.52h1.31Zm-1.23-2.18a2.25,2.25,0,0,0-2.26-2.18,2.29,2.29,0,0,0-2.25,2.18Z"/><path class="cls-27" d="M287,268.93c0,2.54-1.16,3.85-3.64,3.85-1.45,0-3.12-.58-3.2-2.33h1.31c.07.95,1.17,1.24,2,1.24,1.67,0,2.33-1.24,2.33-3v-.51h0a2.65,2.65,0,0,1-2.4,1.45c-2.33,0-3.49-1.81-3.49-3.92,0-1.82.87-4.15,3.63-4.15a2.48,2.48,0,0,1,2.33,1.31h0V261.8h1.23v7.13Zm-1.31-3.42c0-1.38-.58-2.76-2.25-2.76s-2.33,1.31-2.33,2.83.51,3,2.18,3S285.72,267,285.72,265.51Z"/><path class="cls-27" d="M290.3,260.35H289v-1.6h1.31ZM289,261.8h1.31v7.78H289Z"/><path class="cls-27" d="M293.06,267.11c.08,1.16,1,1.53,2.11,1.53.8,0,1.89-.15,1.89-1.17s-1.23-1.16-2.54-1.45-2.55-.73-2.55-2.18,1.53-2.26,2.91-2.26c1.75,0,3.13.51,3.2,2.48h-1.31c-.07-1-.94-1.31-1.82-1.31s-1.67.21-1.67,1,1.38,1.1,2.55,1.39,2.54.72,2.54,2.25c0,1.89-1.74,2.47-3.34,2.47s-3.2-.72-3.27-2.61h1.3Z"/><path class="cls-27" d="M301.64,261.8h1.53V263h-1.53v4.88c0,.58.15.72.95.72h.58v1.17h-1c-1.31,0-1.89-.29-1.89-1.68v-4.94H299V262h1.31v-2.48h1.31v2.33Z"/><path class="cls-27" d="M304.55,261.8h1.24v1.67h0a2.8,2.8,0,0,1,2.84-1.81V263c-2,0-2.84,1.16-2.84,3.12v3.49h-1.24Z"/><path class="cls-27" d="M312.7,270.6c-.58,1.53-1.09,2.11-2.26,2.11a1.78,1.78,0,0,1-.87-.15V271.4a2.71,2.71,0,0,0,.73.15,1.28,1.28,0,0,0,1.09-.73l.51-1.31-3.13-7.78h1.46l2.25,6.4h0l2.18-6.4H316Z"/><path class="cls-32" d="M204.45,350.9v-6.85H208v6.26c0,1.19.47,1.77,1.49,1.77s1.79-.64,1.79-2v-6h3.59v10.5h-3.59v-1.63a3.46,3.46,0,0,1-3.34,1.87C206,354.79,204.45,353.55,204.45,350.9Z"/><path class="cls-32" d="M217.44,344.05H221v1.69a3.7,3.7,0,0,1,3.45-2c2,0,3.44,1.27,3.44,4v6.82h-3.6v-6.1c0-1.19-.46-1.77-1.5-1.77s-1.79.64-1.79,2v5.88h-3.59Z"/><path class="cls-32" d="M230.77,344.05h3.59v1.57a3.7,3.7,0,0,1,3.27-1.85c2.45,0,4.44,1.85,4.44,5.44v.16c0,3.61-2,5.42-4.46,5.42a3.46,3.46,0,0,1-3.25-1.79v5.06h-3.59Zm7.64,5.32v-.16c0-1.85-.8-2.73-2.06-2.73s-2.09.94-2.09,2.71v.16c0,1.79.78,2.69,2.09,2.69S238.41,351.1,238.41,349.37Z"/><path class="cls-32" d="M243.47,351.64c0-2.47,2.09-3.43,5.58-3.43h1V348c0-1-.24-1.67-1.39-1.67a1.28,1.28,0,0,0-1.42,1.24h-3.37c.16-2.52,2.14-3.77,5-3.77s4.74,1.19,4.74,4v6.8h-3.49v-1.22a3.45,3.45,0,0,1-3.11,1.46C245.14,354.79,243.47,353.87,243.47,351.64Zm6.59-.76v-.65h-.95c-1.44,0-2.08.29-2.08,1.15,0,.6.4,1,1.24,1C249.3,352.36,250.06,351.78,250.06,350.88Z"/><path class="cls-32" d="M260.18,353.49l-4.2-9.44h3.89l2.17,5.6,2-5.6h3.43l-5.62,14h-3.43Z"/><path class="cls-32" d="M268.83,344.05h3.75l1.53,6.28,1.76-6.28h2.89l1.57,6.28,1.7-6.28h3.42l-3.34,10.5h-3.43l-1.56-5.86-1.63,5.86H272Z"/><path class="cls-32" d="M286.87,351.64c0-2.47,2.09-3.43,5.58-3.43h1V348c0-1-.24-1.67-1.39-1.67a1.28,1.28,0,0,0-1.42,1.24h-3.37c.16-2.52,2.14-3.77,5-3.77s4.74,1.19,4.74,4v6.8h-3.49v-1.22a3.45,3.45,0,0,1-3.11,1.46C288.54,354.79,286.87,353.87,286.87,351.64Zm6.59-.76v-.65h-.95c-1.44,0-2.08.29-2.08,1.15,0,.6.4,1,1.24,1C292.69,352.36,293.46,351.78,293.46,350.88Z"/><path class="cls-32" d="M299.58,339.44h3.57v15.11h-3.57Z"/><path class="cls-32" d="M305.88,339.44h3.58v15.11h-3.58Z"/><path class="cls-32" d="M182.29,363.6a16.38,16.38,0,0,1,0-32.76h12.3v32.8Zm5.46-16.52H179v-3.7a3.13,3.13,0,0,1,6.25,0v.07a.59.59,0,0,0,.59.6h1.08a.6.6,0,0,0,.6-.6v-.07a5.39,5.39,0,0,0-10.78,0v3.7h-.44a1.09,1.09,0,0,0-1.08,1.09v6.94a1.09,1.09,0,0,0,1.08,1.08h11.45a1.08,1.08,0,0,0,1.08-1.08v-6.94A1.08,1.08,0,0,0,187.75,347.08Z"/><polygon class="cls-28" points="170.73 465.81 170.73 452.07 181.98 448.39 201.88 455.22 170.73 465.81"/><polygon class="cls-29" points="190.62 437.87 170.73 444.71 181.98 448.39 201.88 441.56 190.62 437.87"/><polygon class="cls-27" points="181.98 448.39 201.88 441.56 201.88 455.22 181.98 448.39"/><polygon class="cls-30" points="201.88 420.46 201.88 434.12 190.62 437.87 170.73 430.97 201.88 420.46"/><polygon class="cls-31" points="190.62 437.87 170.73 444.71 170.73 430.97 190.62 437.87"/><path class="cls-27" d="M221.71,445.44a3.87,3.87,0,0,0-3.89-3.08c-3.48,0-4.82,2.95-4.82,6.1,0,2.94,1.34,5.89,4.82,5.89,2.41,0,3.75-1.61,4-4h3.75c-.4,4.42-3.41,7.23-7.77,7.23-5.49,0-8.71-4.08-8.71-9.17s3.22-9.38,8.71-9.38c3.89,0,7.17,2.28,7.64,6.36Z"/><path class="cls-27" d="M227,444.37h3.35v2.41h0a4.61,4.61,0,0,1,4.08-2.74,2.33,2.33,0,0,1,.74.13v3.28a8.13,8.13,0,0,0-1.27-.13c-2.55,0-3.48,1.87-3.48,4.08v5.77H227Z"/><path class="cls-27" d="M241.94,444c4,0,6.63,2.68,6.63,6.76s-2.61,6.77-6.63,6.77-6.63-2.68-6.63-6.77S237.92,444,241.94,444Zm0,10.85c2.41,0,3.15-2.08,3.15-4.09s-.74-4.08-3.15-4.08-3.08,2.07-3.08,4.08S239.53,454.89,241.94,454.89Z"/><path class="cls-27" d="M252.66,453.08c0,1.54,1.34,2.14,2.68,2.14,1,0,2.27-.4,2.27-1.6s-1.47-1.41-4-2c-2-.47-4.08-1.14-4.08-3.42,0-3.28,2.81-4.09,5.56-4.09s5.36.94,5.62,4.09h-3.34c-.07-1.34-1.14-1.74-2.42-1.74-.8,0-1.94.13-1.94,1.2,0,1.28,2,1.41,4,2s4.09,1.2,4.09,3.61c0,3.35-3,4.49-5.83,4.49s-5.9-1.14-6-4.49h3.42Z"/><path class="cls-27" d="M265.52,453.08c0,1.54,1.34,2.14,2.68,2.14,1,0,2.28-.4,2.28-1.6s-1.48-1.41-4-2c-2-.47-4.09-1.14-4.09-3.42,0-3.28,2.81-4.09,5.56-4.09s5.36.94,5.63,4.09h-3.35c-.07-1.34-1.14-1.74-2.41-1.74-.81,0-1.95.13-1.95,1.2,0,1.28,2,1.41,4,2s4.09,1.2,4.09,3.61c0,3.35-2.95,4.49-5.83,4.49s-5.89-1.14-6-4.49h3.42Z"/><path class="cls-27" d="M275.23,444.37h3.35v2.41h.07a4.61,4.61,0,0,1,4.08-2.74,2.33,2.33,0,0,1,.74.13v3.28a8.13,8.13,0,0,0-1.27-.13c-2.55,0-3.49,1.87-3.49,4.08v5.77h-3.48Z"/><path class="cls-27" d="M287.29,451.67c.07,2.21,1.21,3.22,3.15,3.22a2.82,2.82,0,0,0,2.74-1.68h3.09a5.77,5.77,0,0,1-6,4.29c-4,0-6.57-2.75-6.57-6.76a6.46,6.46,0,0,1,6.57-6.77c4.35,0,6.49,3.68,6.23,7.64h-9.18Zm5.76-2.21c-.33-1.81-1.07-2.74-2.81-2.74a2.83,2.83,0,0,0-2.95,2.74Z"/><path class="cls-27" d="M298.48,446.78H296.4v-2.34h2.08v-1c0-2.27,1.4-3.88,4.28-3.88.61,0,1.28.06,1.88.06v2.62a7.73,7.73,0,0,0-1.27-.07c-.94,0-1.34.4-1.34,1.47v.74h2.41v2.35H302v10.45h-3.55Z"/><path class="cls-27" d="M209.85,465.07h7.44v1.21h-6v3.41h5.56v1.21h-5.56v3.68h6v1.21h-7.5Z"/><path class="cls-27" d="M222.31,475.79H221L218.09,468h1.41l2.21,6.5h0l2.14-6.5h1.34Z"/><path class="cls-27" d="M232.43,473.31a3.11,3.11,0,0,1-3.35,2.61c-2.48,0-3.69-1.74-3.76-4.08a3.73,3.73,0,0,1,3.69-4c2.75,0,3.62,2.54,3.48,4.42h-5.83a2.29,2.29,0,0,0,2.42,2.54,1.86,1.86,0,0,0,2-1.54h1.34Zm-1.21-2.14A2.28,2.28,0,0,0,229,469a2.19,2.19,0,0,0-2.21,2.21Z"/><path class="cls-27" d="M233.9,468h1.2v1.2h0a2.76,2.76,0,0,1,2.55-1.4c2.08,0,2.68,1.14,2.68,2.81v5.09h-1.27v-5.29a1.46,1.46,0,0,0-1.61-1.54,2.15,2.15,0,0,0-2.28,2.41v4.42H233.9Z"/><path class="cls-27" d="M243.61,468h1.54v1.14h-1.54V474c0,.6.14.67.94.67h.6v1.14h-1c-1.34,0-1.88-.27-1.88-1.68v-4.95h-1.34V468h1.34v-2.35h1.28V468Z"/><path class="cls-27" d="M251.25,465.07h3.68c3.29,0,5.16,1.68,5.16,5.09,0,3.62-1.61,5.63-5.16,5.63h-3.68Zm1.47,9.51h2.35c1,0,3.61-.26,3.61-4.22,0-2.54-.93-4.08-3.55-4.08h-2.41Z"/><path class="cls-27" d="M268.33,475.79a1.8,1.8,0,0,1-.94.2c-.67,0-1.07-.33-1.07-1.21a3.58,3.58,0,0,1-2.74,1.21c-1.41,0-2.55-.6-2.55-2.21s1.34-2.14,2.61-2.41,2.61-.2,2.61-1.14c0-1.14-.93-1.27-1.74-1.27-1.07,0-1.87.33-1.94,1.47H261.3c.06-1.94,1.54-2.61,3.28-2.61,1.41,0,2.95.33,2.95,2.14v4c0,.6,0,.87.4.87a1,1,0,0,0,.4-.07v1Zm-2.08-4a6.9,6.9,0,0,1-2.34.54c-.87.13-1.54.46-1.54,1.4s.74,1.14,1.47,1.14c1.68,0,2.35-1.07,2.35-1.74v-1.34Z"/><path class="cls-27" d="M271.28,468h1.54v1.14h-1.54V474c0,.6.13.67.94.67h.6v1.14h-1c-1.33,0-1.87-.27-1.87-1.68v-4.95H268.6V468h1.34v-2.35h1.27V468Z"/><path class="cls-27" d="M280.93,475.79a1.85,1.85,0,0,1-.94.2c-.67,0-1.07-.33-1.07-1.21a3.61,3.61,0,0,1-2.75,1.21c-1.41,0-2.55-.6-2.55-2.21s1.34-2.14,2.62-2.41,2.61-.2,2.61-1.14c0-1.14-.94-1.27-1.74-1.27-1.07,0-1.88.33-1.95,1.47h-1.27c.07-1.94,1.54-2.61,3.28-2.61,1.41,0,2.95.33,2.95,2.14v4c0,.6,0,.87.4.87a1,1,0,0,0,.41-.07v1Zm-2.08-4a7,7,0,0,1-2.35.54c-.87.13-1.54.46-1.54,1.4s.74,1.14,1.48,1.14c1.67,0,2.34-1.07,2.34-1.74v-1.34Z"/><path class="cls-33" d="M80.69,521.3a26.54,26.54,0,1,0,26.53,26.53A26.53,26.53,0,0,0,80.69,521.3Zm9.68,26.53a9.68,9.68,0,1,1-9.68-9.68A9.69,9.69,0,0,1,90.37,547.83Z"/><path class="cls-34" d="M117.32,557.52a9.69,9.69,0,1,1,8.31-14.66l14.22-9a26.53,26.53,0,1,0-.37,28.61l-14.22-9A9.67,9.67,0,0,1,117.32,557.52Z"/><path class="cls-35" d="M54.26,582.46a6.15,6.15,0,0,1,.28-1.9,4.49,4.49,0,0,1,.81-1.55,4,4,0,0,1,1.34-1,4.24,4.24,0,0,1,1.83-.38,4.54,4.54,0,0,1,1.9.38,3.8,3.8,0,0,1,1.36,1,4.51,4.51,0,0,1,.82,1.55,6.58,6.58,0,0,1,.28,1.91,6.38,6.38,0,0,1-.28,1.88,4.45,4.45,0,0,1-.81,1.54,3.91,3.91,0,0,1-1.35,1,4.44,4.44,0,0,1-1.88.38,4.4,4.4,0,0,1-1.87-.38,3.91,3.91,0,0,1-1.35-1,4.45,4.45,0,0,1-.81-1.54A6.38,6.38,0,0,1,54.26,582.46Zm4.32,4.11a3.36,3.36,0,0,0,1.54-.34,3.15,3.15,0,0,0,1.07-.91A3.68,3.68,0,0,0,61.8,584a5.63,5.63,0,0,0,.2-1.55,6.14,6.14,0,0,0-.23-1.73,3.75,3.75,0,0,0-.69-1.3,2.94,2.94,0,0,0-1.09-.82,3.53,3.53,0,0,0-1.44-.29,3.2,3.2,0,0,0-1.53.35,3.08,3.08,0,0,0-1.07.92,4,4,0,0,0-.62,1.32,6,6,0,0,0-.2,1.55,6.2,6.2,0,0,0,.2,1.57,4.06,4.06,0,0,0,.62,1.31,3,3,0,0,0,1.07.89A3.27,3.27,0,0,0,58.58,586.57Z"/><path class="cls-35" d="M65.61,589.69h-.77v-9.27h.77v1.17h0a2,2,0,0,1,.43-.58,2.73,2.73,0,0,1,.58-.43,3.14,3.14,0,0,1,.64-.25,2.56,2.56,0,0,1,.66-.09,3.13,3.13,0,0,1,1.37.27,2.43,2.43,0,0,1,.93.74,2.88,2.88,0,0,1,.54,1.11,5.42,5.42,0,0,1,.16,1.37,5,5,0,0,1-.18,1.34,3.43,3.43,0,0,1-.54,1.12,2.69,2.69,0,0,1-.93.77,2.84,2.84,0,0,1-1.31.29,3.09,3.09,0,0,1-1.36-.32,2.41,2.41,0,0,1-1-.93Zm0-5.92a3.42,3.42,0,0,0,.16,1.07,2.85,2.85,0,0,0,.44.89,2.17,2.17,0,0,0,.71.6,1.92,1.92,0,0,0,.94.22,2.12,2.12,0,0,0,1-.23,2.08,2.08,0,0,0,.73-.65,2.79,2.79,0,0,0,.41-1,4.4,4.4,0,0,0,.1-1.17,3.41,3.41,0,0,0-.17-1.11,2.54,2.54,0,0,0-.48-.82,2.25,2.25,0,0,0-.72-.51,2.44,2.44,0,0,0-.9-.17,2,2,0,0,0-1,.22,1.87,1.87,0,0,0-.71.6,2.69,2.69,0,0,0-.43.9A4,4,0,0,0,65.61,583.77Z"/><path class="cls-35" d="M73.33,583.92a3.75,3.75,0,0,0,.14,1,2.37,2.37,0,0,0,.42.84,2,2,0,0,0,.7.56,2.13,2.13,0,0,0,1,.21,2.15,2.15,0,0,0,1.3-.39,2,2,0,0,0,.72-1.13h.86a4.94,4.94,0,0,1-.37.88,2.81,2.81,0,0,1-.58.7,2.55,2.55,0,0,1-.82.47,3.41,3.41,0,0,1-1.11.17,3.19,3.19,0,0,1-1.37-.27,2.6,2.6,0,0,1-1-.74,3.08,3.08,0,0,1-.55-1.1,5,5,0,0,1-.18-1.37,4.43,4.43,0,0,1,.21-1.38,3.54,3.54,0,0,1,.6-1.12,2.87,2.87,0,0,1,1-.76,2.93,2.93,0,0,1,1.28-.27,2.64,2.64,0,0,1,2.16.94,4.14,4.14,0,0,1,.77,2.74Zm4.34-.64a3.1,3.1,0,0,0-.14-.92,2.27,2.27,0,0,0-.39-.74,1.87,1.87,0,0,0-.67-.5,2,2,0,0,0-.91-.19,2.13,2.13,0,0,0-.9.19,2,2,0,0,0-.67.52,2.59,2.59,0,0,0-.44.74,3.3,3.3,0,0,0-.22.9Z"/><path class="cls-35" d="M81,587.07h-.77v-6.65H81v.92a4.9,4.9,0,0,1,1-.79,2.14,2.14,0,0,1,1.18-.31,3.09,3.09,0,0,1,1.15.21,1.94,1.94,0,0,1,.88.74,1.55,1.55,0,0,1,.29.74,6.56,6.56,0,0,1,0,.79v4.35h-.77v-4.34a2,2,0,0,0-.4-1.35,1.7,1.7,0,0,0-1.32-.45,2,2,0,0,0-.66.11,1.94,1.94,0,0,0-.53.29,2,2,0,0,0-.41.41,1.89,1.89,0,0,0-.25.49,2.06,2.06,0,0,0-.14.61c0,.2,0,.42,0,.65Z"/><path class="cls-34" d="M94.32,580.51a2.61,2.61,0,0,0-1-1.68,3.29,3.29,0,0,0-1.91-.51A2.85,2.85,0,0,0,89,579.56a3.84,3.84,0,0,0-.57,1.3,6.06,6.06,0,0,0-.19,1.56,7.07,7.07,0,0,0,.16,1.52,4.2,4.2,0,0,0,.53,1.32,2.88,2.88,0,0,0,1,1,3.09,3.09,0,0,0,1.57.36,3.06,3.06,0,0,0,1.08-.19,2.73,2.73,0,0,0,.86-.54A2.88,2.88,0,0,0,94,585a3.83,3.83,0,0,0,.38-1h.91a5.56,5.56,0,0,1-.45,1.26,3.48,3.48,0,0,1-.77,1.05,3.59,3.59,0,0,1-1.17.71,4.65,4.65,0,0,1-1.61.26,4,4,0,0,1-1.83-.39,3.41,3.41,0,0,1-1.23-1.06,4.15,4.15,0,0,1-.7-1.55,7.41,7.41,0,0,1-.22-1.86,7,7,0,0,1,.32-2.25,4,4,0,0,1,.91-1.51,3.52,3.52,0,0,1,1.36-.85,5.48,5.48,0,0,1,1.71-.26,4.23,4.23,0,0,1,1.31.19,3.24,3.24,0,0,1,1.08.55,3,3,0,0,1,.77.92,4,4,0,0,1,.42,1.27Z"/><path class="cls-34" d="M97.38,579v-1.15h.85V579Zm0,8.1v-6.65h.77v6.65Z"/><path class="cls-34" d="M102.87,587.09l-.37.09a1.61,1.61,0,0,1-.51.07,1.23,1.23,0,0,1-.88-.29,1.41,1.41,0,0,1-.3-1v-4.87h-.94v-.64h.94v-1.85h.77v1.85h1.24v.64h-1.24v4.56c0,.16,0,.3,0,.42a.66.66,0,0,0,.08.3.36.36,0,0,0,.2.16.94.94,0,0,0,.37,0,1.72,1.72,0,0,0,.32,0l.31-.06Z"/><path class="cls-34" d="M107.55,583.19l.52-.08a1.8,1.8,0,0,0,.49-.14.41.41,0,0,0,.24-.3,1.84,1.84,0,0,0,0-.39,1.32,1.32,0,0,0-.37-1,1.8,1.8,0,0,0-1.28-.38,3.29,3.29,0,0,0-.73.07,1.57,1.57,0,0,0-.59.25,1.31,1.31,0,0,0-.41.46,1.8,1.8,0,0,0-.21.72h-.78a2.3,2.3,0,0,1,.26-1,2.23,2.23,0,0,1,.6-.69,2.63,2.63,0,0,1,.85-.38,4.19,4.19,0,0,1,1-.12,3.56,3.56,0,0,1,.94.11,2,2,0,0,1,.77.34,1.65,1.65,0,0,1,.52.64,2.33,2.33,0,0,1,.18,1v3.63a.74.74,0,0,0,.16.57c.11.08.33.06.65-.06v.6l-.26.08a1.4,1.4,0,0,1-.34,0,1.34,1.34,0,0,1-.35,0,.51.51,0,0,1-.31-.12.84.84,0,0,1-.18-.23,1,1,0,0,1-.1-.3c0-.1,0-.22,0-.34a3.23,3.23,0,0,1-2.48,1.11,2.94,2.94,0,0,1-.84-.12,1.88,1.88,0,0,1-.72-.36,1.84,1.84,0,0,1-.48-.59,1.86,1.86,0,0,1-.18-.84c0-1.13.77-1.8,2.32-2Zm1.29.39a4.33,4.33,0,0,1-1,.27l-1,.1a2.72,2.72,0,0,0-1.38.4,1.13,1.13,0,0,0-.49,1,1.09,1.09,0,0,0,.12.53,1.18,1.18,0,0,0,.32.38,1.38,1.38,0,0,0,.46.21,2,2,0,0,0,.54.07,3.41,3.41,0,0,0,.9-.11,2.59,2.59,0,0,0,.77-.35,1.79,1.79,0,0,0,.55-.61,1.68,1.68,0,0,0,.2-.86Z"/><path class="cls-34" d="M114.35,587.09l-.37.09a1.66,1.66,0,0,1-.51.07,1.23,1.23,0,0,1-.88-.29,1.41,1.41,0,0,1-.31-1v-4.87h-.93v-.64h.93v-1.85h.78v1.85h1.24v.64h-1.24v4.56c0,.16,0,.3,0,.42a.66.66,0,0,0,.08.3.34.34,0,0,0,.19.16,1,1,0,0,0,.38,0,1.72,1.72,0,0,0,.32,0l.31-.06Z"/><path class="cls-34" d="M116.05,579v-1.15h.84V579Zm0,8.1v-6.65h.77v6.65Z"/><path class="cls-34" d="M121.85,587.25a3.61,3.61,0,0,1-1.2-.23,2.83,2.83,0,0,1-1-.66,3.34,3.34,0,0,1-.66-1.09,4.43,4.43,0,0,1-.24-1.53,4.61,4.61,0,0,1,.19-1.36,3.22,3.22,0,0,1,.58-1.12,3,3,0,0,1,1-.75,3.54,3.54,0,0,1,2.71,0,2.77,2.77,0,0,1,1,.75,3.09,3.09,0,0,1,.58,1.11,5.09,5.09,0,0,1,.18,1.37,4.35,4.35,0,0,1-.22,1.44,3.16,3.16,0,0,1-.62,1.11,2.87,2.87,0,0,1-1,.71A3.31,3.31,0,0,1,121.85,587.25Zm2.26-3.51a4.31,4.31,0,0,0-.13-1.1,2.5,2.5,0,0,0-.4-.89,1.81,1.81,0,0,0-.69-.6,2.19,2.19,0,0,0-1-.22,2.06,2.06,0,0,0-1,.24,2,2,0,0,0-.7.63,2.63,2.63,0,0,0-.4.9,4,4,0,0,0-.13,1,4.14,4.14,0,0,0,.15,1.14,2.63,2.63,0,0,0,.43.89,2,2,0,0,0,.7.58,2.2,2.2,0,0,0,1,.2,2.06,2.06,0,0,0,1-.23,2,2,0,0,0,.7-.64,2.63,2.63,0,0,0,.4-.9A4,4,0,0,0,124.11,583.74Z"/><path class="cls-34" d="M127.5,587.07h-.77v-6.65h.77v.92a4.9,4.9,0,0,1,1-.79,2.14,2.14,0,0,1,1.18-.31,3.06,3.06,0,0,1,1.15.21,1.94,1.94,0,0,1,.88.74,1.55,1.55,0,0,1,.29.74,6.56,6.56,0,0,1,0,.79v4.35h-.77v-4.34a2,2,0,0,0-.4-1.35,1.7,1.7,0,0,0-1.32-.45,2,2,0,0,0-.66.11,1.94,1.94,0,0,0-.53.29,2.27,2.27,0,0,0-.41.41,1.89,1.89,0,0,0-.25.49,2.06,2.06,0,0,0-.14.61c0,.2,0,.42,0,.65Z"/><path class="cls-34" d="M134.7,585a2,2,0,0,0,.65,1.21,2.16,2.16,0,0,0,1.34.35,2.32,2.32,0,0,0,.74-.1,1.58,1.58,0,0,0,.5-.27,1.2,1.2,0,0,0,.41-.86.85.85,0,0,0-.32-.72,2.33,2.33,0,0,0-.79-.38c-.31-.09-.66-.16-1-.23a4.73,4.73,0,0,1-1-.29,1.94,1.94,0,0,1-.79-.55,1.49,1.49,0,0,1-.32-1,1.76,1.76,0,0,1,.61-1.37,2.59,2.59,0,0,1,1.73-.53,3,3,0,0,1,1.75.48,2.19,2.19,0,0,1,.82,1.61h-.78a1.45,1.45,0,0,0-.59-1.08,2.16,2.16,0,0,0-1.21-.32,1.74,1.74,0,0,0-1.12.32,1,1,0,0,0-.38.82.81.81,0,0,0,.31.69,2.53,2.53,0,0,0,.79.39c.32.09.66.18,1,.26a5.08,5.08,0,0,1,1,.33,2.2,2.2,0,0,1,.79.57,1.46,1.46,0,0,1,.32,1,1.64,1.64,0,0,1-.21.84,1.72,1.72,0,0,1-.56.61,2.94,2.94,0,0,1-.86.37,4.52,4.52,0,0,1-1.08.12,3.12,3.12,0,0,1-1-.17,2.26,2.26,0,0,1-.77-.49,2,2,0,0,1-.5-.72,2.53,2.53,0,0,1-.21-.88Z"/><circle class="cls-36" cx="80.69" cy="547.83" r="26.53"/><path class="cls-37" d="M364.68,760.47c10.16,0,16.68,7.38,16.68,16,0,8.45-6.23,16-16.68,16-10.17.1-16.59-7.48-16.59-15.92C348.09,767.85,354.7,760.47,364.68,760.47Zm0,28.06a11.95,11.95,0,1,0-12-11.94A11.69,11.69,0,0,0,364.68,788.53Zm30.05-27.45c6.27,0,10.23,3.35,10.23,8.62a7.73,7.73,0,0,1-5.21,7.55c2.79,1.82,4.53,4.69,6.95,8.52,1.35,2.11,2.12,3.16,4.24,6.12h-5.31l-4.15-6.31c-4.15-6.32-6-7.08-8.3-7.08h-1.83v13.39h-4.44V761.08Zm-3.38,13.4h2.89c4.83,0,6.18-2.49,6.09-5,0-2.87-1.74-4.69-6.09-4.69h-2.89v9.67Zm47-6.56c-3.81-2.23-7.05-3.29-10.58-3.29-7.05,0-12.29,5-12.29,11.91s5.05,11.81,12.38,11.81a20.72,20.72,0,0,0,10.77-3.49v4.94a21.83,21.83,0,0,1-11.15,2.71c-11.53,0-16.58-9-16.58-15.59,0-9.48,7.05-16.45,16.87-16.45A27.22,27.22,0,0,1,438.39,763v4.94Z"/><path class="cls-38" d="M455.93,761.08h11.93c11.36,0,16.41,8.14,16.41,15.41,0,7.94-6.2,15.4-16.32,15.4h-12Zm4.39,26.8h7.06c10,0,12.31-7.66,12.31-11.49,0-6.22-3.91-11.48-12.5-11.48h-6.78v23Z"/><path class="cls-38" d="M449.22,791.89h-4.46V760.71h4.46v31.18Zm.68-37.76a2.91,2.91,0,0,1-5.81,0,3,3,0,0,1,2.9-2.91A2.92,2.92,0,0,1,449.9,754.13Z"/><path d="M210.82,560.52V555c0-.28,0-.73.07-1.35h0c-.05.17-.1.31-.14.43l-.12.3-2.77,6.1h-.31l-2.77-6.06a5.16,5.16,0,0,1-.25-.78h0c0,.17,0,.36,0,.58s0,.46,0,.72v5.54h-.72v-7.93h.87l2.69,6c0,.12.11.25.16.38s.1.27.15.42h0l.14-.4c0-.12.1-.26.16-.4l2.71-6h.83v7.93Z"/><path d="M214.18,553.42a.48.48,0,0,1-.36-.14.49.49,0,0,1-.15-.36.46.46,0,0,1,.15-.36.52.52,0,0,1,.36-.14.69.69,0,0,1,.2,0,.57.57,0,0,1,.16.11.58.58,0,0,1,.11.15.46.46,0,0,1,0,.21.41.41,0,0,1,0,.19.39.39,0,0,1-.11.17.91.91,0,0,1-.16.11A.64.64,0,0,1,214.18,553.42Zm-.35,7.1v-5.66h.71v5.66Z"/><path d="M220.46,560.26a2.91,2.91,0,0,1-1.52.4,2.77,2.77,0,0,1-1.1-.21,2.49,2.49,0,0,1-.82-.6,2.66,2.66,0,0,1-.53-.91,3.49,3.49,0,0,1-.18-1.14,3.58,3.58,0,0,1,.19-1.19,3,3,0,0,1,.56-1A2.63,2.63,0,0,1,218,555a2.85,2.85,0,0,1,1.23-.25,3,3,0,0,1,1.28.27v.76a2.32,2.32,0,0,0-1.34-.41,2,2,0,0,0-.89.19,1.86,1.86,0,0,0-.66.52,2.19,2.19,0,0,0-.41.77,2.83,2.83,0,0,0-.14.93,3.15,3.15,0,0,0,.12.87,2.26,2.26,0,0,0,.36.73,1.69,1.69,0,0,0,.62.5,1.91,1.91,0,0,0,.89.19,2.36,2.36,0,0,0,1.43-.47Z"/><path d="M225,555.58a1.05,1.05,0,0,0-.64-.18,1,1,0,0,0-.5.11,1,1,0,0,0-.37.29,1.54,1.54,0,0,0-.28.42,2.3,2.3,0,0,0-.18.5,3.18,3.18,0,0,0-.1.52,4.63,4.63,0,0,0,0,.51v2.77h-.71v-5.66h.71v1.21h0a2.87,2.87,0,0,1,.25-.56,1.76,1.76,0,0,1,.35-.41,1.31,1.31,0,0,1,.44-.26,1.33,1.33,0,0,1,.49-.09l.31,0,.24.07Z"/><path d="M228.51,560.65a2.88,2.88,0,0,1-1.13-.21,2.49,2.49,0,0,1-.86-.59,2.9,2.9,0,0,1-.54-.92,3.76,3.76,0,0,1-.19-1.19,3.8,3.8,0,0,1,.2-1.27,2.74,2.74,0,0,1,.57-1,2.28,2.28,0,0,1,.89-.59,3,3,0,0,1,1.16-.21,2.73,2.73,0,0,1,1.1.21,2.15,2.15,0,0,1,.84.58,2.47,2.47,0,0,1,.52.93,3.67,3.67,0,0,1,.19,1.24,3.84,3.84,0,0,1-.19,1.21,2.84,2.84,0,0,1-.55.94,2.38,2.38,0,0,1-.86.6A2.81,2.81,0,0,1,228.51,560.65Zm.05-5.31a2.06,2.06,0,0,0-.84.16,1.72,1.72,0,0,0-.64.46,2.06,2.06,0,0,0-.41.76,3.11,3.11,0,0,0-.15,1,2.83,2.83,0,0,0,.15.95,2.06,2.06,0,0,0,.4.73,1.87,1.87,0,0,0,.64.47,2.06,2.06,0,0,0,.84.16,2,2,0,0,0,.84-.16,1.55,1.55,0,0,0,.62-.45,2.18,2.18,0,0,0,.39-.74,3.79,3.79,0,0,0,.13-1,2.67,2.67,0,0,0-.51-1.75A1.81,1.81,0,0,0,228.56,555.34Z"/><path d="M232.7,559.5a2.12,2.12,0,0,0,.35.23c.13.06.25.12.39.17a2.62,2.62,0,0,0,.4.11l.38,0c.84,0,1.26-.31,1.26-.94a.76.76,0,0,0-.09-.38.94.94,0,0,0-.25-.28,1.7,1.7,0,0,0-.4-.24c-.15-.08-.33-.16-.52-.24a4.35,4.35,0,0,1-.68-.32,1.94,1.94,0,0,1-.46-.36,1.45,1.45,0,0,1-.27-.44,1.44,1.44,0,0,1-.09-.53,1.35,1.35,0,0,1,.16-.67,1.74,1.74,0,0,1,.44-.5,2.24,2.24,0,0,1,.64-.31,2.68,2.68,0,0,1,.76-.11A2.84,2.84,0,0,1,236,555v.75a2.42,2.42,0,0,0-1.37-.41,1.75,1.75,0,0,0-.48.06,1.35,1.35,0,0,0-.38.19,1,1,0,0,0-.24.29.91.91,0,0,0-.08.37,1,1,0,0,0,.06.37,1,1,0,0,0,.21.29,2.38,2.38,0,0,0,.37.24c.15.08.33.16.54.25a6.91,6.91,0,0,1,.71.33,2.13,2.13,0,0,1,.49.35,1.21,1.21,0,0,1,.29.43,1.49,1.49,0,0,1,.09.54,1.37,1.37,0,0,1-.16.68,1.5,1.5,0,0,1-.43.51,2.23,2.23,0,0,1-.66.31,3.47,3.47,0,0,1-.82.1,2.7,2.7,0,0,1-1.44-.36Z"/><path d="M240.28,560.65a2.88,2.88,0,0,1-1.13-.21,2.49,2.49,0,0,1-.86-.59,2.9,2.9,0,0,1-.54-.92,3.76,3.76,0,0,1-.19-1.19,3.8,3.8,0,0,1,.2-1.27,2.74,2.74,0,0,1,.57-1,2.28,2.28,0,0,1,.89-.59,3,3,0,0,1,1.16-.21,2.73,2.73,0,0,1,1.1.21,2.15,2.15,0,0,1,.84.58,2.47,2.47,0,0,1,.52.93,3.67,3.67,0,0,1,.19,1.24,3.84,3.84,0,0,1-.19,1.21,2.84,2.84,0,0,1-.55.94,2.38,2.38,0,0,1-.86.6A2.81,2.81,0,0,1,240.28,560.65Zm.05-5.31a2.06,2.06,0,0,0-.84.16,1.72,1.72,0,0,0-.64.46,2.06,2.06,0,0,0-.41.76,3.11,3.11,0,0,0-.15,1,2.83,2.83,0,0,0,.15.95,2.06,2.06,0,0,0,.4.73,1.87,1.87,0,0,0,.64.47,2.06,2.06,0,0,0,.84.16,2,2,0,0,0,.84-.16,1.55,1.55,0,0,0,.62-.45,2.18,2.18,0,0,0,.39-.74,3.79,3.79,0,0,0,.13-1,2.67,2.67,0,0,0-.51-1.75A1.81,1.81,0,0,0,240.33,555.34Z"/><path d="M247.22,552.8a1.1,1.1,0,0,0-.61-.15c-.66,0-1,.43-1,1.3v.91H247v.62h-1.41v5h-.71v-5h-1v-.62h1v-1a2.37,2.37,0,0,1,.11-.78,1.66,1.66,0,0,1,.31-.59,1.47,1.47,0,0,1,.53-.38,2.07,2.07,0,0,1,.73-.13,1.52,1.52,0,0,1,.63.11Z"/><path d="M250.9,560.45a1.8,1.8,0,0,1-.8.18c-.91,0-1.37-.52-1.37-1.58v-3.57h-1v-.62h1v-1.43l.71-.23v1.66h1.46v.62h-1.46v3.46a1.37,1.37,0,0,0,.19.83.72.72,0,0,0,.63.26,1.18,1.18,0,0,0,.64-.2Z"/><path d="M261.1,560.52l-.88-2.35h-3.4l-.85,2.35h-.82l3-7.93h.74l3,7.93ZM258.68,554l-.08-.25a2.05,2.05,0,0,1-.07-.31h0c0,.12-.05.22-.07.31l-.08.25-1.29,3.52H260Z"/><path d="M267.15,560.26a2.91,2.91,0,0,1-1.52.4,2.77,2.77,0,0,1-1.1-.21,2.64,2.64,0,0,1-.83-.6,2.81,2.81,0,0,1-.52-.91,3.49,3.49,0,0,1-.18-1.14,3.58,3.58,0,0,1,.19-1.19,3,3,0,0,1,.56-1,2.63,2.63,0,0,1,.91-.66,2.85,2.85,0,0,1,1.23-.25,3,3,0,0,1,1.28.27v.76a2.32,2.32,0,0,0-1.34-.41,2,2,0,0,0-.89.19,1.86,1.86,0,0,0-.66.52,2.19,2.19,0,0,0-.41.77,2.83,2.83,0,0,0-.14.93,3.15,3.15,0,0,0,.12.87,2.08,2.08,0,0,0,.36.73,1.69,1.69,0,0,0,.62.5,1.91,1.91,0,0,0,.89.19,2.36,2.36,0,0,0,1.43-.47Z"/><path d="M272.12,560.52v-1h0a2,2,0,0,1-.75.84,2,2,0,0,1-1.08.3,2.17,2.17,0,0,1-.74-.12,1.47,1.47,0,0,1-.56-.32,1.64,1.64,0,0,1-.48-1.17,1.62,1.62,0,0,1,.48-1.23,2.56,2.56,0,0,1,1.44-.59l1.72-.25c0-1.09-.43-1.63-1.27-1.63a2.8,2.8,0,0,0-1.84.72v-.77a2.6,2.6,0,0,1,.4-.23,3.41,3.41,0,0,1,.48-.18,2.71,2.71,0,0,1,.51-.11,2.94,2.94,0,0,1,.51,0,1.85,1.85,0,0,1,1.43.53,2.32,2.32,0,0,1,.48,1.59v3.68Zm-1.46-2.75a4.17,4.17,0,0,0-.66.14,1.21,1.21,0,0,0-.44.22.81.81,0,0,0-.26.35,1.29,1.29,0,0,0-.09.51,1.16,1.16,0,0,0,.08.42,1,1,0,0,0,.24.34,1,1,0,0,0,.37.21,1.26,1.26,0,0,0,.49.08,1.74,1.74,0,0,0,.69-.14,1.81,1.81,0,0,0,.55-.4,1.93,1.93,0,0,0,.36-.61,2.34,2.34,0,0,0,.13-.77v-.55Z"/><path d="M278.84,560.52v-1h0a1.89,1.89,0,0,1-.8.83,2.46,2.46,0,0,1-2.15.1,2.17,2.17,0,0,1-.75-.56,2.75,2.75,0,0,1-.47-.9,3.64,3.64,0,0,1-.17-1.19,4.15,4.15,0,0,1,.18-1.25,2.92,2.92,0,0,1,.53-1A2.31,2.31,0,0,1,276,555a2.43,2.43,0,0,1,1.06-.23,1.84,1.84,0,0,1,1.75,1h0v-3.56h.7v8.38Zm0-3.42a1.93,1.93,0,0,0-.13-.69,1.74,1.74,0,0,0-.36-.56,1.58,1.58,0,0,0-.54-.37,1.62,1.62,0,0,0-.7-.14,1.77,1.77,0,0,0-.77.16,1.67,1.67,0,0,0-.61.48,2.18,2.18,0,0,0-.39.76,3.23,3.23,0,0,0-.14,1,3.5,3.5,0,0,0,.12,1,2.23,2.23,0,0,0,.37.72,1.64,1.64,0,0,0,.56.45,1.72,1.72,0,0,0,.72.15,1.94,1.94,0,0,0,.78-.15,1.79,1.79,0,0,0,.58-.43,1.83,1.83,0,0,0,.38-.63,2.55,2.55,0,0,0,.13-.78Z"/><path d="M282,557.81a3.38,3.38,0,0,0,.14.94,2.14,2.14,0,0,0,.38.7,1.68,1.68,0,0,0,.61.44,2.07,2.07,0,0,0,.8.15,2.86,2.86,0,0,0,1.81-.67v.7a3.28,3.28,0,0,1-2,.58,2.63,2.63,0,0,1-1-.2,2.06,2.06,0,0,1-.79-.58,2.44,2.44,0,0,1-.5-.93,4.08,4.08,0,0,1-.18-1.26,3.48,3.48,0,0,1,.19-1.18,2.84,2.84,0,0,1,.54-.93,2.44,2.44,0,0,1,.81-.62,2.36,2.36,0,0,1,1-.23,2.47,2.47,0,0,1,1,.19,1.89,1.89,0,0,1,.7.55,2.41,2.41,0,0,1,.44.86,4,4,0,0,1,.15,1.14v.35Zm3.37-.62a2.3,2.3,0,0,0-.42-1.37,1.4,1.4,0,0,0-1.13-.48,1.76,1.76,0,0,0-.66.12,1.58,1.58,0,0,0-.54.37,1.9,1.9,0,0,0-.39.59,3,3,0,0,0-.21.77Z"/><path d="M295,560.52v-3.33a4.12,4.12,0,0,0-.08-.86,1.42,1.42,0,0,0-.24-.57.91.91,0,0,0-.41-.32,1.57,1.57,0,0,0-.6-.1,1.31,1.31,0,0,0-.59.14,1.57,1.57,0,0,0-.48.41,1.93,1.93,0,0,0-.33.6,2.31,2.31,0,0,0-.12.75v3.28h-.71v-3.4c0-1.19-.45-1.78-1.36-1.78a1.2,1.2,0,0,0-.59.14,1.35,1.35,0,0,0-.47.39,2,2,0,0,0-.32.61,2.79,2.79,0,0,0-.11.79v3.25h-.71v-5.66h.71v.91h0a1.9,1.9,0,0,1,1.74-1,1.79,1.79,0,0,1,.57.09,1.76,1.76,0,0,1,.84.65,2.07,2.07,0,0,1,.23.5,2.14,2.14,0,0,1,.77-.92,1.93,1.93,0,0,1,1.08-.32c1.24,0,1.87.77,1.87,2.3v3.5Z"/><path d="M298.08,553.42a.48.48,0,0,1-.36-.14.49.49,0,0,1-.15-.36.46.46,0,0,1,.15-.36.52.52,0,0,1,.36-.14.69.69,0,0,1,.2,0,.57.57,0,0,1,.16.11.58.58,0,0,1,.11.15.46.46,0,0,1,0,.21.41.41,0,0,1,0,.19.39.39,0,0,1-.11.17.91.91,0,0,1-.16.11A.64.64,0,0,1,298.08,553.42Zm-.35,7.1v-5.66h.71v5.66Z"/><path d="M304.37,560.26a3,3,0,0,1-1.53.4,2.77,2.77,0,0,1-1.1-.21,2.49,2.49,0,0,1-.82-.6,2.66,2.66,0,0,1-.53-.91,3.49,3.49,0,0,1-.18-1.14,3.58,3.58,0,0,1,.19-1.19,3,3,0,0,1,.56-1,2.63,2.63,0,0,1,.91-.66,2.85,2.85,0,0,1,1.23-.25,3,3,0,0,1,1.28.27v.76a2.32,2.32,0,0,0-1.34-.41,2,2,0,0,0-.89.19,1.86,1.86,0,0,0-.66.52,2.19,2.19,0,0,0-.41.77,2.83,2.83,0,0,0-.14.93,3.15,3.15,0,0,0,.12.87,2.26,2.26,0,0,0,.36.73,1.69,1.69,0,0,0,.62.5,1.91,1.91,0,0,0,.89.19,2.41,2.41,0,0,0,1.44-.47Z"/><g id="Layer_3-2" data-name="Layer 3"><path class="cls-39" d="M194.81,566.08c-.22-1.25-.36-2.62-.71-3.92a13.59,13.59,0,0,0-3.81-5.82c-1.36-1.39-2.84-2.65-4.26-4l-.53-.51c2.37-2.77,4.71-5.5,7.12-8.33.69.73,1.34,1.36,1.92,2.05a14.88,14.88,0,0,1,3.73,7.53,6.42,6.42,0,0,1-.13,2.69C197.08,559.29,195.9,562.74,194.81,566.08Z"/><path class="cls-39" d="M194.05,567.23c-4.4-5.89-9.24-11-16.52-13.25l9.19-8.23,1.95,1.13-4.5,5.15,2.71,2.27a29.65,29.65,0,0,1,4.77,5.05A13.17,13.17,0,0,1,194.05,567.23Z"/><path class="cls-39" d="M174.7,558.5l3.22-3.45c6.54,2.48,11.38,6.92,15.39,12.4C187.7,563.24,181.81,559.62,174.7,558.5Z"/><path class="cls-39" d="M192.29,567.46c-5.4-2.82-11-5.1-17.24-5.43l2.57-2C183.12,561.27,187.74,564.31,192.29,567.46Z"/></g><path d="M210.82,664v-5.48c0-.28,0-.73.07-1.35h0l-.14.43-.12.3-2.77,6.1h-.31l-2.77-6.06a5.16,5.16,0,0,1-.25-.78h0c0,.17,0,.36,0,.58s0,.46,0,.72V664h-.72V656h.87l2.69,6c0,.12.11.25.16.38l.15.42h0l.14-.4a4.16,4.16,0,0,1,.16-.4l2.71-6h.83V664Z"/><path d="M214.18,656.86a.52.52,0,0,1-.36-.14.5.5,0,0,1-.15-.37.45.45,0,0,1,.15-.35.48.48,0,0,1,.36-.14.69.69,0,0,1,.2,0l.16.1a.91.91,0,0,1,.11.16.52.52,0,0,1,0,.4.39.39,0,0,1-.11.17.54.54,0,0,1-.16.1A.45.45,0,0,1,214.18,656.86Zm-.35,7.1v-5.67h.71V664Z"/><path d="M220.46,663.7a2.82,2.82,0,0,1-1.52.39,2.46,2.46,0,0,1-1.1-.21,2.24,2.24,0,0,1-.82-.6,2.52,2.52,0,0,1-.53-.9,3.49,3.49,0,0,1-.18-1.14,3.68,3.68,0,0,1,.19-1.2,2.9,2.9,0,0,1,.56-1,2.8,2.8,0,0,1,.91-.67,3.22,3.22,0,0,1,2.51,0v.75a2.39,2.39,0,0,0-1.34-.4,2,2,0,0,0-.89.19,1.86,1.86,0,0,0-.66.52,2.14,2.14,0,0,0-.41.76,2.93,2.93,0,0,0-.14.94,3,3,0,0,0,.12.86,2.32,2.32,0,0,0,.36.74,1.69,1.69,0,0,0,.62.5,1.91,1.91,0,0,0,.89.19,2.3,2.3,0,0,0,1.43-.48Z"/><path d="M225,659a1.05,1.05,0,0,0-.64-.18,1.15,1.15,0,0,0-.5.1,1.32,1.32,0,0,0-.37.29,1.77,1.77,0,0,0-.28.43,2.13,2.13,0,0,0-.18.5,3.18,3.18,0,0,0-.1.52,4.63,4.63,0,0,0,0,.51V664h-.71v-5.67h.71v1.21h0a2.78,2.78,0,0,1,.25-.55,2.06,2.06,0,0,1,.35-.42,1.48,1.48,0,0,1,.44-.25,1.33,1.33,0,0,1,.49-.09l.31,0,.24.07Z"/><path d="M228.51,664.09a2.88,2.88,0,0,1-1.13-.21,2.38,2.38,0,0,1-.86-.6,2.7,2.7,0,0,1-.54-.92,3.67,3.67,0,0,1-.19-1.19,3.78,3.78,0,0,1,.2-1.26,2.74,2.74,0,0,1,.57-.95,2.28,2.28,0,0,1,.89-.59,3,3,0,0,1,1.16-.21,2.92,2.92,0,0,1,1.1.2,2.29,2.29,0,0,1,.84.59,2.47,2.47,0,0,1,.52.93,3.63,3.63,0,0,1,.19,1.24,3.88,3.88,0,0,1-.19,1.21,2.7,2.7,0,0,1-.55.93,2.29,2.29,0,0,1-.86.61A2.81,2.81,0,0,1,228.51,664.09Zm.05-5.31a2.06,2.06,0,0,0-.84.16,1.72,1.72,0,0,0-.64.46,2.1,2.1,0,0,0-.41.75,3.2,3.2,0,0,0-.15,1,2.85,2.85,0,0,0,.15,1,2.15,2.15,0,0,0,.4.73,1.87,1.87,0,0,0,.64.47,2.06,2.06,0,0,0,.84.16,2,2,0,0,0,.84-.16,1.58,1.58,0,0,0,.62-.46,2,2,0,0,0,.39-.73,3.85,3.85,0,0,0,.13-1,2.65,2.65,0,0,0-.51-1.75A1.81,1.81,0,0,0,228.56,658.78Z"/><path d="M232.7,662.94a2.07,2.07,0,0,0,.35.22,2.76,2.76,0,0,0,.39.18,2.6,2.6,0,0,0,.4.1,1.69,1.69,0,0,0,.38,0c.84,0,1.26-.32,1.26-1a.75.75,0,0,0-.09-.37,1.11,1.11,0,0,0-.25-.29,2.81,2.81,0,0,0-.4-.24l-.52-.23a5.5,5.5,0,0,1-.68-.32,2.25,2.25,0,0,1-.46-.37,1.3,1.3,0,0,1-.27-.43,1.44,1.44,0,0,1-.09-.53,1.33,1.33,0,0,1,.16-.67,1.62,1.62,0,0,1,.44-.5,2.24,2.24,0,0,1,.64-.31,2.68,2.68,0,0,1,.76-.11,2.72,2.72,0,0,1,1.28.28v.74a2.49,2.49,0,0,0-1.37-.4,1.75,1.75,0,0,0-.48.06,1.35,1.35,0,0,0-.38.19,1,1,0,0,0-.24.29.91.91,0,0,0-.08.37,1,1,0,0,0,.06.37,1,1,0,0,0,.21.29,2.38,2.38,0,0,0,.37.24c.15.08.33.16.54.25a6.91,6.91,0,0,1,.71.33,2.13,2.13,0,0,1,.49.35,1.21,1.21,0,0,1,.29.43,1.45,1.45,0,0,1,.09.54,1.43,1.43,0,0,1-.59,1.18,2,2,0,0,1-.66.31,3,3,0,0,1-.82.11,2.7,2.7,0,0,1-1.44-.36Z"/><path d="M240.28,664.09a2.88,2.88,0,0,1-1.13-.21,2.38,2.38,0,0,1-.86-.6,2.7,2.7,0,0,1-.54-.92,3.67,3.67,0,0,1-.19-1.19,3.78,3.78,0,0,1,.2-1.26,2.74,2.74,0,0,1,.57-.95,2.28,2.28,0,0,1,.89-.59,3,3,0,0,1,1.16-.21,2.92,2.92,0,0,1,1.1.2,2.29,2.29,0,0,1,.84.59,2.47,2.47,0,0,1,.52.93,3.63,3.63,0,0,1,.19,1.24,3.88,3.88,0,0,1-.19,1.21,2.7,2.7,0,0,1-.55.93,2.29,2.29,0,0,1-.86.61A2.81,2.81,0,0,1,240.28,664.09Zm.05-5.31a2.06,2.06,0,0,0-.84.16,1.72,1.72,0,0,0-.64.46,2.1,2.1,0,0,0-.41.75,3.2,3.2,0,0,0-.15,1,2.85,2.85,0,0,0,.15,1,2.15,2.15,0,0,0,.4.73,1.87,1.87,0,0,0,.64.47,2.06,2.06,0,0,0,.84.16,2,2,0,0,0,.84-.16,1.58,1.58,0,0,0,.62-.46,2,2,0,0,0,.39-.73,3.85,3.85,0,0,0,.13-1,2.65,2.65,0,0,0-.51-1.75A1.81,1.81,0,0,0,240.33,658.78Z"/><path d="M247.22,656.24a1.1,1.1,0,0,0-.61-.15c-.66,0-1,.43-1,1.3v.9H247v.62h-1.41V664h-.71v-5.05h-1v-.62h1v-.95a2.35,2.35,0,0,1,.11-.77,1.58,1.58,0,0,1,.31-.59,1.47,1.47,0,0,1,.53-.38,1.86,1.86,0,0,1,.73-.13,1.53,1.53,0,0,1,.63.1Z"/><path d="M250.9,663.89a1.8,1.8,0,0,1-.8.18c-.91,0-1.37-.53-1.37-1.58v-3.58h-1v-.62h1v-1.42l.71-.23v1.65h1.46v.62h-1.46v3.47a1.39,1.39,0,0,0,.19.83.72.72,0,0,0,.63.25,1.1,1.1,0,0,0,.64-.2Z"/><path d="M261.1,664l-.88-2.35h-3.4L256,664h-.82l3-7.93h.74l3,7.93Zm-2.42-6.54-.08-.25a2.38,2.38,0,0,1-.07-.31h0c0,.11-.05.22-.07.31l-.08.25-1.29,3.52H260Z"/><path d="M267.15,663.7a2.82,2.82,0,0,1-1.52.39,2.46,2.46,0,0,1-1.1-.21,2.36,2.36,0,0,1-.83-.6,2.66,2.66,0,0,1-.52-.9,3.49,3.49,0,0,1-.18-1.14,3.68,3.68,0,0,1,.19-1.2,2.9,2.9,0,0,1,.56-1,2.8,2.8,0,0,1,.91-.67,3.22,3.22,0,0,1,2.51,0v.75a2.39,2.39,0,0,0-1.34-.4,2,2,0,0,0-.89.19,1.86,1.86,0,0,0-.66.52,2.14,2.14,0,0,0-.41.76,2.93,2.93,0,0,0-.14.94,3,3,0,0,0,.12.86,2.13,2.13,0,0,0,.36.74,1.69,1.69,0,0,0,.62.5,1.91,1.91,0,0,0,.89.19,2.3,2.3,0,0,0,1.43-.48Z"/><path d="M272.12,664v-1h0a2,2,0,0,1-.75.84,2,2,0,0,1-1.08.3,2.17,2.17,0,0,1-.74-.12,1.49,1.49,0,0,1-.56-.33,1.41,1.41,0,0,1-.35-.51,1.77,1.77,0,0,1,.35-1.88,2.63,2.63,0,0,1,1.44-.6l1.72-.24c0-1.09-.43-1.63-1.27-1.63a2.8,2.8,0,0,0-1.84.72v-.77a2,2,0,0,1,.4-.23,3.41,3.41,0,0,1,.48-.18,3.81,3.81,0,0,1,.51-.12,4.38,4.38,0,0,1,.51,0,1.85,1.85,0,0,1,1.43.53,2.3,2.3,0,0,1,.48,1.58V664Zm-1.46-2.75a3.29,3.29,0,0,0-.66.14,1.21,1.21,0,0,0-.44.22.75.75,0,0,0-.26.35,1.29,1.29,0,0,0-.09.51,1.16,1.16,0,0,0,.08.42.88.88,0,0,0,.24.33.91.91,0,0,0,.37.22,1.48,1.48,0,0,0,.49.08,1.74,1.74,0,0,0,.69-.14,1.81,1.81,0,0,0,.55-.4,1.93,1.93,0,0,0,.36-.61,2.39,2.39,0,0,0,.13-.77V661Z"/><path d="M278.84,664v-1h0a1.89,1.89,0,0,1-.8.83,2.46,2.46,0,0,1-2.15.1,2.17,2.17,0,0,1-.75-.56,2.75,2.75,0,0,1-.47-.9,3.68,3.68,0,0,1-.17-1.19,4.1,4.1,0,0,1,.18-1.25,2.92,2.92,0,0,1,.53-1,2.11,2.11,0,0,1,.82-.63,2.43,2.43,0,0,1,1.06-.23,1.84,1.84,0,0,1,1.75,1h0v-3.57h.7V664Zm0-3.42a1.93,1.93,0,0,0-.13-.69,1.63,1.63,0,0,0-.36-.56,1.75,1.75,0,0,0-.54-.38,1.94,1.94,0,0,0-1.47,0,1.67,1.67,0,0,0-.61.48,2.18,2.18,0,0,0-.39.76,3.23,3.23,0,0,0-.14,1,3.6,3.6,0,0,0,.12,1,2.23,2.23,0,0,0,.37.72,1.64,1.64,0,0,0,.56.45,1.72,1.72,0,0,0,.72.15,1.94,1.94,0,0,0,.78-.15,1.86,1.86,0,0,0,1-1.07,2.45,2.45,0,0,0,.13-.78Z"/><path d="M282,661.25a3.38,3.38,0,0,0,.14.94,2.14,2.14,0,0,0,.38.7,1.68,1.68,0,0,0,.61.44,2.07,2.07,0,0,0,.8.15,2.86,2.86,0,0,0,1.81-.67v.7a3.35,3.35,0,0,1-2,.58,2.63,2.63,0,0,1-1-.2,2.16,2.16,0,0,1-.79-.58,2.44,2.44,0,0,1-.5-.93,4.08,4.08,0,0,1-.18-1.26,3.48,3.48,0,0,1,.19-1.18A3,3,0,0,1,282,659a2.41,2.41,0,0,1,.81-.61,2.36,2.36,0,0,1,1-.23,2.47,2.47,0,0,1,1,.19,1.89,1.89,0,0,1,.7.55,2.41,2.41,0,0,1,.44.86,4,4,0,0,1,.15,1.14v.35Zm3.37-.62a2.28,2.28,0,0,0-.42-1.37,1.4,1.4,0,0,0-1.13-.48,1.76,1.76,0,0,0-.66.12,1.58,1.58,0,0,0-.54.37,1.9,1.9,0,0,0-.39.59,3,3,0,0,0-.21.77Z"/><path d="M295,664v-3.33a4.12,4.12,0,0,0-.08-.86,1.36,1.36,0,0,0-.24-.57,1,1,0,0,0-.41-.33,1.8,1.8,0,0,0-.6-.09,1.2,1.2,0,0,0-.59.14,1.44,1.44,0,0,0-.48.41,1.93,1.93,0,0,0-.33.6,2.27,2.27,0,0,0-.12.75V664h-.71v-3.4c0-1.19-.45-1.78-1.36-1.78a1.2,1.2,0,0,0-.59.14,1.35,1.35,0,0,0-.47.39,1.86,1.86,0,0,0-.32.61,2.79,2.79,0,0,0-.11.79V664h-.71v-5.67h.71v.92h0a1.9,1.9,0,0,1,1.74-1.05,1.79,1.79,0,0,1,.57.09,1.66,1.66,0,0,1,.47.26,2,2,0,0,1,.37.39,2,2,0,0,1,.23.49,2.17,2.17,0,0,1,.77-.91,1.93,1.93,0,0,1,1.08-.32c1.24,0,1.87.77,1.87,2.3V664Z"/><path d="M298.08,656.86a.52.52,0,0,1-.36-.14.5.5,0,0,1-.15-.37.45.45,0,0,1,.15-.35.48.48,0,0,1,.36-.14.69.69,0,0,1,.2,0l.16.1a.91.91,0,0,1,.11.16.52.52,0,0,1,0,.4.39.39,0,0,1-.11.17.54.54,0,0,1-.16.1A.45.45,0,0,1,298.08,656.86Zm-.35,7.1v-5.67h.71V664Z"/><path d="M304.37,663.7a2.88,2.88,0,0,1-1.53.39,2.46,2.46,0,0,1-1.1-.21,2.24,2.24,0,0,1-.82-.6,2.52,2.52,0,0,1-.53-.9,3.49,3.49,0,0,1-.18-1.14,3.68,3.68,0,0,1,.19-1.2,2.9,2.9,0,0,1,.56-1,2.8,2.8,0,0,1,.91-.67,3.22,3.22,0,0,1,2.51,0v.75a2.39,2.39,0,0,0-1.34-.4,2,2,0,0,0-.89.19,1.86,1.86,0,0,0-.66.52,2.14,2.14,0,0,0-.41.76,2.93,2.93,0,0,0-.14.94,3,3,0,0,0,.12.86,2.32,2.32,0,0,0,.36.74,1.69,1.69,0,0,0,.62.5,1.91,1.91,0,0,0,.89.19,2.35,2.35,0,0,0,1.44-.48Z"/><g id="Layer_3-3" data-name="Layer 3"><path class="cls-39" d="M194.81,669.52c-.22-1.25-.36-2.62-.71-3.93a13.62,13.62,0,0,0-3.81-5.81c-1.36-1.39-2.84-2.65-4.26-4-.16-.14-.31-.29-.53-.5,2.37-2.77,4.71-5.5,7.12-8.33.69.72,1.34,1.36,1.92,2a14.92,14.92,0,0,1,3.73,7.53,6.46,6.46,0,0,1-.13,2.7C197.08,662.73,195.9,666.18,194.81,669.52Z"/><path class="cls-39" d="M194.05,670.67c-4.4-5.89-9.24-11-16.52-13.25l9.19-8.23,1.95,1.12-4.5,5.16,2.71,2.26a30.08,30.08,0,0,1,4.77,5.06A13.17,13.17,0,0,1,194.05,670.67Z"/><path class="cls-39" d="M174.7,661.94l3.22-3.45c6.54,2.48,11.38,6.92,15.39,12.4C187.7,666.68,181.81,663.06,174.7,661.94Z"/><path class="cls-39" d="M192.29,670.9c-5.4-2.82-11-5.1-17.24-5.43l2.57-2.05C183.12,664.7,187.74,667.75,192.29,670.9Z"/></g><polygon class="cls-40" points="113.06 758.66 105.92 769.61 98.77 758.66 113.06 758.66"/><polygon class="cls-40" points="98.77 794.51 105.92 783.57 113.06 794.51 98.77 794.51"/><polygon class="cls-40" points="136.45 758.66 129.31 769.61 122.16 758.66 136.45 758.66"/><polygon class="cls-40" points="122.16 794.51 129.31 783.57 136.45 794.51 122.16 794.51"/><path class="cls-41" d="M90.65,776a10.53,10.53,0,0,0,2-6.46,11.27,11.27,0,0,0-1.09-5.24A8.67,8.67,0,0,0,88.59,761a12.39,12.39,0,0,0-4.3-1.78,24.81,24.81,0,0,0-5.19-.53H65.23v11.09c-.11-.32-.23-.65-.36-1a16.88,16.88,0,0,0-4-5.95,17.8,17.8,0,0,0-6.12-3.77,23.41,23.41,0,0,0-15.5,0,17.86,17.86,0,0,0-6.12,3.77,17,17,0,0,0-3.71,5.28,10.36,10.36,0,0,0-1-3.82A8.92,8.92,0,0,0,25.44,761a12.17,12.17,0,0,0-4.31-1.77,24.1,24.1,0,0,0-5.19-.53H2.06v35.85H10V780.18h3.9l7.49,14.33h9.47L21.7,779.37A8.86,8.86,0,0,0,27.47,776a1.92,1.92,0,0,0,.17-.26c0,.28,0,.56,0,.84a20.25,20.25,0,0,0,1.44,7.79,17.15,17.15,0,0,0,4,6,17.69,17.69,0,0,0,6.13,3.77,23.38,23.38,0,0,0,15.49,0,17.6,17.6,0,0,0,6.13-3.77,17.1,17.1,0,0,0,4-6q.19-.46.36-1v11.09h7.9V780.18H77l7.49,14.33H94l-9.11-15.14A8.86,8.86,0,0,0,90.65,776Zm-70-4.23A3.77,3.77,0,0,1,19,773a7.07,7.07,0,0,1-2.15.46c-.79.05-1.54.07-2.25.07H10v-8.16h5.17a16.47,16.47,0,0,1,2.18.16,6.14,6.14,0,0,1,2,.58,3.76,3.76,0,0,1,1.42,1.24,3.81,3.81,0,0,1,.55,2.18A3.64,3.64,0,0,1,20.62,771.78Zm36.71,9.44a10.57,10.57,0,0,1-2.25,3.65,10.2,10.2,0,0,1-3.52,2.4,12.49,12.49,0,0,1-9.16,0,10.2,10.2,0,0,1-3.52-2.4,10.57,10.57,0,0,1-2.25-3.65,14,14,0,0,1,0-9.23,10.27,10.27,0,0,1,5.77-6.08,12.63,12.63,0,0,1,9.16,0A10.27,10.27,0,0,1,57.33,772a14,14,0,0,1,0,9.23Zm26.46-9.44A3.68,3.68,0,0,1,82.2,773a7.2,7.2,0,0,1-2.15.46c-.8.05-1.55.07-2.26.07H73.14v-8.16H78.3a16.34,16.34,0,0,1,2.18.16,6.2,6.2,0,0,1,2,.58,3.51,3.51,0,0,1,2,3.42A3.64,3.64,0,0,1,83.79,771.78Z"/><path class="cls-42" d="M13.56,890.65h-.18l.4,0h0Z"/><path class="cls-42" d="M15.33,890.38l-.14,0h0Z"/><path class="cls-42" d="M14.26,890.57h0l-.46,0h0Z"/><path class="cls-42" d="M15.21,890.41h-.06l-.41.08h0Z"/><path class="cls-42" d="M14.74,890.5h0l-.45.07h0Z"/><path class="cls-42" d="M11.69,890.43h0l-.65,0-.05,0Z"/><path class="cls-42" d="M13,890.34h0c-.35,0-.68.06-1,.08l0,0C12.32,890.4,12.66,890.37,13,890.34Z"/><path class="cls-42" d="M15.2,890c.34,0,.68-.12,1-.18l0,0c-.31.06-.64.13-1,.18Z"/><path class="cls-42" d="M13,890.33l1.05-.12v0l-1,.12Z"/><path class="cls-42" d="M18.76,889.08l-.08,0-.15.08.06,0Z"/><path class="cls-42" d="M18.4,889.24l.17-.07-.06,0-.16.07a3.72,3.72,0,0,1-.44.16l.05,0Z"/><path class="cls-42" d="M14.12,890.21l1.05-.16v0l-1,.16Z"/><path class="cls-42" d="M9.81,890.36l-.09,0a5.05,5.05,0,0,0,.53.08h.06A4.29,4.29,0,0,1,9.81,890.36Z"/><path class="cls-42" d="M17.94,889.41l-.05,0-.77.22,0,0Z"/><path class="cls-42" d="M11,890.44l.05,0q-.41,0-.72,0h-.06Z"/><path class="cls-42" d="M17.14,889.64l0,0c-.28.07-.58.14-.9.2l0,0Z"/><path class="cls-42" d="M8.12,889.55l.06,0a4.71,4.71,0,0,1-.78-.11l-.07,0A5,5,0,0,0,8.12,889.55Z"/><path class="cls-42" d="M21.11,887.36l-.05,0a2.58,2.58,0,0,1-.55.32l0-.05A2.58,2.58,0,0,0,21.11,887.36Z"/><path class="cls-42" d="M15.5,889l1.49-.28,0,0c-.47.1-1,.19-1.47.27Z"/><path class="cls-42" d="M8.15,889.55c.32,0,.68,0,1.1,0l0,0q-.61,0-1.08,0Z"/><path class="cls-42" d="M21.17,887.31l-.06.06,0,0,.05,0A.1.1,0,0,0,21.17,887.31Z"/><path class="cls-42" d="M17,888.71l1.36-.31,0,0c-.42.1-.87.21-1.35.31Z"/><path class="cls-42" d="M7,889.34l-.07,0a2,2,0,0,0,.39.13l.06,0A1.85,1.85,0,0,1,7,889.34Z"/><path class="cls-42" d="M19.58,888.08l.05,0,.65-.24.26-.11-.05,0-.25.11C20,887.93,19.82,888,19.58,888.08Z"/><path class="cls-42" d="M13.9,889.24l1.56-.23v0c-.5.09-1,.17-1.55.24Z"/><path class="cls-42" d="M18.43,888.39c.42-.11.81-.23,1.17-.34l-.05,0c-.34.12-.73.23-1.15.34Z"/><path class="cls-42" d="M9.33,889.62l-.05,0c.31,0,.64,0,1,0l.39,0,0,0-.39,0C10,889.62,9.63,889.62,9.33,889.62Z"/><path class="cls-42" d="M12.28,889.43c.52,0,1.05-.11,1.57-.18v0l-1.56.18Z"/><path class="cls-42" d="M10.71,889.55l1.52-.12,0,0c-.51,0-1,.09-1.51.11Z"/><path class="cls-42" d="M23,885.14l0,.06a.76.76,0,0,1-.18.18l0-.06A.76.76,0,0,0,23,885.14Z"/><path class="cls-42" d="M4.6,887.77h0l-.06,0,0,0,.06,0Z"/><path class="cls-42" d="M22.13,885.74a3.34,3.34,0,0,0,.71-.41l0,.06a3.1,3.1,0,0,1-.71.41Z"/><path class="cls-42" d="M9.53,888.13c.63,0,1.29-.08,2-.15l0,0-1.94.15Z"/><path class="cls-42" d="M20.91,886.26l0-.06c.3-.1.59-.2.84-.31l.32-.13,0,.06-.33.13C21.49,886.06,21.21,886.16,20.91,886.26Z"/><path class="cls-42" d="M5.2,888l0,0a1.9,1.9,0,0,1-.59-.23l-.06,0A1.74,1.74,0,0,0,5.2,888Z"/><path class="cls-42" d="M17.62,887.06c.61-.13,1.2-.27,1.74-.4l0,.05c-.54.14-1.12.27-1.73.4Z"/><path class="cls-42" d="M11.54,888c.67-.07,1.34-.14,2-.23v0l-2,.24Z"/><path class="cls-42" d="M7.75,888.23l0,0,1.27,0,.5,0,0,0-.5,0Z"/><path class="cls-42" d="M19.41,886.64c.54-.14,1-.28,1.49-.43l0,.06c-.45.15-.95.29-1.49.43Z"/><path class="cls-42" d="M6.26,888.14c.41,0,.87.05,1.4.05l0,0c-.52,0-1,0-1.39-.05Z"/><path class="cls-42" d="M13.61,887.74c.67-.09,1.34-.19,2-.3v0c-.65.11-1.32.21-2,.3A.43.43,0,0,0,13.61,887.74Z"/><path class="cls-42" d="M15.66,887.43c.66-.11,1.3-.23,1.91-.36v0c-.61.13-1.25.25-1.9.36Z"/><path class="cls-42" d="M5.22,888a8.87,8.87,0,0,0,1,.15l0,0a7.23,7.23,0,0,1-1-.14Z"/><path class="cls-42" d="M18,885c.71-.15,1.4-.31,2-.47v.07c-.63.16-1.31.32-2,.46Z"/><path class="cls-42" d="M4.68,886.23c.47,0,1,0,1.64,0l0,.06c-.62,0-1.16,0-1.63-.05Z"/><path class="cls-42" d="M8.5,886.22c.74,0,1.51-.1,2.29-.17l0,.06c-.78.07-1.54.13-2.28.17Z"/><path class="cls-42" d="M6.4,886.34l0-.06,1.48,0,.59,0,0,.06-.58,0Z"/><path class="cls-42" d="M2.73,885.79a2.19,2.19,0,0,0,.7.26l0,.06a2.12,2.12,0,0,1-.69-.26Z"/><path class="cls-42" d="M3.46,886.06a9.15,9.15,0,0,0,1.18.16l0,.06a9.41,9.41,0,0,1-1.18-.16Z"/><path class="cls-42" d="M21.83,884l0-.07c.36-.12.69-.24,1-.36l.38-.16s0,0,0,.07l-.38.16C22.51,883.79,22.19,883.91,21.83,884Z"/><path class="cls-42" d="M23.24,883.43a3.48,3.48,0,0,0,.83-.49l0,.08a4.77,4.77,0,0,1-.83.47Z"/><path class="cls-42" d="M2.64,885.72l-.05-.06a.51.51,0,0,0,.13.12l0,.06A.51.51,0,0,1,2.64,885.72Z"/><path class="cls-42" d="M20.06,884.48c.63-.17,1.22-.33,1.74-.51l0,.07c-.52.17-1.11.34-1.74.5Z"/><path class="cls-42" d="M24.35,882.61l0,.08h0a.78.78,0,0,1-.26.31l0-.07A.8.8,0,0,0,24.35,882.61Z"/><path class="cls-42" d="M13.28,885.76c.78-.11,1.57-.23,2.33-.36v.07c-.77.13-1.55.24-2.33.35Z"/><path class="cls-42" d="M15.68,885.39c.77-.13,1.51-.27,2.23-.42V885c-.71.15-1.46.29-2.22.42Z"/><path class="cls-42" d="M10.85,886l2.36-.27v.06c-.78.1-1.57.19-2.35.27Z"/><path class="cls-42" d="M23.84,880.81a4.56,4.56,0,0,0,.91-.53.25.25,0,0,1,0,.08,4.15,4.15,0,0,1-.91.52S23.84,880.83,23.84,880.81Z"/><path class="cls-42" d="M15.54,883c.84-.15,1.66-.3,2.45-.46v.07c-.78.16-1.6.32-2.44.46C15.55,883,15.54,883,15.54,883Z"/><path class="cls-42" d="M22.3,881.47v-.08q.59-.2,1.08-.39l.42-.18v.08l-.42.18Q22.9,881.28,22.3,881.47Z"/><path class="cls-42" d="M2.13,883.69a10.52,10.52,0,0,0,1.3.19.25.25,0,0,0,0,.07,10.62,10.62,0,0,1-1.29-.19Z"/><path class="cls-42" d="M7.69,883.94l0-.07c.81,0,1.65-.11,2.5-.19l0,.07c-.85.08-1.69.15-2.5.19Z"/><path class="cls-42" d="M25.08,879.83v.08a.75.75,0,0,1-.31.43s0-.05,0-.08A.72.72,0,0,0,25.08,879.83Z"/><path class="cls-42" d="M1.34,883.4a2.36,2.36,0,0,0,.76.29l0,.07a2.36,2.36,0,0,1-.76-.29Z"/><path class="cls-42" d="M12.91,883.37c.86-.12,1.72-.25,2.56-.39a.17.17,0,0,0,0,.07c-.84.14-1.7.27-2.56.39A.2.2,0,0,1,12.91,883.37Z"/><path class="cls-42" d="M3.47,883.88q.78.06,1.8.06l0,.07C4.62,884,4,884,3.5,884Z"/><path class="cls-42" d="M1.17,883.25l0-.07a.72.72,0,0,0,.19.21l0,.07A.44.44,0,0,1,1.17,883.25Z"/><path class="cls-42" d="M18.06,882.49c.78-.16,1.53-.34,2.22-.51v.07c-.69.18-1.44.35-2.22.51Z"/><path class="cls-42" d="M20.34,882c.7-.18,1.34-.36,1.92-.55v.07c-.57.19-1.21.38-1.91.55Z"/><path class="cls-42" d="M5.35,884l0-.07,1.63,0,.64,0,0,.07L7,884Z"/><path class="cls-42" d="M10.25,883.67c.85-.08,1.72-.18,2.58-.29a.15.15,0,0,1,0,.07l-2.58.3Z"/><path class="cls-42" d="M4.65,881.3s0,0,0-.08l1.69,0,.67,0v.08l-.67,0Z"/><path class="cls-42" d="M7.07,881.15c.84,0,1.72-.11,2.6-.2V881c-.88.09-1.76.15-2.6.2Z"/><path class="cls-42" d="M17.86,879.72c.81-.17,1.59-.35,2.31-.54v.08c-.72.19-1.5.37-2.31.54A.25.25,0,0,1,17.86,879.72Z"/><path class="cls-42" d="M2.71,881.16c.54,0,1.16.06,1.87.06v.08c-.7,0-1.33,0-1.87-.06Z"/><path class="cls-42" d="M12.51,880.62c.9-.12,1.79-.25,2.66-.4v.08c-.87.15-1.76.28-2.66.4C12.52,880.68,12.51,880.65,12.51,880.62Z"/><path class="cls-42" d="M15.25,880.21c.87-.15,1.72-.31,2.54-.48v.08c-.82.17-1.67.33-2.54.48A.22.22,0,0,1,15.25,880.21Z"/><path class="cls-42" d="M.49,880.66a2.63,2.63,0,0,0,.8.3s0,0,0,.08a2.33,2.33,0,0,1-.79-.3Z"/><path class="cls-42" d="M23.87,878a4.86,4.86,0,0,0,.94-.55.22.22,0,0,1,0,.08,5,5,0,0,1-.95.55Z"/><path class="cls-42" d="M9.75,881c.89-.09,1.79-.2,2.68-.32v.08c-.89.12-1.79.23-2.68.31Z"/><path class="cls-42" d="M25.15,876.94V877a.77.77,0,0,1-.32.47s0-.06,0-.09A.73.73,0,0,0,25.15,876.94Z"/><path class="cls-42" d="M22.28,878.66v-.09c.4-.13.78-.27,1.12-.4l.43-.19v.08l-.43.19Z"/><path class="cls-42" d="M20.23,879.17c.73-.19,1.39-.38,2-.58v.08c-.6.2-1.27.39-2,.58A.19.19,0,0,0,20.23,879.17Z"/><path class="cls-42" d="M.28,880.44l0-.08a.48.48,0,0,0,.22.29s0,.05,0,.08A.47.47,0,0,1,.28,880.44Z"/><path class="cls-42" d="M1.32,881a9.72,9.72,0,0,0,1.34.18s0,.06,0,.08a9.67,9.67,0,0,1-1.35-.18Z"/><path class="cls-42" d="M12.11,877.7c.89-.12,1.76-.25,2.62-.39l0,.08c-.86.14-1.74.28-2.63.39A.25.25,0,0,0,12.11,877.7Z"/><path class="cls-42" d="M9.4,878c.87-.09,1.76-.19,2.64-.31v.08c-.89.12-1.77.22-2.65.31Z"/><path class="cls-42" d="M1.1,878a9.55,9.55,0,0,0,1.33.18v.09a11.11,11.11,0,0,1-1.33-.19Z"/><path class="cls-42" d="M21.74,875.76a.19.19,0,0,0,0-.07l1.1-.4.43-.19,0,.08-.42.18C22.51,875.5,22.14,875.63,21.74,875.76Z"/><path class="cls-42" d="M23.28,875.09a4.43,4.43,0,0,0,.94-.54l0,.08a5.16,5.16,0,0,1-.93.53Z"/><path class="cls-42" d="M6.76,878.22c.83,0,1.69-.11,2.56-.19v.08c-.87.08-1.73.15-2.57.19Z"/><path class="cls-42" d="M14.81,877.29c.85-.14,1.69-.3,2.5-.47v.08c-.8.17-1.64.33-2.5.47Z"/><path class="cls-42" d="M24.26,874.61l0-.08a.73.73,0,0,0,.31-.45l0,.08A.76.76,0,0,1,24.26,874.61Z"/><path class="cls-42" d="M17.37,876.81c.8-.17,1.57-.34,2.28-.53a.31.31,0,0,1,0,.08c-.71.19-1.48.36-2.28.53Z"/><path class="cls-42" d="M4.37,878.37v-.08l1.66,0,.66,0v.09l-.65,0Z"/><path class="cls-42" d="M.05,877.45v-.08a.43.43,0,0,0,.22.36v.08A.45.45,0,0,1,.05,877.45Z"/><path class="cls-42" d="M2.47,878.23c.53,0,1.15.06,1.84.06v.08c-.69,0-1.31,0-1.84-.06Z"/><path class="cls-42" d="M.29,877.74a2.51,2.51,0,0,0,.78.29v.08a2.51,2.51,0,0,1-.78-.29Z"/><path class="cls-42" d="M19.71,876.27c.71-.19,1.37-.37,2-.57l0,.08c-.59.19-1.25.38-2,.57Z"/><path class="cls-42" d="M22.17,872.46A4.54,4.54,0,0,0,23,872a.16.16,0,0,0,0,.07,4.54,4.54,0,0,1-.87.51Z"/><path class="cls-42" d="M6.77,875.38c.77,0,1.57-.11,2.39-.19v.08q-1.23.12-2.4.18Z"/><path class="cls-42" d="M11.76,874.89c.82-.11,1.64-.23,2.44-.37v.08c-.8.14-1.62.26-2.44.37A.19.19,0,0,1,11.76,874.89Z"/><path class="cls-42" d="M16.66,874.06c.75-.15,1.46-.32,2.12-.49l0,.07c-.67.17-1.38.34-2.13.5Z"/><path class="cls-42" d="M23.09,872l0-.07a.67.67,0,0,0,.3-.42l0,.06A.68.68,0,0,1,23.09,872Z"/><path class="cls-42" d="M4.53,875.52s0,0,0-.08l1.55,0,.61,0v.08l-.62,0Z"/><path class="cls-42" d="M9.23,875.19c.81-.08,1.63-.18,2.46-.29V875c-.83.11-1.66.21-2.47.28Z"/><path class="cls-42" d="M.73,874.92a.19.19,0,0,0,0,.07.39.39,0,0,1-.21-.35l0-.08A.41.41,0,0,0,.73,874.92Z"/><path class="cls-42" d="M2.77,875.38c.5,0,1.07.06,1.72.06l0,.08c-.64,0-1.22,0-1.71-.06C2.76,875.43,2.77,875.41,2.77,875.38Z"/><path class="cls-42" d="M20.74,873.09l0-.08c.37-.12.72-.24,1-.37l.39-.17a.25.25,0,0,1,0,.07l-.39.17C21.46,872.84,21.12,873,20.74,873.09Z"/><path class="cls-42" d="M14.27,874.51c.8-.13,1.58-.28,2.33-.44l0,.08c-.75.15-1.54.3-2.34.44Z"/><path class="cls-42" d="M1.5,875.21a9.88,9.88,0,0,0,1.23.17.22.22,0,0,0,0,.08,8.11,8.11,0,0,1-1.24-.18Z"/><path class="cls-42" d="M.74,874.93a2.56,2.56,0,0,0,.73.27l0,.08A2.26,2.26,0,0,1,.72,875Z"/><path class="cls-42" d="M18.84,873.56c.66-.17,1.27-.35,1.82-.53l0,.07c-.55.18-1.17.36-1.83.53Z"/><path class="cls-42" d="M17.67,871.12c.58-.15,1.12-.31,1.6-.46l.05.06c-.49.15-1,.31-1.61.46Z"/><path class="cls-42" d="M2.44,872.57a10.06,10.06,0,0,0,1.08.15l0,.07a10.06,10.06,0,0,1-1.08-.15Z"/><path class="cls-42" d="M19.36,870.7l-.05-.06c.33-.11.64-.22.91-.33l.35-.14.05.05-.35.15Z"/><path class="cls-42" d="M9.23,872.55c.71-.07,1.44-.15,2.16-.25v.07c-.73.1-1.46.18-2.18.25C9.22,872.6,9.23,872.57,9.23,872.55Z"/><path class="cls-42" d="M7.07,872.72c.68,0,1.38-.09,2.1-.16a.15.15,0,0,0,0,.07c-.71.07-1.42.12-2.1.16Z"/><path class="cls-42" d="M1.77,872.32a2,2,0,0,0,.64.24l0,.07a2.15,2.15,0,0,1-.64-.24Z"/><path class="cls-42" d="M15.76,871.56c.65-.14,1.28-.28,1.86-.43l0,.06c-.59.15-1.22.3-1.88.44Z"/><path class="cls-42" d="M11.45,872.29c.72-.09,1.44-.2,2.14-.32l0,.07-2.15.32A.15.15,0,0,1,11.45,872.29Z"/><path class="cls-42" d="M5.09,872.85l0-.07,1.36,0,.54,0v.07l-.54,0Z"/><path class="cls-42" d="M13.65,872c.71-.12,1.39-.25,2-.39l0,.07c-.66.14-1.35.27-2.06.39A.14.14,0,0,0,13.65,872Z"/><path class="cls-42" d="M1.55,872.07l0-.07a.34.34,0,0,0,.18.31l0,.07A.31.31,0,0,1,1.55,872.07Z"/><path class="cls-42" d="M20.6,870.15a3.55,3.55,0,0,0,.76-.44l.05.06a3.86,3.86,0,0,1-.77.44Z"/><path class="cls-42" d="M21.43,869.76l-.06-.06a.58.58,0,0,0,.26-.37l.06,0A.63.63,0,0,1,21.43,869.76Z"/><path class="cls-42" d="M3.56,872.72c.43,0,.94.06,1.5.06l0,.07c-.57,0-1.07,0-1.51-.06Z"/><path class="cls-42" d="M4.78,870.34c.35,0,.76,0,1.22,0l0,.06c-.46,0-.87,0-1.23,0Z"/><path class="cls-42" d="M3.33,870a1.65,1.65,0,0,0,.52.2l-.05.06a1.65,1.65,0,0,1-.52-.2Z"/><path class="cls-42" d="M17.65,868.69l0-.05c.27-.08.52-.17.74-.26l.28-.12.06,0-.29.12Z"/><path class="cls-42" d="M11.2,870c.59-.08,1.18-.17,1.75-.27l0,.06c-.58.1-1.17.19-1.76.27C11.21,870,11.2,870,11.2,870Z"/><path class="cls-42" d="M18.64,868.24a2.88,2.88,0,0,0,.63-.35l.06,0a3.32,3.32,0,0,1-.63.36Z"/><path class="cls-42" d="M7.64,870.33c.55,0,1.12-.07,1.7-.13v.06c-.59.06-1.17.1-1.72.13A.14.14,0,0,1,7.64,870.33Z"/><path class="cls-42" d="M9.39,870.2l1.76-.21v.06l-1.77.21Z"/><path class="cls-42" d="M16.26,869c.48-.12.92-.25,1.31-.38l.05.05c-.4.13-.84.26-1.31.38Z"/><path class="cls-42" d="M6,870.44l0-.06,1.11,0,.44,0,0,.07-.44,0Z"/><path class="cls-42" d="M13,869.71c.57-.09,1.13-.2,1.66-.31l0,.06-1.67.31Z"/><path class="cls-42" d="M3.12,869.81l0-.06a.27.27,0,0,0,.15.25l0,.06A.27.27,0,0,1,3.12,869.81Z"/><path class="cls-42" d="M14.71,869.39c.53-.11,1-.23,1.51-.35l.05.05c-.48.13-1,.24-1.53.36Z"/><path class="cls-42" d="M3.87,870.21a5.86,5.86,0,0,0,.88.12l0,.07a7.5,7.5,0,0,1-.89-.13Z"/><path class="cls-42" d="M19.34,867.92l-.06,0a.51.51,0,0,0,.21-.31l.06,0A.52.52,0,0,1,19.34,867.92Z"/><path class="cls-42" d="M16.92,866.57l-.07,0a.37.37,0,0,0,.16-.22l.07,0A.37.37,0,0,1,16.92,866.57Z"/><path class="cls-42" d="M14.68,867.37a8.9,8.9,0,0,0,.94-.27l.06,0-1,.27Z"/><path class="cls-42" d="M5.73,868.23l.64.09,0,0-.65-.09Z"/><path class="cls-42" d="M16.4,866.81a2.31,2.31,0,0,0,.44-.26l.07,0a2.15,2.15,0,0,1-.45.26Z"/><path class="cls-42" d="M6.39,868.32c.25,0,.55,0,.88,0l0,0c-.34,0-.63,0-.89,0Z"/><path class="cls-42" d="M12.32,867.87l1.2-.23,0,0c-.39.09-.8.16-1.21.23Z"/><path class="cls-42" d="M15.7,867.13l-.06,0a4.61,4.61,0,0,0,.53-.19l.21-.09.06,0-.2.09C16.08,867,15.9,867.07,15.7,867.13Z"/><path class="cls-42" d="M7.26,868.4l0,0,.8,0h.31l0,0H8.07Z"/><path class="cls-42" d="M11,868.06c.43,0,.85-.12,1.26-.19l0,0-1.27.19Z"/><path class="cls-42" d="M5.28,868.13l.06,0a1.1,1.1,0,0,0,.37.14l0,0a1.33,1.33,0,0,1-.38-.14Z"/><path class="cls-42" d="M9.72,868.22l1.27-.15v0l-1.28.15Z"/><path class="cls-42" d="M8.45,868.31l1.23-.09v0l-1.25.09Z"/><path class="cls-42" d="M5.16,867.94l.07-.05a.2.2,0,0,0,.1.19l-.06,0A.2.2,0,0,1,5.16,867.94Z"/><path class="cls-42" d="M13.55,867.64l1.1-.26,0,0c-.34.09-.71.18-1.1.26Z"/><path class="cls-42" d="M10.92,866.61l.71-.1v0l-.72.11Z"/><path class="cls-42" d="M11.65,866.5c.23,0,.45-.08.67-.12l0,0-.69.12Z"/><path class="cls-42" d="M12.34,866.37l.61-.14.05,0-.63.14Z"/><path class="cls-42" d="M10.19,866.7l.71-.08v0l-.72.08Z"/><path class="cls-42" d="M8.79,866.81l.05,0h.62l0,0H8.79Z"/><path class="cls-42" d="M13,866.23l.52-.15.06,0-.54.15Z"/><path class="cls-42" d="M8.33,866.76h.49l0,0-.51,0Z"/><path class="cls-42" d="M8,866.7a1.64,1.64,0,0,0,.36,0l-.06,0a2.78,2.78,0,0,1-.37,0Z"/><path class="cls-42" d="M7.74,866.62a.71.71,0,0,0,.21.08l-.06,0a1,1,0,0,1-.22-.08Z"/><path class="cls-42" d="M9.48,866.75l.69,0v0l-.71,0Z"/><path class="cls-42" d="M13.57,866.09l-.06,0,.29-.11.12-.05.07,0-.12.05A2.09,2.09,0,0,1,13.57,866.09Z"/><path class="cls-42" d="M14.26,865.78l-.08,0a.19.19,0,0,0,.09-.12h.08A.31.31,0,0,1,14.26,865.78Z"/><path class="cls-42" d="M7.61,866.55l.07,0s0,.07.06.1l-.07,0S7.6,866.59,7.61,866.55Z"/><path class="cls-42" d="M13.93,865.91a1.72,1.72,0,0,0,.25-.14h.07a.91.91,0,0,1-.25.15Z"/><path class="cls-42" d="M25.18,878.82l0,.48Z"/><path class="cls-42" d="M25.18,878.82v0Z"/><path class="cls-42" d="M25.19,878.76l0-.73C25.21,878.27,25.2,878.52,25.19,878.76Z"/><path class="cls-42" d="M20.54,887.86a2.54,2.54,0,0,0,.24-.2l-.14.12Z"/><path class="cls-42" d="M20.81,887.63l0,0Z"/><path class="cls-42" d="M16.52,890.06l.18-.06-.15,0Z"/><path class="cls-42" d="M9.41,890.26h0Z"/><path class="cls-42" d="M9.64,890.32l-.2-.05.28.07Z"/><path class="cls-42" d="M.71,875a.19.19,0,0,1,0-.07,12.43,12.43,0,0,1,1-2.54l0-.07a13,13,0,0,1,1.51-2.25l0-.06a12.86,12.86,0,0,1,1.95-1.88l.06,0a12.11,12.11,0,0,1,2.34-1.43l.07,0a11.85,11.85,0,0,1,2.58-.86v0a12.69,12.69,0,0,0-2.63.78l-.07,0a12.58,12.58,0,0,0-2.38,1.34l-.07.05a12.66,12.66,0,0,0-2,1.81l0,.06A12.88,12.88,0,0,0,1.58,872l0,.07a12.33,12.33,0,0,0-1,2.49l0,.08c-.08.28-.14.56-.2.85l0-.23a12.44,12.44,0,0,1,10.2-9.56h0s.06,0,.18,0a1.78,1.78,0,0,0,.52-.1l0,0h.11a12.55,12.55,0,0,1,13.69,10.73,14.89,14.89,0,0,1,.12,1.62V878c0-.34,0-.67-.05-1v-.08c0-.19,0-.39-.06-.58a13.06,13.06,0,0,0-.51-2.2l0-.08a12.37,12.37,0,0,0-1.16-2.5l0-.06a12.88,12.88,0,0,0-1.66-2.14l-.06,0a12.13,12.13,0,0,0-2.08-1.71l-.06,0a12.68,12.68,0,0,0-2.41-1.22l-.07,0a13.46,13.46,0,0,0-2.66-.67h-.08a12.61,12.61,0,0,0-2.75-.06v0a11.88,11.88,0,0,1,2.67.16l.08,0a12.23,12.23,0,0,1,2.59.76l.07,0a12.66,12.66,0,0,1,2.36,1.31l.06,0a13.21,13.21,0,0,1,2,1.78l.06.06a12.46,12.46,0,0,1,1.62,2.18l0,.07a13.07,13.07,0,0,1,1.15,2.52l0,.08a12.44,12.44,0,0,1,.5,2.21c0,.2,0,.39.07.58,0,0,0,.06,0,.09a12.77,12.77,0,0,1-.07,2.77s0,.06,0,.08a12.31,12.31,0,0,1-.67,2.59l0,.07a11.62,11.62,0,0,1-1.21,2.32l0,.06a11.35,11.35,0,0,1-1.69,2l-.05,0-.26.23.25-.22.05,0a11.35,11.35,0,0,0,1.69-2l0-.06A12.08,12.08,0,0,0,24.05,883l0-.08a11.79,11.79,0,0,0,.67-2.58.25.25,0,0,0,0-.08,12.24,12.24,0,0,0,.07-2.78.22.22,0,0,0,0-.08c0-.2,0-.39-.06-.59a13.29,13.29,0,0,0-.51-2.2l0-.08A13.76,13.76,0,0,0,23.08,872a.16.16,0,0,1,0-.07,13.91,13.91,0,0,0-1.63-2.18l-.05-.06a13.7,13.7,0,0,0-2-1.78l-.06,0a12.66,12.66,0,0,0-2.36-1.31l-.07,0a11.91,11.91,0,0,0-2.59-.77h-.07a11.32,11.32,0,0,0-2.67-.17l0,0a10.23,10.23,0,0,1,2.47.28l.07,0a11.17,11.17,0,0,1,2.4.88l.06,0a12.83,12.83,0,0,1,2.18,1.4l.06,0a13.91,13.91,0,0,1,1.9,1.86l0,.06a13.5,13.5,0,0,1,1.53,2.25l0,.07a13.82,13.82,0,0,1,1.07,2.56l0,.07a14.87,14.87,0,0,1,.49,2.22c0,.2.05.39.07.59v.08a13.36,13.36,0,0,1,0,2.76s0,.05,0,.07a12.47,12.47,0,0,1-.59,2.55l0,.06a11.16,11.16,0,0,1-1.09,2.25l0,.06a10.31,10.31,0,0,1-1.53,1.88l0,.05a9.88,9.88,0,0,1-1.92,1.43l-.06,0-.52.27-.06,0,.56-.29.06,0a10,10,0,0,0,1.92-1.43l.05,0a10.75,10.75,0,0,0,1.53-1.87l0-.06a11.7,11.7,0,0,0,1.09-2.25s0,0,0-.07a12.37,12.37,0,0,0,.59-2.54v-.08a14.09,14.09,0,0,0,0-2.76V878c0-.19,0-.39-.07-.58a13.72,13.72,0,0,0-.49-2.22l0-.08a14.45,14.45,0,0,0-1.08-2.56.25.25,0,0,0,0-.07,14.26,14.26,0,0,0-1.51-2.25l-.05-.05a13.9,13.9,0,0,0-1.89-1.87l-.06,0a12.3,12.3,0,0,0-2.18-1.41l-.06,0a11.65,11.65,0,0,0-2.39-.88l-.07,0a10.2,10.2,0,0,0-2.46-.28h0l-.06,0a8.27,8.27,0,0,1,2.13.41l.06,0a10.11,10.11,0,0,1,2.07,1l.06,0a12.22,12.22,0,0,1,1.9,1.51l0,.05a14.23,14.23,0,0,1,1.66,1.95l.05.06A16.43,16.43,0,0,1,20.71,873l0,.08a16.8,16.8,0,0,1,1,2.6.19.19,0,0,1,0,.07,18.39,18.39,0,0,1,.47,2.23c0,.2.05.39.07.58v.09a14.7,14.7,0,0,1,0,2.73v.08a13.07,13.07,0,0,1-.45,2.49l0,.07a11.09,11.09,0,0,1-.89,2.17l0,.06A9.4,9.4,0,0,1,19.63,888l-.05,0A7.27,7.27,0,0,1,18,889.4l-.05,0a6.69,6.69,0,0,1-1.21.57,7.59,7.59,0,0,0,1.19-.56l.05,0a7.5,7.5,0,0,0,1.61-1.32l.05,0a9.36,9.36,0,0,0,1.27-1.78l0-.06a10.48,10.48,0,0,0,.88-2.17l0-.07a12.21,12.21,0,0,0,.45-2.49v-.07a15.74,15.74,0,0,0,0-2.74v-.08c0-.19,0-.39-.07-.58a16.32,16.32,0,0,0-.46-2.23l0-.08a17.58,17.58,0,0,0-1-2.6l0-.07a15.84,15.84,0,0,0-1.34-2.31l-.05-.06a14.37,14.37,0,0,0-1.65-2l-.05-.05a12.64,12.64,0,0,0-1.89-1.51l-.06,0a9.85,9.85,0,0,0-2.07-1l-.06,0a7.75,7.75,0,0,0-2.11-.42l-.1,0a6.07,6.07,0,0,1,1.69.55l0,0a9,9,0,0,1,1.67,1.12l0,0A11.92,11.92,0,0,1,16.26,869l0,.05a17.22,17.22,0,0,1,1.36,2l0,.06a20.11,20.11,0,0,1,1.13,2.38l0,.07a21.42,21.42,0,0,1,.84,2.64l0,.08a20.43,20.43,0,0,1,.43,2.23c0,.2.05.39.07.59a.19.19,0,0,1,0,.08,17.91,17.91,0,0,1,.1,2.71V882a15.54,15.54,0,0,1-.28,2.45l0,.06a11.24,11.24,0,0,1-.63,2.1l0,.06a8.54,8.54,0,0,1-.95,1.69l0,0a5.61,5.61,0,0,1-1.24,1.2l0,0a4.13,4.13,0,0,1-1.35.62h0a4.59,4.59,0,0,0,1.35-.62l0,0a5.54,5.54,0,0,0,1.22-1.2l0,0a8.54,8.54,0,0,0,.95-1.69l0-.05a12.31,12.31,0,0,0,.63-2.1v-.07a15.41,15.41,0,0,0,.28-2.44V882a19.41,19.41,0,0,0-.1-2.72v-.08c0-.19,0-.39-.07-.58-.11-.76-.25-1.51-.43-2.24a.31.31,0,0,0,0-.08,22.56,22.56,0,0,0-.84-2.64l0-.07a20.85,20.85,0,0,0-1.12-2.38l0-.06a17.17,17.17,0,0,0-1.35-2l-.05-.05a11.86,11.86,0,0,0-1.53-1.62l0,0A8.3,8.3,0,0,0,13,866.26l-.05,0a5.62,5.62,0,0,0-1.67-.54l-.11,0a3.86,3.86,0,0,1,1.17.66l0,0a7.42,7.42,0,0,1,1.18,1.24l0,0a14.9,14.9,0,0,1,1.12,1.71l0,.06a20.75,20.75,0,0,1,1,2.11l0,.07c.32.76.61,1.58.88,2.43l0,.08c.26.85.5,1.75.69,2.67l0,.08c.16.73.29,1.48.39,2.24,0,.2,0,.39.08.59a.25.25,0,0,0,0,.08c.11.94.17,1.84.19,2.69v.07A22.76,22.76,0,0,1,18,885V885a12.94,12.94,0,0,1-.34,2v.05a8.26,8.26,0,0,1-.58,1.6l0,0a3.94,3.94,0,0,1-.79,1.1l0,0a2.13,2.13,0,0,1-1,.54h0a2.09,2.09,0,0,0,1-.53l0,0a3.9,3.9,0,0,0,.77-1.1l0,0a7.65,7.65,0,0,0,.57-1.6v0a14.12,14.12,0,0,0,.33-2V885a20.35,20.35,0,0,0,.08-2.39v-.07c0-.86-.08-1.76-.19-2.7v-.08c0-.19-.05-.38-.08-.58q-.15-1.14-.39-2.25v-.08q-.3-1.38-.69-2.67l0-.08c-.27-.85-.56-1.67-.87-2.43l0-.07a20.75,20.75,0,0,0-1-2.11l0-.06a13.81,13.81,0,0,0-1.11-1.72l0,0a7.3,7.3,0,0,0-1.17-1.23l0,0a3.86,3.86,0,0,0-1.16-.67l-.12,0a3.23,3.23,0,0,1,.61.76v0a9.86,9.86,0,0,1,.66,1.34l0,0c.22.53.44,1.14.66,1.8l0,.06c.21.67.43,1.41.63,2.19a.14.14,0,0,1,0,.07c.21.78.41,1.61.6,2.48v.08c.19.87.37,1.78.53,2.7v.08c.13.74.24,1.5.35,2.26,0,.19.05.39.08.58a.22.22,0,0,0,0,.08c.12.94.21,1.83.28,2.68,0,0,0,0,0,.07.07.84.11,1.63.13,2.35v.07c0,.72,0,1.38,0,2v.05A11.85,11.85,0,0,1,15.5,889v0a4,4,0,0,1-.3,1v0a.77.77,0,0,1-.43.44h0a.73.73,0,0,0,.42-.43v0a3.88,3.88,0,0,0,.28-1v0a14.2,14.2,0,0,0,.15-1.52v0c0-.59,0-1.25,0-2v-.07c0-.72-.06-1.51-.13-2.35a.17.17,0,0,1,0-.07c-.07-.85-.17-1.74-.29-2.68v-.08c0-.19-.05-.38-.08-.58-.1-.76-.22-1.51-.34-2.25l0-.08c-.16-.93-.33-1.84-.52-2.71v-.08c-.19-.86-.38-1.7-.59-2.48l0-.07c-.2-.78-.41-1.52-.62-2.19l0-.06c-.22-.66-.43-1.27-.65-1.8l0,0a10.42,10.42,0,0,0-.64-1.33v0a3.38,3.38,0,0,0-.59-.77l-.13,0a8.43,8.43,0,0,0,0,.85v0c0,.39.06.86.1,1.41v.05c0,.56.1,1.19.17,1.88,0,0,0,0,0,.06.07.69.15,1.44.24,2.24a.15.15,0,0,0,0,.07c.09.8.19,1.65.3,2.53a.19.19,0,0,0,0,.08c.1.88.22,1.8.34,2.73a.25.25,0,0,1,0,.08c.1.75.2,1.5.31,2.26,0,.2.05.39.08.58,0,0,0,.06,0,.08q.2,1.41.39,2.67a.2.2,0,0,0,0,.07c.12.83.24,1.61.36,2.32v.06c.11.71.22,1.35.32,1.92a.43.43,0,0,1,0,0c.1.56.19,1.05.28,1.45v0c.09.4.16.71.22.93v0c.06.21.11.33.15.34h0s-.1-.13-.16-.34v0c-.06-.22-.14-.53-.23-.93v0c-.09-.4-.18-.89-.29-1.46v0q-.15-.86-.33-1.92v-.06c-.12-.71-.24-1.49-.37-2.32a.15.15,0,0,0,0-.07q-.18-1.26-.39-2.67v-.08c0-.19,0-.38-.08-.58-.1-.76-.21-1.51-.3-2.26v-.08c-.12-.93-.24-1.85-.34-2.73v-.08c-.11-.88-.21-1.73-.29-2.53v-.07c-.09-.8-.17-1.55-.23-2.25V870c-.06-.69-.12-1.32-.16-1.87v0c0-.55-.07-1-.09-1.42v0c0-.38,0-.67,0-.86h-.13a3.1,3.1,0,0,0-.58.93v0a8.52,8.52,0,0,0-.46,1.49v0a17.63,17.63,0,0,0-.32,1.93v.06c-.08.71-.14,1.48-.16,2.29,0,0,0,.05,0,.07,0,.82,0,1.68,0,2.57v.07c0,.9.08,1.82.17,2.76v.08c.07.75.16,1.5.26,2.26l.09.59V881c.14.94.31,1.83.49,2.65v.08c.18.82.38,1.59.59,2.29l0,.06a19.15,19.15,0,0,0,.67,1.88l0,0a9.06,9.06,0,0,0,.72,1.4l0,0a3.32,3.32,0,0,0,.74.87l0,0a1.12,1.12,0,0,0,.73.28h0a1.17,1.17,0,0,1-.75-.28h0a3.75,3.75,0,0,1-.76-.87l0,0a9.47,9.47,0,0,1-.73-1.4l0,0c-.23-.55-.46-1.18-.67-1.87l0-.06c-.22-.7-.42-1.47-.6-2.3l0-.07c-.18-.83-.34-1.71-.49-2.65V881c0-.19-.05-.38-.08-.58-.11-.76-.19-1.52-.26-2.26V878c-.08-.94-.14-1.87-.16-2.76v-.08c0-.89,0-1.75,0-2.56a.15.15,0,0,1,0-.07c0-.82.08-1.59.17-2.3v-.06c.09-.71.2-1.35.33-1.93v0a8.31,8.31,0,0,1,.48-1.48v0a3.11,3.11,0,0,1,.6-.93h-.13a4.5,4.5,0,0,0-1.16,1l0,0a7.85,7.85,0,0,0-1,1.52l0,.05a12.25,12.25,0,0,0-.78,2,.14.14,0,0,0,0,.06,17.29,17.29,0,0,0-.55,2.33v.07a23,23,0,0,0-.29,2.59v.07a25.59,25.59,0,0,0,0,2.77v.08c0,.75.12,1.51.22,2.27l.09.58v.08a21.82,21.82,0,0,0,.59,2.64l0,.07h0a17.83,17.83,0,0,0,.81,2.28l0,.06a11.89,11.89,0,0,0,1,1.85l0,0a7.63,7.63,0,0,0,1.15,1.37l0,0a4.41,4.41,0,0,0,1.24.83l0,0a2.74,2.74,0,0,0,1.28.23h0a2.82,2.82,0,0,1-1.3-.23h0a4.58,4.58,0,0,1-1.25-.84l0,0a7.63,7.63,0,0,1-1.15-1.37l0,0a12.52,12.52,0,0,1-1-1.86l0-.06A17.66,17.66,0,0,1,7.62,884l0-.07A22.26,22.26,0,0,1,7,881.24v-.08c0-.2-.06-.39-.09-.58-.11-.77-.18-1.52-.22-2.27v-.09a25.37,25.37,0,0,1,0-2.76v-.08a21.12,21.12,0,0,1,.3-2.59v-.07a17.12,17.12,0,0,1,.56-2.32l0-.07a13.12,13.12,0,0,1,.8-2l0,0a8.14,8.14,0,0,1,1-1.53l0,0a4.79,4.79,0,0,1,1.18-1h-.12a7,7,0,0,0-1.68,1l-.05,0a8.73,8.73,0,0,0-1.49,1.54l0,0a12.47,12.47,0,0,0-1.22,2l0,.06a16.23,16.23,0,0,0-.9,2.34l0,.07a17.46,17.46,0,0,0-.55,2.59s0,.06,0,.08a19.45,19.45,0,0,0-.16,2.77v.08a19.45,19.45,0,0,0,.18,2.27l.09.58s0,.06,0,.08a17,17,0,0,0,.68,2.64l0,.07a14.31,14.31,0,0,0,1,2.27l0,.06a11.29,11.29,0,0,0,1.31,1.85l0,0a8,8,0,0,0,1.53,1.36l.05,0a6.19,6.19,0,0,0,1.7.82l.05,0a5.6,5.6,0,0,0,1.35.22h0a5.76,5.76,0,0,1-1.35-.22l-.05,0a6.39,6.39,0,0,1-1.71-.82l0,0a7.84,7.84,0,0,1-1.55-1.36l0,0a11.93,11.93,0,0,1-1.31-1.85l0-.06a14.33,14.33,0,0,1-1-2.27l0-.07a17,17,0,0,1-.68-2.64v-.08l-.09-.58a19.45,19.45,0,0,1-.18-2.27v-.08a19.45,19.45,0,0,1,.16-2.77l0-.08A17.46,17.46,0,0,1,5,872.85l0-.07A16.25,16.25,0,0,1,6,870.44l0-.06a12.51,12.51,0,0,1,1.23-2l0,0a8.83,8.83,0,0,1,1.51-1.54l0,0a7.12,7.12,0,0,1,1.7-1h-.09a9.13,9.13,0,0,0-2.1,1l-.06,0a10.5,10.5,0,0,0-1.88,1.53l0,0a12.07,12.07,0,0,0-1.56,2l0,.06a14,14,0,0,0-1.18,2.32l0,.07a16.09,16.09,0,0,0-.76,2.59s0,0,0,.08a15.86,15.86,0,0,0-.29,2.77v.08a15.83,15.83,0,0,0,.15,2.27l.09.58v.08a14.66,14.66,0,0,0,.75,2.64l0,.07a12.27,12.27,0,0,0,1.18,2.28l0,.06a11.63,11.63,0,0,0,1.54,1.85l0,0a9.56,9.56,0,0,0,1.84,1.37l.06,0a9,9,0,0,0,2.06.83h.06a8.37,8.37,0,0,0,1,.18h0a8.21,8.21,0,0,1-1-.18h-.06a8.82,8.82,0,0,1-2.07-.84l-.06,0a9.56,9.56,0,0,1-1.84-1.37l0,0a11.25,11.25,0,0,1-1.55-1.86l0-.06A12.51,12.51,0,0,1,3.45,884a.25.25,0,0,1,0-.07,13.78,13.78,0,0,1-.75-2.65s0-.05,0-.08l-.09-.58a15.76,15.76,0,0,1-.14-2.26v-.09a14.85,14.85,0,0,1,.29-2.76.22.22,0,0,1,0-.08,15.51,15.51,0,0,1,.76-2.59l0-.07a14.08,14.08,0,0,1,1.19-2.32l0-.07a12,12,0,0,1,1.57-2l0,0a10.56,10.56,0,0,1,1.89-1.53l.06,0a9,9,0,0,1,2.11-1h-.07a11.82,11.82,0,0,0-2.4.93l-.07,0a11.7,11.7,0,0,0-2.16,1.49l-.06,0a12.7,12.7,0,0,0-1.8,1.93l-.05.06a13.61,13.61,0,0,0-1.38,2.3l0,.07a13.29,13.29,0,0,0-.91,2.57l0,.07A14.11,14.11,0,0,0,1.1,878v.08a13.24,13.24,0,0,0,.13,2.26c0,.2.05.39.09.59v.08a13.07,13.07,0,0,0,.8,2.64l0,.07a12,12,0,0,0,1.3,2.3l0,.06A11.79,11.79,0,0,0,5.22,888l0,0a10.85,10.85,0,0,0,2.06,1.4l.07,0a10.24,10.24,0,0,0,2,.79,10.18,10.18,0,0,1-2-.79l-.06,0A11.58,11.58,0,0,1,5.25,888l0,0a11.07,11.07,0,0,1-1.73-1.88l0-.06a12.8,12.8,0,0,1-1.3-2.29l0-.07A13.36,13.36,0,0,1,1.3,881s0,0,0-.08a5.81,5.81,0,0,1-.09-.58,13.36,13.36,0,0,1-.13-2.27V878a14.69,14.69,0,0,1,.38-2.75l0-.08a14.26,14.26,0,0,1,.91-2.57l0-.07a14,14,0,0,1,1.39-2.29l.05-.06a12.81,12.81,0,0,1,1.81-1.94l0,0a12,12,0,0,1,2.18-1.48l.06,0a11.34,11.34,0,0,1,2.41-.93h0a12.41,12.41,0,0,0-2.58.86l-.07,0a12.84,12.84,0,0,0-2.33,1.42l-.06,0A12.86,12.86,0,0,0,3.33,870l-.05.06a13.2,13.2,0,0,0-1.51,2.25l0,.07a12.43,12.43,0,0,0-1,2.54l0,.07a13.16,13.16,0,0,0-.43,2.74v.08a12.31,12.31,0,0,0,.11,2.26l.09.58,0,.08a12.47,12.47,0,0,0,.83,2.66l0,.07a12.17,12.17,0,0,0,1.36,2.32l0,.06a11.78,11.78,0,0,0,1.82,1.91l.06,0q.22.2.45.36l-.46-.37-.06,0a11.82,11.82,0,0,1-1.82-1.92l0-.06a12.76,12.76,0,0,1-1.37-2.32l0-.07a12.47,12.47,0,0,1-.83-2.66s0-.05,0-.08a5.81,5.81,0,0,1-.09-.58,12.33,12.33,0,0,1-.12-2.26v-.08A12.53,12.53,0,0,1,.71,875Z"/><path class="cls-42" d="M5.11,888.17l.21.16Z"/><path class="cls-42" d="M5.4,888.39l0,0,.22.15Z"/><path class="cls-42" d="M5.32,888.33l0,0Z"/><path class="cls-42" d="M.25,875.7l-.12.82C.16,876.25.2,876,.25,875.7Z"/><path class="cls-42" d="M.3,875.49l0,.09A.29.29,0,0,1,.3,875.49Z"/><path class="cls-42" d="M.26,875.66l0-.08,0,.12Z"/><path class="cls-43" d="M32.71,879.63a7.44,7.44,0,0,1,1.88-5.42,7,7,0,0,1,5.27-1.92,8.1,8.1,0,0,1,3.88.81A5.3,5.3,0,0,1,46,875.68l-1.85.55a3.92,3.92,0,0,0-1.69-1.79,5.81,5.81,0,0,0-2.68-.56,4.77,4.77,0,0,0-3.8,1.51,7.38,7.38,0,0,0,.08,8.54A4.89,4.89,0,0,0,40,885.5a8,8,0,0,0,2.63-.42,5.48,5.48,0,0,0,2-1.17v-2.59h-4.3v-1.63h6.09v5a7.86,7.86,0,0,1-2.8,1.8,10.05,10.05,0,0,1-3.6.64,7.89,7.89,0,0,1-3.88-.9,6,6,0,0,1-2.5-2.59A8.67,8.67,0,0,1,32.71,879.63Z"/><path class="cls-43" d="M51.36,881.75a4.77,4.77,0,0,0,.78,2.93,2.7,2.7,0,0,0,2.3,1,3.4,3.4,0,0,0,1.91-.48,2.37,2.37,0,0,0,1-1.21l1.62.45q-1,2.63-4.5,2.62a4.69,4.69,0,0,1-3.73-1.46,6.39,6.39,0,0,1-1.28-4.34,6.12,6.12,0,0,1,1.28-4.19,4.61,4.61,0,0,1,3.66-1.46c3.24,0,4.86,2,4.86,5.87v.24Zm6-1.41a4.23,4.23,0,0,0-.88-2.54,2.72,2.72,0,0,0-2.12-.8,2.64,2.64,0,0,0-2.11.89,3.82,3.82,0,0,0-.84,2.45Z"/><path class="cls-43" d="M71.53,881.35a6.32,6.32,0,0,1-1.27,4.32,4.76,4.76,0,0,1-3.71,1.42,4.47,4.47,0,0,1-3.65-1.48,6.48,6.48,0,0,1-1.24-4.26q0-5.72,5-5.71A4.65,4.65,0,0,1,70.34,877,6.57,6.57,0,0,1,71.53,881.35Zm-1.93,0a6.17,6.17,0,0,0-.68-3.32,2.51,2.51,0,0,0-2.28-1,2.63,2.63,0,0,0-2.33,1,6,6,0,0,0-.72,3.3,6.12,6.12,0,0,0,.71,3.28,2.47,2.47,0,0,0,2.23,1.1,2.62,2.62,0,0,0,2.36-1.06A6,6,0,0,0,69.6,881.35Z"/><path class="cls-43" d="M84.07,886.88l-7.69-12.24.05,1,0,1.7v9.55H74.75V872.51H77l7.78,12.32c-.08-1.33-.12-2.3-.12-2.9v-9.42h1.75v14.37Z"/><path class="cls-43" d="M93,887.09a3.31,3.31,0,0,1-2.5-.88,3.35,3.35,0,0,1-.84-2.41,3.2,3.2,0,0,1,1.13-2.63,6,6,0,0,1,3.63-1l2.48,0v-.6a2.7,2.7,0,0,0-.57-1.93,2.41,2.41,0,0,0-1.79-.58,3.13,3.13,0,0,0-1.8.41,1.87,1.87,0,0,0-.67,1.34l-1.92-.17q.47-3,4.43-3a4.54,4.54,0,0,1,3.13,1,3.55,3.55,0,0,1,1,2.76v4.76a2.68,2.68,0,0,0,.22,1.23.83.83,0,0,0,.81.41,2.7,2.7,0,0,0,.6-.07v1.14A6,6,0,0,1,99,887a1.87,1.87,0,0,1-1.49-.53,2.77,2.77,0,0,1-.52-1.68h-.07a4.49,4.49,0,0,1-1.63,1.79A4.59,4.59,0,0,1,93,887.09Zm.41-1.38a3.44,3.44,0,0,0,1.8-.46A3.41,3.41,0,0,0,96.43,884a3.31,3.31,0,0,0,.45-1.65v-.91l-2,0a6.6,6.6,0,0,0-2,.27,2.07,2.07,0,0,0-1,.76,2.32,2.32,0,0,0-.35,1.33,1.91,1.91,0,0,0,.48,1.39A1.86,1.86,0,0,0,93.39,885.71Z"/><path class="cls-43" d="M108.84,886.88v-7a4,4,0,0,0-.44-2.21,1.81,1.81,0,0,0-1.58-.61A2.21,2.21,0,0,0,105,878a4.1,4.1,0,0,0-.68,2.54v6.39h-1.83V878.2c0-1.29,0-2.07-.06-2.36h1.73a1.35,1.35,0,0,1,0,.28q0,.23,0,.51c0,.2,0,.56,0,1.1h0a3.86,3.86,0,0,1,1.36-1.63,3.53,3.53,0,0,1,1.87-.46,3.45,3.45,0,0,1,2,.5,2.62,2.62,0,0,1,1,1.59h0a3.82,3.82,0,0,1,1.38-1.6,3.72,3.72,0,0,1,2-.49,3,3,0,0,1,2.43.91,4.62,4.62,0,0,1,.76,3v7.35h-1.82v-7a4,4,0,0,0-.44-2.21,1.81,1.81,0,0,0-1.58-.61,2.19,2.19,0,0,0-1.87.89,4.2,4.2,0,0,0-.67,2.54v6.39Z"/><path class="cls-43" d="M121.85,881.75a4.71,4.71,0,0,0,.79,2.93,2.68,2.68,0,0,0,2.29,1,3.38,3.38,0,0,0,1.91-.48,2.39,2.39,0,0,0,1-1.21l1.61.45q-1,2.63-4.5,2.62a4.72,4.72,0,0,1-3.73-1.46,6.44,6.44,0,0,1-1.28-4.34,6.18,6.18,0,0,1,1.28-4.19,4.62,4.62,0,0,1,3.66-1.46c3.24,0,4.87,2,4.87,5.87v.24Zm6-1.41a4.23,4.23,0,0,0-.89-2.54,2.69,2.69,0,0,0-2.11-.8,2.66,2.66,0,0,0-2.12.89,3.82,3.82,0,0,0-.84,2.45Z"/><path class="cls-43" d="M141,883.83a2.79,2.79,0,0,1-1.17,2.41,5.63,5.63,0,0,1-3.3.85,6.16,6.16,0,0,1-3.18-.68,3.21,3.21,0,0,1-1.46-2.12l1.63-.32a2,2,0,0,0,1,1.31,4.28,4.28,0,0,0,2.05.41,3.73,3.73,0,0,0,2-.43,1.45,1.45,0,0,0,.65-1.29,1.38,1.38,0,0,0-.45-1.06,3.57,3.57,0,0,0-1.45-.67l-1.31-.35a9.3,9.3,0,0,1-2.25-.8,3.13,3.13,0,0,1-1-1,2.43,2.43,0,0,1-.38-1.38,2.67,2.67,0,0,1,1.08-2.3,5.23,5.23,0,0,1,3.14-.79,5.64,5.64,0,0,1,2.9.64,2.94,2.94,0,0,1,1.36,2.06l-1.65.21a1.66,1.66,0,0,0-.82-1.13,3.57,3.57,0,0,0-1.79-.39,3.52,3.52,0,0,0-1.84.37,1.27,1.27,0,0,0-.59,1.15,1.2,1.2,0,0,0,.24.77,1.88,1.88,0,0,0,.73.52,13.43,13.43,0,0,0,2,.59,13.25,13.25,0,0,1,2.1.68,3.56,3.56,0,0,1,1,.69,2.71,2.71,0,0,1,.58.87A2.88,2.88,0,0,1,141,883.83Z"/></g></svg>