<svg xmlns="http://www.w3.org/2000/svg" xmlns:xlink="http://www.w3.org/1999/xlink" viewBox="0 0 679.35 455.38"><defs><style>.cls-1{isolation:isolate;}.cls-11,.cls-2{fill:#bfbfbf;}.cls-10,.cls-2{stroke:#bfbfbf;stroke-miterlimit:10;stroke-width:3px;}.cls-3{fill:gold;}.cls-4{fill:#9ed68a;}.cls-5{fill:#4fa9dc;}.cls-6{mix-blend-mode:multiply;opacity:0.6;fill:url(#linear-gradient);}.cls-7{fill:#dfdfdf;}.cls-8{fill:#333;}.cls-9{fill:#fff;}.cls-10{fill:none;}</style><linearGradient id="linear-gradient" x1="428.17" y1="152.79" x2="652.46" y2="152.79" gradientUnits="userSpaceOnUse"><stop offset="0" stop-color="#aeaeae"/><stop offset="0.2" stop-color="#b5b5b5"/><stop offset="0.48" stop-color="#c8c8c8"/><stop offset="0.81" stop-color="#e7e7e7"/><stop offset="1" stop-color="#fbfbfc"/></linearGradient></defs><g class="cls-1"><g id="Layer_2" data-name="Layer 2"><polygon class="cls-2" points="1.5 105.52 1.5 200.07 148.29 200.07 148.29 172.87 148.29 132.72 148.29 105.52 1.5 105.52"/><path class="cls-3" d="M577.48,101.86a101.84,101.84,0,0,1,88.24,50.93,101.87,101.87,0,1,0-176.47,0A101.84,101.84,0,0,1,577.48,101.86Z"/><path class="cls-4" d="M577.48,203.73a101.83,101.83,0,0,1-88.23-50.94,101.87,101.87,0,1,0,176.47,0A101.83,101.83,0,0,1,577.48,203.73Z"/><ellipse class="cls-5" cx="577.48" cy="152.79" rx="88.23" ry="50.93"/><ellipse class="cls-6" cx="577.48" cy="152.79" rx="88.23" ry="50.93"/><circle class="cls-7" cx="577.48" cy="399.38" r="56"/><path class="cls-8" d="M535.16,48.3a.32.32,0,0,1,.32-.31h3.95a3.66,3.66,0,1,1,0,7.31h-1.72v3.85a.33.33,0,0,1-.31.31h-1.93a.32.32,0,0,1-.32-.31Zm4.12,4.61a1.29,1.29,0,0,0,1.29-1.3,1.25,1.25,0,0,0-1.29-1.21h-1.56v2.51Z"/><path class="cls-8" d="M544.65,48.3A.33.33,0,0,1,545,48h2a.31.31,0,0,1,.31.31v6.64a2,2,0,0,0,2,2.06,2,2,0,0,0,2.05-2.06V48.3a.31.31,0,0,1,.31-.31h2a.33.33,0,0,1,.31.31v6.77a4.67,4.67,0,0,1-9.34,0Z"/><path class="cls-8" d="M556.62,48.3a.31.31,0,0,1,.31-.31h3.82a3.3,3.3,0,0,1,3.53,3,3.26,3.26,0,0,1-1.9,2.59,3.1,3.1,0,0,1,2.19,2.67A3.34,3.34,0,0,1,561,59.46h-4.07a.31.31,0,0,1-.31-.31Zm3.84,4.34a1.17,1.17,0,0,0,1.15-1.18,1.12,1.12,0,0,0-1.15-1.11h-1.28v2.29Zm.21,4.48a1.19,1.19,0,0,0,1.18-1.2,1.31,1.31,0,0,0-1.34-1.15h-1.33v2.35Z"/><path class="cls-8" d="M566.65,48.3A.31.31,0,0,1,567,48h1.95a.33.33,0,0,1,.31.31v8.75h3.9a.31.31,0,0,1,.31.31v1.79a.31.31,0,0,1-.31.31H567a.31.31,0,0,1-.31-.31Z"/><path class="cls-8" d="M575,48.3a.33.33,0,0,1,.31-.31h2a.33.33,0,0,1,.31.31V59.15a.33.33,0,0,1-.31.31h-2a.33.33,0,0,1-.31-.31Z"/><path class="cls-8" d="M579.77,57.9l.77-1.36a.42.42,0,0,1,.56-.09,4.87,4.87,0,0,0,2.32.9,1,1,0,0,0,1.13-1c0-.68-.57-1.21-1.68-1.65-1.41-.56-3.18-1.66-3.18-3.62,0-1.63,1.26-3.26,3.78-3.26A6,6,0,0,1,587,49.06c.2.11.16.4.1.52l-.84,1.26c-.11.18-.41.33-.55.21a5.21,5.21,0,0,0-2.35-1,1,1,0,0,0-1,.84c0,.6.49,1.06,1.79,1.59s3.31,1.5,3.31,3.73a3.61,3.61,0,0,1-3.87,3.4,5.2,5.2,0,0,1-3.69-1.27C579.69,58.2,579.64,58.13,579.77,57.9Z"/><path class="cls-8" d="M589.4,48.3a.33.33,0,0,1,.31-.31h1.95a.31.31,0,0,1,.31.31v4.13h4.69V48.3A.31.31,0,0,1,597,48h1.95a.32.32,0,0,1,.31.31V59.15a.32.32,0,0,1-.31.31H597a.31.31,0,0,1-.31-.31V54.84H592v4.31a.31.31,0,0,1-.31.31h-1.95a.33.33,0,0,1-.31-.31Z"/><path class="cls-8" d="M602.05,48.3a.31.31,0,0,1,.31-.31h6.78a.32.32,0,0,1,.32.31v1.79a.32.32,0,0,1-.32.31H604.6v2h3.74a.32.32,0,0,1,.31.31v1.79a.31.31,0,0,1-.31.31H604.6v2.21h4.54a.32.32,0,0,1,.32.31v1.79a.32.32,0,0,1-.32.31h-6.78a.31.31,0,0,1-.31-.31Z"/><path class="cls-8" d="M611.65,48.3A.31.31,0,0,1,612,48h4.9A3.5,3.5,0,0,1,618,54.82L620.25,59a.31.31,0,0,1-.28.47h-2.18a.29.29,0,0,1-.26-.15L615.35,55h-1.13v4.18a.33.33,0,0,1-.31.31H612a.31.31,0,0,1-.31-.31Zm5,4.59a1.31,1.31,0,0,0,1.24-1.31,1.25,1.25,0,0,0-1.24-1.25h-2.43v2.56Z"/><path class="cls-8" d="M561.55,67.44a5.9,5.9,0,1,1-5.89,5.92A5.89,5.89,0,0,1,561.55,67.44Zm0,9.18a3.28,3.28,0,1,0-3.26-3.26A3.29,3.29,0,0,0,561.55,76.62Z"/><path class="cls-8" d="M569.43,67.92a.31.31,0,0,1,.31-.32h4a3.66,3.66,0,1,1,0,7.31H572v3.85a.33.33,0,0,1-.31.32h-1.93a.31.31,0,0,1-.31-.32Zm4.11,4.6a1.29,1.29,0,0,0,1.29-1.29A1.25,1.25,0,0,0,573.54,70H572v2.51Z"/><path class="cls-8" d="M579,67.92a.32.32,0,0,1,.32-.32h6.78a.31.31,0,0,1,.31.32V69.7a.31.31,0,0,1-.31.31h-4.54v2h3.74a.32.32,0,0,1,.31.31v1.78a.31.31,0,0,1-.31.31h-3.74v2.22h4.54a.31.31,0,0,1,.31.31v1.78a.31.31,0,0,1-.31.32h-6.78a.32.32,0,0,1-.32-.32Z"/><path class="cls-8" d="M588.61,67.74a.31.31,0,0,1,.31-.3h.41l6.54,6.29h0V67.92a.32.32,0,0,1,.32-.32h2a.32.32,0,0,1,.31.32V79a.3.3,0,0,1-.31.29h-.26a.49.49,0,0,1-.21-.08l-6.48-6.51h0v6.11a.31.31,0,0,1-.31.32h-1.95a.33.33,0,0,1-.32-.32Z"/><path class="cls-9" d="M557,148.44a.31.31,0,0,1,.31-.31h3.82a3.29,3.29,0,0,1,3.52,3,3.25,3.25,0,0,1-1.9,2.59,3.11,3.11,0,0,1,2.2,2.67,3.34,3.34,0,0,1-3.57,3.17h-4.07a.31.31,0,0,1-.31-.31Zm3.84,4.34a1.16,1.16,0,0,0,1.14-1.18,1.1,1.1,0,0,0-1.14-1.11h-1.28v2.29Zm.21,4.47a1.18,1.18,0,0,0,1.18-1.19,1.31,1.31,0,0,0-1.34-1.15h-1.33v2.34Z"/><path class="cls-9" d="M572,148a5.9,5.9,0,1,1-5.88,5.92A5.89,5.89,0,0,1,572,148Zm0,9.18a3.28,3.28,0,1,0-3.26-3.26A3.28,3.28,0,0,0,572,157.14Z"/><path class="cls-9" d="M581.31,150.54H579a.31.31,0,0,1-.31-.32v-1.78a.31.31,0,0,1,.31-.31h7.27a.31.31,0,0,1,.31.31v1.78a.31.31,0,0,1-.31.32H583.9v8.75a.33.33,0,0,1-.31.31h-2a.33.33,0,0,1-.31-.31Z"/><path class="cls-9" d="M588.19,148.44a.32.32,0,0,1,.31-.31h2a.31.31,0,0,1,.31.31v4.13h4.69v-4.13a.31.31,0,0,1,.31-.31h2a.31.31,0,0,1,.31.31v10.85a.32.32,0,0,1-.31.31h-2a.31.31,0,0,1-.31-.31V155h-4.69v4.31a.31.31,0,0,1-.31.31h-2a.33.33,0,0,1-.31-.31Z"/><path class="cls-8" d="M552.54,394.27a5.46,5.46,0,0,1,4,1.52.31.31,0,0,1,0,.46l-1.28,1.33a.3.3,0,0,1-.41,0,3.34,3.34,0,0,0-2.21-.84,3.35,3.35,0,0,0,0,6.7,3.43,3.43,0,0,0,2.19-.78.33.33,0,0,1,.43,0l1.28,1.36a.34.34,0,0,1,0,.45,5.62,5.62,0,0,1-4,1.59,5.9,5.9,0,1,1,0-11.8Z"/><path class="cls-8" d="M558.48,394.74a.31.31,0,0,1,.31-.31h2a.33.33,0,0,1,.32.31v8.75H565a.31.31,0,0,1,.31.31v1.79a.31.31,0,0,1-.31.31h-6.17a.31.31,0,0,1-.31-.31Z"/><path class="cls-8" d="M571.84,394.27a5.9,5.9,0,1,1-5.89,5.91A5.89,5.89,0,0,1,571.84,394.27Zm0,9.17a3.28,3.28,0,1,0-3.27-3.26A3.28,3.28,0,0,0,571.84,403.44Z"/><path class="cls-8" d="M579.06,404.35l.77-1.36a.42.42,0,0,1,.56-.1,4.87,4.87,0,0,0,2.32.9,1,1,0,0,0,1.13-1c0-.69-.57-1.22-1.68-1.66-1.41-.56-3.18-1.66-3.18-3.62,0-1.62,1.26-3.26,3.78-3.26a6.09,6.09,0,0,1,3.51,1.23c.2.11.16.41.1.52l-.84,1.26c-.11.18-.41.33-.56.22a5,5,0,0,0-2.34-1,1,1,0,0,0-1,.84c0,.6.49,1.06,1.78,1.59s3.31,1.51,3.31,3.73a3.6,3.6,0,0,1-3.86,3.4,5.2,5.2,0,0,1-3.69-1.27C579,404.64,578.93,404.57,579.06,404.35Z"/><path class="cls-8" d="M588.69,394.74a.31.31,0,0,1,.31-.31h6.79a.31.31,0,0,1,.31.31v1.79a.31.31,0,0,1-.31.31h-4.54v2H595a.32.32,0,0,1,.31.31V401a.31.31,0,0,1-.31.31h-3.73v2.21h4.54a.31.31,0,0,1,.31.31v1.79a.31.31,0,0,1-.31.31H589a.31.31,0,0,1-.31-.31Z"/><path class="cls-8" d="M598.29,394.74a.31.31,0,0,1,.29-.31h4a5.74,5.74,0,1,1,0,11.47h-4a.31.31,0,0,1-.29-.31Zm4.13,8.74a3.32,3.32,0,0,0,0-6.64h-1.57v6.64Z"/><path class="cls-9" d="M23.36,148.44a.31.31,0,0,1,.31-.31h3.95a3.66,3.66,0,1,1,0,7.31H25.91v3.85a.32.32,0,0,1-.31.31H23.67a.31.31,0,0,1-.31-.31Zm4.11,4.6a1.28,1.28,0,0,0,1.3-1.29,1.25,1.25,0,0,0-1.3-1.21H25.91V153Z"/><path class="cls-9" d="M32.84,148.44a.32.32,0,0,1,.31-.31h2a.31.31,0,0,1,.31.31v6.63a2,2,0,1,0,4.07,0v-6.63a.31.31,0,0,1,.31-.31h2a.31.31,0,0,1,.31.31v6.77a4.67,4.67,0,0,1-9.34,0Z"/><path class="cls-9" d="M44.82,148.44a.31.31,0,0,1,.31-.31H49a3.29,3.29,0,0,1,3.52,3,3.25,3.25,0,0,1-1.9,2.59,3.1,3.1,0,0,1,2.19,2.67,3.34,3.34,0,0,1-3.57,3.17H45.13a.31.31,0,0,1-.31-.31Zm3.83,4.34a1.17,1.17,0,0,0,1.15-1.18,1.11,1.11,0,0,0-1.15-1.11H47.37v2.29Zm.21,4.47A1.18,1.18,0,0,0,50,156.06a1.3,1.3,0,0,0-1.34-1.15H47.37v2.34Z"/><path class="cls-9" d="M54.84,148.44a.31.31,0,0,1,.31-.31h2a.32.32,0,0,1,.32.31v8.75h3.9a.31.31,0,0,1,.31.31v1.79a.31.31,0,0,1-.31.31H55.15a.31.31,0,0,1-.31-.31Z"/><path class="cls-9" d="M63.21,148.44a.32.32,0,0,1,.31-.31h2a.31.31,0,0,1,.31.31v10.85a.32.32,0,0,1-.31.31h-2a.33.33,0,0,1-.31-.31Z"/><path class="cls-9" d="M73.7,148a5.47,5.47,0,0,1,4,1.53.3.3,0,0,1,0,.46l-1.28,1.32a.28.28,0,0,1-.41,0,3.33,3.33,0,0,0-2.21-.83,3.35,3.35,0,0,0,0,6.7,3.44,3.44,0,0,0,2.19-.79.32.32,0,0,1,.43,0l1.28,1.36a.32.32,0,0,1,0,.44,5.62,5.62,0,0,1-4,1.59,5.9,5.9,0,1,1,0-11.8Z"/><path class="cls-9" d="M78.17,159.17l5.13-11a.33.33,0,0,1,.28-.18h.16a.34.34,0,0,1,.28.18l5.13,11a.29.29,0,0,1-.28.43H87.05c-.29,0-.43-.1-.57-.41l-.59-1.3H81.43l-.59,1.31a.61.61,0,0,1-.59.4h-1.8A.29.29,0,0,1,78.17,159.17Zm6.73-3.51L83.66,153h0l-1.23,2.7Z"/><path class="cls-9" d="M91.37,150.54H89a.31.31,0,0,1-.31-.32v-1.78a.31.31,0,0,1,.31-.31h7.28a.31.31,0,0,1,.31.31v1.78a.31.31,0,0,1-.31.32H94v8.75a.33.33,0,0,1-.31.31h-2a.33.33,0,0,1-.31-.31Z"/><path class="cls-9" d="M98.25,148.44a.32.32,0,0,1,.31-.31h2a.32.32,0,0,1,.31.31v10.85a.33.33,0,0,1-.31.31h-2a.33.33,0,0,1-.31-.31Z"/><path class="cls-9" d="M108.71,148a5.9,5.9,0,1,1-5.89,5.92A5.89,5.89,0,0,1,108.71,148Zm0,9.18a3.28,3.28,0,1,0-3.27-3.26A3.28,3.28,0,0,0,108.71,157.14Z"/><path class="cls-9" d="M116.57,148.26a.3.3,0,0,1,.31-.3h.41l6.54,6.3h0v-5.82a.31.31,0,0,1,.31-.31h2a.32.32,0,0,1,.31.31v11a.31.31,0,0,1-.31.29h-.26a.58.58,0,0,1-.22-.08l-6.47-6.51h0v6.12a.32.32,0,0,1-.32.31h-2a.33.33,0,0,1-.31-.31Z"/><path class="cls-9" d="M554.91,228.49a5.9,5.9,0,1,1-5.88,5.92A5.89,5.89,0,0,1,554.91,228.49Zm0,9.18a3.28,3.28,0,1,0-3.26-3.26A3.28,3.28,0,0,0,554.91,237.67Z"/><path class="cls-9" d="M564.2,231.07h-2.34a.31.31,0,0,1-.31-.32V229a.31.31,0,0,1,.31-.31h7.27a.31.31,0,0,1,.31.31v1.78a.31.31,0,0,1-.31.32h-2.34v8.75a.33.33,0,0,1-.31.31h-2a.33.33,0,0,1-.31-.31Z"/><path class="cls-9" d="M571.08,229a.32.32,0,0,1,.31-.31h2a.31.31,0,0,1,.31.31v4.13h4.69V229a.31.31,0,0,1,.31-.31h2a.32.32,0,0,1,.31.31v10.85a.33.33,0,0,1-.31.31h-2a.31.31,0,0,1-.31-.31v-4.31h-4.69v4.31a.31.31,0,0,1-.31.31h-2a.33.33,0,0,1-.31-.31Z"/><path class="cls-9" d="M583.73,229a.31.31,0,0,1,.31-.31h6.78a.31.31,0,0,1,.31.31v1.78a.31.31,0,0,1-.31.32h-4.54v2H590a.33.33,0,0,1,.31.31v1.79a.31.31,0,0,1-.31.31h-3.74v2.21h4.54a.31.31,0,0,1,.31.31v1.79a.31.31,0,0,1-.31.31H584a.31.31,0,0,1-.31-.31Z"/><path class="cls-9" d="M593.33,229a.31.31,0,0,1,.31-.31h4.9a3.5,3.5,0,0,1,1.14,6.83l2.25,4.16a.31.31,0,0,1-.28.48h-2.18a.29.29,0,0,1-.26-.15L597,235.64H595.9v4.18a.33.33,0,0,1-.31.31h-2a.31.31,0,0,1-.31-.31Zm5,4.59a1.32,1.32,0,0,0,1.25-1.31,1.26,1.26,0,0,0-1.25-1.25H595.9v2.56Z"/><path class="cls-9" d="M534.77,248.58a.31.31,0,0,1,.31-.31H539a3.66,3.66,0,1,1,0,7.31h-1.72v3.85a.32.32,0,0,1-.31.31h-1.94a.31.31,0,0,1-.31-.31Zm4.12,4.61a1.29,1.29,0,0,0,1.29-1.3,1.25,1.25,0,0,0-1.29-1.21h-1.56v2.51Z"/><path class="cls-9" d="M544.37,248.58a.31.31,0,0,1,.31-.31h2a.32.32,0,0,1,.31.31v8.75h3.9a.32.32,0,0,1,.32.32v1.78a.31.31,0,0,1-.32.31h-6.16a.31.31,0,0,1-.31-.31Z"/><path class="cls-9" d="M551.81,259.32l5.13-11a.31.31,0,0,1,.27-.18h.17a.34.34,0,0,1,.28.18l5.13,11a.29.29,0,0,1-.28.42h-1.82c-.3,0-.43-.1-.58-.41l-.59-1.29h-4.45l-.59,1.31a.6.6,0,0,1-.59.39h-1.8A.28.28,0,0,1,551.81,259.32Zm6.73-3.51-1.24-2.7h0l-1.23,2.7Z"/><path class="cls-9" d="M565,250.68h-2.34a.31.31,0,0,1-.31-.31v-1.79a.31.31,0,0,1,.31-.31h7.27a.31.31,0,0,1,.31.31v1.79a.31.31,0,0,1-.31.31H567.6v8.75a.32.32,0,0,1-.31.31h-2a.32.32,0,0,1-.31-.31Z"/><path class="cls-9" d="M571.89,248.58a.31.31,0,0,1,.31-.31H579a.31.31,0,0,1,.31.31v1.79a.31.31,0,0,1-.31.31h-4.54V253h3.73a.32.32,0,0,1,.31.31v1.79a.32.32,0,0,1-.31.31h-3.73v4a.32.32,0,0,1-.31.31H572.2a.31.31,0,0,1-.31-.31Z"/><path class="cls-9" d="M586.16,248.11a5.9,5.9,0,1,1-5.88,5.91A5.89,5.89,0,0,1,586.16,248.11Zm0,9.18A3.28,3.28,0,1,0,582.9,254,3.29,3.29,0,0,0,586.16,257.29Z"/><path class="cls-9" d="M594,248.58a.31.31,0,0,1,.31-.31h4.9a3.56,3.56,0,0,1,3.57,3.54,3.61,3.61,0,0,1-2.42,3.3l2.24,4.16a.31.31,0,0,1-.28.47h-2.18a.3.3,0,0,1-.26-.14l-2.18-4.35h-1.13v4.18a.32.32,0,0,1-.31.31h-1.95a.31.31,0,0,1-.31-.31Zm5,4.59a1.31,1.31,0,0,0,1.24-1.31,1.25,1.25,0,0,0-1.24-1.24h-2.43v2.55Z"/><path class="cls-9" d="M606.14,248.37a.32.32,0,0,1,.3-.26h.26a.36.36,0,0,1,.28.16l3.8,7.08h0l3.81-7.08a.34.34,0,0,1,.27-.16h.27a.3.3,0,0,1,.29.26l1.85,11a.29.29,0,0,1-.31.36h-1.93a.32.32,0,0,1-.31-.26l-.74-5.06h0l-2.76,5.31a.35.35,0,0,1-.27.18h-.3a.35.35,0,0,1-.28-.18l-2.77-5.31h0l-.72,5.06a.32.32,0,0,1-.31.26H604.6a.3.3,0,0,1-.31-.36Z"/><path class="cls-9" d="M561.55,267.72a5.9,5.9,0,1,1-5.88,5.92A5.89,5.89,0,0,1,561.55,267.72Zm0,9.18a3.28,3.28,0,1,0-3.26-3.26A3.28,3.28,0,0,0,561.55,276.9Z"/><path class="cls-9" d="M569.43,268.2a.31.31,0,0,1,.31-.31h4a3.66,3.66,0,1,1,0,7.31H572v3.85a.33.33,0,0,1-.31.31h-1.93a.31.31,0,0,1-.31-.31Zm4.11,4.6a1.28,1.28,0,0,0,1.29-1.29,1.25,1.25,0,0,0-1.29-1.21H572v2.5Z"/><path class="cls-9" d="M579,268.2a.31.31,0,0,1,.32-.31h6.78a.31.31,0,0,1,.31.31V270a.31.31,0,0,1-.31.32h-4.54v2h3.74a.33.33,0,0,1,.31.31v1.79a.32.32,0,0,1-.31.31h-3.74V277h4.54a.31.31,0,0,1,.31.31v1.79a.31.31,0,0,1-.31.31h-6.78a.32.32,0,0,1-.32-.31Z"/><path class="cls-9" d="M588.61,268a.31.31,0,0,1,.31-.3h.41l6.54,6.3h0V268.2a.31.31,0,0,1,.32-.31h2a.31.31,0,0,1,.31.31v11a.3.3,0,0,1-.31.29h-.26a.49.49,0,0,1-.21-.08l-6.48-6.51h0v6.12a.31.31,0,0,1-.31.31h-1.95a.33.33,0,0,1-.32-.31Z"/><line class="cls-10" x1="404.17" y1="231.8" x2="459.35" y2="231.8"/><polygon class="cls-11" points="457.16 239.28 470.12 231.8 457.16 224.32 457.16 239.28"/><line class="cls-10" x1="470.56" y1="399.38" x2="501.73" y2="399.38"/><polygon class="cls-11" points="499.54 406.86 512.5 399.38 499.54 391.9 499.54 406.86"/><line class="cls-10" x1="404.17" y1="73.79" x2="459.35" y2="73.79"/><polygon class="cls-11" points="457.16 81.27 470.12 73.79 457.16 66.31 457.16 81.27"/><polygon class="cls-2" points="315.78 136.43 223.4 73.79 315.78 11.15 408.17 73.79 315.78 136.43"/><polygon class="cls-2" points="315.78 294.44 223.4 231.8 315.78 169.16 408.17 231.8 315.78 294.44"/><path class="cls-9" d="M281.56,50.12a.26.26,0,0,1,.26-.35h1.33a.3.3,0,0,1,.26.2l1.5,5.75h0l2.29-5.93a.23.23,0,0,1,.25-.16h.26a.23.23,0,0,1,.24.16l2.31,5.93h.05L291.83,50a.3.3,0,0,1,.26-.2h1.33a.26.26,0,0,1,.26.35L291,59.8a.27.27,0,0,1-.25.2h-.24a.24.24,0,0,1-.24-.16l-2.58-6.52h-.07L285,59.84a.24.24,0,0,1-.24.16h-.24a.27.27,0,0,1-.25-.2Z"/><path class="cls-9" d="M296,56.21a3.71,3.71,0,0,1,1.05.16c0-.74-.22-1-.75-1a7,7,0,0,0-1.61.21c-.2.06-.31-.07-.33-.26l-.13-.75a.28.28,0,0,1,.2-.36,7.93,7.93,0,0,1,2-.27c1.8,0,2.22.94,2.22,2.51v3.12a.28.28,0,0,1-.28.27h-.52c-.1,0-.17,0-.24-.2l-.17-.39a2.48,2.48,0,0,1-1.76.74,1.84,1.84,0,0,1-2-2C293.65,57,294.49,56.21,296,56.21Zm0,2.56a1.31,1.31,0,0,0,1-.56v-.79a2.3,2.3,0,0,0-.81-.17c-.56,0-.93.31-.93.78A.71.71,0,0,0,296,58.77Z"/><path class="cls-9" d="M299.91,59.16l.39-.77a.22.22,0,0,1,.33-.11,3.19,3.19,0,0,0,1.31.35c.29,0,.49-.11.49-.36s-.2-.42-1-.72c-1.11-.43-1.62-1-1.62-1.9S300.48,54,302,54a3.22,3.22,0,0,1,1.77.45.29.29,0,0,1,.13.38l-.36.74a.27.27,0,0,1-.34.1,3.45,3.45,0,0,0-1.2-.3c-.34,0-.49.14-.49.33s.26.34.8.56c1.1.43,1.94.91,1.94,2,0,.95-.84,1.76-2.29,1.76a3.31,3.31,0,0,1-1.92-.53A.26.26,0,0,1,299.91,59.16Z"/><path class="cls-9" d="M308.53,51.05a1,1,0,0,1,1-1,1,1,0,1,1,0,2A1,1,0,0,1,308.53,51.05Zm.12,3.32a.28.28,0,0,1,.28-.28h1.19a.28.28,0,0,1,.28.28v5.21a.28.28,0,0,1-.28.27h-1.19a.28.28,0,0,1-.28-.27Z"/><path class="cls-9" d="M312.43,55.61h-.49a.28.28,0,0,1-.26-.28v-1a.27.27,0,0,1,.26-.28h.49v-1.6a.28.28,0,0,1,.27-.27h1.19a.27.27,0,0,1,.25.27v1.61h1.27a.27.27,0,0,1,.28.28v1a.28.28,0,0,1-.28.28h-1.27v2.3c0,.4.22.46.45.46a2.26,2.26,0,0,0,.71-.16.23.23,0,0,1,.31.16l.29.91a.25.25,0,0,1-.16.34A5.11,5.11,0,0,1,314,60c-1.11,0-1.6-.69-1.6-1.86Z"/><path class="cls-9" d="M320.28,54.37a.28.28,0,0,1,.28-.28h.53a.26.26,0,0,1,.25.16l.2.55a2.58,2.58,0,0,1,1.93-.85,2.29,2.29,0,0,1,1.87.89,2.91,2.91,0,0,1,2-.89c1.84,0,2.52,1.37,2.52,2.88v2.75a.26.26,0,0,1-.27.27h-1.17a.26.26,0,0,1-.27-.27V56.73c0-.75-.36-1.22-1.08-1.22a1.44,1.44,0,0,0-1.21.6s0,.29,0,.55v2.92a.28.28,0,0,1-.27.27h-1.08a.27.27,0,0,1-.28-.27V56.73c0-.75-.33-1.22-1.06-1.22a1.26,1.26,0,0,0-1.21.9v3.17a.28.28,0,0,1-.28.27h-1.16a.28.28,0,0,1-.28-.27Z"/><path class="cls-9" d="M333.4,56.21a3.71,3.71,0,0,1,1.05.16c0-.74-.22-1-.75-1a7,7,0,0,0-1.61.21c-.21.06-.31-.07-.34-.26l-.13-.75a.3.3,0,0,1,.21-.36,7.84,7.84,0,0,1,2-.27c1.8,0,2.21.94,2.21,2.51v3.12a.28.28,0,0,1-.27.27h-.52c-.1,0-.17,0-.24-.2l-.18-.39A2.43,2.43,0,0,1,333,60a1.84,1.84,0,0,1-2-2C331.09,57,331.93,56.21,333.4,56.21Zm0,2.56a1.31,1.31,0,0,0,1-.56v-.79a2.3,2.3,0,0,0-.81-.17c-.56,0-.93.31-.93.78A.71.71,0,0,0,333.43,58.77Z"/><path class="cls-9" d="M340.08,54a3.45,3.45,0,0,1,1.28.26V50.05a.29.29,0,0,1,.28-.28h1.22a.29.29,0,0,1,.28.28v9.53a.28.28,0,0,1-.28.27h-.56c-.13,0-.23-.11-.27-.27l-.15-.45A2.5,2.5,0,0,1,340,60a2.89,2.89,0,0,1-2.77-3A2.85,2.85,0,0,1,340.08,54Zm.13,4.49a1.25,1.25,0,0,0,1.21-.93V55.84a1.85,1.85,0,0,0-1.12-.33A1.41,1.41,0,0,0,338.9,57,1.37,1.37,0,0,0,340.21,58.44Z"/><path class="cls-9" d="M347.37,54a2.64,2.64,0,0,1,2.7,2.68c0,.1,0,.29,0,.39a.29.29,0,0,1-.28.24h-3.68a1.38,1.38,0,0,0,1.38,1.26,2,2,0,0,0,1.12-.36c.15-.09.28-.12.38,0l.59.67a.24.24,0,0,1,0,.38,3.12,3.12,0,0,1-2.14.79,3,3,0,0,1,0-6Zm1,2.3a1.07,1.07,0,0,0-1.05-1,1.13,1.13,0,0,0-1.12,1Z"/><path class="cls-9" d="M278.75,73.5a3.62,3.62,0,0,1,1.05.16c0-.73-.21-1-.75-1a7,7,0,0,0-1.61.21c-.2.06-.3-.07-.33-.26l-.13-.74a.28.28,0,0,1,.2-.36,7.36,7.36,0,0,1,2-.28c1.8,0,2.22.94,2.22,2.51v3.12a.28.28,0,0,1-.27.28h-.52c-.1,0-.18-.05-.25-.2l-.17-.39a2.5,2.5,0,0,1-1.76.73,1.83,1.83,0,0,1-1.94-2C276.45,74.3,277.28,73.5,278.75,73.5Zm0,2.57a1.32,1.32,0,0,0,1-.56v-.8a2.21,2.21,0,0,0-.8-.17c-.56,0-.94.32-.94.78A.72.72,0,0,0,278.78,76.07Z"/><path class="cls-9" d="M285.64,71.24a2.62,2.62,0,0,1,2.13,1,.27.27,0,0,1-.07.4l-.66.63c-.13.12-.26,0-.36,0a1.35,1.35,0,0,0-1-.46,1.45,1.45,0,0,0-1.41,1.47,1.43,1.43,0,0,0,1.4,1.47,1.5,1.5,0,0,0,1.15-.55.27.27,0,0,1,.36,0l.62.53a.28.28,0,0,1,.1.4,2.55,2.55,0,0,1-2.27,1.21,3,3,0,0,1-3.06-3A3.09,3.09,0,0,1,285.64,71.24Z"/><path class="cls-9" d="M291.78,71.24a2.62,2.62,0,0,1,2.13,1,.27.27,0,0,1-.07.4l-.66.63c-.13.12-.26,0-.36,0a1.35,1.35,0,0,0-1-.46,1.44,1.44,0,0,0-1.41,1.47,1.43,1.43,0,0,0,1.4,1.47,1.5,1.5,0,0,0,1.15-.55.26.26,0,0,1,.36,0l.62.53a.28.28,0,0,1,.1.4,2.55,2.55,0,0,1-2.28,1.21,3,3,0,0,1-3.05-3A3.09,3.09,0,0,1,291.78,71.24Z"/><path class="cls-9" d="M297.8,71.24a2.65,2.65,0,0,1,2.7,2.68c0,.1,0,.29,0,.39a.3.3,0,0,1-.28.25h-3.68a1.36,1.36,0,0,0,1.38,1.25,2,2,0,0,0,1.12-.36c.15-.09.28-.12.38,0l.59.68a.23.23,0,0,1,0,.37,3.07,3.07,0,0,1-2.14.79,3,3,0,0,1,0-6.05Zm1,2.31a1.07,1.07,0,0,0-1.05-1,1.13,1.13,0,0,0-1.12,1Z"/><path class="cls-9" d="M301.39,76.46l.39-.78a.21.21,0,0,1,.33-.1,3.26,3.26,0,0,0,1.31.34c.29,0,.49-.11.49-.36s-.2-.41-1-.72c-1.11-.43-1.63-1-1.63-1.9s.65-1.7,2.12-1.7a3.31,3.31,0,0,1,1.77.45.31.31,0,0,1,.13.39l-.36.73a.27.27,0,0,1-.35.1,3.44,3.44,0,0,0-1.19-.3c-.35,0-.49.14-.49.33s.26.35.79.56c1.11.44,1.94.91,1.94,2,0,1-.83,1.76-2.29,1.76a3.24,3.24,0,0,1-1.91-.53A.24.24,0,0,1,301.39,76.46Z"/><path class="cls-9" d="M306.64,76.46l.39-.78a.21.21,0,0,1,.33-.1,3.26,3.26,0,0,0,1.31.34c.29,0,.49-.11.49-.36s-.2-.41-1-.72c-1.11-.43-1.62-1-1.62-1.9s.64-1.7,2.11-1.7a3.31,3.31,0,0,1,1.77.45.3.3,0,0,1,.13.39l-.36.73a.26.26,0,0,1-.34.1,3.45,3.45,0,0,0-1.2-.3c-.34,0-.49.14-.49.33s.26.35.8.56c1.1.44,1.94.91,1.94,2,0,1-.84,1.76-2.29,1.76a3.31,3.31,0,0,1-1.92-.53A.25.25,0,0,1,306.64,76.46Z"/><path class="cls-9" d="M312.07,68.35a1,1,0,0,1,1-1,1,1,0,1,1,0,2A1,1,0,0,1,312.07,68.35Zm.13,3.31a.27.27,0,0,1,.27-.27h1.2a.27.27,0,0,1,.27.27v5.21a.28.28,0,0,1-.27.28h-1.2a.28.28,0,0,1-.27-.28Z"/><path class="cls-9" d="M315.67,67.34a.29.29,0,0,1,.28-.28h1.22a.28.28,0,0,1,.27.28V71.5a3.51,3.51,0,0,1,1.29-.26,2.85,2.85,0,0,1,2.85,3,2.89,2.89,0,0,1-2.77,3,2.51,2.51,0,0,1-1.88-.86l-.15.44c0,.16-.14.28-.27.28H316a.29.29,0,0,1-.28-.28Zm2.93,8.4a1.38,1.38,0,0,0,1.31-1.47,1.41,1.41,0,0,0-1.4-1.47,1.85,1.85,0,0,0-1.12.33V74.8A1.25,1.25,0,0,0,318.6,75.74Z"/><path class="cls-9" d="M322.88,67.34a.28.28,0,0,1,.27-.28h1.21a.29.29,0,0,1,.28.28v9.53a.29.29,0,0,1-.28.28h-1.21a.28.28,0,0,1-.27-.28Z"/><path class="cls-9" d="M328.87,71.24a2.65,2.65,0,0,1,2.7,2.68c0,.1,0,.29,0,.39a.3.3,0,0,1-.28.25h-3.69A1.38,1.38,0,0,0,329,75.81a2,2,0,0,0,1.12-.36c.15-.09.28-.12.38,0l.59.68a.23.23,0,0,1,0,.37,3.07,3.07,0,0,1-2.14.79,3,3,0,0,1,0-6.05Zm1,2.31a1.07,1.07,0,0,0-1.05-1,1.14,1.14,0,0,0-1.13,1Z"/><path class="cls-9" d="M337.85,73.5a3.62,3.62,0,0,1,1,.16c0-.73-.22-1-.75-1a7,7,0,0,0-1.61.21c-.2.06-.3-.07-.33-.26l-.13-.74a.27.27,0,0,1,.2-.36,7.28,7.28,0,0,1,2-.28c1.8,0,2.22.94,2.22,2.51v3.12a.29.29,0,0,1-.28.28h-.52c-.1,0-.17-.05-.24-.2l-.17-.39a2.52,2.52,0,0,1-1.76.73,1.84,1.84,0,0,1-1.95-2C335.54,74.3,336.38,73.5,337.85,73.5Zm0,2.57a1.32,1.32,0,0,0,1-.56v-.8a2.3,2.3,0,0,0-.81-.17c-.56,0-.93.32-.93.78A.72.72,0,0,0,337.88,76.07Z"/><path class="cls-9" d="M342.42,72.9h-.49a.27.27,0,0,1-.26-.28v-1a.25.25,0,0,1,.26-.27h.49v-1.6a.28.28,0,0,1,.27-.28h1.18a.27.27,0,0,1,.26.27v1.62h1.27a.26.26,0,0,1,.27.27v1a.27.27,0,0,1-.27.28h-1.27v2.3c0,.41.22.46.45.46a2.52,2.52,0,0,0,.7-.15.22.22,0,0,1,.32.15l.29.91a.27.27,0,0,1-.16.35,5.56,5.56,0,0,1-1.71.37c-1.11,0-1.6-.69-1.6-1.86Z"/><path class="cls-9" d="M352.16,73.5a3.71,3.71,0,0,1,1,.16c0-.73-.22-1-.75-1a7,7,0,0,0-1.61.21c-.2.06-.3-.07-.33-.26l-.13-.74a.27.27,0,0,1,.2-.36,7.28,7.28,0,0,1,2-.28c1.8,0,2.22.94,2.22,2.51v3.12a.29.29,0,0,1-.28.28H354c-.1,0-.17-.05-.24-.2l-.17-.39a2.52,2.52,0,0,1-1.76.73,1.84,1.84,0,0,1-1.95-2C349.85,74.3,350.69,73.5,352.16,73.5Zm0,2.57a1.32,1.32,0,0,0,1-.56v-.8a2.3,2.3,0,0,0-.81-.17c-.56,0-.93.32-.93.78A.72.72,0,0,0,352.19,76.07Z"/><path class="cls-9" d="M287.15,84.63a.27.27,0,0,1,.27-.27h3.39a3.21,3.21,0,1,1,0,6.42H289v3.39a.28.28,0,0,1-.27.27h-1.33a.27.27,0,0,1-.27-.27ZM290.69,89a1.47,1.47,0,0,0,1.48-1.49,1.43,1.43,0,0,0-1.48-1.4H289V89Z"/><path class="cls-9" d="M294.8,89a.27.27,0,0,1,.27-.27h1.18a.27.27,0,0,1,.28.27v2.84c0,.76.39,1.24,1.05,1.24A1.28,1.28,0,0,0,298.73,92V89c0-.21.09-.27.32-.27h1.09a.27.27,0,0,1,.28.27v5.22a.28.28,0,0,1-.28.27h-.53a.29.29,0,0,1-.27-.22l-.18-.47a2.58,2.58,0,0,1-1.93.83c-1.78,0-2.43-1.36-2.43-2.83Z"/><path class="cls-9" d="M302.15,84.63a.28.28,0,0,1,.27-.27h1.23a.28.28,0,0,1,.27.27v4.16a3.5,3.5,0,0,1,1.28-.26,2.84,2.84,0,0,1,2.85,3,2.87,2.87,0,0,1-2.76,3,2.54,2.54,0,0,1-1.89-.86l-.14.45c-.05.15-.15.27-.28.27h-.56a.28.28,0,0,1-.27-.27Zm2.92,8.4a1.37,1.37,0,0,0,1.31-1.47A1.41,1.41,0,0,0,305,90.09a1.9,1.9,0,0,0-1.13.33v1.67A1.26,1.26,0,0,0,305.07,93Z"/><path class="cls-9" d="M309.35,84.63a.28.28,0,0,1,.28-.27h1.21a.28.28,0,0,1,.27.27v9.54a.28.28,0,0,1-.27.27h-1.21a.28.28,0,0,1-.28-.27Z"/><path class="cls-9" d="M312.71,85.64a1,1,0,0,1,1-1,1,1,0,1,1,0,2A1,1,0,0,1,312.71,85.64Zm.13,3.31a.27.27,0,0,1,.27-.27h1.2a.27.27,0,0,1,.27.27v5.22a.28.28,0,0,1-.27.27h-1.2a.28.28,0,0,1-.27-.27Z"/><path class="cls-9" d="M316,93.75l.39-.78a.22.22,0,0,1,.33-.1,3.19,3.19,0,0,0,1.31.35c.29,0,.49-.12.49-.37s-.2-.41-1-.71c-1.11-.44-1.63-1-1.63-1.91s.65-1.7,2.12-1.7a3.31,3.31,0,0,1,1.77.45.3.3,0,0,1,.13.39l-.36.73a.26.26,0,0,1-.34.1,3.45,3.45,0,0,0-1.2-.3c-.34,0-.49.15-.49.33s.26.35.79.57c1.11.43,2,.9,2,2,0,1-.84,1.75-2.29,1.75a3.31,3.31,0,0,1-1.92-.53A.25.25,0,0,1,316,93.75Z"/><path class="cls-9" d="M321.56,84.63a.28.28,0,0,1,.27-.27h1.23a.28.28,0,0,1,.27.27V89a2.63,2.63,0,0,1,1.53-.48,2.57,2.57,0,0,1,2.58,2.87v2.77a.28.28,0,0,1-.28.27H326a.28.28,0,0,1-.28-.27V91.39a1.14,1.14,0,0,0-1.14-1.3,1.26,1.26,0,0,0-1.25,1v3.06a.26.26,0,0,1-.3.27h-1.2a.28.28,0,0,1-.27-.27Z"/><path class="cls-9" d="M331.56,88.53a2.64,2.64,0,0,1,2.69,2.68,2.56,2.56,0,0,1,0,.39.27.27,0,0,1-.27.25h-3.69a1.38,1.38,0,0,0,1.39,1.25,2,2,0,0,0,1.12-.36c.14-.09.27-.12.37,0l.59.68a.24.24,0,0,1,0,.37,3.1,3.1,0,0,1-2.15.79,3,3,0,0,1,0-6Zm1,2.31a1.09,1.09,0,0,0-1.05-1,1.14,1.14,0,0,0-1.13,1Z"/><path class="cls-9" d="M335.47,89a.26.26,0,0,1,.27-.27h.55a.27.27,0,0,1,.26.19l.2.56a2,2,0,0,1,1.62-.9c.68,0,1.29.22,1.11.58l-.53.94a.26.26,0,0,1-.33.13,1.33,1.33,0,0,0-.42-.09,1.17,1.17,0,0,0-1,.59v3.49c0,.2-.13.27-.33.27h-1.11a.28.28,0,0,1-.27-.27Z"/><path class="cls-9" d="M341.36,90.25v-.61c0-1.37,2-1.88,2-2.89a1,1,0,0,0-1.15-1,2.38,2.38,0,0,0-1.56.75.24.24,0,0,1-.31,0l-.68-.67a.25.25,0,0,1,0-.37,3.72,3.72,0,0,1,2.82-1.27,2.6,2.6,0,0,1,2.8,2.42c0,1.75-2.19,2.25-2.19,3.11v.48a.28.28,0,0,1-.29.3h-1.17A.27.27,0,0,1,341.36,90.25Zm.85,2a1.19,1.19,0,1,1,0,2.37,1.19,1.19,0,0,1,0-2.37Z"/><path class="cls-9" d="M281.56,208.12a.25.25,0,0,1,.26-.34h1.33a.3.3,0,0,1,.26.2l1.5,5.75h0l2.29-5.94a.23.23,0,0,1,.25-.16h.26a.23.23,0,0,1,.24.16l2.31,5.94h.05l1.47-5.75a.3.3,0,0,1,.26-.2h1.33a.25.25,0,0,1,.26.34L291,217.8a.26.26,0,0,1-.25.2h-.24a.24.24,0,0,1-.24-.16l-2.58-6.52h-.07L285,217.84a.24.24,0,0,1-.24.16h-.24a.26.26,0,0,1-.25-.2Z"/><path class="cls-9" d="M296,214.21a3.71,3.71,0,0,1,1.05.16c0-.73-.22-1-.75-1a6.45,6.45,0,0,0-1.61.22c-.2.05-.31-.08-.33-.26l-.13-.75a.27.27,0,0,1,.2-.36,7.28,7.28,0,0,1,2-.28c1.8,0,2.22.94,2.22,2.51v3.13a.28.28,0,0,1-.28.27h-.52c-.1,0-.17,0-.24-.2l-.17-.39a2.52,2.52,0,0,1-1.76.73,1.84,1.84,0,0,1-2-2C293.65,215,294.49,214.21,296,214.21Zm0,2.57a1.34,1.34,0,0,0,1-.56v-.8a2.3,2.3,0,0,0-.81-.17c-.56,0-.93.32-.93.78A.72.72,0,0,0,296,216.78Z"/><path class="cls-9" d="M299.91,217.17l.39-.78a.22.22,0,0,1,.33-.1,3.26,3.26,0,0,0,1.31.34c.29,0,.49-.11.49-.36s-.2-.41-1-.72c-1.11-.43-1.62-1-1.62-1.9s.64-1.7,2.11-1.7a3.31,3.31,0,0,1,1.77.45.3.3,0,0,1,.13.39l-.36.73a.26.26,0,0,1-.34.1,3.45,3.45,0,0,0-1.2-.3c-.34,0-.49.15-.49.33s.26.35.8.56c1.1.44,1.94.91,1.94,2,0,.95-.84,1.75-2.29,1.75a3.31,3.31,0,0,1-1.92-.53A.25.25,0,0,1,299.91,217.17Z"/><path class="cls-9" d="M308.53,209.06a1,1,0,0,1,1-1,1,1,0,1,1,0,2A1,1,0,0,1,308.53,209.06Zm.12,3.31a.27.27,0,0,1,.28-.27h1.19a.27.27,0,0,1,.28.27v5.22a.28.28,0,0,1-.28.27h-1.19a.28.28,0,0,1-.28-.27Z"/><path class="cls-9" d="M312.43,213.61h-.49a.27.27,0,0,1-.26-.27v-1a.26.26,0,0,1,.26-.27h.49v-1.6a.28.28,0,0,1,.27-.28h1.19a.27.27,0,0,1,.25.27v1.62h1.27a.27.27,0,0,1,.28.27v1a.28.28,0,0,1-.28.27h-1.27v2.3c0,.41.22.47.45.47a2.57,2.57,0,0,0,.71-.16.22.22,0,0,1,.31.16l.29.9a.26.26,0,0,1-.16.35A5.48,5.48,0,0,1,314,218c-1.11,0-1.6-.69-1.6-1.86Z"/><path class="cls-9" d="M320.28,212.37a.27.27,0,0,1,.28-.27h.53a.25.25,0,0,1,.25.16l.2.54a2.61,2.61,0,0,1,1.93-.85,2.27,2.27,0,0,1,1.87.9,2.91,2.91,0,0,1,2-.9c1.84,0,2.52,1.37,2.52,2.88v2.76a.27.27,0,0,1-.27.27h-1.17a.27.27,0,0,1-.27-.27v-2.86c0-.75-.36-1.22-1.08-1.22a1.44,1.44,0,0,0-1.21.6s0,.29,0,.55v2.93a.28.28,0,0,1-.27.27h-1.08a.28.28,0,0,1-.28-.27v-2.86c0-.75-.33-1.22-1.06-1.22a1.27,1.27,0,0,0-1.21.91v3.17a.28.28,0,0,1-.28.27h-1.16a.28.28,0,0,1-.28-.27Z"/><path class="cls-9" d="M333.4,214.21a3.71,3.71,0,0,1,1.05.16c0-.73-.22-1-.75-1a6.45,6.45,0,0,0-1.61.22c-.21.05-.31-.08-.34-.26l-.13-.75a.29.29,0,0,1,.21-.36,7.2,7.2,0,0,1,2-.28c1.8,0,2.21.94,2.21,2.51v3.13a.28.28,0,0,1-.27.27h-.52c-.1,0-.17,0-.24-.2l-.18-.39A2.47,2.47,0,0,1,333,218a1.84,1.84,0,0,1-2-2C331.09,215,331.93,214.21,333.4,214.21Zm0,2.57a1.34,1.34,0,0,0,1-.56v-.8a2.3,2.3,0,0,0-.81-.17c-.56,0-.93.32-.93.78A.72.72,0,0,0,333.43,216.78Z"/><path class="cls-9" d="M340.08,212a3.45,3.45,0,0,1,1.28.26v-4.16a.28.28,0,0,1,.28-.27h1.22a.28.28,0,0,1,.28.27v9.54a.28.28,0,0,1-.28.27h-.56c-.13,0-.23-.12-.27-.27l-.15-.45A2.51,2.51,0,0,1,340,218a2.89,2.89,0,0,1-2.77-3A2.85,2.85,0,0,1,340.08,212Zm.13,4.5a1.25,1.25,0,0,0,1.21-.94v-1.67a1.85,1.85,0,0,0-1.12-.33,1.41,1.41,0,0,0-1.4,1.47A1.38,1.38,0,0,0,340.21,216.45Z"/><path class="cls-9" d="M347.37,212a2.65,2.65,0,0,1,2.7,2.68c0,.1,0,.29,0,.39a.29.29,0,0,1-.28.25h-3.68a1.37,1.37,0,0,0,1.38,1.25,2,2,0,0,0,1.12-.36c.15-.09.28-.12.38,0l.59.68a.23.23,0,0,1,0,.37,3.07,3.07,0,0,1-2.14.79,3,3,0,0,1,0-6.05Zm1,2.31a1.07,1.07,0,0,0-1.05-1,1.13,1.13,0,0,0-1.12,1Z"/><path class="cls-9" d="M258.2,231.51a3.71,3.71,0,0,1,1.05.16c0-.74-.22-1-.75-1a7,7,0,0,0-1.61.22c-.21.06-.31-.07-.34-.26l-.13-.75a.29.29,0,0,1,.21-.36,7.82,7.82,0,0,1,1.95-.27c1.81,0,2.22.93,2.22,2.5v3.13a.28.28,0,0,1-.27.27H260c-.1,0-.17,0-.24-.2l-.18-.39a2.47,2.47,0,0,1-1.75.74,1.84,1.84,0,0,1-1.95-2C255.89,232.3,256.73,231.51,258.2,231.51Zm0,2.56a1.34,1.34,0,0,0,1-.56v-.79a2.2,2.2,0,0,0-.81-.18c-.56,0-.93.32-.93.78A.72.72,0,0,0,258.22,234.07Z"/><path class="cls-9" d="M265.08,229.25a2.65,2.65,0,0,1,2.14,1,.27.27,0,0,1-.08.4l-.66.64c-.13.11-.26,0-.36-.05a1.35,1.35,0,0,0-1-.46,1.44,1.44,0,0,0-1.41,1.47,1.42,1.42,0,0,0,1.39,1.47,1.46,1.46,0,0,0,1.15-.55.27.27,0,0,1,.36,0l.62.53c.15.12.21.26.11.41a2.58,2.58,0,0,1-2.28,1.21,3,3,0,0,1-3.05-3A3.07,3.07,0,0,1,265.08,229.25Z"/><path class="cls-9" d="M271.22,229.25a2.62,2.62,0,0,1,2.13,1,.27.27,0,0,1-.07.4l-.66.64c-.13.11-.26,0-.36-.05a1.35,1.35,0,0,0-1-.46,1.45,1.45,0,0,0-1.42,1.47,1.43,1.43,0,0,0,1.4,1.47,1.47,1.47,0,0,0,1.15-.55.27.27,0,0,1,.36,0l.62.53c.15.12.2.26.1.41a2.57,2.57,0,0,1-2.27,1.21,3,3,0,0,1-3.06-3A3.08,3.08,0,0,1,271.22,229.25Z"/><path class="cls-9" d="M277.25,229.25a2.64,2.64,0,0,1,2.69,2.68,2.43,2.43,0,0,1,0,.38.27.27,0,0,1-.27.25H276a1.37,1.37,0,0,0,1.38,1.25,2,2,0,0,0,1.13-.36c.14-.08.27-.11.37,0l.59.68a.24.24,0,0,1,0,.37,3.1,3.1,0,0,1-2.15.8,3,3,0,0,1,0-6.05Zm1,2.3a1.07,1.07,0,0,0-1.05-1,1.13,1.13,0,0,0-1.12,1Z"/><path class="cls-9" d="M280.84,234.46l.38-.78a.23.23,0,0,1,.34-.1,3.13,3.13,0,0,0,1.31.35c.28,0,.49-.12.49-.36s-.21-.42-1-.72c-1.11-.43-1.63-1-1.63-1.9s.65-1.7,2.12-1.7a3.32,3.32,0,0,1,1.77.44.31.31,0,0,1,.13.39l-.36.74a.27.27,0,0,1-.34.1,3.37,3.37,0,0,0-1.2-.31c-.35,0-.49.15-.49.34s.26.34.79.56c1.11.43,1.95.91,1.95,2,0,1-.84,1.76-2.29,1.76a3.27,3.27,0,0,1-1.92-.54A.24.24,0,0,1,280.84,234.46Z"/><path class="cls-9" d="M286.08,234.46l.39-.78a.22.22,0,0,1,.33-.1,3.19,3.19,0,0,0,1.31.35c.29,0,.49-.12.49-.36s-.2-.42-1-.72c-1.11-.43-1.63-1-1.63-1.9s.65-1.7,2.12-1.7a3.32,3.32,0,0,1,1.77.44.31.31,0,0,1,.13.39l-.36.74a.28.28,0,0,1-.35.1,3.36,3.36,0,0,0-1.19-.31c-.35,0-.49.15-.49.34s.26.34.79.56c1.11.43,1.94.91,1.94,2,0,1-.83,1.76-2.29,1.76a3.23,3.23,0,0,1-1.91-.54A.24.24,0,0,1,286.08,234.46Z"/><path class="cls-9" d="M291.51,226.35a1,1,0,0,1,1-1,1,1,0,1,1-1,1Zm.13,3.31a.28.28,0,0,1,.28-.27h1.19a.28.28,0,0,1,.28.27v5.22a.28.28,0,0,1-.28.27h-1.19a.28.28,0,0,1-.28-.27Z"/><path class="cls-9" d="M295.12,225.34a.28.28,0,0,1,.27-.27h1.22a.28.28,0,0,1,.28.27v4.17a3.26,3.26,0,0,1,1.28-.26,2.85,2.85,0,0,1,2.85,3,2.88,2.88,0,0,1-2.76,3,2.53,2.53,0,0,1-1.89-.87l-.14.45c-.05.16-.15.27-.28.27h-.56a.28.28,0,0,1-.27-.27Zm2.92,8.4a1.37,1.37,0,0,0,1.31-1.47,1.41,1.41,0,0,0-1.4-1.47,1.85,1.85,0,0,0-1.12.33v1.67A1.26,1.26,0,0,0,298,233.74Z"/><path class="cls-9" d="M302.32,225.34a.28.28,0,0,1,.28-.27h1.21a.28.28,0,0,1,.27.27v9.54a.28.28,0,0,1-.27.27H302.6a.28.28,0,0,1-.28-.27Z"/><path class="cls-9" d="M308.32,229.25a2.64,2.64,0,0,1,2.69,2.68c0,.1,0,.28,0,.38a.27.27,0,0,1-.27.25H307a1.37,1.37,0,0,0,1.38,1.25,2,2,0,0,0,1.13-.36c.14-.08.27-.11.37,0l.59.68a.24.24,0,0,1,0,.37,3.1,3.1,0,0,1-2.15.8,3,3,0,0,1,0-6.05Zm1,2.3a1.07,1.07,0,0,0-1.05-1,1.13,1.13,0,0,0-1.12,1Z"/><path class="cls-9" d="M317.91,229.25a3,3,0,1,1-3,3A3,3,0,0,1,317.91,229.25Zm0,4.49a1.47,1.47,0,0,0,0-2.94,1.47,1.47,0,0,0,0,2.94Z"/><path class="cls-9" d="M322.15,229.66a.28.28,0,0,1,.27-.27H323a.26.26,0,0,1,.25.17l.2.54a2.82,2.82,0,0,1,2-.85c1.83,0,2.56,1.36,2.56,2.86v2.77a.28.28,0,0,1-.27.27h-1.18a.28.28,0,0,1-.28-.27V232c0-.75-.38-1.23-1.08-1.23a1.44,1.44,0,0,0-1.35.91v3.17c0,.2-.09.27-.36.27h-1.07a.28.28,0,0,1-.27-.27Z"/><path class="cls-9" d="M334.7,231.51a3.62,3.62,0,0,1,1.05.16c0-.74-.21-1-.75-1a7,7,0,0,0-1.61.22c-.2.06-.3-.07-.33-.26l-.13-.75a.28.28,0,0,1,.2-.36,8,8,0,0,1,2-.27c1.8,0,2.22.93,2.22,2.5v3.13a.28.28,0,0,1-.28.27h-.52c-.1,0-.17,0-.24-.2l-.17-.39a2.5,2.5,0,0,1-1.76.74,1.84,1.84,0,0,1-1.94-2C332.4,232.3,333.23,231.51,334.7,231.51Zm0,2.56a1.32,1.32,0,0,0,1-.56v-.79a2.18,2.18,0,0,0-.8-.18c-.57,0-.94.32-.94.78A.72.72,0,0,0,334.73,234.07Z"/><path class="cls-9" d="M339,229.66a.28.28,0,0,1,.27-.27h.55a.24.24,0,0,1,.24.17l.2.54a2.86,2.86,0,0,1,2-.85c1.84,0,2.57,1.36,2.57,2.86v2.77a.28.28,0,0,1-.27.27h-1.19a.28.28,0,0,1-.27-.27V232c0-.75-.39-1.23-1.08-1.23a1.44,1.44,0,0,0-1.35.91v3.17c0,.2-.09.27-.36.27h-1.07a.28.28,0,0,1-.27-.27Z"/><path class="cls-9" d="M349,229.25a3,3,0,1,1-2.95,3A3,3,0,0,1,349,229.25Zm0,4.49a1.47,1.47,0,0,0,0-2.94,1.47,1.47,0,0,0,0,2.94Z"/><path class="cls-9" d="M353.49,230.9H353a.27.27,0,0,1-.26-.27v-1a.27.27,0,0,1,.26-.27h.49v-1.6a.28.28,0,0,1,.28-.27l1.18,0a.28.28,0,0,1,.26.28v1.61h1.26a.27.27,0,0,1,.28.27v1a.28.28,0,0,1-.28.27h-1.26v2.31c0,.4.21.46.44.46a2.26,2.26,0,0,0,.71-.16.22.22,0,0,1,.32.16l.28.91a.25.25,0,0,1-.16.34,5.39,5.39,0,0,1-1.71.38c-1.11,0-1.6-.7-1.6-1.86Z"/><path class="cls-9" d="M358.16,225.34a.28.28,0,0,1,.27-.27h1.23a.28.28,0,0,1,.27.27v4.38a2.71,2.71,0,0,1,1.53-.47,2.56,2.56,0,0,1,2.58,2.86v2.77a.28.28,0,0,1-.28.27H362.6a.28.28,0,0,1-.28-.27V232.1a1.14,1.14,0,0,0-1.13-1.3,1.26,1.26,0,0,0-1.26,1v3.06c0,.16-.08.27-.3.27h-1.2a.28.28,0,0,1-.27-.27Z"/><path class="cls-9" d="M368.16,229.25a2.64,2.64,0,0,1,2.69,2.68c0,.1,0,.28,0,.38a.29.29,0,0,1-.28.25h-3.69a1.38,1.38,0,0,0,1.39,1.25,2,2,0,0,0,1.12-.36c.14-.08.27-.11.38,0l.59.68a.23.23,0,0,1,0,.37,3.07,3.07,0,0,1-2.14.8,3,3,0,0,1,0-6.05Zm1,2.3a1.07,1.07,0,0,0-1.05-1,1.14,1.14,0,0,0-1.13,1Z"/><path class="cls-9" d="M372.07,229.66a.28.28,0,0,1,.27-.27h.55a.27.27,0,0,1,.26.19l.2.56a2,2,0,0,1,1.63-.89c.67,0,1.28.21,1.11.57l-.54.94a.25.25,0,0,1-.33.13,1.33,1.33,0,0,0-.42-.09,1.17,1.17,0,0,0-1,.59v3.49c0,.2-.13.27-.33.27h-1.11a.28.28,0,0,1-.27-.27Z"/><path class="cls-9" d="M288.6,242.63a.28.28,0,0,1,.28-.27h3.38a3.21,3.21,0,1,1,0,6.42h-1.81v3.39a.28.28,0,0,1-.27.27h-1.32a.28.28,0,0,1-.28-.27Zm3.55,4.4a1.49,1.49,0,0,0,1.48-1.5,1.44,1.44,0,0,0-1.48-1.4h-1.68V247Z"/><path class="cls-9" d="M296.51,242.63a.28.28,0,0,1,.28-.27H298a.28.28,0,0,1,.27.27v9.54a.28.28,0,0,1-.27.27h-1.21a.28.28,0,0,1-.28-.27Z"/><path class="cls-9" d="M301.89,248.8a3.71,3.71,0,0,1,1.05.16c0-.74-.22-1-.75-1a7,7,0,0,0-1.61.22c-.2.06-.31-.07-.33-.26l-.13-.75a.28.28,0,0,1,.2-.36,7.84,7.84,0,0,1,2-.27c1.8,0,2.21.93,2.21,2.5v3.13a.28.28,0,0,1-.27.27h-.52c-.1,0-.17,0-.24-.2l-.18-.39a2.43,2.43,0,0,1-1.75.74,1.85,1.85,0,0,1-1.95-2C299.58,249.59,300.42,248.8,301.89,248.8Zm0,2.56a1.34,1.34,0,0,0,1-.56V250a2.3,2.3,0,0,0-.81-.17c-.56,0-.93.31-.93.77A.71.71,0,0,0,301.92,251.36Z"/><path class="cls-9" d="M306.46,248.19H306a.27.27,0,0,1-.26-.27v-1a.26.26,0,0,1,.26-.28h.49v-1.6a.28.28,0,0,1,.27-.27h1.18a.27.27,0,0,1,.26.27v1.61h1.27a.27.27,0,0,1,.27.28v1a.27.27,0,0,1-.27.27h-1.27v2.31c0,.4.22.46.45.46a2.26,2.26,0,0,0,.7-.16.23.23,0,0,1,.32.16l.29.91a.26.26,0,0,1-.16.34,5.19,5.19,0,0,1-1.71.38c-1.11,0-1.6-.69-1.6-1.86Z"/><path class="cls-9" d="M311.47,248.19H311a.27.27,0,0,1-.27-.27v-1a.27.27,0,0,1,.27-.28h.49v-1.55a2.62,2.62,0,0,1,2.69-2.91,2.85,2.85,0,0,1,1.71.56.29.29,0,0,1,.05.33l-.49.92a.23.23,0,0,1-.34.07,1.9,1.9,0,0,0-.85-.28c-.62,0-1,.47-1,1.31v1.55h1.44a.27.27,0,0,1,.28.28v1a.28.28,0,0,1-.28.27h-1.44v4a.28.28,0,0,1-.27.27h-1.26a.28.28,0,0,1-.27-.27Z"/><path class="cls-9" d="M318.59,246.54a3,3,0,1,1-2.95,3A3,3,0,0,1,318.59,246.54Zm0,4.49a1.47,1.47,0,0,0,0-2.94,1.47,1.47,0,0,0,0,2.94Z"/><path class="cls-9" d="M322.83,247a.28.28,0,0,1,.27-.28h.55a.27.27,0,0,1,.26.19l.2.56a2,2,0,0,1,1.63-.89c.67,0,1.28.21,1.11.57l-.54.94a.25.25,0,0,1-.33.13,1.7,1.7,0,0,0-.42-.09,1.17,1.17,0,0,0-1,.59v3.49c0,.2-.13.27-.33.27H323.1a.28.28,0,0,1-.27-.27Z"/><path class="cls-9" d="M327.74,247a.28.28,0,0,1,.27-.28h.54a.24.24,0,0,1,.24.16l.2.55a2.62,2.62,0,0,1,1.93-.85,2.26,2.26,0,0,1,1.88.89,2.91,2.91,0,0,1,2-.89c1.84,0,2.52,1.37,2.52,2.88v2.75a.28.28,0,0,1-.28.27h-1.16a.28.28,0,0,1-.28-.27v-2.85c0-.75-.36-1.23-1.08-1.23a1.46,1.46,0,0,0-1.21.61s0,.29,0,.55v2.92a.28.28,0,0,1-.28.27H332a.28.28,0,0,1-.27-.27v-2.85c0-.75-.33-1.23-1.07-1.23a1.29,1.29,0,0,0-1.21.91v3.17a.28.28,0,0,1-.27.27H328a.28.28,0,0,1-.27-.27Z"/><path class="cls-9" d="M339.9,248.25v-.6c0-1.37,2-1.89,2-2.9a1,1,0,0,0-1.15-1,2.28,2.28,0,0,0-1.55.75.24.24,0,0,1-.32,0l-.68-.66a.27.27,0,0,1,0-.38,3.73,3.73,0,0,1,2.83-1.26,2.6,2.6,0,0,1,2.79,2.42c0,1.74-2.19,2.24-2.19,3.11v.47a.28.28,0,0,1-.29.31h-1.16A.28.28,0,0,1,339.9,248.25Zm.85,2a1.22,1.22,0,0,1,1.2,1.2,1.2,1.2,0,0,1-1.2,1.18,1.18,1.18,0,0,1-1.18-1.18A1.2,1.2,0,0,1,340.75,250.21Z"/><polyline class="cls-10" points="487.17 399.38 470.56 399.38 315.78 294.44"/><line class="cls-10" x1="148.29" y1="180.87" x2="206.11" y2="220.08"/><polygon class="cls-11" points="200.1 225.04 215.02 226.12 208.5 212.66 200.1 225.04"/><line class="cls-10" x1="148.29" y1="124.72" x2="205.92" y2="85.64"/><polygon class="cls-11" points="208.31 93.06 214.83 79.6 199.91 80.68 208.31 93.06"/><path class="cls-11" d="M423.16,64.22l-2.83-4.15a.23.23,0,0,1,.2-.36h1.27a.22.22,0,0,1,.19.11l2,2.86,2-2.86a.25.25,0,0,1,.2-.11h1.28a.23.23,0,0,1,.2.36l-2.87,4.13v4a.24.24,0,0,1-.23.24H423.4a.24.24,0,0,1-.24-.24Z"/><path class="cls-11" d="M428.73,60a.24.24,0,0,1,.24-.24h5a.23.23,0,0,1,.23.24v1a.23.23,0,0,1-.23.23h-3.67v2h3.06a.25.25,0,0,1,.24.23v1a.24.24,0,0,1-.24.24h-3.06v2.17H434a.23.23,0,0,1,.23.23v1a.23.23,0,0,1-.23.24h-5a.24.24,0,0,1-.24-.24Z"/><path class="cls-11" d="M435.52,67.18l.45-.77a.28.28,0,0,1,.42-.08,4.22,4.22,0,0,0,1.87.76,1,1,0,0,0,1.13-1c0-.63-.53-1.07-1.57-1.49s-2.33-1.22-2.33-2.68a2.47,2.47,0,0,1,2.79-2.38,4.36,4.36,0,0,1,2.48.83.31.31,0,0,1,.07.41l-.47.71a.33.33,0,0,1-.43.15A4,4,0,0,0,438.2,61a1,1,0,0,0-1.09.87c0,.58.46,1,1.46,1.39,1.21.48,2.6,1.2,2.6,2.8a2.63,2.63,0,0,1-2.86,2.46,4,4,0,0,1-2.73-1C435.47,67.44,435.41,67.38,435.52,67.18Z"/><path class="cls-11" d="M423.16,222.22l-2.83-4.14a.23.23,0,0,1,.2-.36h1.27a.22.22,0,0,1,.19.11l2,2.85,2-2.85a.25.25,0,0,1,.2-.11h1.28a.23.23,0,0,1,.2.36l-2.87,4.13v4a.24.24,0,0,1-.23.23H423.4a.23.23,0,0,1-.24-.23Z"/><path class="cls-11" d="M428.73,218a.23.23,0,0,1,.24-.23h5a.23.23,0,0,1,.23.23v1a.24.24,0,0,1-.23.24h-3.67v2h3.06a.25.25,0,0,1,.24.24v1a.24.24,0,0,1-.24.23h-3.06v2.17H434a.23.23,0,0,1,.23.24v1a.23.23,0,0,1-.23.23h-5a.23.23,0,0,1-.24-.23Z"/><path class="cls-11" d="M435.52,225.19l.45-.77a.28.28,0,0,1,.42-.09,4.08,4.08,0,0,0,1.87.77,1,1,0,0,0,1.13-1c0-.63-.53-1.06-1.57-1.49s-2.33-1.21-2.33-2.67a2.47,2.47,0,0,1,2.79-2.39,4.44,4.44,0,0,1,2.48.83.31.31,0,0,1,.07.41l-.47.71a.32.32,0,0,1-.43.15,4.16,4.16,0,0,0-1.73-.68,1,1,0,0,0-1.09.87c0,.58.46,1,1.46,1.39,1.21.48,2.6,1.2,2.6,2.8a2.62,2.62,0,0,1-2.86,2.45,4,4,0,0,1-2.73-1C435.47,225.45,435.41,225.38,435.52,225.19Z"/><path class="cls-11" d="M395.53,325.83a.24.24,0,0,1,.24-.23h.31l5.16,5.49h0V326a.23.23,0,0,1,.24-.23h1.14a.25.25,0,0,1,.24.23v8.35a.24.24,0,0,1-.24.23h-.3l-5.18-5.7h0v5.34a.23.23,0,0,1-.23.23h-1.13a.25.25,0,0,1-.24-.23Z"/><path class="cls-11" d="M409,325.6a4.47,4.47,0,1,1-4.45,4.48A4.46,4.46,0,0,1,409,325.6Zm0,7.32a2.85,2.85,0,1,0-2.84-2.84A2.86,2.86,0,0,0,409,332.92Z"/><path class="cls-11" d="M327.37,149a.23.23,0,0,1,.23-.22h.31l5.16,5.48h0v-5.12a.24.24,0,0,1,.23-.24h1.14a.25.25,0,0,1,.24.24v8.35a.23.23,0,0,1-.24.22h-.29L329,152h0v5.33a.24.24,0,0,1-.24.24H327.6a.24.24,0,0,1-.23-.24Z"/><path class="cls-11" d="M340.79,148.75a4.47,4.47,0,1,1-4.45,4.48A4.46,4.46,0,0,1,340.79,148.75Zm0,7.32a2.86,2.86,0,1,0-2.84-2.84A2.86,2.86,0,0,0,340.79,156.07Z"/><line class="cls-10" x1="315.78" y1="136.43" x2="315.78" y2="152.39"/><polygon class="cls-11" points="308.3 150.2 315.78 163.16 323.26 150.2 308.3 150.2"/></g></g></svg>