<svg xmlns="http://www.w3.org/2000/svg" xmlns:xlink="http://www.w3.org/1999/xlink" viewBox="0 0 679.35 455.38"><defs><style>.cls-1{isolation:isolate;}.cls-15,.cls-2,.cls-23{fill:#bfbfbf;}.cls-14,.cls-2{stroke:#bfbfbf;stroke-miterlimit:10;stroke-width:3px;}.cls-3{fill:gold;}.cls-4{fill:#9ed68a;}.cls-5{fill:#4fa9dc;}.cls-6{mix-blend-mode:multiply;opacity:0.6;fill:url(#linear-gradient);}.cls-7{fill:#dfdfdf;}.cls-10,.cls-8{font-size:16.38px;font-family:BrandonGrotesque-Black, Brandon Grotesque;font-weight:800;}.cls-8{fill:#333;}.cls-9{letter-spacing:0em;}.cls-10,.cls-13,.cls-16{fill:#fff;}.cls-11{letter-spacing:0em;}.cls-12{letter-spacing:-0.04em;}.cls-14{fill:none;}.cls-16{font-size:14.41px;}.cls-16,.cls-23{font-family:BrandonGrotesque-Bold, Brandon Grotesque;font-weight:700;}.cls-17{letter-spacing:-0.06em;}.cls-18{letter-spacing:-0.02em;}.cls-19{letter-spacing:-0.02em;}.cls-20{letter-spacing:-0.01em;}.cls-21{letter-spacing:0em;}.cls-22{letter-spacing:-0.02em;}.cls-23{font-size:12.41px;}</style><linearGradient id="linear-gradient" x1="428.17" y1="152.79" x2="652.46" y2="152.79" gradientUnits="userSpaceOnUse"><stop offset="0" stop-color="#aeaeae"/><stop offset="0.2" stop-color="#b5b5b5"/><stop offset="0.48" stop-color="#c8c8c8"/><stop offset="0.81" stop-color="#e7e7e7"/><stop offset="1" stop-color="#fbfbfc"/></linearGradient></defs><g class="cls-1"><g id="Layer_2" data-name="Layer 2"><polygon class="cls-2" points="1.5 105.52 1.5 200.07 148.29 200.07 148.29 172.87 148.29 132.72 148.29 105.52 1.5 105.52"/><path class="cls-3" d="M577.48,101.86a101.84,101.84,0,0,1,88.24,50.93,101.87,101.87,0,1,0-176.47,0A101.84,101.84,0,0,1,577.48,101.86Z"/><path class="cls-4" d="M577.48,203.73a101.83,101.83,0,0,1-88.23-50.94,101.87,101.87,0,1,0,176.47,0A101.83,101.83,0,0,1,577.48,203.73Z"/><ellipse class="cls-5" cx="577.48" cy="152.79" rx="88.23" ry="50.93"/><ellipse class="cls-6" cx="577.48" cy="152.79" rx="88.23" ry="50.93"/><circle class="cls-7" cx="577.48" cy="399.38" r="56"/><text class="cls-8" transform="translate(533.76 59.46)">PUBLISHER<tspan x="21.34" y="19.61">O</tspan><tspan class="cls-9" x="34.26" y="19.61">P</tspan><tspan x="43.86" y="19.61">EN</tspan></text><text class="cls-10" transform="translate(555.54 159.6)">B<tspan class="cls-11" x="10.03" y="0">O</tspan><tspan x="22.88" y="0">TH</tspan></text><text class="cls-8" transform="translate(546.05 405.9)">C<tspan class="cls-11" x="11.02" y="0">L</tspan><tspan x="19.33" y="0">OSED</tspan></text><text class="cls-10" transform="translate(21.95 159.6)">PUBLIC<tspan class="cls-12" x="56.29" y="0">A</tspan><tspan x="66.54" y="0">TION</tspan></text><path class="cls-13" d="M554.91,228.49a5.9,5.9,0,1,1-5.88,5.92A5.89,5.89,0,0,1,554.91,228.49Zm0,9.18a3.28,3.28,0,1,0-3.26-3.26A3.28,3.28,0,0,0,554.91,237.67Z"/><path class="cls-13" d="M564.2,231.07h-2.34a.31.31,0,0,1-.31-.32V229a.31.31,0,0,1,.31-.31h7.27a.31.31,0,0,1,.31.31v1.78a.31.31,0,0,1-.31.32h-2.34v8.75a.33.33,0,0,1-.31.31h-2a.33.33,0,0,1-.31-.31Z"/><path class="cls-13" d="M571.08,229a.32.32,0,0,1,.31-.31h2a.31.31,0,0,1,.31.31v4.13h4.69V229a.31.31,0,0,1,.31-.31h2a.32.32,0,0,1,.31.31v10.85a.33.33,0,0,1-.31.31h-2a.31.31,0,0,1-.31-.31v-4.31h-4.69v4.31a.31.31,0,0,1-.31.31h-2a.33.33,0,0,1-.31-.31Z"/><path class="cls-13" d="M583.73,229a.31.31,0,0,1,.31-.31h6.78a.31.31,0,0,1,.31.31v1.78a.31.31,0,0,1-.31.32h-4.54v2H590a.33.33,0,0,1,.31.31v1.79a.31.31,0,0,1-.31.31h-3.74v2.21h4.54a.31.31,0,0,1,.31.31v1.79a.31.31,0,0,1-.31.31H584a.31.31,0,0,1-.31-.31Z"/><path class="cls-13" d="M593.33,229a.31.31,0,0,1,.31-.31h4.9a3.5,3.5,0,0,1,1.14,6.83l2.25,4.16a.31.31,0,0,1-.28.48h-2.18a.29.29,0,0,1-.26-.15L597,235.64H595.9v4.18a.33.33,0,0,1-.31.31h-2a.31.31,0,0,1-.31-.31Zm5,4.59a1.32,1.32,0,0,0,1.25-1.31,1.26,1.26,0,0,0-1.25-1.25H595.9v2.56Z"/><path class="cls-13" d="M534.77,248.58a.31.31,0,0,1,.31-.31H539a3.66,3.66,0,1,1,0,7.31h-1.72v3.85a.32.32,0,0,1-.31.31h-1.94a.31.31,0,0,1-.31-.31Zm4.12,4.61a1.29,1.29,0,0,0,1.29-1.3,1.25,1.25,0,0,0-1.29-1.21h-1.56v2.51Z"/><path class="cls-13" d="M544.37,248.58a.31.31,0,0,1,.31-.31h2a.32.32,0,0,1,.31.31v8.75h3.9a.32.32,0,0,1,.32.32v1.78a.31.31,0,0,1-.32.31h-6.16a.31.31,0,0,1-.31-.31Z"/><path class="cls-13" d="M551.81,259.32l5.13-11a.33.33,0,0,1,.28-.18h.16a.34.34,0,0,1,.28.18l5.13,11a.29.29,0,0,1-.28.42h-1.82c-.3,0-.43-.1-.57-.41l-.59-1.29h-4.46l-.59,1.31a.6.6,0,0,1-.59.39h-1.8A.28.28,0,0,1,551.81,259.32Zm6.73-3.51-1.24-2.7h0l-1.23,2.7Z"/><path class="cls-13" d="M565,250.68h-2.34a.31.31,0,0,1-.31-.31v-1.79a.31.31,0,0,1,.31-.31h7.27a.32.32,0,0,1,.32.31v1.79a.32.32,0,0,1-.32.31H567.6v8.75a.32.32,0,0,1-.31.31h-2a.32.32,0,0,1-.31-.31Z"/><path class="cls-13" d="M571.89,248.58a.31.31,0,0,1,.31-.31H579a.31.31,0,0,1,.31.31v1.79a.31.31,0,0,1-.31.31h-4.54V253h3.73a.33.33,0,0,1,.32.31v1.79a.33.33,0,0,1-.32.31h-3.73v4a.32.32,0,0,1-.31.31H572.2a.31.31,0,0,1-.31-.31Z"/><path class="cls-13" d="M586.16,248.11a5.9,5.9,0,1,1-5.88,5.91A5.89,5.89,0,0,1,586.16,248.11Zm0,9.18A3.28,3.28,0,1,0,582.9,254,3.29,3.29,0,0,0,586.16,257.29Z"/><path class="cls-13" d="M594,248.58a.31.31,0,0,1,.31-.31h4.9a3.56,3.56,0,0,1,3.57,3.54,3.61,3.61,0,0,1-2.42,3.3l2.24,4.16a.31.31,0,0,1-.28.47h-2.18a.3.3,0,0,1-.26-.14l-2.18-4.35h-1.13v4.18a.32.32,0,0,1-.31.31h-1.95a.31.31,0,0,1-.31-.31Zm5,4.59a1.31,1.31,0,0,0,1.24-1.31,1.25,1.25,0,0,0-1.24-1.24h-2.43v2.55Z"/><path class="cls-13" d="M606.14,248.37a.32.32,0,0,1,.3-.26h.26a.36.36,0,0,1,.28.16l3.8,7.08h0l3.8-7.08a.34.34,0,0,1,.28-.16h.26a.3.3,0,0,1,.29.26l1.85,11a.29.29,0,0,1-.31.36h-1.93a.32.32,0,0,1-.31-.26l-.74-5.06h0l-2.76,5.31a.35.35,0,0,1-.27.18h-.3a.35.35,0,0,1-.28-.18l-2.77-5.31h0l-.72,5.06a.32.32,0,0,1-.31.26H604.6a.3.3,0,0,1-.31-.36Z"/><path class="cls-13" d="M561.55,267.72a5.9,5.9,0,1,1-5.88,5.92A5.89,5.89,0,0,1,561.55,267.72Zm0,9.18a3.28,3.28,0,1,0-3.26-3.26A3.28,3.28,0,0,0,561.55,276.9Z"/><path class="cls-13" d="M569.43,268.2a.31.31,0,0,1,.31-.31h4a3.66,3.66,0,1,1,0,7.31H572v3.85a.33.33,0,0,1-.31.31h-1.93a.31.31,0,0,1-.31-.31Zm4.11,4.6a1.28,1.28,0,0,0,1.29-1.29,1.25,1.25,0,0,0-1.29-1.21H572v2.5Z"/><path class="cls-13" d="M579,268.2a.31.31,0,0,1,.32-.31h6.78a.31.31,0,0,1,.31.31V270a.31.31,0,0,1-.31.32h-4.54v2h3.74a.33.33,0,0,1,.31.31v1.79a.32.32,0,0,1-.31.31h-3.74V277h4.54a.31.31,0,0,1,.31.31v1.79a.31.31,0,0,1-.31.31h-6.78a.32.32,0,0,1-.32-.31Z"/><path class="cls-13" d="M588.61,268a.31.31,0,0,1,.31-.3h.41l6.54,6.3h0V268.2a.31.31,0,0,1,.32-.31h2a.31.31,0,0,1,.31.31v11a.3.3,0,0,1-.31.29h-.26a.49.49,0,0,1-.21-.08l-6.48-6.51h0v6.12a.31.31,0,0,1-.31.31h-1.95a.33.33,0,0,1-.32-.31Z"/><line class="cls-14" x1="404.17" y1="231.8" x2="459.35" y2="231.8"/><polygon class="cls-15" points="457.16 239.28 470.12 231.8 457.16 224.32 457.16 239.28"/><line class="cls-14" x1="470.56" y1="399.38" x2="501.73" y2="399.38"/><polygon class="cls-15" points="499.54 406.86 512.5 399.38 499.54 391.9 499.54 406.86"/><line class="cls-14" x1="404.17" y1="73.79" x2="459.35" y2="73.79"/><polygon class="cls-15" points="457.16 81.27 470.12 73.79 457.16 66.31 457.16 81.27"/><polygon class="cls-2" points="315.78 136.43 223.4 73.79 315.78 11.15 408.17 73.79 315.78 136.43"/><polygon class="cls-2" points="315.78 294.44 223.4 231.8 315.78 169.16 408.17 231.8 315.78 294.44"/><text class="cls-16" transform="translate(281.15 59.85)"><tspan class="cls-17">W</tspan><tspan x="12.06" y="0">as it made</tspan><tspan x="-5.14" y="17.29">accessible at a</tspan><tspan class="cls-18" x="4.69" y="34.58">P</tspan><tspan x="12.89" y="34.58">ublishe</tspan><tspan class="cls-19" x="53.46" y="34.58">r</tspan><tspan x="58.11" y="34.58">?</tspan></text><text class="cls-16" transform="translate(281.15 217.86)"><tspan class="cls-17">W</tspan><tspan x="12.06" y="0">as it made</tspan><tspan x="-25.7" y="17.29">accessible on another</tspan><tspan class="cls-20" x="6.15" y="34.58">P</tspan><tspan class="cls-21" x="14.5" y="34.58">latfor</tspan><tspan class="cls-22" x="45.73" y="34.58">m</tspan><tspan x="56.65" y="34.58">?</tspan></text><polyline class="cls-14" points="487.17 399.38 470.56 399.38 315.78 294.44"/><line class="cls-14" x1="148.29" y1="180.87" x2="206.11" y2="220.08"/><polygon class="cls-15" points="200.1 225.04 215.02 226.12 208.5 212.66 200.1 225.04"/><line class="cls-14" x1="148.29" y1="124.72" x2="205.92" y2="85.64"/><polygon class="cls-15" points="208.31 93.06 214.83 79.6 199.91 80.68 208.31 93.06"/><text class="cls-23" transform="translate(420.37 68.4)">YES</text><text class="cls-23" transform="translate(420.37 226.4)">YES</text><text class="cls-23" transform="translate(394.41 334.41)">NO</text><text class="cls-23" transform="translate(326.24 157.56)">NO</text><line class="cls-14" x1="315.78" y1="136.43" x2="315.78" y2="152.39"/><polygon class="cls-15" points="308.3 150.2 315.78 163.16 323.26 150.2 308.3 150.2"/></g></g></svg>