<svg xmlns="http://www.w3.org/2000/svg" xmlns:xlink="http://www.w3.org/1999/xlink" viewBox="0 0 800.83 370.96"><defs><style>.cls-1{isolation:isolate;}.cls-2{fill:#dfdfdf;}.cls-3{fill:gold;}.cls-4{fill:#9ed68a;}.cls-5{fill:#4fa9dc;}.cls-6{mix-blend-mode:multiply;opacity:0.6;fill:url(#linear-gradient);}.cls-7,.cls-8{font-size:22.38px;}.cls-7{fill:#fff;}.cls-7,.cls-8,.cls-9{font-family:BrandonGrotesque-Black, Brandon Grotesque;font-weight:800;}.cls-8{fill:#333;}.cls-27,.cls-9{font-size:12.01px;}.cls-19,.cls-27,.cls-9{fill:#101820;}.cls-10{letter-spacing:0em;}.cls-11,.cls-21,.cls-27{font-family:BrandonGrotesque-Bold, Brandon Grotesque;font-weight:700;}.cls-12{letter-spacing:0em;}.cls-13{letter-spacing:0em;}.cls-14{letter-spacing:0em;}.cls-15{letter-spacing:0em;}.cls-16{letter-spacing:0.03em;}.cls-17{letter-spacing:-0.04em;}.cls-18,.cls-20{fill:none;}.cls-18{stroke:#101820;stroke-width:2.13px;}.cls-18,.cls-20,.cls-34{stroke-miterlimit:10;}.cls-20{stroke:#eaeaea;stroke-width:1.31px;}.cls-21{font-size:20px;fill:#ff671c;}.cls-22{letter-spacing:0em;}.cls-23{letter-spacing:-0.04em;}.cls-24{letter-spacing:0em;}.cls-25{letter-spacing:0em;}.cls-26{letter-spacing:0em;}.cls-28{letter-spacing:-0.03em;}.cls-29{letter-spacing:-0.01em;}.cls-30{letter-spacing:0em;}.cls-31{letter-spacing:0em;}.cls-32{letter-spacing:0em;}.cls-33{letter-spacing:0em;}.cls-34,.cls-35{fill:#2c2f35;}.cls-34{stroke:#2c2f35;stroke-width:0.42px;}</style><linearGradient id="linear-gradient" x1="252.79" y1="182.29" x2="425.62" y2="182.29" gradientUnits="userSpaceOnUse"><stop offset="0" stop-color="#aeaeae"/><stop offset="0.2" stop-color="#b5b5b5"/><stop offset="0.48" stop-color="#c8c8c8"/><stop offset="0.81" stop-color="#e7e7e7"/><stop offset="1" stop-color="#fbfbfc"/></linearGradient></defs><g class="cls-1"><g id="Layer_3" data-name="Layer 3"><circle class="cls-2" cx="571.11" cy="195.52" r="118.54"/><path class="cls-3" d="M425.62,171.83a88.66,88.66,0,0,1-172.83,0,101.87,101.87,0,1,0,172.83,0Z"/><path class="cls-4" d="M339.2,123.91a101.78,101.78,0,0,1,86.42,47.92,88.64,88.64,0,1,0-172.83,0A101.78,101.78,0,0,1,339.2,123.91Z"/><path class="cls-5" d="M339.2,240.67a88.67,88.67,0,0,0,86.42-68.84,101.88,101.88,0,0,0-172.83,0A88.67,88.67,0,0,0,339.2,240.67Z"/><path class="cls-6" d="M339.2,240.67a88.67,88.67,0,0,0,86.42-68.84,101.88,101.88,0,0,0-172.83,0A88.67,88.67,0,0,0,339.2,240.67Z"/><text class="cls-7" transform="translate(326.3 103.4)">7%</text><text class="cls-7" transform="translate(321.75 186.49)">15%</text><text class="cls-8" transform="translate(552.05 201.91)">53%</text><text class="cls-8" transform="translate(320.18 287.57)">25%</text><text class="cls-9" transform="translate(94.74 211.14)">PUBLISHER O<tspan class="cls-10" x="76.24" y="0">P</tspan><tspan x="83.28" y="0">EN</tspan><tspan class="cls-11"><tspan x="0" y="17.41">16.5 million publications</tspan><tspan x="0" y="31.82">a</tspan><tspan class="cls-10" x="5.13" y="31.82">r</tspan><tspan x="9.19" y="31.82">e available to </tspan><tspan class="cls-10" x="72.71" y="31.82">r</tspan><tspan x="76.77" y="31.82">ead</tspan><tspan x="0" y="46.23">di</tspan><tspan class="cls-10" x="8.9" y="46.23">r</tspan><tspan class="cls-12" x="12.96" y="46.23">ectly f</tspan><tspan class="cls-13" x="42.81" y="46.23">r</tspan><tspan class="cls-14" x="46.87" y="46.23">om the</tspan><tspan x="0" y="60.64">publisher’s website.</tspan></tspan></text><text class="cls-9" transform="translate(94.74 100.98)"><tspan class="cls-15">O</tspan><tspan x="9.43" y="0">THER </tspan><tspan class="cls-10" x="42.56" y="0">P</tspan><tspan class="cls-16" x="49.6" y="0">L</tspan><tspan class="cls-17" x="56.13" y="0">A</tspan><tspan class="cls-12" x="63.65" y="0">TFORM O</tspan><tspan class="cls-10" x="116.72" y="0">P</tspan><tspan x="123.76" y="0">EN</tspan><tspan class="cls-11"><tspan x="0" y="17.41">9.5 million publications</tspan><tspan x="0" y="31.82">a</tspan><tspan class="cls-10" x="5.13" y="31.82">r</tspan><tspan x="9.19" y="31.82">e available to </tspan><tspan class="cls-10" x="72.71" y="31.82">r</tspan><tspan x="76.77" y="31.82">ead</tspan><tspan x="0" y="46.23">on other platforms.</tspan></tspan></text><path class="cls-18" d="M67.87,107.52a15.82,15.82,0,0,0-2.47.2,17.2,17.2,0,0,0-32.52,4.1c-.33,0-.64,0-1,0a13.12,13.12,0,0,0-13.11,13.11A12.77,12.77,0,0,0,31.55,138l1.14,0H67.93c8.22-.65,15.17-7.63,15.17-15.24A15.25,15.25,0,0,0,67.87,107.52Z"/><path class="cls-19" d="M39.88,219.28h-10a.88.88,0,0,1-.62-1.5l10-10a.89.89,0,0,1,1-.19.88.88,0,0,1,.54.81v10A.87.87,0,0,1,39.88,219.28ZM32,217.52h7v-7Z"/><path class="cls-19" d="M72,265.36H29.9a.88.88,0,0,1-.88-.87V218.4a.91.91,0,0,1,.26-.62l10-10a.9.9,0,0,1,.62-.26H72a.89.89,0,0,1,.88.88v56.07A.88.88,0,0,1,72,265.36Zm-41.24-1.75H71.14V209.3H40.25l-9.47,9.47Z"/><path class="cls-19" d="M64.4,226.19H45.46a.88.88,0,0,1,0-1.76H64.4a.88.88,0,1,1,0,1.76Z"/><path class="cls-19" d="M64.4,236.17H37.52a.88.88,0,1,1,0-1.75H64.4a.88.88,0,1,1,0,1.75Z"/><path class="cls-19" d="M64.4,246.16H37.52a.88.88,0,0,1,0-1.76H64.4a.88.88,0,0,1,0,1.76Z"/><path class="cls-19" d="M54.64,256.15H37.52a.88.88,0,1,1,0-1.76H54.64a.88.88,0,0,1,0,1.76Z"/><rect class="cls-20" x="0.66" y="0.66" width="799.52" height="369.65"/><text class="cls-21" transform="translate(17.99 33.73)">OUT OF <tspan class="cls-22" x="76.52" y="0">4</tspan><tspan x="88.4" y="0">2 MILLION PUBLIC</tspan><tspan class="cls-23" x="257.84" y="0">A</tspan><tspan class="cls-24" x="270.36" y="0">TION</tspan><tspan class="cls-25" x="318.09" y="0">S</tspan><tspan x="328.83" y="0">* SINCE 20</tspan><tspan class="cls-26" x="425.55" y="0">1</tspan><tspan x="432.63" y="0">0</tspan></text><text class="cls-27" transform="translate(18.82 349.62)"><tspan class="cls-28">*</tspan><tspan class="cls-29" x="3.88" y="0">J</tspan><tspan x="8.75" y="0">ournal articles and co</tspan><tspan class="cls-30" x="108.83" y="0">n</tspan><tspan class="cls-31" x="115.02" y="0">fe</tspan><tspan class="cls-32" x="124.49" y="0">r</tspan><tspan x="128.55" y="0">ence papers</tspan></text><text class="cls-9" transform="translate(711.32 166.32)">C<tspan class="cls-33" x="8.08" y="0">L</tspan><tspan x="14.17" y="0">OSED</tspan><tspan class="cls-11"><tspan x="0" y="17.41">22 million</tspan><tspan x="0" y="31.82">publications</tspan><tspan x="0" y="46.23">a</tspan><tspan class="cls-10" x="5.13" y="46.23">r</tspan><tspan x="9.19" y="46.23">e paywalled</tspan><tspan x="0" y="60.64">on the</tspan><tspan x="0" y="75.05">publisher’s</tspan><tspan x="0" y="89.46">website.</tspan></tspan></text><path class="cls-34" d="M761.48,127.59a.65.65,0,0,1-.51-.24l-5.83-7.16L748,126a.65.65,0,0,1-.82-1l7.67-6.24a.65.65,0,0,1,.91.1l6.24,7.67a.65.65,0,0,1-.1.91A.67.67,0,0,1,761.48,127.59Z"/><path class="cls-34" d="M712.09,120a.69.69,0,0,1-.51-.24l-6.24-7.67a.65.65,0,0,1,.1-.91.64.64,0,0,1,.91.09l5.83,7.17,7.16-5.83a.65.65,0,0,1,.82,1l-7.67,6.24A.62.62,0,0,1,712.09,120Z"/><path class="cls-34" d="M733.65,141.49a22.28,22.28,0,0,1-19.24-11.11.64.64,0,1,1,1.12-.64,20.92,20.92,0,0,0,39-10.46.65.65,0,0,1,1.3,0A22.24,22.24,0,0,1,733.65,141.49Z"/><path class="cls-34" d="M712.09,119.92a.65.65,0,0,1-.65-.64,22.21,22.21,0,0,1,41.69-10.69.64.64,0,1,1-1.13.62,20.93,20.93,0,0,0-39.27,10.07A.64.64,0,0,1,712.09,119.92Z"/><path class="cls-35" d="M733.55,127.88a6.66,6.66,0,0,1-5.45-2.77.77.77,0,0,1,.14-1.09.78.78,0,0,1,1.1.14,5.49,5.49,0,0,0,6.9,1.53l.06,0a2.63,2.63,0,0,0,1.48-2.78,3.32,3.32,0,0,0-2.26-2.76l-4.19-1.24a4.08,4.08,0,0,1-3.29-4.16,3.88,3.88,0,0,1,1.31-3,6.46,6.46,0,0,1,4.46-1.29,5.69,5.69,0,0,1,5.55,3.83.8.8,0,0,1-.54,1,.79.79,0,0,1-1-.54,4.07,4.07,0,0,0-4.06-2.69,5,5,0,0,0-3.41.9,2.34,2.34,0,0,0-.77,1.8c0,1.38.65,2.2,2.17,2.65l4.18,1.24a4.86,4.86,0,0,1,3.38,4.12,4.23,4.23,0,0,1-2.41,4.35A7.58,7.58,0,0,1,733.55,127.88Z"/><path class="cls-35" d="M733.8,112a.78.78,0,0,1-.78-.78v-3.31a.78.78,0,0,1,1.56,0v3.31A.78.78,0,0,1,733.8,112Z"/><path class="cls-35" d="M733.8,131.39a.78.78,0,0,1-.78-.78v-3.3a.78.78,0,1,1,1.56,0v3.3A.78.78,0,0,1,733.8,131.39Z"/></g></g></svg>