<svg xmlns="http://www.w3.org/2000/svg" xmlns:xlink="http://www.w3.org/1999/xlink" viewBox="0 0 800.83 370.96"><defs><style>.cls-1{isolation:isolate;}.cls-2{fill:#dfdfdf;}.cls-3{fill:gold;}.cls-4{fill:#9ed68a;}.cls-5{fill:#4fa9dc;}.cls-6{mix-blend-mode:multiply;opacity:0.6;fill:url(#linear-gradient);}.cls-7{fill:#fff;}.cls-8{fill:#333;}.cls-9{fill:#101820;}.cls-10,.cls-11{fill:none;}.cls-10{stroke:#101820;stroke-width:2.13px;}.cls-10,.cls-11,.cls-13{stroke-miterlimit:10;}.cls-11{stroke:#eaeaea;stroke-width:1.31px;}.cls-12{fill:#ff671c;}.cls-13,.cls-14{fill:#2c2f35;}.cls-13{stroke:#2c2f35;stroke-width:0.42px;}</style><linearGradient id="linear-gradient" x1="252.79" y1="182.29" x2="425.62" y2="182.29" gradientUnits="userSpaceOnUse"><stop offset="0" stop-color="#aeaeae"/><stop offset="0.2" stop-color="#b5b5b5"/><stop offset="0.48" stop-color="#c8c8c8"/><stop offset="0.81" stop-color="#e7e7e7"/><stop offset="1" stop-color="#fbfbfc"/></linearGradient></defs><g class="cls-1"><g id="Layer_3" data-name="Layer 3"><circle class="cls-2" cx="571.11" cy="195.52" r="118.54"/><path class="cls-3" d="M425.62,171.83a88.66,88.66,0,0,1-172.83,0,101.87,101.87,0,1,0,172.83,0Z"/><path class="cls-4" d="M339.2,123.91a101.78,101.78,0,0,1,86.42,47.92,88.64,88.64,0,1,0-172.83,0A101.78,101.78,0,0,1,339.2,123.91Z"/><path class="cls-5" d="M339.2,240.67a88.67,88.67,0,0,0,86.42-68.84,101.88,101.88,0,0,0-172.83,0A88.67,88.67,0,0,0,339.2,240.67Z"/><path class="cls-6" d="M339.2,240.67a88.67,88.67,0,0,0,86.42-68.84,101.88,101.88,0,0,0-172.83,0A88.67,88.67,0,0,0,339.2,240.67Z"/><path class="cls-7" d="M327.13,102.73l5.6-11.68h-5.2a.45.45,0,0,1-.42-.43v-2a.44.44,0,0,1,.42-.43H337a.44.44,0,0,1,.42.43v.15l-6.69,14a.92.92,0,0,1-.92.65h-2.21a.43.43,0,0,1-.45-.42Z"/><path class="cls-7" d="M337.76,90.51a3,3,0,0,1,6.05,0,3,3,0,0,1-6.05,0ZM347.1,88a.46.46,0,0,1,.38-.23h1.7a.41.41,0,0,1,.38.61l-7.72,14.84a.67.67,0,0,1-.38.22H339.8a.4.4,0,0,1-.38-.6Zm-5.56,2.55a.78.78,0,0,0-.76-.76.77.77,0,1,0,.76.76Zm6.74,7.07a3,3,0,1,1-3,3A3,3,0,0,1,348.28,97.58Zm0,3.79a.78.78,0,1,0-.76-.77A.79.79,0,0,0,348.28,101.37Z"/><path class="cls-7" d="M324.86,176h-2.15a.42.42,0,0,1-.4-.43v-1.41a.57.57,0,0,1,.13-.33l3.27-2.56h2.06a.43.43,0,0,1,.4.43v14.37a.43.43,0,0,1-.4.43h-2.49a.43.43,0,0,1-.42-.43Z"/><path class="cls-7" d="M331.24,184.09l1.41-1.39a.42.42,0,0,1,.53-.06,6.48,6.48,0,0,0,2.67,1.07,2.07,2.07,0,0,0,2.12-2.13,2.13,2.13,0,0,0-2.3-2.17h-3.45a.74.74,0,0,1-.69-.78v-6.94a.43.43,0,0,1,.42-.43h7.21a.43.43,0,0,1,.43.43v2a.42.42,0,0,1-.43.42h-4.61v2.4h1.59a4.87,4.87,0,0,1,5.1,5.1,5.31,5.31,0,0,1-5.53,5.13,5.92,5.92,0,0,1-4.43-1.86C331,184.52,331,184.36,331.24,184.09Z"/><path class="cls-7" d="M342.32,173.59a3,3,0,0,1,6,0,3,3,0,0,1-6,0Zm9.33-2.55a.46.46,0,0,1,.38-.22h1.7a.4.4,0,0,1,.38.6l-7.72,14.84a.69.69,0,0,1-.38.23h-1.66a.41.41,0,0,1-.38-.61Zm-5.55,2.55a.78.78,0,0,0-1.55,0,.78.78,0,1,0,1.55,0Zm6.74,7.08a3,3,0,1,1-3,3A3,3,0,0,1,352.84,180.67Zm0,3.78a.78.78,0,1,0-.76-.76A.78.78,0,0,0,352.84,184.45Z"/><path class="cls-8" d="M553.17,199.51l1.41-1.39a.45.45,0,0,1,.54-.06,6.48,6.48,0,0,0,2.66,1.07,2.07,2.07,0,0,0,2.13-2.12,2.14,2.14,0,0,0-2.31-2.18h-3.45a.74.74,0,0,1-.69-.78v-6.94a.42.42,0,0,1,.43-.42h7.2a.42.42,0,0,1,.43.42v2a.43.43,0,0,1-.43.43h-4.61v2.39h1.59a4.88,4.88,0,0,1,5.11,5.11,5.31,5.31,0,0,1-5.53,5.12,5.93,5.93,0,0,1-4.44-1.86C552.92,199.94,552.9,199.78,553.17,199.51Z"/><path class="cls-8" d="M564.54,199.58l1.41-1.41a.42.42,0,0,1,.56,0,5.39,5.39,0,0,0,2.46,1,2,2,0,0,0,1.95-1.79c0-1-1-1.81-2.66-1.81H567a.44.44,0,0,1-.42-.43v-1.85a.42.42,0,0,1,.42-.43h1.26c1.56,0,2.39-.76,2.39-1.72a1.73,1.73,0,0,0-1.79-1.68,2.55,2.55,0,0,0-2,.89.43.43,0,0,1-.6,0L564.94,189a.4.4,0,0,1,0-.58,6.59,6.59,0,0,1,4.28-2c2.59,0,4.83,1.59,4.83,4.1a4.05,4.05,0,0,1-2.3,3.47v.07a4.45,4.45,0,0,1,2.71,3.76c0,2.44-2.13,4.27-5.22,4.27a5.81,5.81,0,0,1-4.72-2A.43.43,0,0,1,564.54,199.58Z"/><path class="cls-8" d="M575.82,189a3,3,0,0,1,6,0,3,3,0,1,1-6,0Zm9.33-2.55a.48.48,0,0,1,.38-.22h1.71a.4.4,0,0,1,.38.6l-7.73,14.84a.66.66,0,0,1-.38.23h-1.65a.41.41,0,0,1-.38-.61ZM579.6,189a.77.77,0,0,0-1.54,0,.77.77,0,1,0,1.54,0Zm6.74,7.08a3,3,0,1,1-3,3A3,3,0,0,1,586.34,196.09Zm0,3.78a.77.77,0,1,0-.76-.76A.78.78,0,0,0,586.34,199.87Z"/><path class="cls-8" d="M320.69,286.7c1.3-1.71,4.62-6.2,5.94-8.22a3.29,3.29,0,0,0,.58-1.7,1.74,1.74,0,0,0-2-1.61,3.18,3.18,0,0,0-2.17,1.12.44.44,0,0,1-.63,0l-1.36-1.39a.42.42,0,0,1,0-.58,6.45,6.45,0,0,1,4.48-2.2c3.2,0,5.08,2,5.08,4.53a5.68,5.68,0,0,1-.87,2.91c-.72,1.27-2.55,3.67-3.61,5.14h3.94a.45.45,0,0,1,.43.43v2a.44.44,0,0,1-.43.43h-8.95a.43.43,0,0,1-.43-.43Z"/><path class="cls-8" d="M332.8,285.17l1.41-1.38a.44.44,0,0,1,.54-.07,6.48,6.48,0,0,0,2.66,1.07,2.07,2.07,0,0,0,2.13-2.12,2.13,2.13,0,0,0-2.3-2.17h-3.45a.75.75,0,0,1-.7-.79v-6.94a.42.42,0,0,1,.43-.42h7.21a.42.42,0,0,1,.42.42v2a.42.42,0,0,1-.42.43h-4.61v2.39h1.59a4.88,4.88,0,0,1,5.1,5.11,5.31,5.31,0,0,1-5.53,5.12,5.86,5.86,0,0,1-4.43-1.86C332.56,285.6,332.53,285.44,332.8,285.17Z"/><path class="cls-8" d="M343.88,274.68a3,3,0,0,1,6.05,0,3,3,0,0,1-6.05,0Zm9.34-2.56a.47.47,0,0,1,.38-.22h1.7a.4.4,0,0,1,.38.6L348,287.35a.74.74,0,0,1-.38.22h-1.66a.4.4,0,0,1-.38-.61Zm-5.56,2.56a.78.78,0,0,0-.76-.77.78.78,0,1,0,0,1.55A.78.78,0,0,0,347.66,274.68Zm6.74,7.07a3,3,0,1,1-3,3A3,3,0,0,1,354.4,281.75Zm0,3.78a.77.77,0,1,0-.76-.76A.79.79,0,0,0,354.4,285.53Z"/><path class="cls-9" d="M95.77,203a.23.23,0,0,1,.23-.23h2.89a2.68,2.68,0,1,1,0,5.36H97.65v2.82a.24.24,0,0,1-.23.23H96a.23.23,0,0,1-.23-.23Zm3,3.37a.94.94,0,0,0,.95-.94.92.92,0,0,0-.95-.89H97.65v1.83Z"/><path class="cls-9" d="M102.73,203a.23.23,0,0,1,.22-.23h1.48a.23.23,0,0,1,.23.23v4.86a1.47,1.47,0,0,0,1.48,1.52,1.49,1.49,0,0,0,1.5-1.52V203a.23.23,0,0,1,.23-.23h1.47a.24.24,0,0,1,.23.23v5a3.42,3.42,0,0,1-6.84,0Z"/><path class="cls-9" d="M111.5,203a.23.23,0,0,1,.23-.23h2.8a2.16,2.16,0,0,1,1.19,4.13,2.3,2.3,0,0,1,1.61,2,2.46,2.46,0,0,1-2.62,2.32h-3a.23.23,0,0,1-.23-.23Zm2.81,3.18a.85.85,0,0,0,.84-.86.82.82,0,0,0-.84-.82h-.93v1.68Zm.16,3.28a.86.86,0,0,0,.86-.88,1,1,0,0,0-1-.84h-1v1.72Z"/><path class="cls-9" d="M118.85,203a.23.23,0,0,1,.23-.23h1.43a.24.24,0,0,1,.23.23v6.41h2.86a.22.22,0,0,1,.22.23v1.31a.22.22,0,0,1-.22.23h-4.52a.23.23,0,0,1-.23-.23Z"/><path class="cls-9" d="M125,203a.24.24,0,0,1,.23-.23h1.44a.24.24,0,0,1,.23.23v7.95a.24.24,0,0,1-.23.23h-1.44a.24.24,0,0,1-.23-.23Z"/><path class="cls-9" d="M128.47,210l.57-1a.31.31,0,0,1,.41-.07,3.58,3.58,0,0,0,1.7.66.75.75,0,0,0,.83-.72c0-.51-.42-.89-1.24-1.22-1-.4-2.33-1.21-2.33-2.65a2.5,2.5,0,0,1,2.78-2.39,4.49,4.49,0,0,1,2.57.9.31.31,0,0,1,.07.39l-.61.92c-.09.13-.3.24-.41.16a3.8,3.8,0,0,0-1.72-.72.7.7,0,0,0-.76.61c0,.44.36.78,1.31,1.16s2.43,1.11,2.43,2.74a2.64,2.64,0,0,1-2.84,2.49,3.79,3.79,0,0,1-2.7-.93C128.41,210.21,128.38,210.16,128.47,210Z"/><path class="cls-9" d="M135.53,203a.24.24,0,0,1,.23-.23h1.43a.23.23,0,0,1,.23.23v3h3.43v-3a.23.23,0,0,1,.23-.23h1.43a.24.24,0,0,1,.23.23v7.95a.24.24,0,0,1-.23.23h-1.43a.23.23,0,0,1-.23-.23v-3.16h-3.43v3.16a.23.23,0,0,1-.23.23h-1.43a.24.24,0,0,1-.23-.23Z"/><path class="cls-9" d="M144.81,203a.22.22,0,0,1,.22-.23h5a.23.23,0,0,1,.23.23v1.31a.23.23,0,0,1-.23.23h-3.32V206h2.74a.22.22,0,0,1,.22.22v1.31a.22.22,0,0,1-.22.23h-2.74v1.62H150a.23.23,0,0,1,.23.23v1.31a.23.23,0,0,1-.23.23h-5a.22.22,0,0,1-.22-.23Z"/><path class="cls-9" d="M151.84,203a.23.23,0,0,1,.23-.23h3.59a2.57,2.57,0,0,1,.84,5l1.65,3a.23.23,0,0,1-.21.35h-1.59a.24.24,0,0,1-.2-.11l-1.59-3.18h-.83v3.06a.24.24,0,0,1-.23.23h-1.43a.23.23,0,0,1-.23-.23Zm3.66,3.36a1,1,0,0,0,.92-1,.92.92,0,0,0-.92-.91h-1.77v1.87Z"/><path class="cls-9" d="M166.24,202.61a4.33,4.33,0,1,1-4.31,4.34A4.31,4.31,0,0,1,166.24,202.61Zm0,6.73a2.41,2.41,0,1,0-2.39-2.39A2.4,2.4,0,0,0,166.24,209.34Z"/><path class="cls-9" d="M172,203a.22.22,0,0,1,.22-.23h2.9a2.68,2.68,0,1,1,0,5.36h-1.26v2.82a.24.24,0,0,1-.23.23h-1.42a.22.22,0,0,1-.22-.23Zm3,3.37a.93.93,0,0,0,.95-.94.91.91,0,0,0-.95-.89h-1.14v1.83Z"/><path class="cls-9" d="M179.05,203a.23.23,0,0,1,.23-.23h5a.23.23,0,0,1,.23.23v1.31a.23.23,0,0,1-.23.23h-3.32V206h2.74a.23.23,0,0,1,.22.22v1.31a.23.23,0,0,1-.22.23h-2.74v1.62h3.32a.23.23,0,0,1,.23.23v1.31a.23.23,0,0,1-.23.23h-5a.23.23,0,0,1-.23-.23Z"/><path class="cls-9" d="M186.08,202.83a.23.23,0,0,1,.23-.22h.3l4.79,4.61h0V203a.23.23,0,0,1,.23-.23h1.44a.24.24,0,0,1,.23.23V211a.23.23,0,0,1-.23.22h-.19a.44.44,0,0,1-.16-.06L188,206.43h0v4.48a.23.23,0,0,1-.23.23h-1.43a.24.24,0,0,1-.23-.23Z"/><path class="cls-9" d="M96.43,222.57l-1.05.23a.2.2,0,0,1-.24-.16l-.08-.59a.27.27,0,0,1,.06-.21l1.73-1.46h.84a.23.23,0,0,1,.22.23v7.71a.23.23,0,0,1-.22.23h-1a.23.23,0,0,1-.23-.23Z"/><path class="cls-9" d="M103.54,220.12a.24.24,0,0,1,.34.17l.27.7c.06.15,0,.28-.21.35-.57.18-2.27,1-2.64,2.31a3.17,3.17,0,0,1,1.37-.34,2.45,2.45,0,0,1,2.45,2.61,2.76,2.76,0,0,1-2.72,2.75c-1.88,0-2.86-1.52-2.86-3.32A5.58,5.58,0,0,1,103.54,220.12Zm.22,5.77a1.39,1.39,0,0,0-1.38-1.4,1.5,1.5,0,0,0-1.4,1c0,.82.44,1.77,1.41,1.77A1.4,1.4,0,0,0,103.76,225.89Z"/><path class="cls-9" d="M106.9,226.69a1,1,0,1,1,0,2,1,1,0,0,1,0-2Z"/><path class="cls-9" d="M109,227.26l.6-.59a.21.21,0,0,1,.29,0,2.59,2.59,0,0,0,1.55.68,1.39,1.39,0,0,0,1.39-1.42,1.31,1.31,0,0,0-1.45-1.35h-1.85a.4.4,0,0,1-.37-.42v-3.54a.23.23,0,0,1,.23-.23h3.79a.23.23,0,0,1,.23.23v.82a.22.22,0,0,1-.23.22H110.5v1.6h1a2.55,2.55,0,0,1,2.75,2.67,2.81,2.81,0,0,1-2.91,2.75,3.06,3.06,0,0,1-2.36-1C108.85,227.49,108.84,227.41,109,227.26Z"/><path class="cls-9" d="M118,224a.23.23,0,0,1,.23-.23h.44a.19.19,0,0,1,.2.14l.17.45a2.2,2.2,0,0,1,1.61-.71,1.88,1.88,0,0,1,1.56.75,2.45,2.45,0,0,1,1.7-.75c1.53,0,2.1,1.15,2.1,2.41v2.29a.23.23,0,0,1-.23.23h-1a.23.23,0,0,1-.23-.23v-2.38c0-.62-.3-1-.9-1a1.2,1.2,0,0,0-1,.51s0,.24,0,.45v2.44a.24.24,0,0,1-.23.23h-.9a.23.23,0,0,1-.23-.23v-2.38c0-.62-.27-1-.89-1a1,1,0,0,0-1,.76v2.64a.24.24,0,0,1-.23.23h-1a.23.23,0,0,1-.23-.23Z"/><path class="cls-9" d="M127.28,221.21a.82.82,0,0,1,.82-.83.83.83,0,1,1,0,1.66A.82.82,0,0,1,127.28,221.21Zm.11,2.76a.23.23,0,0,1,.23-.23h1a.23.23,0,0,1,.23.23v4.35a.24.24,0,0,1-.23.23h-1a.24.24,0,0,1-.23-.23Z"/><path class="cls-9" d="M130.29,220.37a.23.23,0,0,1,.22-.23h1a.24.24,0,0,1,.23.23v7.95a.24.24,0,0,1-.23.23h-1a.23.23,0,0,1-.22-.23Z"/><path class="cls-9" d="M133.19,220.37a.24.24,0,0,1,.23-.23h1a.24.24,0,0,1,.23.23v7.95a.24.24,0,0,1-.23.23h-1a.24.24,0,0,1-.23-.23Z"/><path class="cls-9" d="M136,221.21a.82.82,0,0,1,.82-.83.83.83,0,1,1,0,1.66A.82.82,0,0,1,136,221.21Zm.11,2.76a.23.23,0,0,1,.23-.23h1a.23.23,0,0,1,.23.23v4.35a.24.24,0,0,1-.23.23h-1a.24.24,0,0,1-.23-.23Z"/><path class="cls-9" d="M141.08,223.62a2.53,2.53,0,1,1-2.46,2.51A2.51,2.51,0,0,1,141.08,223.62Zm0,3.75a1.2,1.2,0,0,0,1.16-1.24,1.19,1.19,0,0,0-1.16-1.21,1.17,1.17,0,0,0-1.15,1.21A1.18,1.18,0,0,0,141.08,227.37Z"/><path class="cls-9" d="M144.61,224a.23.23,0,0,1,.23-.23h.46a.2.2,0,0,1,.2.15l.17.44a2.37,2.37,0,0,1,1.69-.71A2.11,2.11,0,0,1,149.5,226v2.31a.24.24,0,0,1-.23.23h-1a.23.23,0,0,1-.23-.23v-2.38c0-.62-.32-1-.9-1a1.2,1.2,0,0,0-1.13.76v2.64c0,.17-.07.23-.3.23h-.89a.24.24,0,0,1-.23-.23Z"/><path class="cls-9" d="M155,231.92c0,.15-.07.23-.29.23h-1a.24.24,0,0,1-.23-.23V224a.23.23,0,0,1,.23-.23h.47a.22.22,0,0,1,.2.15l.16.39a2.08,2.08,0,0,1,1.55-.66,2.41,2.41,0,0,1,2.31,2.53,2.45,2.45,0,0,1-2.37,2.52,2.3,2.3,0,0,1-1.07-.27Zm.87-4.55a1.18,1.18,0,0,0,1.17-1.22,1.15,1.15,0,0,0-1.12-1.23,1,1,0,0,0-1,.73v1.44A1.51,1.51,0,0,0,155.85,227.37Z"/><path class="cls-9" d="M159.42,224a.23.23,0,0,1,.23-.23h1a.23.23,0,0,1,.23.23v2.37c0,.63.33,1,.88,1a1.06,1.06,0,0,0,1-.9V224c0-.18.07-.23.26-.23h.92a.22.22,0,0,1,.22.23v4.35a.23.23,0,0,1-.22.23h-.45a.26.26,0,0,1-.23-.18l-.14-.4a2.16,2.16,0,0,1-1.61.7c-1.49,0-2-1.14-2-2.37Z"/><path class="cls-9" d="M165.55,220.37a.23.23,0,0,1,.22-.23h1a.24.24,0,0,1,.23.23v3.47a3,3,0,0,1,1.07-.22,2.38,2.38,0,0,1,2.38,2.53,2.41,2.41,0,0,1-2.31,2.52,2.09,2.09,0,0,1-1.57-.72l-.12.37c0,.13-.12.23-.23.23h-.47a.23.23,0,0,1-.22-.23Zm2.43,7a1.15,1.15,0,0,0,1.1-1.22,1.19,1.19,0,0,0-1.17-1.23,1.56,1.56,0,0,0-.94.28v1.39A1.06,1.06,0,0,0,168,227.37Z"/><path class="cls-9" d="M171.55,220.37a.24.24,0,0,1,.23-.23h1a.24.24,0,0,1,.23.23v7.95a.24.24,0,0,1-.23.23h-1a.24.24,0,0,1-.23-.23Z"/><path class="cls-9" d="M174.35,221.21a.82.82,0,0,1,.81-.83.83.83,0,1,1,0,1.66A.82.82,0,0,1,174.35,221.21Zm.11,2.76a.22.22,0,0,1,.22-.23h1a.23.23,0,0,1,.23.23v4.35a.24.24,0,0,1-.23.23h-1a.23.23,0,0,1-.22-.23Z"/><path class="cls-9" d="M179.54,223.62a2.17,2.17,0,0,1,1.77.86.22.22,0,0,1-.06.33l-.55.53c-.11.1-.22,0-.3,0a1.11,1.11,0,0,0-.83-.39,1.2,1.2,0,0,0-1.17,1.23,1.18,1.18,0,0,0,1.16,1.22,1.21,1.21,0,0,0,1-.46.23.23,0,0,1,.3,0l.52.44c.12.1.17.22.08.34a2.13,2.13,0,0,1-1.9,1,2.53,2.53,0,0,1-2.54-2.52A2.57,2.57,0,0,1,179.54,223.62Z"/><path class="cls-9" d="M184,225.51a3.18,3.18,0,0,1,.88.13c0-.61-.18-.83-.63-.83A6,6,0,0,0,183,225c-.17,0-.26-.06-.28-.21l-.11-.63a.24.24,0,0,1,.17-.3,6.79,6.79,0,0,1,1.63-.23c1.5,0,1.85.78,1.85,2.09v2.61a.24.24,0,0,1-.23.23h-.43c-.08,0-.14,0-.2-.17l-.15-.32a2.06,2.06,0,0,1-1.46.61,1.54,1.54,0,0,1-1.62-1.65C182.12,226.17,182.81,225.51,184,225.51Zm0,2.14a1.11,1.11,0,0,0,.83-.47v-.66a1.79,1.79,0,0,0-.67-.15c-.47,0-.78.27-.78.65A.6.6,0,0,0,184.06,227.65Z"/><path class="cls-9" d="M187.85,225h-.41a.23.23,0,0,1-.22-.23V224a.22.22,0,0,1,.22-.23h.41v-1.33a.23.23,0,0,1,.22-.23h1a.22.22,0,0,1,.21.23v1.34h1.06a.23.23,0,0,1,.23.23v.81a.23.23,0,0,1-.23.23h-1.06v1.92c0,.33.19.38.38.38a2,2,0,0,0,.59-.13.18.18,0,0,1,.26.13l.24.76a.22.22,0,0,1-.13.29,4.72,4.72,0,0,1-1.43.31c-.93,0-1.33-.58-1.33-1.55Z"/><path class="cls-9" d="M191.63,221.21a.82.82,0,0,1,.81-.83.83.83,0,1,1,0,1.66A.82.82,0,0,1,191.63,221.21Zm.11,2.76a.22.22,0,0,1,.22-.23h1a.23.23,0,0,1,.23.23v4.35a.24.24,0,0,1-.23.23h-1a.23.23,0,0,1-.22-.23Z"/><path class="cls-9" d="M196.72,223.62a2.53,2.53,0,1,1-2.46,2.51A2.51,2.51,0,0,1,196.72,223.62Zm0,3.75a1.19,1.19,0,0,0,1.15-1.24,1.15,1.15,0,1,0-1.15,1.24Z"/><path class="cls-9" d="M200.25,224a.23.23,0,0,1,.23-.23h.46a.21.21,0,0,1,.2.15l.17.44a2.37,2.37,0,0,1,1.69-.71,2.11,2.11,0,0,1,2.14,2.39v2.31a.24.24,0,0,1-.23.23h-1a.23.23,0,0,1-.23-.23v-2.38c0-.62-.33-1-.9-1a1.2,1.2,0,0,0-1.13.76v2.64c0,.17-.07.23-.3.23h-.89a.24.24,0,0,1-.23-.23Z"/><path class="cls-9" d="M206.22,228l.32-.65a.18.18,0,0,1,.28-.08,2.66,2.66,0,0,0,1.09.29c.24,0,.41-.1.41-.3s-.17-.35-.8-.6c-.93-.36-1.36-.86-1.36-1.59s.54-1.42,1.76-1.42a2.74,2.74,0,0,1,1.48.38.25.25,0,0,1,.11.32l-.3.61a.24.24,0,0,1-.29.09,2.87,2.87,0,0,0-1-.25c-.28,0-.4.12-.4.27s.21.29.66.47c.92.36,1.62.76,1.62,1.69s-.7,1.47-1.91,1.47a2.67,2.67,0,0,1-1.6-.45A.2.2,0,0,1,206.22,228Z"/><path class="cls-9" d="M97,239.92a3.18,3.18,0,0,1,.88.13c0-.61-.18-.83-.62-.83a6,6,0,0,0-1.35.18c-.17,0-.25-.06-.28-.21l-.1-.63a.24.24,0,0,1,.16-.3,7,7,0,0,1,1.64-.22c1.5,0,1.85.78,1.85,2.08v2.61A.24.24,0,0,1,99,243h-.43c-.09,0-.15,0-.21-.17l-.14-.32a2.08,2.08,0,0,1-1.47.61,1.54,1.54,0,0,1-1.62-1.65C95.11,240.58,95.81,239.92,97,239.92Zm0,2.14a1.15,1.15,0,0,0,.83-.47v-.66a2,2,0,0,0-.68-.14c-.46,0-.78.26-.78.64A.6.6,0,0,0,97.06,242.06Z"/><path class="cls-9" d="M100.59,238.38a.22.22,0,0,1,.23-.22h.45a.23.23,0,0,1,.22.15l.17.47A1.65,1.65,0,0,1,103,238c.57,0,1.07.18.93.48l-.45.78a.21.21,0,0,1-.27.1,1.5,1.5,0,0,0-.35-.07,1,1,0,0,0-.85.49v2.91c0,.17-.11.23-.28.23h-.92a.24.24,0,0,1-.23-.23Z"/><path class="cls-9" d="M106.74,238a2.2,2.2,0,0,1,2.24,2.23c0,.08,0,.24,0,.32a.24.24,0,0,1-.23.21h-3.07a1.13,1.13,0,0,0,1.15,1,1.61,1.61,0,0,0,.93-.3c.12-.07.23-.09.32,0l.49.57a.2.2,0,0,1,0,.31,2.61,2.61,0,0,1-1.79.66,2.52,2.52,0,0,1,0-5Zm.84,1.92a.9.9,0,0,0-.88-.82,1,1,0,0,0-.94.82Z"/><path class="cls-9" d="M114.22,239.92a3.06,3.06,0,0,1,.87.13c0-.61-.18-.83-.62-.83a6,6,0,0,0-1.34.18c-.17,0-.26-.06-.28-.21l-.11-.63a.23.23,0,0,1,.17-.3,6.9,6.9,0,0,1,1.63-.22c1.5,0,1.85.78,1.85,2.08v2.61a.24.24,0,0,1-.23.23h-.43c-.08,0-.14,0-.2-.17l-.15-.32a2.06,2.06,0,0,1-1.46.61,1.54,1.54,0,0,1-1.62-1.65C112.3,240.58,113,239.92,114.22,239.92Zm0,2.14a1.11,1.11,0,0,0,.83-.47v-.66a1.89,1.89,0,0,0-.67-.14c-.47,0-.78.26-.78.64A.6.6,0,0,0,114.24,242.06Z"/><path class="cls-9" d="M117.14,238.44c-.08-.15,0-.28.16-.28h1a.21.21,0,0,1,.21.13l1,2.23h0l1-2.23c.05-.12.15-.13.28-.13h.94a.18.18,0,0,1,.17.28l-2.2,4.52a.23.23,0,0,1-.2.12h-.06a.24.24,0,0,1-.21-.12Z"/><path class="cls-9" d="M124.37,239.92a3.06,3.06,0,0,1,.87.13c0-.61-.18-.83-.62-.83a6,6,0,0,0-1.35.18c-.17,0-.25-.06-.27-.21l-.11-.63a.23.23,0,0,1,.17-.3,6.8,6.8,0,0,1,1.63-.22c1.5,0,1.85.78,1.85,2.08v2.61a.24.24,0,0,1-.23.23h-.43c-.09,0-.15,0-.21-.17l-.14-.32a2.08,2.08,0,0,1-1.47.61,1.54,1.54,0,0,1-1.62-1.65C122.44,240.58,123.14,239.92,124.37,239.92Zm0,2.14a1.13,1.13,0,0,0,.83-.47v-.66a2,2,0,0,0-.67-.14c-.47,0-.78.26-.78.64A.6.6,0,0,0,124.39,242.06Z"/><path class="cls-9" d="M127.81,235.62a.83.83,0,0,1,.82-.83.83.83,0,1,1,0,1.66A.82.82,0,0,1,127.81,235.62Zm.11,2.76a.22.22,0,0,1,.23-.22h1a.22.22,0,0,1,.23.22v4.35a.23.23,0,0,1-.23.23h-1a.24.24,0,0,1-.23-.23Z"/><path class="cls-9" d="M130.81,234.78a.24.24,0,0,1,.23-.23h1a.24.24,0,0,1,.23.23v7.95a.24.24,0,0,1-.23.23h-1a.24.24,0,0,1-.23-.23Z"/><path class="cls-9" d="M135.29,239.92a3.18,3.18,0,0,1,.88.13c0-.61-.18-.83-.62-.83a6,6,0,0,0-1.35.18c-.17,0-.25-.06-.27-.21l-.11-.63a.24.24,0,0,1,.16-.3,7,7,0,0,1,1.64-.22c1.5,0,1.85.78,1.85,2.08v2.61a.24.24,0,0,1-.23.23h-.43c-.09,0-.15,0-.21-.17l-.14-.32a2.08,2.08,0,0,1-1.47.61,1.54,1.54,0,0,1-1.62-1.65C133.37,240.58,134.07,239.92,135.29,239.92Zm0,2.14a1.15,1.15,0,0,0,.83-.47v-.66a2,2,0,0,0-.68-.14c-.46,0-.78.26-.78.64A.61.61,0,0,0,135.32,242.06Z"/><path class="cls-9" d="M138.85,234.78a.24.24,0,0,1,.23-.23h1a.24.24,0,0,1,.23.23v3.47a2.91,2.91,0,0,1,1.06-.21,2.37,2.37,0,0,1,2.38,2.52,2.4,2.4,0,0,1-2.3,2.52,2.13,2.13,0,0,1-1.58-.72l-.12.37c0,.13-.12.23-.22.23h-.47a.24.24,0,0,1-.23-.23Zm2.44,7a1.14,1.14,0,0,0,1.09-1.22,1.18,1.18,0,0,0-1.17-1.23,1.51,1.51,0,0,0-.93.28V241A1,1,0,0,0,141.29,241.78Z"/><path class="cls-9" d="M144.85,234.78a.24.24,0,0,1,.23-.23h1a.24.24,0,0,1,.23.23v7.95a.24.24,0,0,1-.23.23h-1a.24.24,0,0,1-.23-.23Z"/><path class="cls-9" d="M149.85,238a2.2,2.2,0,0,1,2.25,2.23c0,.08,0,.24,0,.32a.24.24,0,0,1-.23.21h-3.07a1.14,1.14,0,0,0,1.15,1,1.67,1.67,0,0,0,.94-.3c.12-.07.23-.09.31,0l.49.57a.19.19,0,0,1,0,.31,2.61,2.61,0,0,1-1.79.66,2.52,2.52,0,0,1,0-5Zm.84,1.92a.9.9,0,0,0-.88-.82.94.94,0,0,0-.93.82Z"/><path class="cls-9" d="M156,239.42h-.41a.22.22,0,0,1-.21-.23v-.81a.21.21,0,0,1,.21-.22H156v-1.34a.24.24,0,0,1,.23-.23h1a.23.23,0,0,1,.22.23v1.35h1.06a.21.21,0,0,1,.22.22v.81a.22.22,0,0,1-.22.23h-1.06v1.92c0,.33.18.38.37.38a1.84,1.84,0,0,0,.59-.13.18.18,0,0,1,.26.13l.24.76a.22.22,0,0,1-.13.29,4.72,4.72,0,0,1-1.43.31c-.92,0-1.33-.58-1.33-1.55Z"/><path class="cls-9" d="M162,238a2.52,2.52,0,1,1-2.46,2.51A2.5,2.5,0,0,1,162,238Zm0,3.74a1.23,1.23,0,0,0,0-2.45,1.23,1.23,0,0,0,0,2.45Z"/><path class="cls-9" d="M168.18,238.38a.22.22,0,0,1,.22-.22h.46a.23.23,0,0,1,.22.15l.16.47a1.69,1.69,0,0,1,1.36-.74c.57,0,1.07.18.93.48l-.45.78a.21.21,0,0,1-.27.1,1.5,1.5,0,0,0-.35-.07,1,1,0,0,0-.86.49v2.91c0,.17-.1.23-.27.23h-.93a.23.23,0,0,1-.22-.23Z"/><path class="cls-9" d="M174.32,238a2.2,2.2,0,0,1,2.25,2.23,1.73,1.73,0,0,1,0,.32.23.23,0,0,1-.22.21h-3.08a1.15,1.15,0,0,0,1.15,1,1.62,1.62,0,0,0,.94-.3c.12-.07.23-.09.31,0l.5.57a.2.2,0,0,1,0,.31,2.56,2.56,0,0,1-1.78.66,2.52,2.52,0,0,1,0-5Zm.84,1.92a.89.89,0,0,0-.87-.82,1,1,0,0,0-.94.82Z"/><path class="cls-9" d="M179.15,239.92a3.18,3.18,0,0,1,.88.13c0-.61-.18-.83-.63-.83a6,6,0,0,0-1.34.18c-.17,0-.25-.06-.28-.21l-.11-.63a.24.24,0,0,1,.17-.3,7,7,0,0,1,1.63-.22c1.51,0,1.85.78,1.85,2.08v2.61a.23.23,0,0,1-.22.23h-.44c-.08,0-.14,0-.2-.17l-.14-.32a2.08,2.08,0,0,1-1.47.61,1.54,1.54,0,0,1-1.62-1.65C177.23,240.58,177.93,239.92,179.15,239.92Zm0,2.14a1.11,1.11,0,0,0,.83-.47v-.66a1.89,1.89,0,0,0-.67-.14c-.47,0-.78.26-.78.64A.6.6,0,0,0,179.17,242.06Z"/><path class="cls-9" d="M184.72,238a3,3,0,0,1,1.07.21v-3.47a.24.24,0,0,1,.23-.23h1a.24.24,0,0,1,.23.23v7.95a.24.24,0,0,1-.23.23h-.47c-.11,0-.19-.1-.23-.23l-.12-.37a2.09,2.09,0,0,1-1.57.72,2.4,2.4,0,0,1-2.3-2.52A2.36,2.36,0,0,1,184.72,238Zm.11,3.74a1,1,0,0,0,1-.78v-1.39a1.56,1.56,0,0,0-.94-.28,1.18,1.18,0,0,0-1.16,1.23A1.14,1.14,0,0,0,184.83,241.78Z"/><path class="cls-9" d="M97.48,252.45a3,3,0,0,1,1.07.21v-3.47a.23.23,0,0,1,.22-.23h1a.23.23,0,0,1,.22.23v7.95a.23.23,0,0,1-.22.23h-.47c-.11,0-.19-.1-.23-.23l-.12-.37a2.12,2.12,0,0,1-1.57.72A2.41,2.41,0,0,1,95.1,255,2.37,2.37,0,0,1,97.48,252.45Zm.11,3.74a1,1,0,0,0,1-.78V254a1.51,1.51,0,0,0-.93-.28A1.19,1.19,0,0,0,96.49,255,1.15,1.15,0,0,0,97.59,256.19Z"/><path class="cls-9" d="M101.36,250a.82.82,0,0,1,.81-.83.83.83,0,1,1,0,1.66A.82.82,0,0,1,101.36,250Zm.11,2.76a.22.22,0,0,1,.22-.22h1a.22.22,0,0,1,.23.22v4.35a.24.24,0,0,1-.23.23h-1a.23.23,0,0,1-.22-.23Z"/><path class="cls-9" d="M104.36,252.79a.22.22,0,0,1,.23-.22H105a.23.23,0,0,1,.22.15l.17.47a1.68,1.68,0,0,1,1.36-.74c.56,0,1.06.18.92.48l-.44.78a.22.22,0,0,1-.28.1,1.5,1.5,0,0,0-.35-.07,1,1,0,0,0-.85.5v2.9c0,.17-.11.23-.28.23h-.92a.24.24,0,0,1-.23-.23Z"/><path class="cls-9" d="M110.51,252.45a2.2,2.2,0,0,1,2.24,2.23c0,.08,0,.24,0,.32a.24.24,0,0,1-.23.21h-3.07a1.13,1.13,0,0,0,1.15,1,1.67,1.67,0,0,0,.94-.3c.12-.07.22-.09.31,0l.49.57a.2.2,0,0,1,0,.31,2.61,2.61,0,0,1-1.79.66,2.52,2.52,0,0,1,0-5Zm.84,1.92a.9.9,0,0,0-.88-.82,1,1,0,0,0-.94.82Z"/><path class="cls-9" d="M116,252.45a2.18,2.18,0,0,1,1.77.85.22.22,0,0,1-.06.33l-.55.53c-.11.1-.21,0-.3,0a1.11,1.11,0,0,0-.83-.39,1.21,1.21,0,0,0-1.17,1.23,1.18,1.18,0,0,0,1.16,1.22,1.24,1.24,0,0,0,1-.45.22.22,0,0,1,.3,0l.52.44c.12.1.17.22.08.34a2.13,2.13,0,0,1-1.89,1,2.53,2.53,0,0,1-2.55-2.52A2.56,2.56,0,0,1,116,252.45Z"/><path class="cls-9" d="M119.13,253.83h-.41a.22.22,0,0,1-.21-.23v-.81a.21.21,0,0,1,.21-.22h.41v-1.34a.24.24,0,0,1,.23-.23h1a.23.23,0,0,1,.22.23v1.35h1a.21.21,0,0,1,.23.22v.81a.23.23,0,0,1-.23.23h-1v1.92c0,.33.18.38.37.38a1.84,1.84,0,0,0,.59-.13.18.18,0,0,1,.26.13l.24.76a.22.22,0,0,1-.13.29,4.72,4.72,0,0,1-1.43.31c-.92,0-1.33-.58-1.33-1.55Z"/><path class="cls-9" d="M123,249.19a.24.24,0,0,1,.23-.23h1a.23.23,0,0,1,.22.23v7.95a.23.23,0,0,1-.22.23h-1a.24.24,0,0,1-.23-.23Z"/><path class="cls-9" d="M125.3,252.88a.21.21,0,0,1,.21-.31h1.08a.22.22,0,0,1,.2.13l1.21,2.71h0l1.2-2.71c.06-.12.14-.13.28-.13h1a.2.2,0,0,1,.2.31L127,260.83a.22.22,0,0,1-.2.14h-1a.22.22,0,0,1-.21-.32l1.71-3.62Z"/><path class="cls-9" d="M134.43,253.83H134a.23.23,0,0,1-.23-.23v-.81a.22.22,0,0,1,.23-.22h.41v-1.3a2.18,2.18,0,0,1,2.24-2.43,2.35,2.35,0,0,1,1.42.47.24.24,0,0,1,0,.28l-.41.77a.21.21,0,0,1-.29.06,1.42,1.42,0,0,0-.71-.24c-.51,0-.8.39-.8,1.09v1.3h1.2a.22.22,0,0,1,.23.22v.81a.23.23,0,0,1-.23.23h-1.2v3.31a.24.24,0,0,1-.23.23h-1a.24.24,0,0,1-.23-.23Z"/><path class="cls-9" d="M138.27,252.79a.22.22,0,0,1,.23-.22H139a.22.22,0,0,1,.21.15l.17.47a1.68,1.68,0,0,1,1.36-.74c.56,0,1.07.18.92.48l-.44.78a.22.22,0,0,1-.28.1,1.39,1.39,0,0,0-.35-.07,1,1,0,0,0-.85.5v2.9c0,.17-.11.23-.28.23h-.92a.24.24,0,0,1-.23-.23Z"/><path class="cls-9" d="M144.42,252.45A2.52,2.52,0,1,1,142,255,2.5,2.5,0,0,1,144.42,252.45Zm0,3.74a1.23,1.23,0,0,0,0-2.45,1.23,1.23,0,0,0,0,2.45Z"/><path class="cls-9" d="M148,252.79a.22.22,0,0,1,.23-.22h.44a.22.22,0,0,1,.21.13l.17.45a2.19,2.19,0,0,1,1.6-.7,1.9,1.9,0,0,1,1.57.74,2.4,2.4,0,0,1,1.69-.74c1.54,0,2.1,1.14,2.1,2.4v2.29a.23.23,0,0,1-.23.23h-1a.23.23,0,0,1-.23-.23v-2.38c0-.62-.3-1-.9-1a1.2,1.2,0,0,0-1,.51s0,.24,0,.45v2.44a.23.23,0,0,1-.22.23h-.9a.23.23,0,0,1-.23-.23v-2.38c0-.62-.28-1-.89-1a1.06,1.06,0,0,0-1,.76v2.64a.24.24,0,0,1-.23.23h-1a.24.24,0,0,1-.23-.23Z"/><path class="cls-9" d="M160.21,253.83h-.41a.22.22,0,0,1-.21-.23v-.81a.21.21,0,0,1,.21-.22h.41v-1.34a.24.24,0,0,1,.23-.23h1a.23.23,0,0,1,.22.23v1.35h1.06a.22.22,0,0,1,.23.22v.81a.23.23,0,0,1-.23.23h-1.06v1.92c0,.33.18.38.37.38a1.84,1.84,0,0,0,.59-.13.19.19,0,0,1,.27.13l.24.76a.23.23,0,0,1-.14.29,4.72,4.72,0,0,1-1.43.31c-.92,0-1.33-.58-1.33-1.55Z"/><path class="cls-9" d="M164.1,249.19a.24.24,0,0,1,.23-.23h1a.24.24,0,0,1,.23.23v3.65a2.22,2.22,0,0,1,1.27-.39,2.13,2.13,0,0,1,2.15,2.39v2.3a.24.24,0,0,1-.23.23h-1a.23.23,0,0,1-.23-.23v-2.32a1,1,0,0,0-.95-1.08,1,1,0,0,0-1,.85v2.55c0,.13-.07.23-.25.23h-1a.24.24,0,0,1-.23-.23Z"/><path class="cls-9" d="M172.43,252.45a2.2,2.2,0,0,1,2.25,2.23c0,.08,0,.24,0,.32a.24.24,0,0,1-.23.21h-3.08a1.15,1.15,0,0,0,1.16,1,1.61,1.61,0,0,0,.93-.3c.12-.07.23-.09.32,0l.49.57a.2.2,0,0,1,0,.31,2.61,2.61,0,0,1-1.79.66,2.52,2.52,0,0,1,0-5Zm.85,1.92a.9.9,0,0,0-.88-.82,1,1,0,0,0-.94.82Z"/><path class="cls-9" d="M96.94,275.15c0,.15-.07.23-.29.23h-1a.24.24,0,0,1-.23-.23V267.2a.22.22,0,0,1,.23-.22h.47a.21.21,0,0,1,.2.14l.16.4a2.08,2.08,0,0,1,1.55-.66,2.4,2.4,0,0,1,2.31,2.52A2.44,2.44,0,0,1,98,271.9a2.3,2.3,0,0,1-1.07-.27Zm.87-4.55A1.18,1.18,0,0,0,99,269.38a1.16,1.16,0,0,0-1.12-1.23,1,1,0,0,0-1,.73v1.45A1.54,1.54,0,0,0,97.81,270.6Z"/><path class="cls-9" d="M101.38,267.2a.22.22,0,0,1,.23-.22h1a.22.22,0,0,1,.23.22v2.37c0,.64.33,1,.88,1a1.06,1.06,0,0,0,1-.9v-2.5c0-.18.07-.22.26-.22h.92a.22.22,0,0,1,.22.22v4.35a.23.23,0,0,1-.22.23h-.45a.25.25,0,0,1-.23-.18l-.14-.4a2.13,2.13,0,0,1-1.61.7c-1.49,0-2-1.14-2-2.37Z"/><path class="cls-9" d="M107.51,263.6a.23.23,0,0,1,.22-.23h1a.24.24,0,0,1,.23.23v3.47a3,3,0,0,1,1.07-.21,2.37,2.37,0,0,1,2.38,2.52,2.41,2.41,0,0,1-2.31,2.52,2.09,2.09,0,0,1-1.57-.72l-.12.37c0,.13-.12.23-.23.23h-.47a.23.23,0,0,1-.22-.23Zm2.43,7a1.15,1.15,0,0,0,1.1-1.22,1.19,1.19,0,0,0-1.17-1.23,1.56,1.56,0,0,0-.94.28v1.39A1.06,1.06,0,0,0,109.94,270.6Z"/><path class="cls-9" d="M113.51,263.6a.24.24,0,0,1,.23-.23h1a.23.23,0,0,1,.22.23v7.95a.23.23,0,0,1-.22.23h-1a.24.24,0,0,1-.23-.23Z"/><path class="cls-9" d="M116.31,264.44a.82.82,0,0,1,.81-.83.83.83,0,1,1,0,1.66A.82.82,0,0,1,116.31,264.44Zm.11,2.76a.22.22,0,0,1,.22-.22h1a.22.22,0,0,1,.23.22v4.35a.24.24,0,0,1-.23.23h-1a.23.23,0,0,1-.22-.23Z"/><path class="cls-9" d="M119.05,271.2l.32-.65a.18.18,0,0,1,.28-.08,2.66,2.66,0,0,0,1.09.29c.24,0,.41-.1.41-.3s-.17-.35-.81-.6c-.92-.36-1.35-.85-1.35-1.59s.54-1.41,1.76-1.41a2.75,2.75,0,0,1,1.48.37.25.25,0,0,1,.11.32l-.3.62a.24.24,0,0,1-.29.08,2.87,2.87,0,0,0-1-.25c-.29,0-.41.12-.41.27s.22.29.66.47c.93.36,1.63.76,1.63,1.69s-.7,1.47-1.91,1.47a2.73,2.73,0,0,1-1.6-.44A.21.21,0,0,1,119.05,271.2Z"/><path class="cls-9" d="M123.68,263.6a.24.24,0,0,1,.23-.23h1a.24.24,0,0,1,.23.23v3.65a2.22,2.22,0,0,1,1.27-.39,2.13,2.13,0,0,1,2.15,2.39v2.3a.24.24,0,0,1-.23.23h-1a.23.23,0,0,1-.23-.23v-2.32a1,1,0,0,0-1-1.08,1,1,0,0,0-1,.86v2.54c0,.13-.07.23-.25.23h-1a.24.24,0,0,1-.23-.23Z"/><path class="cls-9" d="M132,266.86a2.2,2.2,0,0,1,2.24,2.23c0,.08,0,.24,0,.32a.24.24,0,0,1-.23.21h-3.08a1.15,1.15,0,0,0,1.16,1,1.61,1.61,0,0,0,.93-.3c.12-.07.23-.09.32,0l.49.57a.2.2,0,0,1,0,.31,2.61,2.61,0,0,1-1.79.66,2.52,2.52,0,0,1,0-5Zm.84,1.92A.9.9,0,0,0,132,268a1,1,0,0,0-.94.82Z"/><path class="cls-9" d="M135.27,267.2a.22.22,0,0,1,.23-.22H136a.23.23,0,0,1,.22.15l.17.47a1.68,1.68,0,0,1,1.36-.74c.56,0,1.06.18.92.48l-.44.78a.22.22,0,0,1-.28.1,1.5,1.5,0,0,0-.35-.07,1,1,0,0,0-.85.5v2.9c0,.17-.11.23-.28.23h-.92a.24.24,0,0,1-.23-.23Z"/><path class="cls-9" d="M139.22,266.53a.18.18,0,0,1,0-.27,2,2,0,0,0,.82-1.47,1.31,1.31,0,0,1-.36.06.79.79,0,0,1-.8-.79.82.82,0,0,1,.85-.81c.43,0,1,.3,1,1.29a2.85,2.85,0,0,1-1.09,2.17.18.18,0,0,1-.27,0Z"/><path class="cls-9" d="M141.45,271.2l.33-.65a.18.18,0,0,1,.27-.08,2.67,2.67,0,0,0,1.1.29c.24,0,.41-.1.41-.3s-.17-.35-.81-.6c-.92-.36-1.36-.85-1.36-1.59s.54-1.41,1.77-1.41a2.78,2.78,0,0,1,1.48.37.25.25,0,0,1,.1.32l-.3.62a.22.22,0,0,1-.28.08,2.87,2.87,0,0,0-1-.25c-.29,0-.41.12-.41.27s.22.29.66.47c.93.36,1.62.76,1.62,1.69s-.69,1.47-1.91,1.47a2.71,2.71,0,0,1-1.59-.44A.22.22,0,0,1,141.45,271.2Z"/><path class="cls-9" d="M148.24,267.25c-.07-.15,0-.27.2-.27h.87a.24.24,0,0,1,.21.14l.72,2.15h0l1.22-2.31a.23.23,0,0,1,.19-.1h.1a.18.18,0,0,1,.19.1l1.21,2.31h0l.72-2.15c.05-.13.14-.14.27-.14H155c.17,0,.28.12.22.27l-1.5,4.52a.22.22,0,0,1-.22.13h-.05a.22.22,0,0,1-.19-.11l-1.51-2.8h0l-1.5,2.8a.23.23,0,0,1-.2.11h-.06a.2.2,0,0,1-.2-.13Z"/><path class="cls-9" d="M158.23,266.86a2.2,2.2,0,0,1,2.25,2.23c0,.08,0,.24,0,.32a.24.24,0,0,1-.23.21h-3.07a1.15,1.15,0,0,0,1.15,1,1.67,1.67,0,0,0,.94-.3c.12-.07.23-.09.31,0l.49.57a.19.19,0,0,1,0,.31,2.59,2.59,0,0,1-1.79.66,2.52,2.52,0,0,1,0-5Zm.84,1.92a.9.9,0,0,0-.88-.82.94.94,0,0,0-.93.82Z"/><path class="cls-9" d="M161.48,263.6a.24.24,0,0,1,.23-.23h1a.24.24,0,0,1,.23.23v3.47a3,3,0,0,1,1.07-.21,2.37,2.37,0,0,1,2.38,2.52,2.41,2.41,0,0,1-2.31,2.52,2.09,2.09,0,0,1-1.57-.72l-.12.37c0,.13-.12.23-.23.23h-.47a.24.24,0,0,1-.23-.23Zm2.44,7a1.15,1.15,0,0,0,1.1-1.22,1.19,1.19,0,0,0-1.17-1.23,1.56,1.56,0,0,0-.94.28v1.39A1.06,1.06,0,0,0,163.92,270.6Z"/><path class="cls-9" d="M167.22,271.2l.33-.65a.18.18,0,0,1,.28-.08,2.66,2.66,0,0,0,1.09.29c.24,0,.41-.1.41-.3s-.17-.35-.81-.6c-.92-.36-1.35-.85-1.35-1.59s.54-1.41,1.76-1.41a2.75,2.75,0,0,1,1.48.37.25.25,0,0,1,.11.32l-.3.62a.24.24,0,0,1-.29.08,2.87,2.87,0,0,0-1-.25c-.29,0-.41.12-.41.27s.22.29.66.47c.93.36,1.62.76,1.62,1.69s-.69,1.47-1.91,1.47a2.71,2.71,0,0,1-1.59-.44A.22.22,0,0,1,167.22,271.2Z"/><path class="cls-9" d="M171.75,264.44a.83.83,0,0,1,.82-.83.83.83,0,1,1,0,1.66A.82.82,0,0,1,171.75,264.44Zm.11,2.76a.22.22,0,0,1,.23-.22h1a.22.22,0,0,1,.22.22v4.35a.23.23,0,0,1-.22.23h-1a.24.24,0,0,1-.23-.23Z"/><path class="cls-9" d="M175,268.24h-.41a.23.23,0,0,1-.22-.23v-.81a.22.22,0,0,1,.22-.22H175v-1.34a.23.23,0,0,1,.23-.22l1,0a.23.23,0,0,1,.22.23V267h1.05a.21.21,0,0,1,.23.22V268a.23.23,0,0,1-.23.23h-1.05v1.92c0,.33.18.38.37.38a1.91,1.91,0,0,0,.59-.13.18.18,0,0,1,.26.13l.24.76a.22.22,0,0,1-.13.29,4.72,4.72,0,0,1-1.43.31c-.92,0-1.33-.58-1.33-1.55Z"/><path class="cls-9" d="M181,266.86a2.2,2.2,0,0,1,2.24,2.23c0,.08,0,.24,0,.32a.24.24,0,0,1-.23.21h-3.07a1.13,1.13,0,0,0,1.15,1,1.67,1.67,0,0,0,.94-.3c.12-.07.22-.09.31,0l.49.57a.2.2,0,0,1,0,.31,2.61,2.61,0,0,1-1.79.66,2.52,2.52,0,0,1,0-5Zm.84,1.92A.9.9,0,0,0,181,268a1,1,0,0,0-.94.82Z"/><path class="cls-9" d="M184.93,269.92a1,1,0,0,1,1,1,1,1,0,0,1-2,0A1,1,0,0,1,184.93,269.92Z"/><path class="cls-9" d="M99.47,92.46a4.32,4.32,0,1,1-4.31,4.33A4.31,4.31,0,0,1,99.47,92.46Zm0,6.72a2.4,2.4,0,1,0-2.39-2.39A2.4,2.4,0,0,0,99.47,99.18Z"/><path class="cls-9" d="M106.28,94.34h-1.72a.23.23,0,0,1-.23-.23v-1.3a.23.23,0,0,1,.23-.23h5.33a.23.23,0,0,1,.23.23v1.3a.23.23,0,0,1-.23.23h-1.71v6.42a.23.23,0,0,1-.23.22h-1.44a.23.23,0,0,1-.23-.22Z"/><path class="cls-9" d="M111.32,92.81a.24.24,0,0,1,.23-.23H113a.23.23,0,0,1,.23.23v3h3.43v-3a.23.23,0,0,1,.23-.23h1.43a.24.24,0,0,1,.23.23v8a.23.23,0,0,1-.23.22h-1.43a.22.22,0,0,1-.23-.22V97.6h-3.43v3.16a.22.22,0,0,1-.23.22h-1.43a.23.23,0,0,1-.23-.22Z"/><path class="cls-9" d="M120.59,92.81a.23.23,0,0,1,.23-.23h5a.23.23,0,0,1,.23.23v1.3a.23.23,0,0,1-.23.23h-3.32v1.49h2.74a.23.23,0,0,1,.22.23v1.31a.22.22,0,0,1-.22.23h-2.74v1.62h3.32a.23.23,0,0,1,.23.23v1.31a.22.22,0,0,1-.23.22h-5a.22.22,0,0,1-.23-.22Z"/><path class="cls-9" d="M127.63,92.81a.23.23,0,0,1,.23-.23h3.59a2.56,2.56,0,0,1,.84,5l1.64,3a.23.23,0,0,1-.2.35h-1.6a.25.25,0,0,1-.19-.1l-1.59-3.19h-.83v3.07a.23.23,0,0,1-.23.22h-1.43a.22.22,0,0,1-.23-.22Zm3.66,3.36a1,1,0,0,0,.92-1,.92.92,0,0,0-.92-.92h-1.77v1.88Z"/><path class="cls-9" d="M138.33,92.81a.23.23,0,0,1,.23-.23h2.89a2.68,2.68,0,1,1,0,5.35H140.2v2.83a.22.22,0,0,1-.22.22h-1.42a.22.22,0,0,1-.23-.22Zm3,3.37a.94.94,0,0,0,.94-1,.92.92,0,0,0-.94-.89H140.2v1.84Z"/><path class="cls-9" d="M145.37,92.81a.23.23,0,0,1,.23-.23H147a.24.24,0,0,1,.23.23v6.41h2.86a.23.23,0,0,1,.23.23v1.31a.22.22,0,0,1-.23.22H145.6a.22.22,0,0,1-.23-.22Z"/><path class="cls-9" d="M150.82,100.67l3.76-8.08a.25.25,0,0,1,.2-.13h.12a.25.25,0,0,1,.21.13l3.76,8.08a.21.21,0,0,1-.21.31h-1.33c-.22,0-.31-.07-.42-.3l-.43-1h-3.27l-.43,1a.44.44,0,0,1-.43.29H151A.21.21,0,0,1,150.82,100.67Zm4.94-2.57-.92-2h0l-.9,2Z"/><path class="cls-9" d="M160.5,94.34h-1.72a.23.23,0,0,1-.23-.23v-1.3a.23.23,0,0,1,.23-.23h5.33a.23.23,0,0,1,.23.23v1.3a.23.23,0,0,1-.23.23H162.4v6.42a.23.23,0,0,1-.23.22h-1.44a.23.23,0,0,1-.23-.22Z"/><path class="cls-9" d="M165.54,92.81a.23.23,0,0,1,.23-.23h5a.23.23,0,0,1,.23.23v1.3a.23.23,0,0,1-.23.23h-3.32v1.73h2.73a.24.24,0,0,1,.23.23v1.31a.24.24,0,0,1-.23.23h-2.73v2.92a.23.23,0,0,1-.23.22h-1.42a.22.22,0,0,1-.23-.22Z"/><path class="cls-9" d="M176,92.46a4.32,4.32,0,1,1-4.31,4.33A4.31,4.31,0,0,1,176,92.46Zm0,6.72a2.4,2.4,0,1,0-2.39-2.39A2.4,2.4,0,0,0,176,99.18Z"/><path class="cls-9" d="M181.78,92.81a.23.23,0,0,1,.23-.23h3.59a2.56,2.56,0,0,1,.84,5l1.64,3a.23.23,0,0,1-.2.35h-1.6a.22.22,0,0,1-.19-.1l-1.6-3.19h-.83v3.07a.23.23,0,0,1-.23.22H182a.22.22,0,0,1-.23-.22Zm3.66,3.36a1,1,0,0,0,.91-1,.92.92,0,0,0-.91-.92h-1.78v1.88Z"/><path class="cls-9" d="M190.65,92.65a.22.22,0,0,1,.22-.19h.19a.25.25,0,0,1,.2.12l2.79,5.18h0l2.79-5.18a.27.27,0,0,1,.2-.12h.2a.22.22,0,0,1,.21.19l1.36,8.07a.22.22,0,0,1-.23.26h-1.42a.23.23,0,0,1-.22-.19l-.54-3.71h0l-2,3.89a.27.27,0,0,1-.2.13H194a.27.27,0,0,1-.2-.13l-2-3.89h0l-.53,3.71a.23.23,0,0,1-.23.19h-1.42a.22.22,0,0,1-.23-.26Z"/><path class="cls-9" d="M206.72,92.46a4.32,4.32,0,1,1-4.31,4.33A4.31,4.31,0,0,1,206.72,92.46Zm0,6.72a2.4,2.4,0,1,0-2.39-2.39A2.4,2.4,0,0,0,206.72,99.18Z"/><path class="cls-9" d="M212.5,92.81a.22.22,0,0,1,.22-.23h2.9a2.68,2.68,0,1,1,0,5.35h-1.26v2.83a.23.23,0,0,1-.23.22h-1.42a.22.22,0,0,1-.22-.22Zm3,3.37a.94.94,0,0,0,1-1,.92.92,0,0,0-1-.89h-1.14v1.84Z"/><path class="cls-9" d="M219.53,92.81a.23.23,0,0,1,.23-.23h5a.23.23,0,0,1,.23.23v1.3a.23.23,0,0,1-.23.23h-3.32v1.49h2.73a.23.23,0,0,1,.23.23v1.31a.23.23,0,0,1-.23.23h-2.73v1.62h3.32a.23.23,0,0,1,.23.23v1.31a.22.22,0,0,1-.23.22h-5a.22.22,0,0,1-.23-.22Z"/><path class="cls-9" d="M226.56,92.67a.22.22,0,0,1,.23-.21h.3l4.79,4.61h0V92.81a.23.23,0,0,1,.23-.23h1.44a.24.24,0,0,1,.23.23v8.08a.22.22,0,0,1-.23.21h-.19a.28.28,0,0,1-.16-.06l-4.74-4.76h0v4.48a.22.22,0,0,1-.23.22H226.8a.23.23,0,0,1-.23-.22Z"/><path class="cls-9" d="M96.3,117.36c.57-.18,2.27-1,2.64-2.3a3.19,3.19,0,0,1-1.37.33,2.45,2.45,0,0,1-2.45-2.6A2.75,2.75,0,0,1,97.84,110c1.88,0,2.86,1.51,2.86,3.31a5.6,5.6,0,0,1-4,5.24.26.26,0,0,1-.34-.17l-.28-.71C96,117.57,96.07,117.43,96.3,117.36Zm3-4.19c0-.82-.44-1.77-1.41-1.77a1.41,1.41,0,0,0,0,2.81A1.51,1.51,0,0,0,99.26,113.17Z"/><path class="cls-9" d="M102.62,116.53a1,1,0,0,1,1,1,1,1,0,0,1-2,0A1,1,0,0,1,102.62,116.53Z"/><path class="cls-9" d="M104.69,117.11l.61-.59a.19.19,0,0,1,.28,0,2.6,2.6,0,0,0,1.55.67,1.4,1.4,0,0,0,1.4-1.42,1.32,1.32,0,0,0-1.46-1.34h-1.85a.4.4,0,0,1-.37-.42v-3.54a.23.23,0,0,1,.23-.23h3.79a.23.23,0,0,1,.23.23v.81a.23.23,0,0,1-.23.23h-2.66v1.6h1a2.54,2.54,0,0,1,2.75,2.66,2.81,2.81,0,0,1-2.91,2.75,3.06,3.06,0,0,1-2.36-1C104.56,117.34,104.55,117.25,104.69,117.11Z"/><path class="cls-9" d="M113.75,113.82a.23.23,0,0,1,.23-.23h.44a.22.22,0,0,1,.21.13l.17.46a2.15,2.15,0,0,1,1.6-.71,1.9,1.9,0,0,1,1.57.74,2.44,2.44,0,0,1,1.69-.74c1.54,0,2.1,1.14,2.1,2.4v2.3a.22.22,0,0,1-.23.22h-1a.22.22,0,0,1-.23-.22v-2.38c0-.63-.3-1-.9-1a1.21,1.21,0,0,0-1,.5s0,.24,0,.46v2.44a.22.22,0,0,1-.22.22h-.9a.22.22,0,0,1-.23-.22v-2.38c0-.63-.28-1-.89-1a1.06,1.06,0,0,0-1,.75v2.65a.23.23,0,0,1-.23.22h-1a.23.23,0,0,1-.23-.22Z"/><path class="cls-9" d="M123,111.06a.82.82,0,0,1,.81-.83.83.83,0,1,1,0,1.65A.82.82,0,0,1,123,111.06Zm.1,2.76a.23.23,0,0,1,.23-.23h1a.23.23,0,0,1,.23.23v4.35a.23.23,0,0,1-.23.22h-1a.23.23,0,0,1-.23-.22Z"/><path class="cls-9" d="M126,110.22a.24.24,0,0,1,.23-.23h1a.23.23,0,0,1,.22.23v8a.22.22,0,0,1-.22.22h-1a.23.23,0,0,1-.23-.22Z"/><path class="cls-9" d="M128.91,110.22a.23.23,0,0,1,.22-.23h1a.24.24,0,0,1,.23.23v8a.23.23,0,0,1-.23.22h-1a.22.22,0,0,1-.22-.22Z"/><path class="cls-9" d="M131.7,111.06a.82.82,0,0,1,.82-.83.83.83,0,1,1,0,1.65A.82.82,0,0,1,131.7,111.06Zm.11,2.76a.23.23,0,0,1,.23-.23h1a.23.23,0,0,1,.23.23v4.35a.23.23,0,0,1-.23.22h-1a.23.23,0,0,1-.23-.22Z"/><path class="cls-9" d="M136.8,113.47a2.52,2.52,0,1,1-2.47,2.51A2.51,2.51,0,0,1,136.8,113.47Zm0,3.75A1.2,1.2,0,0,0,138,116a1.16,1.16,0,1,0-2.31,0A1.2,1.2,0,0,0,136.8,117.22Z"/><path class="cls-9" d="M140.33,113.82a.22.22,0,0,1,.22-.23H141a.22.22,0,0,1,.21.14l.16.45a2.38,2.38,0,0,1,1.7-.71,2.11,2.11,0,0,1,2.13,2.39v2.31a.22.22,0,0,1-.22.22h-1a.22.22,0,0,1-.23-.22v-2.38c0-.63-.32-1-.9-1a1.21,1.21,0,0,0-1.13.75v2.65c0,.16-.07.22-.3.22h-.89a.22.22,0,0,1-.22-.22Z"/><path class="cls-9" d="M150.69,121.77c0,.14-.07.23-.29.23h-1a.24.24,0,0,1-.23-.23v-8a.23.23,0,0,1,.23-.23h.47a.21.21,0,0,1,.2.14l.16.4a2.08,2.08,0,0,1,1.55-.66,2.41,2.41,0,0,1,2.32,2.52,2.44,2.44,0,0,1-2.38,2.52,2.36,2.36,0,0,1-1.07-.26Zm.88-4.55a1.18,1.18,0,0,0,1.16-1.23,1.14,1.14,0,0,0-1.12-1.22,1,1,0,0,0-1,.73v1.44A1.56,1.56,0,0,0,151.57,117.22Z"/><path class="cls-9" d="M155.13,113.82a.23.23,0,0,1,.23-.23h1a.22.22,0,0,1,.22.23v2.36c0,.64.33,1,.88,1a1.05,1.05,0,0,0,1-.9v-2.5c0-.18.07-.23.27-.23h.91a.23.23,0,0,1,.23.23v4.35a.23.23,0,0,1-.23.22h-.45a.23.23,0,0,1-.22-.18l-.15-.39a2.15,2.15,0,0,1-1.61.69c-1.49,0-2-1.14-2-2.36Z"/><path class="cls-9" d="M161.26,110.22a.24.24,0,0,1,.23-.23h1a.23.23,0,0,1,.22.23v3.47a2.78,2.78,0,0,1,1.07-.22,2.38,2.38,0,0,1,2.38,2.52,2.41,2.41,0,0,1-2.3,2.52,2.13,2.13,0,0,1-1.58-.72l-.12.38a.25.25,0,0,1-.23.22h-.46a.23.23,0,0,1-.23-.22Zm2.44,7a1.15,1.15,0,0,0,1.09-1.23,1.18,1.18,0,0,0-1.17-1.22,1.54,1.54,0,0,0-.93.27v1.4A1,1,0,0,0,163.7,117.22Z"/><path class="cls-9" d="M167.26,110.22a.24.24,0,0,1,.23-.23h1a.24.24,0,0,1,.23.23v8a.23.23,0,0,1-.23.22h-1a.23.23,0,0,1-.23-.22Z"/><path class="cls-9" d="M170.06,111.06a.82.82,0,0,1,.82-.83.83.83,0,1,1,0,1.65A.82.82,0,0,1,170.06,111.06Zm.11,2.76a.23.23,0,0,1,.23-.23h1a.23.23,0,0,1,.23.23v4.35a.23.23,0,0,1-.23.22h-1a.23.23,0,0,1-.23-.22Z"/><path class="cls-9" d="M175.25,113.47a2.22,2.22,0,0,1,1.78.85.24.24,0,0,1-.06.34l-.56.53c-.1.09-.21,0-.3,0a1.14,1.14,0,0,0-.82-.38,1.2,1.2,0,0,0-1.18,1.22,1.18,1.18,0,0,0,1.16,1.23,1.24,1.24,0,0,0,1-.46.23.23,0,0,1,.3,0l.52.45a.23.23,0,0,1,.08.34,2.13,2.13,0,0,1-1.89,1,2.53,2.53,0,0,1-2.55-2.52A2.56,2.56,0,0,1,175.25,113.47Z"/><path class="cls-9" d="M179.75,115.36a3.18,3.18,0,0,1,.88.13c0-.61-.18-.83-.63-.83a6,6,0,0,0-1.34.18c-.17,0-.25-.06-.28-.22l-.11-.62a.24.24,0,0,1,.17-.3,6.31,6.31,0,0,1,1.64-.23c1.5,0,1.85.78,1.85,2.09v2.61a.23.23,0,0,1-.23.22h-.43c-.09,0-.15,0-.21-.16l-.14-.33a2.08,2.08,0,0,1-1.47.61,1.53,1.53,0,0,1-1.62-1.64C177.83,116,178.53,115.36,179.75,115.36Zm0,2.13a1.08,1.08,0,0,0,.82-.47v-.66a1.89,1.89,0,0,0-.67-.14c-.47,0-.78.26-.78.65A.6.6,0,0,0,179.78,117.49Z"/><path class="cls-9" d="M183.56,114.85h-.41a.23.23,0,0,1-.22-.23v-.8a.22.22,0,0,1,.22-.23h.41v-1.33a.24.24,0,0,1,.23-.23h1a.23.23,0,0,1,.22.23v1.34h1a.22.22,0,0,1,.23.23v.8a.23.23,0,0,1-.23.23h-1v1.92c0,.34.18.39.37.39A1.89,1.89,0,0,0,186,117a.19.19,0,0,1,.26.14l.24.75a.22.22,0,0,1-.13.29,4.43,4.43,0,0,1-1.43.31c-.92,0-1.33-.57-1.33-1.55Z"/><path class="cls-9" d="M187.34,111.06a.82.82,0,0,1,.82-.83.83.83,0,1,1,0,1.65A.82.82,0,0,1,187.34,111.06Zm.11,2.76a.23.23,0,0,1,.23-.23h1a.23.23,0,0,1,.23.23v4.35a.23.23,0,0,1-.23.22h-1a.23.23,0,0,1-.23-.22Z"/><path class="cls-9" d="M192.43,113.47A2.52,2.52,0,1,1,190,116,2.5,2.5,0,0,1,192.43,113.47Zm0,3.75a1.21,1.21,0,0,0,1.16-1.24,1.19,1.19,0,0,0-1.16-1.21,1.17,1.17,0,0,0-1.15,1.21A1.19,1.19,0,0,0,192.43,117.22Z"/><path class="cls-9" d="M196,113.82a.23.23,0,0,1,.23-.23h.46a.2.2,0,0,1,.2.14l.17.45a2.37,2.37,0,0,1,1.69-.71,2.11,2.11,0,0,1,2.14,2.39v2.31a.23.23,0,0,1-.23.22h-1a.22.22,0,0,1-.23-.22v-2.38c0-.63-.32-1-.9-1a1.21,1.21,0,0,0-1.13.75v2.65c0,.16-.07.22-.3.22h-.89a.23.23,0,0,1-.23-.22Z"/><path class="cls-9" d="M201.93,117.82l.33-.65a.18.18,0,0,1,.27-.09,2.67,2.67,0,0,0,1.1.29c.24,0,.4-.09.4-.3s-.16-.35-.8-.6c-.93-.36-1.36-.85-1.36-1.58s.54-1.42,1.77-1.42a2.71,2.71,0,0,1,1.47.37.26.26,0,0,1,.11.33l-.3.61a.22.22,0,0,1-.29.08,2.86,2.86,0,0,0-1-.25c-.29,0-.41.12-.41.28s.22.29.66.47c.92.36,1.62.75,1.62,1.69s-.7,1.46-1.91,1.46a2.78,2.78,0,0,1-1.6-.44A.2.2,0,0,1,201.93,117.82Z"/><path class="cls-9" d="M97,129.77a3.18,3.18,0,0,1,.88.13c0-.61-.18-.83-.62-.83a6,6,0,0,0-1.35.18c-.17.05-.25-.06-.28-.22l-.1-.62a.24.24,0,0,1,.16-.3,6.31,6.31,0,0,1,1.64-.23c1.5,0,1.85.78,1.85,2.09v2.61a.23.23,0,0,1-.23.22h-.43c-.09,0-.15,0-.21-.16l-.14-.33a2.08,2.08,0,0,1-1.47.61,1.53,1.53,0,0,1-1.62-1.64C95.11,130.43,95.81,129.77,97,129.77Zm0,2.13a1.15,1.15,0,0,0,.83-.46v-.66a1.87,1.87,0,0,0-.68-.15.69.69,0,0,0-.78.65A.6.6,0,0,0,97.06,131.9Z"/><path class="cls-9" d="M100.59,128.23a.23.23,0,0,1,.23-.23h.45a.22.22,0,0,1,.22.16l.17.47a1.63,1.63,0,0,1,1.35-.75c.57,0,1.07.18.93.48l-.45.78a.21.21,0,0,1-.27.11,1.5,1.5,0,0,0-.35-.07,1,1,0,0,0-.85.49v2.91c0,.16-.11.22-.28.22h-.92a.23.23,0,0,1-.23-.22Z"/><path class="cls-9" d="M106.74,127.88a2.2,2.2,0,0,1,2.24,2.23c0,.09,0,.24,0,.33a.23.23,0,0,1-.23.2h-3.07a1.14,1.14,0,0,0,1.15,1.05,1.68,1.68,0,0,0,.93-.3c.12-.07.23-.1.32,0l.49.56a.2.2,0,0,1,0,.31,2.56,2.56,0,0,1-1.79.66,2.52,2.52,0,0,1,0-5Zm.84,1.92a.9.9,0,0,0-.88-.81,1,1,0,0,0-.94.81Z"/><path class="cls-9" d="M114.22,129.77a3.06,3.06,0,0,1,.87.13c0-.61-.18-.83-.62-.83a6,6,0,0,0-1.34.18c-.17.05-.26-.06-.28-.22l-.11-.62a.23.23,0,0,1,.17-.3,6.2,6.2,0,0,1,1.63-.23c1.5,0,1.85.78,1.85,2.09v2.61a.23.23,0,0,1-.23.22h-.43c-.08,0-.14,0-.2-.16l-.15-.33a2.06,2.06,0,0,1-1.46.61,1.53,1.53,0,0,1-1.62-1.64C112.3,130.43,113,129.77,114.22,129.77Zm0,2.13a1.11,1.11,0,0,0,.83-.46v-.66a1.79,1.79,0,0,0-.67-.15c-.47,0-.78.27-.78.65A.59.59,0,0,0,114.24,131.9Z"/><path class="cls-9" d="M117.14,128.29c-.08-.16,0-.29.16-.29h1a.21.21,0,0,1,.21.13l1,2.24h0l1-2.24c.05-.12.15-.13.28-.13h.94c.18,0,.25.13.17.29l-2.2,4.51a.23.23,0,0,1-.2.12h-.06a.24.24,0,0,1-.21-.12Z"/><path class="cls-9" d="M124.37,129.77a3.06,3.06,0,0,1,.87.13c0-.61-.18-.83-.62-.83a6,6,0,0,0-1.35.18c-.17.05-.25-.06-.27-.22l-.11-.62a.23.23,0,0,1,.17-.3,6.12,6.12,0,0,1,1.63-.23c1.5,0,1.85.78,1.85,2.09v2.61a.23.23,0,0,1-.23.22h-.43c-.09,0-.15,0-.21-.16l-.14-.33a2.08,2.08,0,0,1-1.47.61,1.53,1.53,0,0,1-1.62-1.64C122.44,130.43,123.14,129.77,124.37,129.77Zm0,2.13a1.13,1.13,0,0,0,.83-.46v-.66a1.86,1.86,0,0,0-.67-.15c-.47,0-.78.27-.78.65A.59.59,0,0,0,124.39,131.9Z"/><path class="cls-9" d="M127.81,125.47a.82.82,0,0,1,.82-.83.83.83,0,1,1-.82.83Zm.11,2.76a.23.23,0,0,1,.23-.23h1a.23.23,0,0,1,.23.23v4.35a.22.22,0,0,1-.23.22h-1a.23.23,0,0,1-.23-.22Z"/><path class="cls-9" d="M130.81,124.63a.24.24,0,0,1,.23-.23h1a.24.24,0,0,1,.23.23v8a.23.23,0,0,1-.23.22h-1a.23.23,0,0,1-.23-.22Z"/><path class="cls-9" d="M135.29,129.77a3.18,3.18,0,0,1,.88.13c0-.61-.18-.83-.62-.83a6,6,0,0,0-1.35.18c-.17.05-.25-.06-.27-.22l-.11-.62a.24.24,0,0,1,.16-.3,6.31,6.31,0,0,1,1.64-.23c1.5,0,1.85.78,1.85,2.09v2.61a.23.23,0,0,1-.23.22h-.43c-.09,0-.15,0-.21-.16l-.14-.33a2.08,2.08,0,0,1-1.47.61,1.53,1.53,0,0,1-1.62-1.64C133.37,130.43,134.07,129.77,135.29,129.77Zm0,2.13a1.15,1.15,0,0,0,.83-.46v-.66a1.87,1.87,0,0,0-.68-.15.69.69,0,0,0-.78.65A.6.6,0,0,0,135.32,131.9Z"/><path class="cls-9" d="M138.85,124.63a.24.24,0,0,1,.23-.23h1a.24.24,0,0,1,.23.23v3.47a2.68,2.68,0,0,1,1.06-.22,2.53,2.53,0,0,1,.08,5,2.13,2.13,0,0,1-1.58-.72l-.12.38a.25.25,0,0,1-.22.22h-.47a.23.23,0,0,1-.23-.22Zm2.44,7a1.15,1.15,0,0,0,1.09-1.23,1.18,1.18,0,0,0-1.17-1.22,1.54,1.54,0,0,0-.93.27v1.4A1,1,0,0,0,141.29,131.63Z"/><path class="cls-9" d="M144.85,124.63a.24.24,0,0,1,.23-.23h1a.24.24,0,0,1,.23.23v8a.23.23,0,0,1-.23.22h-1a.23.23,0,0,1-.23-.22Z"/><path class="cls-9" d="M149.85,127.88a2.21,2.21,0,0,1,2.25,2.23c0,.09,0,.24,0,.33a.23.23,0,0,1-.23.2h-3.07a1.15,1.15,0,0,0,1.15,1.05,1.75,1.75,0,0,0,.94-.3c.12-.07.23-.1.31,0l.49.56a.19.19,0,0,1,0,.31,2.56,2.56,0,0,1-1.79.66,2.52,2.52,0,0,1,0-5Zm.84,1.92a.9.9,0,0,0-.88-.81.94.94,0,0,0-.93.81Z"/><path class="cls-9" d="M156,129.26h-.41a.22.22,0,0,1-.21-.23v-.8a.22.22,0,0,1,.21-.23H156v-1.33a.24.24,0,0,1,.23-.23h1a.23.23,0,0,1,.22.23V128h1.06a.22.22,0,0,1,.22.23v.8a.22.22,0,0,1-.22.23h-1.06v1.92c0,.34.18.39.37.39a2.16,2.16,0,0,0,.59-.13.18.18,0,0,1,.26.13l.24.75a.22.22,0,0,1-.13.29,4.43,4.43,0,0,1-1.43.31c-.92,0-1.33-.57-1.33-1.54Z"/><path class="cls-9" d="M162,127.88a2.52,2.52,0,1,1-2.46,2.51A2.5,2.5,0,0,1,162,127.88Zm0,3.75a1.19,1.19,0,0,0,1.15-1.24,1.15,1.15,0,1,0-1.15,1.24Z"/><path class="cls-9" d="M168.18,128.23a.22.22,0,0,1,.22-.23h.46a.22.22,0,0,1,.22.16l.16.47a1.67,1.67,0,0,1,1.36-.75c.57,0,1.07.18.93.48l-.45.78a.21.21,0,0,1-.27.11,1.5,1.5,0,0,0-.35-.07,1,1,0,0,0-.86.49v2.91c0,.16-.1.22-.27.22h-.93a.22.22,0,0,1-.22-.22Z"/><path class="cls-9" d="M174.32,127.88a2.21,2.21,0,0,1,2.25,2.23,1.84,1.84,0,0,1,0,.33.23.23,0,0,1-.22.2h-3.08a1.16,1.16,0,0,0,1.15,1.05,1.69,1.69,0,0,0,.94-.3c.12-.07.23-.1.31,0l.5.56a.2.2,0,0,1,0,.31,2.52,2.52,0,0,1-1.78.66,2.52,2.52,0,0,1,0-5Zm.84,1.92a.89.89,0,0,0-.87-.81,1,1,0,0,0-.94.81Z"/><path class="cls-9" d="M179.15,129.77a3.18,3.18,0,0,1,.88.13c0-.61-.18-.83-.63-.83a6,6,0,0,0-1.34.18c-.17.05-.25-.06-.28-.22l-.11-.62a.24.24,0,0,1,.17-.3,6.28,6.28,0,0,1,1.63-.23c1.51,0,1.85.78,1.85,2.09v2.61a.22.22,0,0,1-.22.22h-.44c-.08,0-.14,0-.2-.16l-.14-.33a2.08,2.08,0,0,1-1.47.61,1.53,1.53,0,0,1-1.62-1.64C177.23,130.43,177.93,129.77,179.15,129.77Zm0,2.13a1.11,1.11,0,0,0,.83-.46v-.66a1.79,1.79,0,0,0-.67-.15c-.47,0-.78.27-.78.65A.59.59,0,0,0,179.17,131.9Z"/><path class="cls-9" d="M184.72,127.88a2.74,2.74,0,0,1,1.07.22v-3.47a.24.24,0,0,1,.23-.23h1a.24.24,0,0,1,.23.23v8a.23.23,0,0,1-.23.22h-.47c-.11,0-.19-.09-.23-.22l-.12-.38a2.09,2.09,0,0,1-1.57.72,2.4,2.4,0,0,1-2.3-2.52A2.37,2.37,0,0,1,184.72,127.88Zm.11,3.75a1,1,0,0,0,1-.78v-1.4a1.59,1.59,0,0,0-.94-.27,1.17,1.17,0,0,0-1.16,1.22A1.14,1.14,0,0,0,184.83,131.63Z"/><path class="cls-9" d="M97.55,142.29a2.53,2.53,0,1,1-2.46,2.51A2.5,2.5,0,0,1,97.55,142.29Zm0,3.75a1.19,1.19,0,0,0,1.15-1.24A1.15,1.15,0,1,0,97.55,146Z"/><path class="cls-9" d="M101.08,142.64a.23.23,0,0,1,.23-.23h.46a.21.21,0,0,1,.2.15l.17.44a2.37,2.37,0,0,1,1.69-.71,2.11,2.11,0,0,1,2.14,2.39V147a.24.24,0,0,1-.23.23h-1a.23.23,0,0,1-.23-.23v-2.38c0-.63-.33-1-.9-1a1.2,1.2,0,0,0-1.13.75V147c0,.17-.07.23-.3.23h-.89a.24.24,0,0,1-.23-.23Z"/><path class="cls-9" d="M112.06,142.29a2.53,2.53,0,1,1-2.46,2.51A2.51,2.51,0,0,1,112.06,142.29Zm0,3.75a1.2,1.2,0,0,0,1.15-1.24,1.16,1.16,0,1,0-1.15,1.24Z"/><path class="cls-9" d="M115.84,143.67h-.41a.22.22,0,0,1-.21-.23v-.8a.22.22,0,0,1,.21-.23h.41v-1.33a.24.24,0,0,1,.23-.23h1a.23.23,0,0,1,.22.23v1.34h1.06a.22.22,0,0,1,.22.23v.8a.22.22,0,0,1-.22.23h-1.06v1.92c0,.34.18.39.37.39a2.16,2.16,0,0,0,.59-.13.18.18,0,0,1,.26.13l.24.75a.22.22,0,0,1-.13.29,4.34,4.34,0,0,1-1.43.32c-.92,0-1.33-.58-1.33-1.55Z"/><path class="cls-9" d="M119.73,139a.24.24,0,0,1,.23-.23h1a.24.24,0,0,1,.23.23v3.65a2.21,2.21,0,0,1,1.27-.4,2.13,2.13,0,0,1,2.15,2.39V147a.24.24,0,0,1-.23.23h-1a.23.23,0,0,1-.23-.23v-2.32a1,1,0,0,0-1-1.08,1,1,0,0,0-1,.85V147c0,.13-.07.23-.26.23h-1a.24.24,0,0,1-.23-.23Z"/><path class="cls-9" d="M128.06,142.29a2.21,2.21,0,0,1,2.25,2.23,1.84,1.84,0,0,1,0,.33.23.23,0,0,1-.22.2H127a1.15,1.15,0,0,0,1.16,1,1.68,1.68,0,0,0,.93-.3c.12-.07.23-.1.31,0l.5.56a.2.2,0,0,1,0,.31,2.52,2.52,0,0,1-1.78.67,2.53,2.53,0,0,1,0-5.05Zm.84,1.92a.89.89,0,0,0-.87-.81,1,1,0,0,0-.94.81Z"/><path class="cls-9" d="M131.32,142.64a.23.23,0,0,1,.23-.23H132a.22.22,0,0,1,.22.16l.17.47a1.66,1.66,0,0,1,1.35-.75c.57,0,1.07.18.93.48l-.45.78a.21.21,0,0,1-.27.11,1.5,1.5,0,0,0-.35-.07,1,1,0,0,0-.85.49V147c0,.17-.11.23-.28.23h-.92a.24.24,0,0,1-.23-.23Z"/><path class="cls-9" d="M139.54,150.59c0,.14-.07.23-.28.23h-1a.23.23,0,0,1-.22-.23v-8a.22.22,0,0,1,.22-.23h.47a.22.22,0,0,1,.21.15l.15.39a2.08,2.08,0,0,1,1.55-.66,2.41,2.41,0,0,1,2.32,2.52,2.45,2.45,0,0,1-2.38,2.53,2.34,2.34,0,0,1-1.07-.27Zm.88-4.55a1.19,1.19,0,0,0,1.17-1.23,1.15,1.15,0,0,0-1.12-1.22,1.05,1.05,0,0,0-1,.73v1.44A1.56,1.56,0,0,0,140.42,146Z"/><path class="cls-9" d="M144.07,139a.24.24,0,0,1,.23-.23h1a.24.24,0,0,1,.23.23v8a.24.24,0,0,1-.23.23h-1a.24.24,0,0,1-.23-.23Z"/><path class="cls-9" d="M148.55,144.18a3.18,3.18,0,0,1,.88.13c0-.61-.18-.83-.63-.83a6,6,0,0,0-1.34.18c-.17.05-.25-.06-.28-.22l-.11-.62a.24.24,0,0,1,.17-.3,6.31,6.31,0,0,1,1.64-.23c1.5,0,1.84.78,1.84,2.09V147a.23.23,0,0,1-.22.23h-.44c-.08,0-.14,0-.2-.17l-.14-.33a2.08,2.08,0,0,1-1.47.62,1.54,1.54,0,0,1-1.62-1.65C146.63,144.84,147.33,144.18,148.55,144.18Zm0,2.13a1.11,1.11,0,0,0,.83-.46v-.66a1.79,1.79,0,0,0-.67-.15c-.47,0-.78.27-.78.65A.59.59,0,0,0,148.57,146.31Z"/><path class="cls-9" d="M152.36,143.67H152a.23.23,0,0,1-.22-.23v-.8a.22.22,0,0,1,.22-.23h.41v-1.33a.24.24,0,0,1,.23-.23h1a.23.23,0,0,1,.22.23v1.34h1.05a.22.22,0,0,1,.23.23v.8a.23.23,0,0,1-.23.23h-1.05v1.92c0,.34.18.39.37.39a2.25,2.25,0,0,0,.59-.13.18.18,0,0,1,.26.13l.24.75a.22.22,0,0,1-.13.29,4.34,4.34,0,0,1-1.43.32c-.92,0-1.33-.58-1.33-1.55Z"/><path class="cls-9" d="M156.54,143.67h-.41a.23.23,0,0,1-.23-.23v-.8a.23.23,0,0,1,.23-.23h.41v-1.3a2.18,2.18,0,0,1,2.24-2.42,2.38,2.38,0,0,1,1.42.47.23.23,0,0,1,.05.27l-.41.77a.2.2,0,0,1-.29.06,1.57,1.57,0,0,0-.71-.24c-.51,0-.8.4-.8,1.09v1.3h1.2a.23.23,0,0,1,.23.23v.8a.23.23,0,0,1-.23.23H158V147a.24.24,0,0,1-.23.23h-1a.23.23,0,0,1-.23-.23Z"/><path class="cls-9" d="M162.47,142.29A2.53,2.53,0,1,1,160,144.8,2.5,2.5,0,0,1,162.47,142.29Zm0,3.75a1.2,1.2,0,0,0,1.15-1.24,1.18,1.18,0,0,0-1.15-1.21,1.17,1.17,0,0,0-1.15,1.21A1.18,1.18,0,0,0,162.47,146Z"/><path class="cls-9" d="M166,142.64a.23.23,0,0,1,.23-.23h.45a.22.22,0,0,1,.22.16l.17.47a1.68,1.68,0,0,1,1.36-.75c.56,0,1.06.18.92.48l-.44.78a.22.22,0,0,1-.28.11,1.5,1.5,0,0,0-.35-.07,1,1,0,0,0-.85.49V147c0,.17-.11.23-.28.23h-.92A.24.24,0,0,1,166,147Z"/><path class="cls-9" d="M170.09,142.64a.23.23,0,0,1,.23-.23h.45a.2.2,0,0,1,.2.13l.17.46a2.16,2.16,0,0,1,1.61-.71,1.91,1.91,0,0,1,1.56.75,2.42,2.42,0,0,1,1.69-.75c1.54,0,2.1,1.14,2.1,2.4V147a.22.22,0,0,1-.22.23h-1a.22.22,0,0,1-.22-.23v-2.38c0-.63-.31-1-.91-1a1.2,1.2,0,0,0-1,.5s0,.24,0,.46V147a.24.24,0,0,1-.23.23h-.9a.23.23,0,0,1-.23-.23v-2.38c0-.63-.28-1-.89-1a1.06,1.06,0,0,0-1,.75V147a.24.24,0,0,1-.23.23h-1a.24.24,0,0,1-.23-.23Z"/><path class="cls-9" d="M179.18,146.64l.33-.65a.18.18,0,0,1,.27-.08,2.74,2.74,0,0,0,1.1.28c.24,0,.41-.09.41-.3s-.17-.34-.81-.6c-.92-.36-1.36-.85-1.36-1.58s.54-1.42,1.77-1.42a2.88,2.88,0,0,1,1.48.37.27.27,0,0,1,.1.33l-.3.61a.21.21,0,0,1-.28.08,2.87,2.87,0,0,0-1-.25c-.29,0-.41.12-.41.28s.22.29.66.47c.93.36,1.62.75,1.62,1.69,0,.79-.69,1.47-1.91,1.47a2.7,2.7,0,0,1-1.59-.45A.21.21,0,0,1,179.18,146.64Z"/><path class="cls-9" d="M184.5,145.35a1,1,0,1,1,0,2,1,1,0,0,1,0-2Z"/><path class="cls-10" d="M67.87,107.52a15.82,15.82,0,0,0-2.47.2,17.2,17.2,0,0,0-32.52,4.1c-.33,0-.64,0-1,0a13.12,13.12,0,0,0-13.11,13.11A12.77,12.77,0,0,0,31.55,138l1.14,0H67.93c8.22-.65,15.17-7.63,15.17-15.24A15.25,15.25,0,0,0,67.87,107.52Z"/><path class="cls-9" d="M39.88,219.28h-10a.88.88,0,0,1-.62-1.5l10-10a.89.89,0,0,1,1-.19.88.88,0,0,1,.54.81v10A.87.87,0,0,1,39.88,219.28ZM32,217.52h7v-7Z"/><path class="cls-9" d="M72,265.36H29.9a.88.88,0,0,1-.88-.87V218.4a.91.91,0,0,1,.26-.62l10-10a.9.9,0,0,1,.62-.26H72a.89.89,0,0,1,.88.88v56.07A.88.88,0,0,1,72,265.36Zm-41.24-1.75H71.14V209.3H40.25l-9.47,9.47Z"/><path class="cls-9" d="M64.4,226.19H45.46a.88.88,0,0,1,0-1.76H64.4a.88.88,0,1,1,0,1.76Z"/><path class="cls-9" d="M64.4,236.17H37.52a.88.88,0,1,1,0-1.75H64.4a.88.88,0,1,1,0,1.75Z"/><path class="cls-9" d="M64.4,246.16H37.52a.88.88,0,0,1,0-1.76H64.4a.88.88,0,0,1,0,1.76Z"/><path class="cls-9" d="M54.64,256.15H37.52a.88.88,0,1,1,0-1.76H54.64a.88.88,0,0,1,0,1.76Z"/><rect class="cls-11" x="0.66" y="0.66" width="799.52" height="369.65"/><path class="cls-12" d="M26,19.53a7.2,7.2,0,1,1-7.18,7.22A7.19,7.19,0,0,1,26,19.53Zm0,11.8a4.6,4.6,0,1,0-4.58-4.58A4.61,4.61,0,0,0,26,31.33Z"/><path class="cls-12" d="M35.61,20.11a.39.39,0,0,1,.38-.38h1.9a.38.38,0,0,1,.38.38v8.18a2.91,2.91,0,1,0,5.82,0v-8.2a.38.38,0,0,1,.38-.38h1.9a.39.39,0,0,1,.38.38v8.32a5.57,5.57,0,0,1-11.14,0Z"/><path class="cls-12" d="M52.07,22.13H49a.38.38,0,0,1-.38-.38V20.11a.38.38,0,0,1,.38-.38h8.74a.38.38,0,0,1,.38.38v1.64a.38.38,0,0,1-.38.38H54.69V33.35a.39.39,0,0,1-.38.38H52.45a.39.39,0,0,1-.38-.38Z"/><path class="cls-12" d="M70.81,19.53a7.2,7.2,0,1,1-7.18,7.22A7.19,7.19,0,0,1,70.81,19.53Zm0,11.8a4.6,4.6,0,1,0-4.58-4.58A4.61,4.61,0,0,0,70.81,31.33Z"/><path class="cls-12" d="M80.63,20.11a.38.38,0,0,1,.38-.38h8.14a.38.38,0,0,1,.38.38v1.64a.38.38,0,0,1-.38.38H83.23v3.76h4.94a.39.39,0,0,1,.38.38v1.64a.39.39,0,0,1-.38.38H83.23v5.06a.39.39,0,0,1-.38.38H81a.38.38,0,0,1-.38-.38Z"/><path class="cls-12" d="M94.83,30.45V28.79L102,20a.42.42,0,0,1,.3-.12h1.08a.38.38,0,0,1,.38.38v8.52h1.6a.36.36,0,0,1,.38.36v1.24a.38.38,0,0,1-.38.38h-1.6l0,2.56a.39.39,0,0,1-.38.38h-1.66a.39.39,0,0,1-.38-.38V30.83H95.21A.38.38,0,0,1,94.83,30.45Zm6.64-1.7V24l-4,4.8Z"/><path class="cls-12" d="M107,32.89c1.32-1.6,3.84-4.88,5.18-6.66a3.82,3.82,0,0,0,1-2.22,1.89,1.89,0,0,0-2.12-1.82,3.28,3.28,0,0,0-2.24,1.18.36.36,0,0,1-.54,0l-1-1a.39.39,0,0,1,0-.52,5.54,5.54,0,0,1,3.94-2c2.86,0,4.46,1.82,4.46,4a5.33,5.33,0,0,1-1.34,3.24c-.86,1.22-2.38,3.1-3.44,4.44h4.32a.39.39,0,0,1,.38.38v1.38a.39.39,0,0,1-.38.38h-7.88a.38.38,0,0,1-.38-.38Z"/><path class="cls-12" d="M124.45,19.83a.34.34,0,0,1,.36-.3h.32a.36.36,0,0,1,.34.2l4.4,9.44h.06l4.4-9.44a.34.34,0,0,1,.34-.2H135a.34.34,0,0,1,.36.3l2.36,13.44a.35.35,0,0,1-.36.46h-1.82a.43.43,0,0,1-.38-.3L134,25.85h-.06l-3.5,7.86a.34.34,0,0,1-.34.22h-.36a.36.36,0,0,1-.34-.22l-3.54-7.86h-.06l-1.16,7.58a.39.39,0,0,1-.36.3h-1.8a.37.37,0,0,1-.38-.46Z"/><path class="cls-12" d="M140.45,20.11a.39.39,0,0,1,.38-.38h1.86a.39.39,0,0,1,.38.38V33.35a.39.39,0,0,1-.38.38h-1.86a.39.39,0,0,1-.38-.38Z"/><path class="cls-12" d="M146.71,20.11a.38.38,0,0,1,.38-.38h1.84a.39.39,0,0,1,.38.38V31.33h5.1a.38.38,0,0,1,.38.38v1.64a.38.38,0,0,1-.38.38h-7.32a.38.38,0,0,1-.38-.38Z"/><path class="cls-12" d="M156.81,20.11a.38.38,0,0,1,.38-.38H159a.39.39,0,0,1,.38.38V31.33h5.1a.38.38,0,0,1,.38.38v1.64a.38.38,0,0,1-.38.38h-7.32a.38.38,0,0,1-.38-.38Z"/><path class="cls-12" d="M166.91,20.11a.39.39,0,0,1,.38-.38h1.86a.39.39,0,0,1,.38.38V33.35a.39.39,0,0,1-.38.38h-1.86a.39.39,0,0,1-.38-.38Z"/><path class="cls-12" d="M179.35,19.53a7.2,7.2,0,1,1-7.18,7.22A7.19,7.19,0,0,1,179.35,19.53Zm0,11.8a4.6,4.6,0,1,0-4.58-4.58A4.61,4.61,0,0,0,179.35,31.33Z"/><path class="cls-12" d="M189.17,19.89a.38.38,0,0,1,.38-.36h.5l8.32,8.84h0V20.11a.38.38,0,0,1,.38-.38h1.84a.39.39,0,0,1,.38.38V33.57a.38.38,0,0,1-.38.36h-.48l-8.36-9.18h0v8.6a.38.38,0,0,1-.38.38h-1.82a.39.39,0,0,1-.38-.38Z"/><path class="cls-12" d="M209.05,20.11a.38.38,0,0,1,.38-.38h4.7a4.46,4.46,0,1,1,0,8.92h-2.5v4.7a.39.39,0,0,1-.38.38h-1.84a.38.38,0,0,1-.38-.38Zm4.92,6.1A2.06,2.06,0,0,0,216,24.13,2,2,0,0,0,214,22.19h-2.32v4Z"/><path class="cls-12" d="M220.69,20.11a.39.39,0,0,1,.38-.38H223a.38.38,0,0,1,.38.38v8.18a2.91,2.91,0,1,0,5.82,0v-8.2a.38.38,0,0,1,.38-.38h1.9a.39.39,0,0,1,.38.38v8.32a5.57,5.57,0,0,1-11.14,0Z"/><path class="cls-12" d="M235.27,20.11a.38.38,0,0,1,.38-.38h4.58c2.38,0,4.22,1.6,4.22,3.7a3.81,3.81,0,0,1-2.2,3.18,3.59,3.59,0,0,1,2.6,3.26c0,2.24-1.92,3.86-4.36,3.86h-4.84a.38.38,0,0,1-.38-.38Zm4.72,5.5a1.71,1.71,0,0,0,1.72-1.8,1.63,1.63,0,0,0-1.72-1.7h-2.14v3.5Zm.28,5.76a1.78,1.78,0,0,0,1.8-1.82,1.94,1.94,0,0,0-2-1.74h-2.18v3.56Z"/><path class="cls-12" d="M247.61,20.11a.38.38,0,0,1,.38-.38h1.84a.39.39,0,0,1,.38.38V31.33h5.1a.38.38,0,0,1,.38.38v1.64a.38.38,0,0,1-.38.38H248a.38.38,0,0,1-.38-.38Z"/><path class="cls-12" d="M257.71,20.11a.39.39,0,0,1,.38-.38H260a.39.39,0,0,1,.38.38V33.35a.39.39,0,0,1-.38.38h-1.86a.39.39,0,0,1-.38-.38Z"/><path class="cls-12" d="M270.17,19.53A6.77,6.77,0,0,1,275,21.39a.37.37,0,0,1,0,.56l-1.22,1.26a.32.32,0,0,1-.5,0A4.73,4.73,0,0,0,270.23,22a4.64,4.64,0,0,0,0,9.28,4.8,4.8,0,0,0,3.06-1.14.37.37,0,0,1,.5,0l1.24,1.28a.38.38,0,0,1,0,.54,6.86,6.86,0,0,1-4.86,1.94,7.2,7.2,0,1,1,0-14.4Z"/><path class="cls-12" d="M275.82,33.21l6.23-13.46a.36.36,0,0,1,.34-.22h.2a.34.34,0,0,1,.34.22l6.16,13.46a.35.35,0,0,1-.34.52H287a.57.57,0,0,1-.58-.4l-1-2.16h-6l-1,2.16a.61.61,0,0,1-.58.4h-1.75A.35.35,0,0,1,275.82,33.21ZM284.47,29l-2-4.4h-.06l-2,4.4Z"/><path class="cls-12" d="M292.05,22.13H289a.38.38,0,0,1-.38-.38V20.11a.38.38,0,0,1,.38-.38h8.75a.38.38,0,0,1,.38.38v1.64a.38.38,0,0,1-.38.38h-3.06V33.35a.39.39,0,0,1-.38.38h-1.86a.39.39,0,0,1-.38-.38Z"/><path class="cls-12" d="M300.18,20.11a.4.4,0,0,1,.39-.38h1.86a.39.39,0,0,1,.38.38V33.35a.39.39,0,0,1-.38.38h-1.86a.4.4,0,0,1-.39-.38Z"/><path class="cls-12" d="M312.63,19.53a7.2,7.2,0,1,1-7.19,7.22A7.19,7.19,0,0,1,312.63,19.53Zm0,11.8a4.6,4.6,0,1,0-4.58-4.58A4.61,4.61,0,0,0,312.63,31.33Z"/><path class="cls-12" d="M322.44,19.89a.38.38,0,0,1,.38-.36h.5l8.33,8.84h0V20.11a.38.38,0,0,1,.38-.38h1.84a.39.39,0,0,1,.38.38V33.57a.38.38,0,0,1-.38.36h-.48L325,24.75h0v8.6a.38.38,0,0,1-.38.38h-1.82a.39.39,0,0,1-.38-.38Z"/><path class="cls-12" d="M337.08,31.77l.72-1.24a.46.46,0,0,1,.68-.14,6.62,6.62,0,0,0,3,1.24,1.67,1.67,0,0,0,1.82-1.54c0-1-.85-1.72-2.54-2.4-1.88-.76-3.76-2-3.76-4.32,0-1.78,1.32-3.84,4.5-3.84a7.08,7.08,0,0,1,4,1.34.51.51,0,0,1,.12.66l-.76,1.14a.54.54,0,0,1-.71.24,6.58,6.58,0,0,0-2.78-1.1,1.59,1.59,0,0,0-1.76,1.4c0,.94.74,1.58,2.36,2.24,1.94.78,4.19,1.94,4.19,4.52,0,2.06-1.78,4-4.61,4a6.43,6.43,0,0,1-4.4-1.56C337,32.19,336.9,32.09,337.08,31.77Z"/><path class="cls-12" d="M349.62,26l0-1.74-1.44,1a.38.38,0,0,1-.52-.1l-.34-.54a.39.39,0,0,1,.1-.54l1.66-1-1.66-1a.41.41,0,0,1-.12-.54c.16-.22.24-.36.38-.54a.37.37,0,0,1,.5-.08l1.44,1,0-1.76a.39.39,0,0,1,.38-.38h.64a.39.39,0,0,1,.38.38l0,1.76,1.45-1a.39.39,0,0,1,.51.1l.34.54a.36.36,0,0,1-.1.54l-1.66,1,1.66,1a.37.37,0,0,1,.13.52l-.38.54a.36.36,0,0,1-.5.12l-1.45-1L351,26a.39.39,0,0,1-.38.38H350A.39.39,0,0,1,349.62,26Z"/><path class="cls-12" d="M359.24,31.77l.72-1.24a.46.46,0,0,1,.68-.14,6.62,6.62,0,0,0,3,1.24,1.67,1.67,0,0,0,1.82-1.54c0-1-.85-1.72-2.54-2.4-1.88-.76-3.76-2-3.76-4.32,0-1.78,1.32-3.84,4.5-3.84a7.08,7.08,0,0,1,4,1.34.5.5,0,0,1,.12.66l-.76,1.14a.53.53,0,0,1-.7.24,6.7,6.7,0,0,0-2.79-1.1,1.59,1.59,0,0,0-1.76,1.4c0,.94.74,1.58,2.36,2.24,1.94.78,4.19,1.94,4.19,4.52,0,2.06-1.78,4-4.61,4a6.43,6.43,0,0,1-4.4-1.56C359.16,32.19,359.06,32.09,359.24,31.77Z"/><path class="cls-12" d="M370.9,20.11a.39.39,0,0,1,.38-.38h1.86a.39.39,0,0,1,.38.38V33.35a.39.39,0,0,1-.38.38h-1.86a.39.39,0,0,1-.38-.38Z"/><path class="cls-12" d="M377.16,19.89a.38.38,0,0,1,.38-.36h.5l8.33,8.84h0V20.11a.38.38,0,0,1,.38-.38h1.84a.39.39,0,0,1,.38.38V33.57a.38.38,0,0,1-.38.36h-.48l-8.37-9.18h0v8.6a.38.38,0,0,1-.38.38h-1.82a.39.39,0,0,1-.38-.38Z"/><path class="cls-12" d="M398.82,19.53a6.78,6.78,0,0,1,4.85,1.86.37.37,0,0,1,0,.56l-1.22,1.26a.32.32,0,0,1-.5,0A4.73,4.73,0,0,0,398.89,22a4.64,4.64,0,0,0,0,9.28A4.83,4.83,0,0,0,402,30.17a.37.37,0,0,1,.5,0l1.24,1.28a.38.38,0,0,1,0,.54,6.89,6.89,0,0,1-4.87,1.94,7.2,7.2,0,1,1,0-14.4Z"/><path class="cls-12" d="M406.3,20.11a.38.38,0,0,1,.38-.38h8.14a.38.38,0,0,1,.39.38v1.64a.38.38,0,0,1-.39.38H408.9v3.28h5a.38.38,0,0,1,.37.38v1.66a.37.37,0,0,1-.37.38h-5v3.5h5.92a.38.38,0,0,1,.39.38v1.64a.38.38,0,0,1-.39.38h-8.14a.38.38,0,0,1-.38-.38Z"/><path class="cls-12" d="M421.28,32.89c1.32-1.6,3.84-4.88,5.18-6.66a3.82,3.82,0,0,0,1-2.22,1.89,1.89,0,0,0-2.12-1.82,3.28,3.28,0,0,0-2.24,1.18.36.36,0,0,1-.54,0l-1-1a.39.39,0,0,1,0-.52,5.54,5.54,0,0,1,3.94-2c2.86,0,4.46,1.82,4.46,4a5.33,5.33,0,0,1-1.34,3.24c-.86,1.22-2.38,3.1-3.44,4.44h4.32a.39.39,0,0,1,.38.38v1.38a.39.39,0,0,1-.38.38h-7.88a.38.38,0,0,1-.38-.38Z"/><path class="cls-12" d="M432.24,26.93c0-4.38,1.84-7,5-7s5,2.62,5,7-1.84,7-5,7S432.24,31.31,432.24,26.93Zm7.46,0c0-3-.88-4.64-2.42-4.64s-2.42,1.68-2.42,4.64.88,4.64,2.42,4.64S439.7,29.91,439.7,26.93Z"/><path class="cls-12" d="M446.36,23.77l-1.76.38a.33.33,0,0,1-.4-.26l-.12-1a.41.41,0,0,1,.1-.36l2.88-2.42h1.4a.38.38,0,0,1,.36.38V33.35a.38.38,0,0,1-.36.38h-1.72a.38.38,0,0,1-.38-.38Z"/><path class="cls-12" d="M451.84,26.93c0-4.38,1.84-7,5-7s5,2.62,5,7-1.84,7-5,7S451.84,31.31,451.84,26.93Zm7.46,0c0-3-.88-4.64-2.42-4.64s-2.42,1.68-2.42,4.64.88,4.64,2.42,4.64S459.3,29.91,459.3,26.93Z"/><path class="cls-9" d="M20.5,345l0-1.05-.86.6a.22.22,0,0,1-.31-.06l-.21-.32a.24.24,0,0,1,.06-.33l1-.6-1-.6a.24.24,0,0,1-.07-.32c.09-.13.14-.22.23-.33a.22.22,0,0,1,.3,0l.86.6,0-1.06a.24.24,0,0,1,.23-.23h.38a.24.24,0,0,1,.23.23l0,1.06.87-.62a.25.25,0,0,1,.31.06l.21.33a.22.22,0,0,1-.06.32l-1,.6,1,.62a.22.22,0,0,1,.07.31l-.23.32a.22.22,0,0,1-.3.07l-.87-.6,0,1a.23.23,0,0,1-.23.22h-.38A.23.23,0,0,1,20.5,345Z"/><path class="cls-9" d="M22.53,348.56l.62-.64a.23.23,0,0,1,.36,0,1.09,1.09,0,0,0,.8.38c.46,0,1-.38,1-1.21v-5.67a.22.22,0,0,1,.22-.23h1.13a.23.23,0,0,1,.23.23v5.67a2.44,2.44,0,0,1-2.52,2.63,2.32,2.32,0,0,1-1.83-.88A.26.26,0,0,1,22.53,348.56Z"/><path class="cls-9" d="M30.38,344.69a2.53,2.53,0,1,1-2.46,2.51A2.51,2.51,0,0,1,30.38,344.69Zm0,3.75a1.19,1.19,0,0,0,1.15-1.24,1.15,1.15,0,1,0-1.15,1.24Z"/><path class="cls-9" d="M33.83,345a.23.23,0,0,1,.23-.23h1a.23.23,0,0,1,.23.23v2.37c0,.63.32,1,.87,1a1.07,1.07,0,0,0,1-.9V345c0-.18.07-.23.26-.23h.91a.23.23,0,0,1,.23.23v4.35a.24.24,0,0,1-.23.23h-.44a.26.26,0,0,1-.23-.18l-.14-.4a2.16,2.16,0,0,1-1.61.7c-1.49,0-2-1.14-2-2.37Z"/><path class="cls-9" d="M40,345a.23.23,0,0,1,.23-.23h.46a.21.21,0,0,1,.21.16l.17.47a1.68,1.68,0,0,1,1.36-.75c.56,0,1.07.18.92.48l-.44.79a.22.22,0,0,1-.28.1,1.29,1.29,0,0,0-.35-.07,1,1,0,0,0-.85.49v2.91c0,.17-.11.23-.28.23h-.92a.24.24,0,0,1-.23-.23Z"/><path class="cls-9" d="M44.05,345a.22.22,0,0,1,.22-.23h.46a.22.22,0,0,1,.21.15l.16.44a2.38,2.38,0,0,1,1.7-.71,2.11,2.11,0,0,1,2.13,2.39v2.31a.23.23,0,0,1-.22.23h-1a.23.23,0,0,1-.23-.23V347c0-.62-.32-1-.9-1a1.21,1.21,0,0,0-1.13.76v2.64c0,.17-.07.23-.3.23h-.89a.23.23,0,0,1-.22-.23Z"/><path class="cls-9" d="M51.85,346.58a3.18,3.18,0,0,1,.88.13c0-.61-.18-.83-.63-.83a6,6,0,0,0-1.34.18c-.17.05-.25-.06-.28-.21l-.1-.63a.23.23,0,0,1,.16-.3,6.81,6.81,0,0,1,1.64-.23c1.5,0,1.85.78,1.85,2.09v2.61a.24.24,0,0,1-.23.23h-.43c-.09,0-.15,0-.21-.17l-.14-.32a2.08,2.08,0,0,1-1.47.61,1.54,1.54,0,0,1-1.62-1.65C49.93,347.24,50.63,346.58,51.85,346.58Zm0,2.14a1.15,1.15,0,0,0,.83-.47v-.66a1.87,1.87,0,0,0-.68-.15c-.47,0-.78.27-.78.65A.6.6,0,0,0,51.88,348.72Z"/><path class="cls-9" d="M55.41,341.44a.24.24,0,0,1,.23-.23h1a.24.24,0,0,1,.23.23v7.95a.24.24,0,0,1-.23.23h-1a.24.24,0,0,1-.23-.23Z"/><path class="cls-9" d="M62.54,346.58a3.18,3.18,0,0,1,.88.13c0-.61-.18-.83-.63-.83a6,6,0,0,0-1.34.18c-.17.05-.26-.06-.28-.21l-.11-.63a.24.24,0,0,1,.17-.3,6.79,6.79,0,0,1,1.63-.23c1.51,0,1.85.78,1.85,2.09v2.61a.23.23,0,0,1-.22.23h-.44c-.08,0-.14,0-.2-.17l-.15-.32a2.06,2.06,0,0,1-1.46.61,1.54,1.54,0,0,1-1.62-1.65C60.62,347.24,61.31,346.58,62.54,346.58Zm0,2.14a1.11,1.11,0,0,0,.83-.47v-.66a1.79,1.79,0,0,0-.67-.15c-.47,0-.78.27-.78.65A.6.6,0,0,0,62.56,348.72Z"/><path class="cls-9" d="M66.09,345a.23.23,0,0,1,.23-.23h.46A.21.21,0,0,1,67,345l.17.47a1.7,1.7,0,0,1,1.36-.75c.56,0,1.07.18.92.48L69,346a.22.22,0,0,1-.28.1,1.29,1.29,0,0,0-.34-.07,1,1,0,0,0-.86.49v2.91c0,.17-.1.23-.27.23h-.93a.24.24,0,0,1-.23-.23Z"/><path class="cls-9" d="M70.44,346.08H70a.22.22,0,0,1-.21-.23V345a.22.22,0,0,1,.21-.23h.41v-1.33a.24.24,0,0,1,.23-.23h1a.23.23,0,0,1,.22.23v1.34h1.06a.22.22,0,0,1,.22.23v.81a.22.22,0,0,1-.22.23H71.87V348c0,.33.18.38.37.38a1.84,1.84,0,0,0,.59-.13.19.19,0,0,1,.27.13l.24.76a.23.23,0,0,1-.14.29,4.72,4.72,0,0,1-1.43.31c-.92,0-1.33-.58-1.33-1.55Z"/><path class="cls-9" d="M74.22,342.28a.82.82,0,0,1,.82-.83.83.83,0,1,1,0,1.66A.82.82,0,0,1,74.22,342.28Zm.11,2.76a.23.23,0,0,1,.23-.23h1a.22.22,0,0,1,.22.23v4.35a.23.23,0,0,1-.22.23h-1a.24.24,0,0,1-.23-.23Z"/><path class="cls-9" d="M79.41,344.69a2.18,2.18,0,0,1,1.78.86.22.22,0,0,1-.06.33l-.55.53c-.11.1-.22,0-.3,0a1.15,1.15,0,0,0-.83-.39,1.21,1.21,0,0,0-1.18,1.23,1.19,1.19,0,0,0,1.17,1.22,1.24,1.24,0,0,0,1-.46.23.23,0,0,1,.3,0l.51.44c.12.1.17.22.09.34a2.14,2.14,0,0,1-1.9,1,2.53,2.53,0,0,1-2.55-2.52A2.58,2.58,0,0,1,79.41,344.69Z"/><path class="cls-9" d="M82.34,341.44a.24.24,0,0,1,.23-.23h1a.24.24,0,0,1,.23.23v7.95a.24.24,0,0,1-.23.23h-1a.24.24,0,0,1-.23-.23Z"/><path class="cls-9" d="M87.34,344.69a2.21,2.21,0,0,1,2.24,2.24c0,.08,0,.24,0,.32a.24.24,0,0,1-.23.21H86.26a1.13,1.13,0,0,0,1.15,1,1.67,1.67,0,0,0,.94-.3c.12-.07.22-.1.31,0l.49.57a.2.2,0,0,1,0,.31,2.61,2.61,0,0,1-1.79.66,2.53,2.53,0,0,1,0-5.05Zm.84,1.93a.9.9,0,0,0-.88-.82,1,1,0,0,0-.94.82Z"/><path class="cls-9" d="M90.33,349l.32-.65a.18.18,0,0,1,.28-.08,2.66,2.66,0,0,0,1.09.29c.24,0,.41-.1.41-.3s-.17-.35-.81-.6c-.92-.36-1.35-.86-1.35-1.59s.54-1.42,1.76-1.42a2.74,2.74,0,0,1,1.48.38.25.25,0,0,1,.11.32l-.3.61a.24.24,0,0,1-.29.09,2.87,2.87,0,0,0-1-.25c-.29,0-.41.12-.41.27s.22.29.66.47c.93.36,1.63.76,1.63,1.69s-.7,1.47-1.91,1.47a2.64,2.64,0,0,1-1.6-.45A.2.2,0,0,1,90.33,349Z"/><path class="cls-9" d="M99.19,346.58a3.18,3.18,0,0,1,.88.13c0-.61-.18-.83-.63-.83a6,6,0,0,0-1.34.18c-.17.05-.26-.06-.28-.21l-.11-.63a.24.24,0,0,1,.17-.3,6.69,6.69,0,0,1,1.63-.23c1.51,0,1.85.78,1.85,2.09v2.61a.23.23,0,0,1-.22.23h-.44c-.08,0-.14,0-.2-.17l-.15-.32a2.06,2.06,0,0,1-1.46.61,1.54,1.54,0,0,1-1.62-1.65C97.27,347.24,98,346.58,99.19,346.58Zm0,2.14a1.11,1.11,0,0,0,.83-.47v-.66a1.79,1.79,0,0,0-.67-.15c-.47,0-.78.27-.78.65A.6.6,0,0,0,99.21,348.72Z"/><path class="cls-9" d="M102.74,345a.23.23,0,0,1,.23-.23h.46a.2.2,0,0,1,.2.15l.17.44a2.37,2.37,0,0,1,1.69-.71,2.11,2.11,0,0,1,2.14,2.39v2.31a.24.24,0,0,1-.23.23h-1a.23.23,0,0,1-.23-.23V347c0-.62-.32-1-.9-1a1.21,1.21,0,0,0-1.13.76v2.64c0,.17-.07.23-.3.23H103a.24.24,0,0,1-.23-.23Z"/><path class="cls-9" d="M111,344.69a2.94,2.94,0,0,1,1.07.22v-3.47a.24.24,0,0,1,.23-.23h1a.24.24,0,0,1,.23.23v7.95a.24.24,0,0,1-.23.23h-.47c-.11,0-.19-.1-.23-.23l-.12-.37a2.09,2.09,0,0,1-1.57.72,2.4,2.4,0,0,1-2.3-2.52A2.37,2.37,0,0,1,111,344.69Zm.11,3.75a1,1,0,0,0,1-.78v-1.39a1.56,1.56,0,0,0-.94-.28,1.18,1.18,0,0,0-1.16,1.23A1.14,1.14,0,0,0,111.1,348.44Z"/><path class="cls-9" d="M119.82,344.69a2.2,2.2,0,0,1,1.78.86.22.22,0,0,1-.06.33l-.56.53c-.1.1-.21,0-.3,0a1.11,1.11,0,0,0-.82-.39,1.21,1.21,0,0,0-1.18,1.23,1.19,1.19,0,0,0,1.16,1.22,1.21,1.21,0,0,0,1-.46.23.23,0,0,1,.3,0l.52.44c.12.1.17.22.09.34a2.14,2.14,0,0,1-1.9,1,2.53,2.53,0,0,1-2.55-2.52A2.57,2.57,0,0,1,119.82,344.69Z"/><path class="cls-9" d="M124.84,344.69a2.53,2.53,0,1,1-2.46,2.51A2.51,2.51,0,0,1,124.84,344.69Zm0,3.75A1.19,1.19,0,0,0,126,347.2a1.15,1.15,0,1,0-1.15,1.24Z"/><path class="cls-9" d="M128.37,345a.23.23,0,0,1,.23-.23h.45a.22.22,0,0,1,.21.15l.17.44a2.37,2.37,0,0,1,1.69-.71,2.12,2.12,0,0,1,2.14,2.39v2.31a.24.24,0,0,1-.23.23h-1a.22.22,0,0,1-.22-.23V347c0-.62-.33-1-.9-1a1.2,1.2,0,0,0-1.13.76v2.64c0,.17-.07.23-.3.23h-.89a.24.24,0,0,1-.23-.23Z"/><path class="cls-9" d="M134.84,346.08h-.41a.22.22,0,0,1-.22-.23V345a.22.22,0,0,1,.22-.23h.41v-1.29a2.19,2.19,0,0,1,2.25-2.43,2.41,2.41,0,0,1,1.42.47.24.24,0,0,1,0,.28l-.41.76a.19.19,0,0,1-.28.06,1.61,1.61,0,0,0-.71-.24c-.52,0-.81.4-.81,1.1v1.29h1.2a.22.22,0,0,1,.23.23v.81a.23.23,0,0,1-.23.23h-1.2v3.31a.23.23,0,0,1-.22.23h-1.05a.24.24,0,0,1-.23-.23Z"/><path class="cls-9" d="M140.77,344.69a2.21,2.21,0,0,1,2.25,2.24c0,.08,0,.24,0,.32a.24.24,0,0,1-.23.21h-3.08a1.15,1.15,0,0,0,1.16,1,1.61,1.61,0,0,0,.93-.3c.12-.07.23-.1.32,0l.49.57a.2.2,0,0,1,0,.31,2.61,2.61,0,0,1-1.79.66,2.53,2.53,0,0,1,0-5.05Zm.85,1.93a.9.9,0,0,0-.88-.82,1,1,0,0,0-.94.82Z"/><path class="cls-9" d="M144,345a.23.23,0,0,1,.23-.23h.45a.22.22,0,0,1,.22.16l.17.47a1.68,1.68,0,0,1,1.36-.75c.56,0,1.06.18.92.48l-.45.79a.2.2,0,0,1-.27.1,1.5,1.5,0,0,0-.35-.07,1,1,0,0,0-.85.49v2.91c0,.17-.11.23-.28.23h-.92a.24.24,0,0,1-.23-.23Z"/><path class="cls-9" d="M150.18,344.69a2.21,2.21,0,0,1,2.24,2.24c0,.08,0,.24,0,.32a.24.24,0,0,1-.23.21H149.1a1.13,1.13,0,0,0,1.15,1,1.67,1.67,0,0,0,.94-.3c.12-.07.22-.1.31,0l.49.57a.2.2,0,0,1,0,.31,2.61,2.61,0,0,1-1.79.66,2.53,2.53,0,0,1,0-5.05Zm.84,1.93a.9.9,0,0,0-.88-.82,1,1,0,0,0-.94.82Z"/><path class="cls-9" d="M153.43,345a.23.23,0,0,1,.23-.23h.46a.21.21,0,0,1,.2.15l.17.44a2.37,2.37,0,0,1,1.69-.71,2.11,2.11,0,0,1,2.14,2.39v2.31a.24.24,0,0,1-.23.23h-1a.23.23,0,0,1-.23-.23V347c0-.62-.33-1-.9-1a1.2,1.2,0,0,0-1.13.76v2.64c0,.17-.07.23-.3.23h-.89a.24.24,0,0,1-.23-.23Z"/><path class="cls-9" d="M161.85,344.69a2.2,2.2,0,0,1,1.78.86.22.22,0,0,1-.06.33l-.56.53c-.1.1-.21,0-.3,0a1.11,1.11,0,0,0-.82-.39,1.21,1.21,0,0,0-1.18,1.23,1.18,1.18,0,0,0,1.16,1.22,1.21,1.21,0,0,0,1-.46.23.23,0,0,1,.3,0l.52.44c.12.1.17.22.08.34a2.11,2.11,0,0,1-1.89,1,2.53,2.53,0,0,1-2.55-2.52A2.57,2.57,0,0,1,161.85,344.69Z"/><path class="cls-9" d="M166.87,344.69a2.2,2.2,0,0,1,2.24,2.24c0,.08,0,.24,0,.32a.24.24,0,0,1-.23.21h-3.07a1.13,1.13,0,0,0,1.15,1,1.67,1.67,0,0,0,.94-.3c.12-.07.23-.1.31,0l.49.57a.19.19,0,0,1,0,.31,2.61,2.61,0,0,1-1.79.66,2.53,2.53,0,0,1,0-5.05Zm.84,1.93a.9.9,0,0,0-.88-.82.94.94,0,0,0-.93.82Z"/><path class="cls-9" d="M174.25,353c0,.15-.07.23-.28.23h-1a.24.24,0,0,1-.23-.23V345a.23.23,0,0,1,.23-.23h.46a.22.22,0,0,1,.21.15l.15.39a2.08,2.08,0,0,1,1.55-.66,2.42,2.42,0,0,1,2.32,2.53,2.45,2.45,0,0,1-2.38,2.52,2.34,2.34,0,0,1-1.07-.27Zm.88-4.55a1.18,1.18,0,0,0,1.17-1.22,1.15,1.15,0,0,0-1.12-1.23,1.05,1.05,0,0,0-1,.73v1.44A1.56,1.56,0,0,0,175.13,348.44Z"/><path class="cls-9" d="M180.35,346.58a3.09,3.09,0,0,1,.88.13c0-.61-.18-.83-.62-.83a6,6,0,0,0-1.35.18c-.17.05-.25-.06-.27-.21l-.11-.63a.23.23,0,0,1,.17-.3,6.6,6.6,0,0,1,1.63-.23c1.5,0,1.85.78,1.85,2.09v2.61a.24.24,0,0,1-.23.23h-.43c-.09,0-.15,0-.21-.17l-.14-.32a2.08,2.08,0,0,1-1.46.61,1.54,1.54,0,0,1-1.63-1.65C178.43,347.24,179.13,346.58,180.35,346.58Zm0,2.14a1.13,1.13,0,0,0,.83-.47v-.66a1.87,1.87,0,0,0-.68-.15.69.69,0,0,0-.78.65A.61.61,0,0,0,180.38,348.72Z"/><path class="cls-9" d="M185.39,353c0,.15-.08.23-.29.23h-1a.24.24,0,0,1-.23-.23V345a.23.23,0,0,1,.23-.23h.47a.22.22,0,0,1,.2.15l.16.39a2.06,2.06,0,0,1,1.55-.66,2.41,2.41,0,0,1,2.31,2.53,2.45,2.45,0,0,1-2.37,2.52,2.3,2.3,0,0,1-1.07-.27Zm.87-4.55a1.18,1.18,0,0,0,1.17-1.22,1.15,1.15,0,0,0-1.12-1.23,1,1,0,0,0-1,.73v1.44A1.51,1.51,0,0,0,186.26,348.44Z"/><path class="cls-9" d="M192,344.69a2.21,2.21,0,0,1,2.25,2.24,1.73,1.73,0,0,1,0,.32.23.23,0,0,1-.22.21h-3.08a1.15,1.15,0,0,0,1.16,1,1.61,1.61,0,0,0,.93-.3c.12-.07.23-.1.31,0l.5.57a.2.2,0,0,1,0,.31,2.56,2.56,0,0,1-1.78.66,2.53,2.53,0,0,1,0-5.05Zm.84,1.93a.89.89,0,0,0-.87-.82,1,1,0,0,0-.94.82Z"/><path class="cls-9" d="M195.26,345a.23.23,0,0,1,.23-.23h.45a.22.22,0,0,1,.22.16l.17.47a1.66,1.66,0,0,1,1.35-.75c.57,0,1.07.18.93.48l-.45.79a.21.21,0,0,1-.27.1,1.5,1.5,0,0,0-.35-.07,1,1,0,0,0-.85.49v2.91c0,.17-.11.23-.28.23h-.92a.24.24,0,0,1-.23-.23Z"/><path class="cls-9" d="M199.09,349l.32-.65a.18.18,0,0,1,.28-.08,2.66,2.66,0,0,0,1.09.29c.24,0,.41-.1.41-.3s-.17-.35-.8-.6c-.93-.36-1.36-.86-1.36-1.59s.54-1.42,1.76-1.42a2.74,2.74,0,0,1,1.48.38.25.25,0,0,1,.11.32l-.3.61a.24.24,0,0,1-.29.09,2.87,2.87,0,0,0-1-.25c-.28,0-.4.12-.4.27s.21.29.66.47c.92.36,1.62.76,1.62,1.69s-.7,1.47-1.91,1.47a2.64,2.64,0,0,1-1.6-.45A.2.2,0,0,1,199.09,349Z"/><path class="cls-9" d="M716.08,157.79a4,4,0,0,1,2.9,1.12.22.22,0,0,1,0,.33l-.94,1a.22.22,0,0,1-.3,0,2.45,2.45,0,0,0-1.62-.62,2.46,2.46,0,0,0,0,4.92,2.56,2.56,0,0,0,1.61-.58.24.24,0,0,1,.31,0l.94,1a.24.24,0,0,1,0,.32,4.15,4.15,0,0,1-2.92,1.17,4.33,4.33,0,1,1,0-8.65Z"/><path class="cls-9" d="M720.44,158.14a.23.23,0,0,1,.23-.23h1.42a.24.24,0,0,1,.23.23v6.41h2.86a.23.23,0,0,1,.23.23v1.31a.23.23,0,0,1-.23.23h-4.51a.23.23,0,0,1-.23-.23Z"/><path class="cls-9" d="M730.22,157.79a4.33,4.33,0,1,1-4.31,4.34A4.31,4.31,0,0,1,730.22,157.79Zm0,6.73a2.41,2.41,0,1,0-2.38-2.39A2.41,2.41,0,0,0,730.22,164.52Z"/><path class="cls-9" d="M735.52,165.18l.57-1a.29.29,0,0,1,.4-.07,3.68,3.68,0,0,0,1.71.66.75.75,0,0,0,.83-.72c0-.51-.42-.89-1.24-1.22-1-.4-2.33-1.21-2.33-2.65a2.49,2.49,0,0,1,2.77-2.39,4.49,4.49,0,0,1,2.57.9.32.32,0,0,1,.08.39l-.62.92c-.08.13-.3.24-.4.16a3.8,3.8,0,0,0-1.72-.72.7.7,0,0,0-.76.61c0,.44.36.78,1.31,1.16s2.43,1.11,2.43,2.74a2.64,2.64,0,0,1-2.84,2.49,3.79,3.79,0,0,1-2.7-.93C735.46,165.39,735.42,165.34,735.52,165.18Z"/><path class="cls-9" d="M742.58,158.14a.23.23,0,0,1,.23-.23h5a.23.23,0,0,1,.23.23v1.31a.23.23,0,0,1-.23.23h-3.32v1.48h2.73a.24.24,0,0,1,.23.23v1.31a.23.23,0,0,1-.23.23h-2.73v1.62h3.32a.23.23,0,0,1,.23.23v1.31a.23.23,0,0,1-.23.23h-5a.23.23,0,0,1-.23-.23Z"/><path class="cls-9" d="M749.62,158.14a.23.23,0,0,1,.22-.23h2.93a4.21,4.21,0,1,1,0,8.41h-2.93a.23.23,0,0,1-.22-.23Zm3,6.4a2.43,2.43,0,0,0,0-4.86h-1.15v4.86Z"/><path class="cls-9" d="M711.69,183.22c.8-1,2.31-2.93,3.12-4a2.27,2.27,0,0,0,.61-1.33,1.14,1.14,0,0,0-1.28-1.09,2,2,0,0,0-1.34.71.24.24,0,0,1-.33,0l-.57-.58a.23.23,0,0,1,0-.31,3.3,3.3,0,0,1,2.36-1.18,2.42,2.42,0,0,1,2.68,2.39,3.28,3.28,0,0,1-.8,1.95c-.52.73-1.43,1.86-2.07,2.66h2.59a.24.24,0,0,1,.23.23v.83a.24.24,0,0,1-.23.23h-4.73a.23.23,0,0,1-.23-.23Z"/><path class="cls-9" d="M717.92,183.22c.79-1,2.3-2.93,3.11-4a2.27,2.27,0,0,0,.61-1.33,1.13,1.13,0,0,0-1.27-1.09,2,2,0,0,0-1.35.71.22.22,0,0,1-.32,0l-.58-.58a.23.23,0,0,1,0-.31,3.3,3.3,0,0,1,2.36-1.18,2.42,2.42,0,0,1,2.68,2.39,3.28,3.28,0,0,1-.8,1.95c-.52.73-1.43,1.86-2.07,2.66h2.6a.23.23,0,0,1,.22.23v.83a.23.23,0,0,1-.22.23h-4.74a.22.22,0,0,1-.22-.23Z"/><path class="cls-9" d="M727.14,179.15a.23.23,0,0,1,.23-.23h.44a.21.21,0,0,1,.21.14l.16.45a2.2,2.2,0,0,1,1.61-.71,1.88,1.88,0,0,1,1.56.75,2.45,2.45,0,0,1,1.7-.75c1.53,0,2.1,1.14,2.1,2.41v2.29a.23.23,0,0,1-.23.23h-1a.23.23,0,0,1-.23-.23v-2.38c0-.62-.3-1-.9-1a1.2,1.2,0,0,0-1,.51s0,.24,0,.45v2.44a.24.24,0,0,1-.23.23h-.9a.22.22,0,0,1-.22-.23v-2.38c0-.62-.28-1-.89-1a1.06,1.06,0,0,0-1,.76v2.64a.24.24,0,0,1-.23.23h-1a.24.24,0,0,1-.23-.23Z"/><path class="cls-9" d="M736.39,176.39a.82.82,0,0,1,.81-.83.83.83,0,1,1,0,1.66A.82.82,0,0,1,736.39,176.39Zm.1,2.76a.23.23,0,0,1,.23-.23h1a.23.23,0,0,1,.23.23v4.35a.24.24,0,0,1-.23.23h-1a.24.24,0,0,1-.23-.23Z"/><path class="cls-9" d="M739.39,175.55a.24.24,0,0,1,.23-.23h1a.24.24,0,0,1,.23.23v7.95a.24.24,0,0,1-.23.23h-1a.24.24,0,0,1-.23-.23Z"/><path class="cls-9" d="M742.29,175.55a.24.24,0,0,1,.23-.23h1a.24.24,0,0,1,.23.23v7.95a.24.24,0,0,1-.23.23h-1a.24.24,0,0,1-.23-.23Z"/><path class="cls-9" d="M745.09,176.39a.82.82,0,0,1,.82-.83.83.83,0,1,1,0,1.66A.82.82,0,0,1,745.09,176.39Zm.11,2.76a.23.23,0,0,1,.23-.23h1a.22.22,0,0,1,.22.23v4.35a.23.23,0,0,1-.22.23h-1a.24.24,0,0,1-.23-.23Z"/><path class="cls-9" d="M750.18,178.8a2.53,2.53,0,1,1-2.46,2.51A2.52,2.52,0,0,1,750.18,178.8Zm0,3.75a1.2,1.2,0,0,0,1.16-1.24,1.16,1.16,0,1,0-1.16,1.24Z"/><path class="cls-9" d="M753.72,179.15a.22.22,0,0,1,.22-.23h.46a.2.2,0,0,1,.2.15l.17.44a2.38,2.38,0,0,1,1.7-.71,2.11,2.11,0,0,1,2.13,2.39v2.31a.24.24,0,0,1-.23.23h-1a.23.23,0,0,1-.23-.23v-2.38c0-.62-.32-1-.9-1a1.21,1.21,0,0,0-1.13.76v2.64c0,.17-.07.23-.3.23h-.89a.23.23,0,0,1-.22-.23Z"/><path class="cls-9" d="M713.52,201.51c0,.15-.07.23-.29.23h-1a.24.24,0,0,1-.23-.23v-7.95a.23.23,0,0,1,.23-.23h.47a.21.21,0,0,1,.2.15l.16.39a2.08,2.08,0,0,1,1.55-.66,2.42,2.42,0,0,1,2.32,2.53,2.45,2.45,0,0,1-2.38,2.52,2.34,2.34,0,0,1-1.07-.27Zm.88-4.55a1.17,1.17,0,0,0,1.16-1.22,1.15,1.15,0,0,0-1.12-1.23,1,1,0,0,0-1,.73v1.44A1.56,1.56,0,0,0,714.4,197Z"/><path class="cls-9" d="M718,193.56a.23.23,0,0,1,.23-.23h1a.22.22,0,0,1,.22.23v2.37c0,.63.33,1,.88,1a1.05,1.05,0,0,0,1-.9v-2.5c0-.18.07-.23.27-.23h.91a.23.23,0,0,1,.23.23v4.35a.24.24,0,0,1-.23.23H722a.24.24,0,0,1-.22-.18l-.15-.4a2.14,2.14,0,0,1-1.61.7c-1.49,0-2-1.14-2-2.37Z"/><path class="cls-9" d="M724.09,190a.24.24,0,0,1,.23-.23h1a.23.23,0,0,1,.22.23v3.47a3,3,0,0,1,1.07-.22,2.53,2.53,0,0,1,.08,5,2.13,2.13,0,0,1-1.58-.72l-.12.37a.26.26,0,0,1-.23.23h-.46a.24.24,0,0,1-.23-.23Zm2.44,7a1.14,1.14,0,0,0,1.09-1.22,1.18,1.18,0,0,0-1.17-1.23,1.51,1.51,0,0,0-.93.28v1.39A1,1,0,0,0,726.53,197Z"/><path class="cls-9" d="M730.09,190a.24.24,0,0,1,.23-.23h1a.24.24,0,0,1,.23.23v7.95a.24.24,0,0,1-.23.23h-1a.24.24,0,0,1-.23-.23Z"/><path class="cls-9" d="M732.89,190.8a.82.82,0,0,1,.82-.83.83.83,0,1,1,0,1.66A.82.82,0,0,1,732.89,190.8Zm.11,2.76a.23.23,0,0,1,.23-.23h1a.23.23,0,0,1,.23.23v4.35a.24.24,0,0,1-.23.23h-1a.24.24,0,0,1-.23-.23Z"/><path class="cls-9" d="M738.08,193.21a2.2,2.2,0,0,1,1.78.86.22.22,0,0,1-.06.33l-.56.53c-.1.1-.21,0-.3,0a1.11,1.11,0,0,0-.82-.39,1.21,1.21,0,0,0-1.18,1.23A1.18,1.18,0,0,0,738.1,197a1.21,1.21,0,0,0,1-.46.23.23,0,0,1,.3,0l.52.44c.12.1.17.22.08.34a2.11,2.11,0,0,1-1.89,1,2.53,2.53,0,0,1-2.55-2.52A2.57,2.57,0,0,1,738.08,193.21Z"/><path class="cls-9" d="M742.58,195.1a3.18,3.18,0,0,1,.88.13c0-.61-.18-.83-.63-.83a6,6,0,0,0-1.34.18c-.17,0-.25-.06-.28-.21l-.11-.63a.25.25,0,0,1,.17-.3,6.81,6.81,0,0,1,1.64-.23c1.5,0,1.85.78,1.85,2.09v2.61a.24.24,0,0,1-.23.23h-.43c-.09,0-.15,0-.21-.17l-.14-.32a2.08,2.08,0,0,1-1.47.61,1.54,1.54,0,0,1-1.62-1.65C740.66,195.76,741.36,195.1,742.58,195.1Zm0,2.14a1.11,1.11,0,0,0,.82-.47v-.66a1.79,1.79,0,0,0-.67-.15c-.47,0-.78.27-.78.65A.6.6,0,0,0,742.61,197.24Z"/><path class="cls-9" d="M746.39,194.6H746a.22.22,0,0,1-.21-.23v-.81a.22.22,0,0,1,.21-.23h.41V192a.24.24,0,0,1,.23-.23h1a.23.23,0,0,1,.22.23v1.34h1.06a.22.22,0,0,1,.22.23v.81a.22.22,0,0,1-.22.23h-1.06v1.92c0,.33.18.38.37.38a1.91,1.91,0,0,0,.59-.13.18.18,0,0,1,.26.13l.24.76a.22.22,0,0,1-.13.29,4.72,4.72,0,0,1-1.43.31c-.92,0-1.33-.58-1.33-1.55Z"/><path class="cls-9" d="M750.17,190.8A.82.82,0,0,1,751,190a.83.83,0,1,1,0,1.66A.82.82,0,0,1,750.17,190.8Zm.11,2.76a.23.23,0,0,1,.23-.23h1a.23.23,0,0,1,.23.23v4.35a.24.24,0,0,1-.23.23h-1a.24.24,0,0,1-.23-.23Z"/><path class="cls-9" d="M755.26,193.21a2.53,2.53,0,1,1-2.46,2.51A2.51,2.51,0,0,1,755.26,193.21Zm0,3.75a1.2,1.2,0,0,0,1.16-1.24,1.19,1.19,0,0,0-1.16-1.21,1.17,1.17,0,0,0-1.15,1.21A1.18,1.18,0,0,0,755.26,197Z"/><path class="cls-9" d="M758.79,193.56a.23.23,0,0,1,.23-.23h.46a.2.2,0,0,1,.2.15l.17.44a2.37,2.37,0,0,1,1.69-.71,2.11,2.11,0,0,1,2.14,2.39v2.31a.24.24,0,0,1-.23.23h-1a.23.23,0,0,1-.23-.23v-2.38c0-.62-.32-1-.9-1a1.21,1.21,0,0,0-1.13.76v2.64c0,.17-.07.23-.3.23H759a.24.24,0,0,1-.23-.23Z"/><path class="cls-9" d="M764.76,197.56l.33-.65c0-.12.16-.14.27-.08a2.67,2.67,0,0,0,1.1.29c.24,0,.4-.1.4-.3s-.16-.35-.8-.6c-.93-.36-1.36-.86-1.36-1.59s.54-1.42,1.77-1.42a2.7,2.7,0,0,1,1.47.38.25.25,0,0,1,.11.32l-.3.61a.24.24,0,0,1-.29.09,2.86,2.86,0,0,0-1-.25c-.29,0-.41.12-.41.27s.22.29.66.47c.92.36,1.62.76,1.62,1.69s-.7,1.47-1.91,1.47a2.69,2.69,0,0,1-1.6-.45A.2.2,0,0,1,764.76,197.56Z"/><path class="cls-9" d="M713.62,209.51a3.06,3.06,0,0,1,.87.13c0-.61-.18-.83-.62-.83a6,6,0,0,0-1.35.18c-.16,0-.25-.06-.27-.21l-.11-.63a.23.23,0,0,1,.17-.3,6.6,6.6,0,0,1,1.63-.23c1.5,0,1.85.79,1.85,2.09v2.61a.24.24,0,0,1-.23.23h-.43c-.08,0-.14,0-.2-.17l-.15-.32a2.06,2.06,0,0,1-1.46.61,1.54,1.54,0,0,1-1.63-1.65C711.69,210.17,712.39,209.51,713.62,209.51Zm0,2.14a1.13,1.13,0,0,0,.83-.47v-.66a1.86,1.86,0,0,0-.67-.15c-.47,0-.78.27-.78.65A.6.6,0,0,0,713.64,211.65Z"/><path class="cls-9" d="M717.17,208a.23.23,0,0,1,.23-.23h.46a.23.23,0,0,1,.21.16l.17.47a1.68,1.68,0,0,1,1.36-.75c.56,0,1.07.19.92.49l-.44.78a.22.22,0,0,1-.28.1,1.39,1.39,0,0,0-.35-.07,1,1,0,0,0-.85.49v2.91c0,.17-.11.23-.28.23h-.92a.24.24,0,0,1-.23-.23Z"/><path class="cls-9" d="M723.32,207.62a2.2,2.2,0,0,1,2.24,2.24c0,.08,0,.24,0,.32a.24.24,0,0,1-.23.21h-3.07a1.13,1.13,0,0,0,1.15,1,1.67,1.67,0,0,0,.94-.3c.12-.07.23-.09.31,0l.49.57a.19.19,0,0,1,0,.31,2.61,2.61,0,0,1-1.79.66,2.53,2.53,0,0,1,0-5Zm.84,1.93a.9.9,0,0,0-.88-.82.94.94,0,0,0-.93.82Z"/><path class="cls-9" d="M730.7,215.92c0,.15-.07.23-.28.23h-1a.24.24,0,0,1-.23-.23V208a.23.23,0,0,1,.23-.23h.46a.22.22,0,0,1,.21.15l.15.4a2.08,2.08,0,0,1,1.55-.67,2.42,2.42,0,0,1,2.32,2.53,2.45,2.45,0,0,1-2.38,2.52,2.38,2.38,0,0,1-1.07-.27Zm.88-4.55a1.18,1.18,0,0,0,1.17-1.22,1.15,1.15,0,0,0-1.12-1.23,1.05,1.05,0,0,0-1,.73v1.45A1.59,1.59,0,0,0,731.58,211.37Z"/><path class="cls-9" d="M736.81,209.51a3.06,3.06,0,0,1,.87.13c0-.61-.18-.83-.62-.83a6,6,0,0,0-1.35.18c-.16,0-.25-.06-.27-.21l-.11-.63a.23.23,0,0,1,.17-.3,6.6,6.6,0,0,1,1.63-.23c1.5,0,1.85.79,1.85,2.09v2.61a.24.24,0,0,1-.23.23h-.43c-.09,0-.14,0-.21-.17l-.14-.32a2.08,2.08,0,0,1-1.46.61,1.54,1.54,0,0,1-1.63-1.65C734.88,210.17,735.58,209.51,736.81,209.51Zm0,2.14a1.13,1.13,0,0,0,.83-.47v-.66a1.86,1.86,0,0,0-.67-.15c-.47,0-.78.27-.78.65A.6.6,0,0,0,736.83,211.65Z"/><path class="cls-9" d="M739.74,208.06a.21.21,0,0,1,.2-.32H741a.21.21,0,0,1,.2.14l1.22,2.71h0l1.2-2.71c.06-.12.15-.14.29-.14h1a.21.21,0,0,1,.2.32L741.43,216a.25.25,0,0,1-.21.14h-1a.21.21,0,0,1-.2-.32l1.7-3.62Z"/><path class="cls-9" d="M745.42,208c-.07-.16,0-.28.2-.28h.87a.25.25,0,0,1,.21.15l.72,2.15h0l1.23-2.31a.21.21,0,0,1,.19-.11h.1a.2.2,0,0,1,.19.11l1.21,2.31h0l.72-2.15c0-.13.15-.15.28-.15h.78c.17,0,.28.12.22.28l-1.5,4.52a.22.22,0,0,1-.22.13h0a.22.22,0,0,1-.19-.11l-1.51-2.8h0l-1.51,2.8a.2.2,0,0,1-.19.11h-.06a.19.19,0,0,1-.2-.13Z"/><path class="cls-9" d="M754.89,209.51a3.18,3.18,0,0,1,.88.13c0-.61-.18-.83-.63-.83a6,6,0,0,0-1.34.18c-.17,0-.25-.06-.28-.21l-.11-.63a.24.24,0,0,1,.17-.3,6.81,6.81,0,0,1,1.64-.23c1.5,0,1.84.79,1.84,2.09v2.61a.23.23,0,0,1-.22.23h-.44c-.08,0-.14,0-.2-.17l-.14-.32a2.08,2.08,0,0,1-1.47.61A1.54,1.54,0,0,1,753,211C753,210.17,753.67,209.51,754.89,209.51Zm0,2.14a1.11,1.11,0,0,0,.82-.47v-.66a1.79,1.79,0,0,0-.67-.15c-.47,0-.78.27-.78.65A.6.6,0,0,0,754.92,211.65Z"/><path class="cls-9" d="M758.45,204.37a.23.23,0,0,1,.22-.23h1a.24.24,0,0,1,.23.23v7.95a.24.24,0,0,1-.23.23h-1a.23.23,0,0,1-.22-.23Z"/><path class="cls-9" d="M761.35,204.37a.24.24,0,0,1,.23-.23h1a.24.24,0,0,1,.23.23v7.95a.24.24,0,0,1-.23.23h-1a.24.24,0,0,1-.23-.23Z"/><path class="cls-9" d="M766.35,207.62a2.2,2.2,0,0,1,2.24,2.24c0,.08,0,.24,0,.32a.24.24,0,0,1-.23.21h-3.07a1.13,1.13,0,0,0,1.15,1,1.67,1.67,0,0,0,.94-.3c.12-.07.23-.09.31,0l.49.57a.19.19,0,0,1,0,.31,2.61,2.61,0,0,1-1.79.66,2.53,2.53,0,0,1,0-5Zm.84,1.93a.9.9,0,0,0-.88-.82.94.94,0,0,0-.93.82Z"/><path class="cls-9" d="M771.62,207.62a3,3,0,0,1,1.07.22v-3.47a.24.24,0,0,1,.23-.23h1a.24.24,0,0,1,.23.23v7.95a.24.24,0,0,1-.23.23h-.47c-.11,0-.19-.1-.23-.23l-.12-.37a2.09,2.09,0,0,1-1.57.72,2.41,2.41,0,0,1-2.31-2.52A2.38,2.38,0,0,1,771.62,207.62Zm.11,3.75a1.06,1.06,0,0,0,1-.78V209.2a1.56,1.56,0,0,0-.94-.28,1.18,1.18,0,0,0-1.16,1.23A1.14,1.14,0,0,0,771.73,211.37Z"/><path class="cls-9" d="M714.13,222a2.53,2.53,0,1,1-2.46,2.51A2.51,2.51,0,0,1,714.13,222Zm0,3.75a1.2,1.2,0,0,0,1.16-1.24,1.19,1.19,0,0,0-1.16-1.21,1.17,1.17,0,0,0-1.15,1.21A1.18,1.18,0,0,0,714.13,225.78Z"/><path class="cls-9" d="M717.66,222.38a.23.23,0,0,1,.23-.23h.46a.21.21,0,0,1,.2.15l.17.44a2.37,2.37,0,0,1,1.69-.71,2.11,2.11,0,0,1,2.14,2.39v2.31a.24.24,0,0,1-.23.23h-1a.23.23,0,0,1-.23-.23v-2.38c0-.62-.32-1-.9-1a1.2,1.2,0,0,0-1.13.76v2.64c0,.17-.07.23-.3.23h-.89a.24.24,0,0,1-.23-.23Z"/><path class="cls-9" d="M726.8,223.42h-.41a.22.22,0,0,1-.21-.23v-.81a.22.22,0,0,1,.21-.23h.41v-1.33a.24.24,0,0,1,.23-.23h1a.22.22,0,0,1,.21.23v1.34h1.06a.23.23,0,0,1,.23.23v.81a.23.23,0,0,1-.23.23h-1.06v1.92c0,.33.18.38.37.38a1.84,1.84,0,0,0,.59-.13.19.19,0,0,1,.27.13l.24.76a.23.23,0,0,1-.14.29,4.72,4.72,0,0,1-1.42.31c-.93,0-1.34-.58-1.34-1.55Z"/><path class="cls-9" d="M730.69,218.78a.24.24,0,0,1,.23-.23h1a.24.24,0,0,1,.23.23v3.65a2.21,2.21,0,0,1,1.27-.4,2.13,2.13,0,0,1,2.15,2.39v2.31a.24.24,0,0,1-.23.23h-1a.23.23,0,0,1-.23-.23v-2.32a1,1,0,0,0-.95-1.08,1,1,0,0,0-1,.85v2.55c0,.13-.07.23-.25.23h-1a.24.24,0,0,1-.23-.23Z"/><path class="cls-9" d="M739,222a2.21,2.21,0,0,1,2.24,2.24c0,.08,0,.24,0,.32a.24.24,0,0,1-.23.21H738a1.13,1.13,0,0,0,1.15,1,1.61,1.61,0,0,0,.93-.3c.12-.07.23-.09.32,0l.49.57a.2.2,0,0,1,0,.31,2.61,2.61,0,0,1-1.79.66,2.53,2.53,0,0,1,0-5.05Zm.84,1.93a.9.9,0,0,0-.88-.82,1,1,0,0,0-.94.82Z"/><path class="cls-9" d="M713.52,244.74c0,.15-.07.23-.29.23h-1a.24.24,0,0,1-.23-.23v-8a.22.22,0,0,1,.23-.22h.47a.2.2,0,0,1,.2.14l.16.4a2.08,2.08,0,0,1,1.55-.66A2.41,2.41,0,0,1,717,239a2.44,2.44,0,0,1-2.38,2.52,2.5,2.5,0,0,1-1.07-.26Zm.88-4.55a1.17,1.17,0,0,0,1.16-1.22,1.15,1.15,0,0,0-1.12-1.23,1,1,0,0,0-1,.74v1.44A1.59,1.59,0,0,0,714.4,240.19Z"/><path class="cls-9" d="M718,236.79a.22.22,0,0,1,.23-.22h1a.22.22,0,0,1,.22.22v2.37c0,.64.33,1,.88,1a1.05,1.05,0,0,0,1-.9v-2.5c0-.18.07-.22.27-.22h.91a.22.22,0,0,1,.23.22v4.35a.24.24,0,0,1-.23.23H722a.23.23,0,0,1-.22-.18l-.15-.4a2.11,2.11,0,0,1-1.61.7c-1.49,0-2-1.14-2-2.37Z"/><path class="cls-9" d="M724.09,233.19a.24.24,0,0,1,.23-.23h1a.23.23,0,0,1,.22.23v3.47a3,3,0,0,1,1.07-.21A2.37,2.37,0,0,1,729,239a2.4,2.4,0,0,1-2.3,2.52,2.13,2.13,0,0,1-1.58-.72l-.12.37a.26.26,0,0,1-.23.23h-.46a.24.24,0,0,1-.23-.23Zm2.44,7a1.14,1.14,0,0,0,1.09-1.22,1.19,1.19,0,0,0-1.17-1.23,1.51,1.51,0,0,0-.93.28v1.39A1,1,0,0,0,726.53,240.19Z"/><path class="cls-9" d="M730.09,233.19a.24.24,0,0,1,.23-.23h1a.24.24,0,0,1,.23.23v7.95a.24.24,0,0,1-.23.23h-1a.24.24,0,0,1-.23-.23Z"/><path class="cls-9" d="M732.89,234a.83.83,0,0,1,.82-.83.83.83,0,1,1,0,1.66A.82.82,0,0,1,732.89,234Zm.11,2.76a.22.22,0,0,1,.23-.22h1a.22.22,0,0,1,.23.22v4.35a.24.24,0,0,1-.23.23h-1a.24.24,0,0,1-.23-.23Z"/><path class="cls-9" d="M735.63,240.79l.32-.64a.19.19,0,0,1,.28-.09,2.66,2.66,0,0,0,1.09.29c.24,0,.41-.1.41-.3s-.17-.35-.8-.6c-.93-.36-1.36-.85-1.36-1.59s.54-1.41,1.76-1.41a2.75,2.75,0,0,1,1.48.37.25.25,0,0,1,.11.32l-.3.62a.23.23,0,0,1-.29.08,2.87,2.87,0,0,0-1-.25c-.28,0-.4.12-.4.27s.21.29.66.47c.92.36,1.62.76,1.62,1.7,0,.79-.7,1.46-1.91,1.46a2.75,2.75,0,0,1-1.6-.44A.21.21,0,0,1,735.63,240.79Z"/><path class="cls-9" d="M740.27,233.19a.23.23,0,0,1,.22-.23h1a.24.24,0,0,1,.23.23v3.65a2.23,2.23,0,0,1,1.28-.39,2.13,2.13,0,0,1,2.14,2.39v2.3a.23.23,0,0,1-.22.23h-1a.22.22,0,0,1-.22-.23v-2.32a1,1,0,0,0-1-1.08,1,1,0,0,0-1,.86v2.54c0,.13-.07.23-.25.23h-1a.23.23,0,0,1-.22-.23Z"/><path class="cls-9" d="M748.6,236.45a2.19,2.19,0,0,1,2.24,2.23c0,.08,0,.24,0,.32a.24.24,0,0,1-.23.21h-3.07a1.13,1.13,0,0,0,1.15,1,1.67,1.67,0,0,0,.94-.3c.12-.07.23-.09.31,0l.49.57a.19.19,0,0,1,0,.31,2.61,2.61,0,0,1-1.79.66,2.52,2.52,0,0,1,0-5Zm.84,1.92a.9.9,0,0,0-.88-.82.94.94,0,0,0-.93.82Z"/><path class="cls-9" d="M751.85,236.79a.22.22,0,0,1,.23-.22h.46a.22.22,0,0,1,.21.15l.17.47a1.68,1.68,0,0,1,1.36-.74c.56,0,1.07.18.92.48l-.44.78a.22.22,0,0,1-.28.11.94.94,0,0,0-.35-.08,1,1,0,0,0-.85.5v2.9c0,.17-.11.23-.27.23h-.93a.24.24,0,0,1-.23-.23Z"/><path class="cls-9" d="M755.8,236.12a.18.18,0,0,1,0-.27,2,2,0,0,0,.81-1.47,1.22,1.22,0,0,1-.36.06.79.79,0,0,1-.8-.79.82.82,0,0,1,.85-.81c.43,0,1,.3,1,1.29a2.88,2.88,0,0,1-1.08,2.17c-.1.07-.18.09-.28,0Z"/><path class="cls-9" d="M758,240.79l.32-.64a.19.19,0,0,1,.28-.09,2.66,2.66,0,0,0,1.09.29c.24,0,.41-.1.41-.3s-.17-.35-.81-.6c-.92-.36-1.35-.85-1.35-1.59s.54-1.41,1.76-1.41a2.75,2.75,0,0,1,1.48.37.25.25,0,0,1,.11.32l-.3.62a.24.24,0,0,1-.29.08,2.87,2.87,0,0,0-1-.25c-.29,0-.41.12-.41.27s.22.29.66.47c.93.36,1.63.76,1.63,1.7,0,.79-.7,1.46-1.91,1.46a2.73,2.73,0,0,1-1.6-.44A.21.21,0,0,1,758,240.79Z"/><path class="cls-9" d="M711.54,251.25c-.07-.15,0-.27.2-.27h.87a.24.24,0,0,1,.21.14l.72,2.15h0l1.22-2.31a.23.23,0,0,1,.19-.1h.1a.19.19,0,0,1,.19.1l1.21,2.31h0l.72-2.15c0-.13.14-.14.27-.14h.78c.17,0,.28.12.22.27l-1.5,4.52a.22.22,0,0,1-.22.13h0a.22.22,0,0,1-.19-.11L715,253h0l-1.5,2.8a.23.23,0,0,1-.2.11h-.06a.2.2,0,0,1-.2-.13Z"/><path class="cls-9" d="M721.53,250.86a2.2,2.2,0,0,1,2.25,2.23c0,.08,0,.24,0,.32a.24.24,0,0,1-.23.21h-3.07a1.15,1.15,0,0,0,1.15,1,1.67,1.67,0,0,0,.94-.3c.12-.07.23-.09.31,0l.49.57a.19.19,0,0,1,0,.31,2.61,2.61,0,0,1-1.79.66,2.52,2.52,0,0,1,0-5Zm.84,1.92a.9.9,0,0,0-.88-.82.94.94,0,0,0-.93.82Z"/><path class="cls-9" d="M724.78,247.6a.24.24,0,0,1,.23-.23h1a.24.24,0,0,1,.23.23v3.47a3,3,0,0,1,1.07-.21,2.37,2.37,0,0,1,2.38,2.52,2.41,2.41,0,0,1-2.31,2.52,2.09,2.09,0,0,1-1.57-.72l-.12.37c0,.13-.12.23-.23.23H725a.24.24,0,0,1-.23-.23Zm2.44,7a1.14,1.14,0,0,0,1.09-1.22,1.18,1.18,0,0,0-1.16-1.23,1.56,1.56,0,0,0-.94.28v1.39A1.06,1.06,0,0,0,727.22,254.6Z"/><path class="cls-9" d="M730.52,255.2l.33-.64a.19.19,0,0,1,.28-.09,2.66,2.66,0,0,0,1.09.29c.24,0,.41-.1.41-.3s-.17-.35-.81-.6c-.92-.36-1.35-.85-1.35-1.59s.54-1.41,1.76-1.41a2.75,2.75,0,0,1,1.48.37.25.25,0,0,1,.11.32l-.3.62a.24.24,0,0,1-.29.08,2.87,2.87,0,0,0-1-.25c-.29,0-.41.12-.41.27s.22.29.66.47c.93.36,1.62.76,1.62,1.7,0,.79-.69,1.46-1.91,1.46a2.71,2.71,0,0,1-1.59-.44A.22.22,0,0,1,730.52,255.2Z"/><path class="cls-9" d="M735.05,248.44a.83.83,0,0,1,.82-.83.83.83,0,1,1,0,1.66A.82.82,0,0,1,735.05,248.44Zm.11,2.76a.22.22,0,0,1,.23-.22h1a.22.22,0,0,1,.22.22v4.35a.23.23,0,0,1-.22.23h-1a.24.24,0,0,1-.23-.23Z"/><path class="cls-9" d="M738.31,252.24h-.41a.23.23,0,0,1-.22-.23v-.81a.22.22,0,0,1,.22-.22h.41v-1.34a.23.23,0,0,1,.23-.22l1,0a.23.23,0,0,1,.22.23V251h1a.21.21,0,0,1,.23.22V252a.23.23,0,0,1-.23.23h-1v1.92c0,.33.18.38.37.38a2,2,0,0,0,.59-.13.18.18,0,0,1,.26.13l.24.76a.22.22,0,0,1-.13.29,4.72,4.72,0,0,1-1.43.31c-.92,0-1.33-.58-1.33-1.55Z"/><path class="cls-9" d="M744.29,250.86a2.2,2.2,0,0,1,2.24,2.23c0,.08,0,.24,0,.32a.24.24,0,0,1-.23.21h-3.07a1.13,1.13,0,0,0,1.15,1,1.67,1.67,0,0,0,.94-.3c.12-.07.22-.09.31,0l.49.57a.2.2,0,0,1,0,.31,2.61,2.61,0,0,1-1.79.66,2.52,2.52,0,0,1,0-5Zm.84,1.92a.9.9,0,0,0-.88-.82,1,1,0,0,0-.94.82Z"/><path class="cls-9" d="M748.23,253.92a1,1,0,0,1,1,1,1,1,0,1,1-1-1Z"/><path class="cls-13" d="M761.48,127.59a.65.65,0,0,1-.51-.24l-5.83-7.16L748,126a.65.65,0,0,1-.82-1l7.67-6.24a.65.65,0,0,1,.91.1l6.24,7.67a.65.65,0,0,1-.1.91A.67.67,0,0,1,761.48,127.59Z"/><path class="cls-13" d="M712.09,120a.69.69,0,0,1-.51-.24l-6.24-7.67a.65.65,0,0,1,.1-.91.64.64,0,0,1,.91.09l5.83,7.17,7.16-5.83a.65.65,0,0,1,.82,1l-7.67,6.24A.62.62,0,0,1,712.09,120Z"/><path class="cls-13" d="M733.65,141.49a22.28,22.28,0,0,1-19.24-11.11.64.64,0,1,1,1.12-.64,20.92,20.92,0,0,0,39-10.46.65.65,0,0,1,1.3,0A22.24,22.24,0,0,1,733.65,141.49Z"/><path class="cls-13" d="M712.09,119.92a.65.65,0,0,1-.65-.64,22.21,22.21,0,0,1,41.69-10.69.64.64,0,1,1-1.13.62,20.93,20.93,0,0,0-39.27,10.07A.64.64,0,0,1,712.09,119.92Z"/><path class="cls-14" d="M733.55,127.88a6.66,6.66,0,0,1-5.45-2.77.77.77,0,0,1,.14-1.09.78.78,0,0,1,1.1.14,5.49,5.49,0,0,0,6.9,1.53l.06,0a2.63,2.63,0,0,0,1.48-2.78,3.32,3.32,0,0,0-2.26-2.76l-4.19-1.24a4.08,4.08,0,0,1-3.29-4.16,3.88,3.88,0,0,1,1.31-3,6.46,6.46,0,0,1,4.46-1.29,5.69,5.69,0,0,1,5.55,3.83.8.8,0,0,1-.54,1,.79.79,0,0,1-1-.54,4.07,4.07,0,0,0-4.06-2.69,5,5,0,0,0-3.41.9,2.34,2.34,0,0,0-.77,1.8c0,1.38.65,2.2,2.17,2.65l4.18,1.24a4.86,4.86,0,0,1,3.38,4.12,4.23,4.23,0,0,1-2.41,4.35A7.58,7.58,0,0,1,733.55,127.88Z"/><path class="cls-14" d="M733.8,112a.78.78,0,0,1-.78-.78v-3.31a.78.78,0,0,1,1.56,0v3.31A.78.78,0,0,1,733.8,112Z"/><path class="cls-14" d="M733.8,131.39a.78.78,0,0,1-.78-.78v-3.3a.78.78,0,1,1,1.56,0v3.3A.78.78,0,0,1,733.8,131.39Z"/></g></g></svg>