<svg id="Layer_1" data-name="Layer 1" xmlns="http://www.w3.org/2000/svg" xmlns:xlink="http://www.w3.org/1999/xlink" viewBox="0 0 597.26 406.08"><defs><style>.cls-1,.cls-5{fill:none;}.cls-2{clip-path:url(#clip-path);}.cls-3{fill:#101820;}.cls-4{clip-path:url(#clip-path-2);}.cls-5{stroke:#ff671c;stroke-miterlimit:10;stroke-width:2.76px;}</style><clipPath id="clip-path"><rect class="cls-1" width="597.26" height="406.08"/></clipPath><clipPath id="clip-path-2"><ellipse class="cls-1" cx="240.77" cy="-61.16" rx="228.01" ry="228.73"/></clipPath></defs><g class="cls-2"><path class="cls-3" d="M763,397.4C522.36,397.4,326.55,201,326.55-40.46S522.36-478.33,763-478.33v209c-125.81,0-228.17,102.69-228.17,228.9S637.23,188.43,763,188.43,991.21,85.75,991.21-40.46h208.32C1199.53,201,1003.72,397.4,763,397.4Z"/><g class="cls-4"><path class="cls-5" d="M357.41-496.8-137.83,0"/><path class="cls-5" d="M366.76-487.42-128.48,9.38"/><path class="cls-5" d="M376.1-478-119.14,18.75"/><path class="cls-5" d="M385.45-468.67-109.79,28.13"/><path class="cls-5" d="M394.8-459.29-100.44,37.51"/><path class="cls-5" d="M404.15-449.92-91.1,46.88"/><path class="cls-5" d="M413.49-440.54-81.75,56.26"/><path class="cls-5" d="M422.84-431.16-72.4,65.64"/><path class="cls-5" d="M432.19-421.79-63,75"/><path class="cls-5" d="M441.53-412.41-53.71,84.39"/><path class="cls-5" d="M450.88-403-44.36,93.77"/><path class="cls-5" d="M460.23-393.66-35,103.14"/><path class="cls-5" d="M469.58-384.28-25.67,112.52"/><path class="cls-5" d="M478.92-374.9-16.32,121.89"/><path class="cls-5" d="M488.27-365.53-7,131.27"/><path class="cls-5" d="M497.62-356.15,2.38,140.65"/><path class="cls-5" d="M507-346.77,11.72,150"/><path class="cls-5" d="M516.31-337.4,21.07,159.4"/><path class="cls-5" d="M525.66-328,30.42,168.78"/><path class="cls-5" d="M535-318.65C420.52-203.79,154.25,63.3,39.76,178.15"/><path class="cls-5" d="M544.35-309.27,49.11,187.53"/><path class="cls-5" d="M553.7-299.89,58.46,196.91"/><path class="cls-5" d="M563.05-290.52,67.81,206.28"/><path class="cls-5" d="M572.39-281.14,77.15,215.66"/><path class="cls-5" d="M581.74-271.76,86.5,225"/><path class="cls-5" d="M591.09-262.39,95.85,234.41"/><path class="cls-5" d="M600.44-253,105.19,243.79"/><path class="cls-5" d="M609.78-243.63,114.54,253.17"/><path class="cls-5" d="M619.13-234.26,123.89,262.54"/><path class="cls-5" d="M628.48-224.88,133.24,271.92"/><path class="cls-5" d="M637.82-215.5,142.58,281.3"/><path class="cls-5" d="M647.17-206.13,151.93,290.67"/><path class="cls-5" d="M656.52-196.75,161.28,300.05"/><path class="cls-5" d="M665.87-187.37,170.62,309.43"/><path class="cls-5" d="M675.21-178,180,318.8"/></g></g></svg>