<?xml version="1.0" encoding="UTF-8" standalone="no"?>
<!-- Created with Inkscape (http://www.inkscape.org/) -->

<svg
   width="336.81393mm"
   height="62.292336mm"
   viewBox="0 0 336.81393 62.292336"
   version="1.1"
   id="svg5"
   inkscape:version="1.1 (c68e22c387, 2021-05-23)"
   xmlns:inkscape="http://www.inkscape.org/namespaces/inkscape"
   xmlns:sodipodi="http://sodipodi.sourceforge.net/DTD/sodipodi-0.dtd"
   xmlns="http://www.w3.org/2000/svg"
   xmlns:svg="http://www.w3.org/2000/svg">
  <sodipodi:namedview
     id="namedview7"
     pagecolor="#ffffff"
     bordercolor="#666666"
     borderopacity="1.0"
     inkscape:pageshadow="2"
     inkscape:pageopacity="0.0"
     inkscape:pagecheckerboard="0"
     inkscape:document-units="mm"
     showgrid="false"
     fit-margin-top="0"
     fit-margin-left="0"
     fit-margin-right="0"
     fit-margin-bottom="0"
     inkscape:zoom="0.77771465"
     inkscape:cx="689.84171"
     inkscape:cy="325.31212"
     inkscape:window-width="2558"
     inkscape:window-height="1368"
     inkscape:window-x="2553"
     inkscape:window-y="0"
     inkscape:window-maximized="0"
     inkscape:current-layer="layer1" />
  <defs
     id="defs2">
    <clipPath
       clipPathUnits="userSpaceOnUse"
       id="clipPath29">
      <path
         d="M 0,293.323 H 1071.496 V 0 H 0 Z"
         id="path27" />
    </clipPath>
    <clipPath
       clipPathUnits="userSpaceOnUse"
       id="clipPath457">
      <path
         d="M 0,293.323 H 1071.496 V 0 H 0 Z"
         id="path455" />
    </clipPath>
  </defs>
  <g
     inkscape:label="Layer 1"
     inkscape:groupmode="layer"
     id="layer1"
     transform="translate(50.695622,-16.822905)">
    <g
       id="g443"
       inkscape:label="COKI Logo - CMYK"
       transform="matrix(0.35277777,0,0,-0.35277777,-71.288689,99.708042)">
      <g
         id="g445"
         transform="translate(568.6963,65.7864)">
        <path
           d="m 0,0 h -55.224 l -55.464,71.226 V 0 h -42.711 v 164.227 h 42.711 V 96.491 l 52.095,67.736 H -6.016 L -71.105,86.505 Z"
           style="fill:#231f20;fill-opacity:1;fill-rule:nonzero;stroke:none"
           id="path447" />
      </g>
      <path
         d="m 625.488,65.786 h -42.711 v 164.227 h 42.711 z"
         style="fill:#231f20;fill-opacity:1;fill-rule:nonzero;stroke:none"
         id="path449" />
      <g
         id="g451">
        <g
           id="g453"
           clip-path="url(#clipPath457)">
          <g
             id="g459"
             transform="translate(679.083,226.9373)">
            <path
               d="m 0,0 c 5.439,0 9.456,-1.687 13.154,-5.055 0.49,-0.434 0.49,-1.088 0.055,-1.522 l -4.241,-4.401 c -0.38,-0.379 -0.979,-0.379 -1.358,0 -2.01,1.796 -4.671,2.774 -7.335,2.774 -6.143,0 -10.654,-5.109 -10.654,-11.197 0,-6.033 4.567,-11.033 10.709,-11.033 2.555,0 5.324,0.923 7.28,2.61 0.379,0.324 1.088,0.324 1.412,-0.055 l 4.242,-4.511 c 0.38,-0.38 0.324,-1.088 -0.055,-1.467 C 9.512,-37.445 4.841,-39.126 0,-39.126 c -10.868,0 -19.615,8.637 -19.615,19.51 C -19.615,-8.748 -10.868,0 0,0"
               style="fill:#231f20;fill-opacity:1;fill-rule:nonzero;stroke:none"
               id="path461" />
          </g>
          <g
             id="g463"
             transform="translate(698.248,225.3601)">
            <path
               d="M 0,0 C 0,0.544 0.489,1.033 1.033,1.033 H 7.715 C 8.313,1.033 8.747,0.544 8.747,0 v -22.005 c 0,-3.808 2.83,-6.852 6.688,-6.852 3.912,0 6.791,3.044 6.791,6.852 V 0 c 0,0.544 0.433,1.033 1.033,1.033 h 6.686 c 0.544,0 1.034,-0.489 1.034,-1.033 v -22.445 c 0,-8.258 -6.957,-15.104 -15.544,-15.104 C 6.901,-37.549 0,-30.703 0,-22.445 Z"
               style="fill:#231f20;fill-opacity:1;fill-rule:nonzero;stroke:none"
               id="path465" />
          </g>
          <g
             id="g467"
             transform="translate(754.5283,210.1458)">
            <path
               d="M 0,0 C 2.23,0 4.132,2.066 4.132,4.346 4.132,6.632 2.23,8.478 0,8.478 H -8.044 V 0 Z m -16.577,15.214 c 0,0.544 0.434,1.034 1.033,1.034 H 0.709 c 6.517,0 11.846,-5.27 11.846,-11.737 0,-5 -3.319,-9.022 -8.044,-10.923 l 7.445,-13.802 c 0.379,-0.709 0,-1.577 -0.923,-1.577 h -7.23 c -0.435,0 -0.759,0.269 -0.868,0.489 l -7.226,14.401 h -3.753 v -13.857 c 0,-0.544 -0.489,-1.033 -1.033,-1.033 h -6.467 c -0.599,0 -1.033,0.489 -1.033,1.033 z"
               style="fill:#231f20;fill-opacity:1;fill-rule:nonzero;stroke:none"
               id="path469" />
          </g>
          <g
             id="g471"
             transform="translate(779.2373,218.4041)">
            <path
               d="m 0,0 h -7.774 c -0.6,0 -1.034,0.489 -1.034,1.033 v 5.923 c 0,0.544 0.434,1.033 1.034,1.033 H 16.357 C 16.95,7.989 17.39,7.5 17.39,6.956 V 1.033 C 17.39,0.489 16.95,0 16.357,0 H 8.582 v -29.017 c 0,-0.544 -0.488,-1.032 -1.032,-1.032 H 1.027 C 0.489,-30.049 0,-29.561 0,-29.017 Z"
               style="fill:#231f20;fill-opacity:1;fill-rule:nonzero;stroke:none"
               id="path473" />
          </g>
          <g
             id="g475"
             transform="translate(802.0391,225.3601)">
            <path
               d="M 0,0 C 0,0.544 0.489,1.033 1.033,1.033 H 7.556 C 8.1,1.033 8.588,0.544 8.588,0 v -35.973 c 0,-0.544 -0.488,-1.032 -1.032,-1.032 H 1.033 C 0.489,-37.005 0,-36.517 0,-35.973 Z"
               style="fill:#231f20;fill-opacity:1;fill-rule:nonzero;stroke:none"
               id="path477" />
          </g>
          <g
             id="g479"
             transform="translate(819.9072,225.9593)">
            <path
               d="M 0,0 C 0,0.544 0.489,0.978 1.033,0.978 H 2.396 L 24.077,-19.89 h 0.055 v 19.291 c 0,0.544 0.434,1.033 1.033,1.033 h 6.522 c 0.544,0 1.034,-0.489 1.034,-1.033 V -37.17 c 0,-0.544 -0.49,-0.978 -1.034,-0.978 h -0.874 c -0.159,0 -0.592,0.164 -0.703,0.269 L 8.644,-16.302 H 8.588 v -20.27 c 0,-0.544 -0.434,-1.032 -1.032,-1.032 H 1.088 c -0.544,0 -1.032,0.488 -1.032,1.032 z"
               style="fill:#231f20;fill-opacity:1;fill-rule:nonzero;stroke:none"
               id="path481" />
          </g>
          <g
             id="g483"
             transform="translate(890.6934,196.5032)">
            <path
               d="m 0,0 c 5.979,0 10.868,4.896 10.868,10.818 0,5.978 -4.889,10.924 -10.868,10.924 -5.923,0 -10.818,-4.946 -10.818,-10.924 C -10.818,4.896 -5.923,0 0,0 m 0,30.434 c 10.868,0 19.561,-8.747 19.561,-19.616 0,-10.873 -8.693,-19.51 -19.561,-19.51 -10.868,0 -19.511,8.637 -19.511,19.51 0,10.869 8.643,19.616 19.511,19.616"
               style="fill:#231f20;fill-opacity:1;fill-rule:nonzero;stroke:none"
               id="path485" />
          </g>
          <g
             id="g487"
             transform="translate(930.4463,210.0911)">
            <path
               d="M 0,0 C 2.335,0 4.291,1.846 4.291,4.291 4.291,6.577 2.335,8.313 0,8.313 H -5.165 V 0 Z m -13.643,15.269 c 0,0.544 0.434,1.033 1.033,1.033 H 0.489 c 6.681,0 12.17,-5.434 12.17,-12.011 0,-6.736 -5.489,-12.225 -12.115,-12.225 h -5.709 v -12.77 c 0,-0.544 -0.489,-1.032 -1.033,-1.032 h -6.412 c -0.599,0 -1.033,0.488 -1.033,1.032 z"
               style="fill:#231f20;fill-opacity:1;fill-rule:nonzero;stroke:none"
               id="path489" />
          </g>
          <g
             id="g491"
             transform="translate(948.6328,225.3601)">
            <path
               d="m 0,0 c 0,0.544 0.435,1.033 1.033,1.033 h 22.5 c 0.599,0 1.033,-0.489 1.033,-1.033 v -5.923 c 0,-0.544 -0.434,-1.033 -1.033,-1.033 H 8.479 v -6.736 h 12.389 c 0.544,0 1.033,-0.489 1.033,-1.033 v -5.923 c 0,-0.599 -0.489,-1.033 -1.033,-1.033 H 8.479 v -7.336 h 15.054 c 0.599,0 1.033,-0.488 1.033,-1.032 v -5.924 c 0,-0.544 -0.434,-1.032 -1.033,-1.032 H 1.033 C 0.435,-37.005 0,-36.517 0,-35.973 Z"
               style="fill:#231f20;fill-opacity:1;fill-rule:nonzero;stroke:none"
               id="path493" />
          </g>
          <g
             id="g495"
             transform="translate(980.4082,225.9593)">
            <path
               d="M 0,0 C 0,0.544 0.488,0.978 1.032,0.978 H 2.39 L 24.076,-19.89 h 0.05 v 19.291 c 0,0.544 0.439,1.033 1.033,1.033 h 6.522 c 0.544,0 1.033,-0.489 1.033,-1.033 V -37.17 c 0,-0.544 -0.489,-0.978 -1.033,-0.978 h -0.869 c -0.164,0 -0.598,0.164 -0.708,0.269 L 8.643,-16.302 H 8.588 v -20.27 c 0,-0.544 -0.435,-1.032 -1.033,-1.032 H 1.088 c -0.544,0 -1.033,0.488 -1.033,1.032 z"
               style="fill:#231f20;fill-opacity:1;fill-rule:nonzero;stroke:none"
               id="path497" />
          </g>
          <g
             id="g499"
             transform="translate(662.2373,163.492)">
            <path
               d="M 0,0 C 0,0.703 0.544,1.302 1.308,1.302 H 7.665 C 8.373,1.302 8.967,0.703 8.967,0 V -14.291 L 21.033,0.758 c 0.22,0.275 0.708,0.544 1.032,0.544 h 6.847 c 1.033,0 1.577,-1.192 0.978,-2.01 L 17.176,-16.632 31.033,-34.67 c 0.599,-0.819 0,-2.011 -1.033,-2.011 h -7.5 c -0.379,0 -0.868,0.214 -0.979,0.379 L 8.967,-19.236 v -16.198 c 0,-0.703 -0.594,-1.302 -1.302,-1.302 H 1.308 C 0.544,-36.736 0,-36.137 0,-35.434 Z"
               style="fill:#231f20;fill-opacity:1;fill-rule:nonzero;stroke:none"
               id="path501" />
          </g>
          <g
             id="g503"
             transform="translate(698.7373,164.3601)">
            <path
               d="M 0,0 C 0,0.544 0.489,0.978 1.033,0.978 H 2.39 L 24.077,-19.89 h 0.049 v 19.291 c 0,0.544 0.439,1.033 1.033,1.033 h 6.523 c 0.544,0 1.032,-0.489 1.032,-1.033 V -37.17 c 0,-0.544 -0.488,-0.978 -1.032,-0.978 h -0.869 c -0.165,0 -0.599,0.164 -0.709,0.269 L 8.643,-16.302 H 8.588 v -20.27 c 0,-0.544 -0.435,-1.032 -1.033,-1.032 H 1.088 c -0.544,0 -1.033,0.488 -1.033,1.032 z"
               style="fill:#231f20;fill-opacity:1;fill-rule:nonzero;stroke:none"
               id="path505" />
          </g>
          <g
             id="g507"
             transform="translate(757.5176,134.9046)">
            <path
               d="m 0,0 c 5.978,0 10.868,4.896 10.868,10.818 0,5.978 -4.89,10.923 -10.868,10.923 -5.923,0 -10.818,-4.945 -10.818,-10.923 C -10.818,4.896 -5.923,0 0,0 m 0,30.434 c 10.868,0 19.561,-8.747 19.561,-19.616 0,-10.874 -8.693,-19.51 -19.561,-19.51 -10.868,0 -19.511,8.636 -19.511,19.51 0,10.869 8.643,19.616 19.511,19.616"
               style="fill:#231f20;fill-opacity:1;fill-rule:nonzero;stroke:none"
               id="path509" />
          </g>
          <g
             id="g511"
             transform="translate(779.9902,163.492)">
            <path
               d="m 0,0 c -0.215,0.758 0.22,1.302 0.978,1.302 h 6.357 c 0.434,0 0.874,-0.379 0.978,-0.758 l 4.676,-18.423 h 0.22 l 8.423,19.127 c 0.159,0.329 0.489,0.598 0.923,0.598 h 0.978 c 0.488,0 0.813,-0.269 0.923,-0.598 l 8.423,-19.127 h 0.22 L 37.77,0.544 c 0.109,0.379 0.543,0.758 0.977,0.758 h 6.357 c 0.764,0 1.198,-0.544 0.978,-1.302 L 35.813,-36.522 c -0.11,-0.434 -0.543,-0.758 -0.978,-0.758 h -0.868 c -0.379,0 -0.764,0.269 -0.923,0.599 l -9.945,22.225 h -0.165 l -9.89,-22.225 c -0.165,-0.33 -0.544,-0.599 -0.923,-0.599 h -0.874 c -0.434,0 -0.868,0.324 -0.978,0.758 z"
               style="fill:#231f20;fill-opacity:1;fill-rule:nonzero;stroke:none"
               id="path513" />
          </g>
          <g
             id="g515"
             transform="translate(831.8633,163.7615)">
            <path
               d="M 0,0 C 0,0.544 0.435,1.033 1.033,1.033 H 7.5 C 8.044,1.033 8.533,0.544 8.533,0 v -29.017 h 12.935 c 0.593,0 1.032,-0.488 1.032,-1.032 v -5.924 c 0,-0.544 -0.439,-1.032 -1.032,-1.032 H 1.033 C 0.435,-37.005 0,-36.517 0,-35.973 Z"
               style="fill:#231f20;fill-opacity:1;fill-rule:nonzero;stroke:none"
               id="path517" />
          </g>
          <g
             id="g519"
             transform="translate(859.6162,163.7615)">
            <path
               d="m 0,0 c 0,0.544 0.435,1.033 1.033,1.033 h 22.494 c 0.6,0 1.034,-0.489 1.034,-1.033 v -5.923 c 0,-0.544 -0.434,-1.033 -1.034,-1.033 H 8.479 v -6.736 h 12.389 c 0.544,0 1.033,-0.49 1.033,-1.034 v -5.923 c 0,-0.599 -0.489,-1.032 -1.033,-1.032 H 8.479 v -7.336 h 15.048 c 0.6,0 1.034,-0.488 1.034,-1.032 v -5.924 c 0,-0.544 -0.434,-1.032 -1.034,-1.032 H 1.033 C 0.435,-37.005 0,-36.517 0,-35.973 Z"
               style="fill:#231f20;fill-opacity:1;fill-rule:nonzero;stroke:none"
               id="path521" />
          </g>
          <g
             id="g523"
             transform="translate(905.1387,134.8001)">
            <path
               d="M 0,0 C 6.138,0 10.594,4.835 10.594,11.027 10.594,17.17 6.138,22.005 0,22.005 H -5.22 V 0 Z m -13.698,28.961 c 0,0.544 0.434,1.033 0.978,1.033 H 0.544 c 10.489,0 19.071,-8.533 19.071,-18.967 0,-10.539 -8.582,-19.071 -19.071,-19.071 H -12.72 c -0.544,0 -0.978,0.488 -0.978,1.032 z"
               style="fill:#231f20;fill-opacity:1;fill-rule:nonzero;stroke:none"
               id="path525" />
          </g>
          <g
             id="g527"
             transform="translate(948.1553,165.2835)">
            <path
               d="m 0,0 c 4.565,0 9.565,-1.901 13.258,-5.11 0.489,-0.379 0.544,-1.028 0.11,-1.467 l -4.291,-4.561 c -0.434,-0.384 -1.033,-0.384 -1.468,-0.054 -2.065,1.9 -4.456,2.604 -7.12,2.604 -5.924,0 -10.704,-4.995 -10.704,-10.973 0,-5.922 4.836,-10.818 10.759,-10.818 1.577,0 3.209,0.22 4.835,0.873 v 3.149 H 1.956 c -0.599,0 -1.033,0.434 -1.033,0.978 V -20 c 0,0.599 0.434,1.033 1.033,1.033 h 10.923 c 0.544,0 0.978,-0.489 0.978,-1.033 l 0.055,-14.615 c 0,-0.276 -0.22,-0.709 -0.434,-0.868 0,0 -5.599,-3.534 -13.478,-3.534 -10.813,0 -19.511,8.582 -19.511,19.456 C -19.511,-8.692 -10.813,0 0,0"
               style="fill:#231f20;fill-opacity:1;fill-rule:nonzero;stroke:none"
               id="path529" />
          </g>
          <g
             id="g531"
             transform="translate(969.4902,163.7615)">
            <path
               d="m 0,0 c 0,0.544 0.435,1.033 1.033,1.033 h 22.5 c 0.599,0 1.033,-0.489 1.033,-1.033 v -5.923 c 0,-0.544 -0.434,-1.033 -1.033,-1.033 H 8.479 v -6.736 h 12.389 c 0.544,0 1.033,-0.49 1.033,-1.034 v -5.923 c 0,-0.599 -0.489,-1.032 -1.033,-1.032 H 8.479 v -7.336 h 15.054 c 0.599,0 1.033,-0.488 1.033,-1.032 v -5.924 c 0,-0.544 -0.434,-1.032 -1.033,-1.032 H 1.033 C 0.435,-37.005 0,-36.517 0,-35.973 Z"
               style="fill:#231f20;fill-opacity:1;fill-rule:nonzero;stroke:none"
               id="path533" />
          </g>
          <g
             id="g535"
             transform="translate(662.2373,102.1624)">
            <path
               d="M 0,0 C 0,0.544 0.489,1.033 1.033,1.033 H 7.555 C 8.099,1.033 8.588,0.544 8.588,0 v -35.979 c 0,-0.543 -0.489,-1.032 -1.033,-1.032 H 1.033 C 0.489,-37.011 0,-36.522 0,-35.979 Z"
               style="fill:#f37427;fill-opacity:1;fill-rule:nonzero;stroke:none"
               id="path537" />
          </g>
          <g
             id="g539"
             transform="translate(680.1055,102.761)">
            <path
               d="M 0,0 C 0,0.539 0.489,0.979 1.033,0.979 H 2.396 L 24.077,-19.89 h 0.055 v 19.291 c 0,0.544 0.433,1.034 1.033,1.034 h 6.522 c 0.543,0 1.033,-0.49 1.033,-1.034 v -36.577 c 0,-0.544 -0.49,-0.977 -1.033,-0.977 h -0.874 c -0.16,0 -0.593,0.164 -0.704,0.274 L 8.643,-16.308 H 8.588 v -20.269 c 0,-0.544 -0.435,-1.032 -1.033,-1.032 H 1.088 c -0.544,0 -1.033,0.488 -1.033,1.032 z"
               style="fill:#f37427;fill-opacity:1;fill-rule:nonzero;stroke:none"
               id="path541" />
          </g>
          <g
             id="g543"
             transform="translate(722.1436,102.1624)">
            <path
               d="M 0,0 C 0,0.544 0.489,1.033 1.033,1.033 H 7.555 C 8.099,1.033 8.588,0.544 8.588,0 v -35.979 c 0,-0.543 -0.489,-1.032 -1.033,-1.032 H 1.033 C 0.489,-37.011 0,-36.522 0,-35.979 Z"
               style="fill:#f37427;fill-opacity:1;fill-rule:nonzero;stroke:none"
               id="path545" />
          </g>
          <g
             id="g547"
             transform="translate(744.9629,95.2063)">
            <path
               d="m 0,0 h -7.775 c -0.599,0 -1.034,0.489 -1.034,1.033 v 5.923 c 0,0.544 0.435,1.033 1.034,1.033 H 16.356 C 16.95,7.989 17.39,7.5 17.39,6.956 V 1.033 C 17.39,0.489 16.95,0 16.356,0 H 8.582 v -29.022 c 0,-0.544 -0.489,-1.033 -1.033,-1.033 H 1.027 C 0.488,-30.055 0,-29.566 0,-29.022 Z"
               style="fill:#f37427;fill-opacity:1;fill-rule:nonzero;stroke:none"
               id="path549" />
          </g>
          <g
             id="g551"
             transform="translate(767.7705,102.1624)">
            <path
               d="M 0,0 C 0,0.544 0.488,1.033 1.032,1.033 H 7.555 C 8.099,1.033 8.588,0.544 8.588,0 v -35.979 c 0,-0.543 -0.489,-1.032 -1.033,-1.032 H 1.032 C 0.488,-37.011 0,-36.522 0,-35.979 Z"
               style="fill:#f37427;fill-opacity:1;fill-rule:nonzero;stroke:none"
               id="path553" />
          </g>
          <g
             id="g555"
             transform="translate(803.1387,78.1956)">
            <path
               d="M 0,0 -4.132,8.967 H -4.187 L -8.264,0 Z M -22.336,-11.632 -5.33,24.944 c 0.165,0.325 0.544,0.6 0.929,0.6 h 0.544 c 0.378,0 0.757,-0.275 0.922,-0.6 l 17.006,-36.576 c 0.329,-0.704 -0.104,-1.412 -0.923,-1.412 H 7.115 c -0.978,0 -1.412,0.329 -1.901,1.362 l -1.956,4.291 h -14.78 l -1.957,-4.345 c -0.274,-0.655 -0.868,-1.308 -1.956,-1.308 h -5.977 c -0.819,0 -1.253,0.708 -0.924,1.412"
               style="fill:#f37427;fill-opacity:1;fill-rule:nonzero;stroke:none"
               id="path557" />
          </g>
          <g
             id="g559"
             transform="translate(824.583,95.2063)">
            <path
               d="m 0,0 h -7.769 c -0.599,0 -1.033,0.489 -1.033,1.033 v 5.923 c 0,0.544 0.434,1.033 1.033,1.033 h 24.126 c 0.599,0 1.034,-0.489 1.034,-1.033 V 1.033 C 17.391,0.489 16.956,0 16.357,0 H 8.589 v -29.022 c 0,-0.544 -0.489,-1.033 -1.033,-1.033 H 1.033 C 0.489,-30.055 0,-29.566 0,-29.022 Z"
               style="fill:#f37427;fill-opacity:1;fill-rule:nonzero;stroke:none"
               id="path561" />
          </g>
          <g
             id="g563"
             transform="translate(847.3916,102.1624)">
            <path
               d="M 0,0 C 0,0.544 0.488,1.033 1.032,1.033 H 7.555 C 8.099,1.033 8.588,0.544 8.588,0 v -35.979 c 0,-0.543 -0.489,-1.032 -1.033,-1.032 H 1.032 C 0.488,-37.011 0,-36.522 0,-35.979 Z"
               style="fill:#f37427;fill-opacity:1;fill-rule:nonzero;stroke:none"
               id="path565" />
          </g>
          <g
             id="g567"
             transform="translate(860.4238,101.7835)">
            <path
               d="m 0,0 c -0.324,0.703 0.11,1.412 0.924,1.412 h 7.23 c 0.434,0 0.814,-0.33 0.923,-0.6 l 8.967,-19.834 h 0.324 l 8.968,19.834 c 0.109,0.27 0.488,0.6 0.923,0.6 h 7.23 c 0.814,0 1.247,-0.709 0.923,-1.412 L 19.347,-36.577 c -0.16,-0.324 -0.49,-0.599 -0.923,-0.599 H 17.88 c -0.435,0 -0.759,0.275 -0.924,0.599 z"
               style="fill:#f37427;fill-opacity:1;fill-rule:nonzero;stroke:none"
               id="path569" />
          </g>
          <g
             id="g571"
             transform="translate(901.2705,102.1624)">
            <path
               d="m 0,0 c 0,0.544 0.434,1.033 1.033,1.033 h 22.5 c 0.599,0 1.032,-0.489 1.032,-1.033 v -5.923 c 0,-0.544 -0.433,-1.033 -1.032,-1.033 H 8.478 v -6.742 h 12.39 c 0.544,0 1.033,-0.489 1.033,-1.032 v -5.924 c 0,-0.593 -0.489,-1.033 -1.033,-1.033 H 8.478 v -7.335 h 15.055 c 0.599,0 1.032,-0.489 1.032,-1.033 v -5.924 c 0,-0.543 -0.433,-1.032 -1.032,-1.032 H 1.033 C 0.434,-37.011 0,-36.522 0,-35.979 Z"
               style="fill:#f37427;fill-opacity:1;fill-rule:nonzero;stroke:none"
               id="path573" />
          </g>
          <g
             id="g575"
             transform="translate(146.3223,58.3733)">
            <path
               d="m 0,0 c -22.532,0 -45.064,8.577 -62.218,25.73 -34.307,34.307 -34.307,90.13 0,124.437 34.307,34.307 90.129,34.307 124.436,0 L 32.524,120.472 c -17.934,17.936 -47.113,17.936 -65.048,0 -17.934,-17.933 -17.934,-47.114 0,-65.046 17.935,-17.936 47.114,-17.936 65.048,0 L 62.218,25.73 C 45.064,8.577 22.532,0 0,0"
               style="fill:#231f20;fill-opacity:1;fill-rule:nonzero;stroke:none"
               id="path577" />
          </g>
          <g
             id="g579"
             transform="translate(302.3018,58.971)">
            <path
               d="m 0,0 c -48.518,0 -87.99,39.472 -87.99,87.989 0,48.518 39.472,87.99 87.99,87.99 v -41.993 c -25.362,0 -45.997,-20.634 -45.997,-45.997 0,-25.361 20.635,-45.996 45.997,-45.996 25.362,0 45.997,20.635 45.997,45.996 H 87.99 C 87.99,39.472 48.518,0 0,0"
               style="fill:#231f20;fill-opacity:1;fill-rule:nonzero;stroke:none"
               id="path581" />
          </g>
          <g
             id="g583"
             transform="translate(346.2187,161.614)">
            <path
               d="M 0,0 -29.546,29.546 0,59.092 29.546,29.546 Z"
               style="fill:#f37427;fill-opacity:1;fill-rule:nonzero;stroke:none"
               id="path585" />
          </g>
        </g>
      </g>
    </g>
  </g>
</svg>
