<svg xmlns="http://www.w3.org/2000/svg" viewBox="0 0 95.62 17.68"><defs><style>.cls-1{fill:#fff;}.cls-2{fill:#ff671c;}</style></defs><g id="Layer_7" data-name="Layer 7"><path class="cls-1" d="M51.11,16.94H45.58L40,9.81v7.13H35.75V.49H40V7.28L45.24.49h5.27L44,8.28Z"/><path class="cls-1" d="M56.8,16.94H52.52V.49H56.8Z"/><path class="cls-1" d="M62.16.8a1.82,1.82,0,0,1,1.32.51.1.1,0,0,1,0,.15l-.43.44a.09.09,0,0,1-.13,0,1.14,1.14,0,0,0-.74-.28,1.1,1.1,0,0,0-1.07,1.13,1.08,1.08,0,0,0,1.08,1.1,1.16,1.16,0,0,0,.73-.26.12.12,0,0,1,.14,0l.42.46a.11.11,0,0,1,0,.14,1.87,1.87,0,0,1-1.33.53,2,2,0,1,1,0-3.92Z"/><path class="cls-1" d="M64.08,1a.11.11,0,0,1,.11-.1h.67A.1.1,0,0,1,65,1v2.2a.66.66,0,0,0,.67.69.67.67,0,0,0,.68-.69V1a.1.1,0,0,1,.1-.1h.67a.11.11,0,0,1,.11.1V3.21a1.56,1.56,0,0,1-3.11,0Z"/><path class="cls-1" d="M68.06,1a.1.1,0,0,1,.1-.1h1.63A1.18,1.18,0,0,1,71,2a1.21,1.21,0,0,1-.81,1.1l.75,1.38a.11.11,0,0,1-.1.16H70.1a.11.11,0,0,1-.09,0l-.72-1.44h-.38V4.56a.11.11,0,0,1-.1.11h-.65a.1.1,0,0,1-.1-.11Zm1.66,1.52a.43.43,0,0,0,.41-.43.41.41,0,0,0-.41-.41h-.81v.84Z"/><path class="cls-1" d="M72.19,1.66h-.77a.11.11,0,0,1-.11-.11V1a.11.11,0,0,1,.11-.1h2.41a.11.11,0,0,1,.11.1v.59a.11.11,0,0,1-.11.11h-.78v2.9a.11.11,0,0,1-.1.11H72.3a.11.11,0,0,1-.11-.11Z"/><path class="cls-1" d="M74.48,1a.11.11,0,0,1,.1-.1h.65a.11.11,0,0,1,.11.1v3.6a.11.11,0,0,1-.11.11h-.65a.11.11,0,0,1-.1-.11Z"/><path class="cls-1" d="M76.27.9a.11.11,0,0,1,.1-.1h.14l2.17,2.09h0V1a.11.11,0,0,1,.11-.1h.65a.11.11,0,0,1,.1.1V4.62a.1.1,0,0,1-.1.1h-.09l-.07,0L77.13,2.53h0v2a.11.11,0,0,1-.11.11h-.64a.11.11,0,0,1-.11-.11Z"/><path class="cls-1" d="M83.36.8a2,2,0,1,1-2,2A2,2,0,0,1,83.36.8Zm0,3.05a1.09,1.09,0,0,0,0-2.18,1.09,1.09,0,1,0,0,2.18Z"/><path class="cls-1" d="M86,1a.1.1,0,0,1,.1-.1h1.32a1.21,1.21,0,1,1,0,2.42h-.57V4.56a.11.11,0,0,1-.1.11h-.65a.1.1,0,0,1-.1-.11Zm1.37,1.53a.43.43,0,0,0,.43-.43.41.41,0,0,0-.43-.4h-.52v.83Z"/><path class="cls-1" d="M89.16,1a.1.1,0,0,1,.1-.1h2.26a.1.1,0,0,1,.1.1v.59a.1.1,0,0,1-.1.11H90v.67h1.24a.11.11,0,0,1,.1.11V3a.1.1,0,0,1-.1.1H90v.74h1.51a.1.1,0,0,1,.1.1v.59a.1.1,0,0,1-.1.11H89.26a.1.1,0,0,1-.1-.11Z"/><path class="cls-1" d="M92.34.9a.11.11,0,0,1,.1-.1h.14l2.17,2.09h0V1a.1.1,0,0,1,.1-.1h.65a.11.11,0,0,1,.11.1V4.62a.1.1,0,0,1-.11.1h-.08l-.07,0L93.21,2.53h0v2a.1.1,0,0,1-.1.11h-.65a.11.11,0,0,1-.1-.11Z"/><path class="cls-1" d="M60.48,7.16A.13.13,0,0,1,60.61,7h.63a.13.13,0,0,1,.13.13V8.59l1.21-1.51a.14.14,0,0,1,.11,0h.68a.12.12,0,0,1,.1.2L62.2,8.82l1.38,1.81a.13.13,0,0,1-.1.2h-.75a.13.13,0,0,1-.1,0L61.37,9.08v1.63a.13.13,0,0,1-.13.13h-.63a.13.13,0,0,1-.13-.13Z"/><path class="cls-1" d="M64.13,7.07a.11.11,0,0,1,.11-.1h.13l2.17,2.09h0V7.13a.1.1,0,0,1,.1-.1h.65a.11.11,0,0,1,.11.1v3.66a.1.1,0,0,1-.11.1h-.08l-.07,0L65,8.7h0v2a.1.1,0,0,1-.1.11h-.65a.11.11,0,0,1-.1-.11Z"/><path class="cls-1" d="M70,7a2,2,0,1,1-2,2A2,2,0,0,1,70,7ZM70,10a1.09,1.09,0,1,0-1.08-1.08A1.09,1.09,0,0,0,70,10Z"/><path class="cls-1" d="M72.27,7.16a.09.09,0,0,1,.1-.13H73a.1.1,0,0,1,.1.07L73.57,9h0L74.44,7A.09.09,0,0,1,74.53,7h.1a.1.1,0,0,1,.09.06L75.56,9h0l.47-1.85a.11.11,0,0,1,.1-.07h.64a.09.09,0,0,1,.09.13l-1,3.65a.11.11,0,0,1-.1.08h-.09a.1.1,0,0,1-.09-.06l-1-2.23h0l-1,2.23a.13.13,0,0,1-.1.06H73.4a.1.1,0,0,1-.1-.08Z"/><path class="cls-1" d="M77.46,7.13a.11.11,0,0,1,.11-.1h.65a.11.11,0,0,1,.1.1V10h1.29a.1.1,0,0,1,.11.1v.59a.11.11,0,0,1-.11.11h-2a.11.11,0,0,1-.11-.11Z"/><path class="cls-1" d="M80.24,7.13a.11.11,0,0,1,.11-.1H82.6a.1.1,0,0,1,.1.1v.59a.1.1,0,0,1-.1.11H81.09V8.5h1.24a.11.11,0,0,1,.11.1v.6a.1.1,0,0,1-.11.1H81.09V10H82.6a.09.09,0,0,1,.1.1v.59a.1.1,0,0,1-.1.11H80.35a.11.11,0,0,1-.11-.11Z"/><path class="cls-1" d="M83.43,7.13a.1.1,0,0,1,.1-.1h1.33a1.91,1.91,0,1,1,0,3.81H83.53a.1.1,0,0,1-.1-.11ZM84.8,10a1.05,1.05,0,0,0,1.06-1.1,1.05,1.05,0,0,0-1.06-1.1h-.52V10Z"/><path class="cls-1" d="M89.11,7a2.1,2.1,0,0,1,1.33.51.1.1,0,0,1,0,.15L90,8.09a.12.12,0,0,1-.15,0,1,1,0,0,0-.71-.26,1.09,1.09,0,0,0,0,2.18,1.2,1.2,0,0,0,.48-.09V9.62h-.34a.11.11,0,0,1-.11-.1V9a.1.1,0,0,1,.11-.1H90.4a.1.1,0,0,1,.1.1v1.46a.15.15,0,0,1,0,.09,2.77,2.77,0,0,1-1.35.35,2,2,0,1,1,0-3.9Z"/><path class="cls-1" d="M91.25,7.13a.1.1,0,0,1,.1-.1H93.6a.11.11,0,0,1,.11.1v.59a.11.11,0,0,1-.11.11H92.1V8.5h1.24a.11.11,0,0,1,.1.1v.6a.1.1,0,0,1-.1.1H92.1V10h1.5a.1.1,0,0,1,.11.1v.59a.11.11,0,0,1-.11.11H91.35a.1.1,0,0,1-.1-.11Z"/><path class="cls-2" d="M60.48,13.3a.1.1,0,0,1,.1-.1h.65a.1.1,0,0,1,.11.1v3.6a.11.11,0,0,1-.11.11h-.65a.11.11,0,0,1-.1-.11Z"/><path class="cls-2" d="M62.27,13.24a.09.09,0,0,1,.1-.1h.14l2.17,2.09h0V13.3a.1.1,0,0,1,.11-.1h.65a.1.1,0,0,1,.1.1V17a.1.1,0,0,1-.1.1h-.09l-.07,0-2.15-2.16h0v2A.11.11,0,0,1,63,17h-.65a.11.11,0,0,1-.1-.11Z"/><path class="cls-2" d="M66.48,13.3a.09.09,0,0,1,.1-.1h.65a.1.1,0,0,1,.11.1v3.6a.11.11,0,0,1-.11.11h-.65a.1.1,0,0,1-.1-.11Z"/><path class="cls-2" d="M68.76,14H68a.1.1,0,0,1-.1-.11V13.3a.09.09,0,0,1,.1-.1H70.4a.09.09,0,0,1,.1.1v.59a.1.1,0,0,1-.1.11h-.78v2.9a.11.11,0,0,1-.1.11h-.66a.11.11,0,0,1-.1-.11Z"/><path class="cls-2" d="M71.05,13.3a.09.09,0,0,1,.1-.1h.65a.1.1,0,0,1,.11.1v3.6a.11.11,0,0,1-.11.11h-.65a.1.1,0,0,1-.1-.11Z"/><path class="cls-2" d="M72.35,16.86l1.7-3.66a.13.13,0,0,1,.1-.06h0a.1.1,0,0,1,.09.06L76,16.86a.1.1,0,0,1-.1.15h-.6c-.1,0-.14,0-.19-.14l-.2-.43H73.43l-.19.43A.21.21,0,0,1,73,17h-.6A.1.1,0,0,1,72.35,16.86Zm2.24-1.16-.42-.9h0l-.41.9Z"/><path class="cls-2" d="M76.74,14H76a.11.11,0,0,1-.11-.11V13.3a.1.1,0,0,1,.11-.1h2.41a.1.1,0,0,1,.11.1v.59a.11.11,0,0,1-.11.11H77.6v2.9a.11.11,0,0,1-.11.11h-.65a.1.1,0,0,1-.1-.11Z"/><path class="cls-2" d="M79,13.3a.1.1,0,0,1,.1-.1h.66a.1.1,0,0,1,.1.1v3.6a.11.11,0,0,1-.1.11h-.66a.11.11,0,0,1-.1-.11Z"/><path class="cls-2" d="M80.32,13.34a.1.1,0,0,1,.1-.14h.72a.1.1,0,0,1,.09.06l.9,2h0l.9-2a.1.1,0,0,1,.09-.06h.73a.1.1,0,0,1,.09.14L82.26,17a.1.1,0,0,1-.09.06h0A.12.12,0,0,1,82,17Z"/><path class="cls-2" d="M84.42,13.3a.09.09,0,0,1,.1-.1h2.25a.1.1,0,0,1,.11.1v.59a.11.11,0,0,1-.11.11H85.26v.67h1.25a.11.11,0,0,1,.1.1v.6a.1.1,0,0,1-.1.1H85.26v.74h1.51a.1.1,0,0,1,.11.1v.59a.11.11,0,0,1-.11.11H84.52a.1.1,0,0,1-.1-.11Z"/><path class="cls-1" d="M8.81,17.68A8.81,8.81,0,1,1,15,2.64l-3,3a4.61,4.61,0,1,0,0,6.51l3,3A8.78,8.78,0,0,1,8.81,17.68Z"/><path class="cls-1" d="M24.43,17.62A8.81,8.81,0,1,1,24.43,0V4.21A4.61,4.61,0,1,0,29,8.81h4.2A8.82,8.82,0,0,1,24.43,17.62Z"/><rect class="cls-2" x="26.74" y="2.29" width="4.18" height="4.18" transform="translate(11.54 -19.1) rotate(45)"/></g></svg>