<svg id="Layer_1" data-name="Layer 1" xmlns="http://www.w3.org/2000/svg" viewBox="0 0 146 27"><defs><style>.cls-1{fill:#fff;}.cls-2{fill:#f26825;}</style></defs><path class="cls-1" d="M78,25.87H69.59L61.11,15V25.87H54.58V.75h6.53V11.11l8-10.36h8l-10,11.89Z"/><path class="cls-1" d="M86.72,25.87H80.19V.75h6.53Z"/><path class="cls-1" d="M94.92,1.23a2.78,2.78,0,0,1,2,.77.15.15,0,0,1,0,.23l-.65.67a.15.15,0,0,1-.21,0A1.71,1.71,0,0,0,95,2.48a1.65,1.65,0,0,0-1.63,1.71A1.65,1.65,0,0,0,95,5.88a1.74,1.74,0,0,0,1.11-.4.17.17,0,0,1,.22,0l.65.69a.16.16,0,0,1,0,.22,2.86,2.86,0,0,1-2,.81,3,3,0,1,1,0-6Z"/><path class="cls-1" d="M97.85,1.47A.16.16,0,0,1,98,1.31h1a.16.16,0,0,1,.16.16V4.83a1,1,0,0,0,1,1,1,1,0,0,0,1-1V1.47a.15.15,0,0,1,.16-.16h1a.16.16,0,0,1,.16.16V4.9a2.37,2.37,0,0,1-4.74,0Z"/><path class="cls-1" d="M103.92,1.47a.16.16,0,0,1,.16-.16h2.48a1.81,1.81,0,0,1,1.82,1.79,1.82,1.82,0,0,1-1.23,1.67l1.13,2.11a.16.16,0,0,1-.14.25H107a.18.18,0,0,1-.14-.08l-1.1-2.2h-.57V7a.17.17,0,0,1-.16.16h-1a.16.16,0,0,1-.16-.16Zm2.54,2.32a.66.66,0,0,0,.63-.66.63.63,0,0,0-.63-.63h-1.23V3.79Z"/><path class="cls-1" d="M110.23,2.53h-1.18a.15.15,0,0,1-.16-.16v-.9a.15.15,0,0,1,.16-.16h3.69a.15.15,0,0,1,.15.16v.9a.15.15,0,0,1-.15.16h-1.19V7a.17.17,0,0,1-.16.16h-1a.17.17,0,0,1-.16-.16Z"/><path class="cls-1" d="M113.72,1.47a.16.16,0,0,1,.16-.16h1a.16.16,0,0,1,.15.16V7a.16.16,0,0,1-.15.16h-1a.17.17,0,0,1-.16-.16Z"/><path class="cls-1" d="M116.45,1.37a.15.15,0,0,1,.16-.14h.21l3.32,3.19h0V1.47a.16.16,0,0,1,.16-.16h1a.16.16,0,0,1,.16.16V7.06a.16.16,0,0,1-.16.15h-.13a.28.28,0,0,1-.11,0l-3.28-3.3h0V7a.16.16,0,0,1-.16.16h-1a.17.17,0,0,1-.16-.16Z"/><path class="cls-1" d="M127.28,1.23a3,3,0,1,1-3,3A3,3,0,0,1,127.28,1.23Zm0,4.65a1.67,1.67,0,1,0-1.66-1.66A1.67,1.67,0,0,0,127.28,5.88Z"/><path class="cls-1" d="M131.27,1.47a.16.16,0,0,1,.16-.16h2a1.85,1.85,0,1,1,0,3.7h-.87V7a.17.17,0,0,1-.16.16h-1a.16.16,0,0,1-.16-.16Zm2.09,2.33a.65.65,0,0,0,.65-.65.64.64,0,0,0-.65-.62h-.79V3.8Z"/><path class="cls-1" d="M136.14,1.47a.15.15,0,0,1,.16-.16h3.44a.15.15,0,0,1,.15.16v.9a.15.15,0,0,1-.15.16h-2.31v1h1.9a.17.17,0,0,1,.16.16v.9a.16.16,0,0,1-.16.16h-1.9V5.9h2.31a.16.16,0,0,1,.15.16V7a.16.16,0,0,1-.15.16H136.3a.16.16,0,0,1-.16-.16Z"/><path class="cls-1" d="M141,1.37a.15.15,0,0,1,.16-.14h.2l3.32,3.19h0V1.47a.15.15,0,0,1,.15-.16h1a.16.16,0,0,1,.16.16V7.06a.16.16,0,0,1-.16.15h-.13a.36.36,0,0,1-.11,0l-3.28-3.3h0V7a.16.16,0,0,1-.16.16h-1A.16.16,0,0,1,141,7Z"/><path class="cls-1" d="M92.34,10.93a.2.2,0,0,1,.2-.2h1a.2.2,0,0,1,.2.2v2.18l1.85-2.3a.25.25,0,0,1,.16-.08h1a.19.19,0,0,1,.15.31L95,13.47l2.12,2.76a.2.2,0,0,1-.16.31H95.78a.3.3,0,0,1-.15-.06l-1.92-2.61v2.48a.21.21,0,0,1-.2.2h-1a.21.21,0,0,1-.2-.2Z"/><path class="cls-1" d="M97.92,10.79a.15.15,0,0,1,.16-.14h.21l3.32,3.19h0V10.89a.16.16,0,0,1,.16-.16h1a.16.16,0,0,1,.16.16v5.59a.16.16,0,0,1-.16.15h-.13a.28.28,0,0,1-.11,0l-3.28-3.3h0v3.1a.16.16,0,0,1-.16.16h-1a.17.17,0,0,1-.16-.16Z"/><path class="cls-1" d="M106.91,10.65a3,3,0,1,1-3,3A3,3,0,0,1,106.91,10.65Zm0,4.65a1.67,1.67,0,1,0-1.65-1.66A1.66,1.66,0,0,0,106.91,15.3Z"/><path class="cls-1" d="M110.35,10.93a.14.14,0,0,1,.15-.2h1a.18.18,0,0,1,.15.11l.72,2.82h0l1.29-2.92a.15.15,0,0,1,.14-.09H114a.15.15,0,0,1,.14.09l1.29,2.92h0l.72-2.82a.16.16,0,0,1,.14-.11h1a.15.15,0,0,1,.15.2l-1.57,5.58a.17.17,0,0,1-.15.12h-.14a.18.18,0,0,1-.14-.09l-1.52-3.4h0l-1.52,3.4a.16.16,0,0,1-.14.09h-.13a.16.16,0,0,1-.15-.12Z"/><path class="cls-1" d="M118.28,10.89a.16.16,0,0,1,.16-.16h1a.16.16,0,0,1,.16.16v4.43h2a.16.16,0,0,1,.16.16v.91a.16.16,0,0,1-.16.16h-3.12a.16.16,0,0,1-.16-.16Z"/><path class="cls-1" d="M122.53,10.89a.15.15,0,0,1,.15-.16h3.44a.15.15,0,0,1,.16.16v.9a.15.15,0,0,1-.16.16h-2.3v1h1.9a.16.16,0,0,1,.16.16V14a.16.16,0,0,1-.16.16h-1.9v1.12h2.3a.16.16,0,0,1,.16.16v.91a.16.16,0,0,1-.16.16h-3.44a.16.16,0,0,1-.15-.16Z"/><path class="cls-1" d="M127.39,10.89a.16.16,0,0,1,.15-.16h2a2.91,2.91,0,1,1,0,5.82h-2a.16.16,0,0,1-.15-.16Zm2.1,4.43a1.62,1.62,0,0,0,1.62-1.69A1.62,1.62,0,0,0,129.49,12h-.8v3.37Z"/><path class="cls-1" d="M136.07,10.65a3.19,3.19,0,0,1,2,.78.15.15,0,0,1,0,.23l-.66.7a.16.16,0,0,1-.22,0,1.53,1.53,0,0,0-1.09-.39,1.67,1.67,0,0,0,0,3.33,2,2,0,0,0,.74-.13v-.49h-.53a.14.14,0,0,1-.15-.15v-.82a.15.15,0,0,1,.15-.16H138a.16.16,0,0,1,.15.16V16a.2.2,0,0,1-.06.13,4.22,4.22,0,0,1-2.06.54,3,3,0,1,1,0-6Z"/><path class="cls-1" d="M139.33,10.89a.15.15,0,0,1,.16-.16h3.44a.15.15,0,0,1,.15.16v.9a.15.15,0,0,1-.15.16h-2.31v1h1.9a.16.16,0,0,1,.16.16V14a.16.16,0,0,1-.16.16h-1.9v1.12h2.31a.16.16,0,0,1,.15.16v.91a.16.16,0,0,1-.15.16h-3.44a.16.16,0,0,1-.16-.16Z"/><path class="cls-2" d="M92.34,20.31a.16.16,0,0,1,.16-.16h1a.16.16,0,0,1,.16.16v5.5a.17.17,0,0,1-.16.16h-1a.17.17,0,0,1-.16-.16Z"/><path class="cls-2" d="M95.08,20.21a.15.15,0,0,1,.15-.15h.21l3.32,3.2h0v-3a.15.15,0,0,1,.15-.16h1a.16.16,0,0,1,.16.16V25.9a.16.16,0,0,1-.16.15h-.13a.36.36,0,0,1-.11,0l-3.28-3.3h0v3.1a.16.16,0,0,1-.16.16h-1a.17.17,0,0,1-.16-.16Z"/><path class="cls-2" d="M101.5,20.31a.16.16,0,0,1,.16-.16h1a.16.16,0,0,1,.16.16v5.5a.17.17,0,0,1-.16.16h-1a.17.17,0,0,1-.16-.16Z"/><path class="cls-2" d="M105,21.37H103.8a.16.16,0,0,1-.15-.16v-.9a.15.15,0,0,1,.15-.16h3.69a.15.15,0,0,1,.16.16v.9a.16.16,0,0,1-.16.16h-1.18v4.44a.17.17,0,0,1-.16.16h-1a.17.17,0,0,1-.16-.16Z"/><path class="cls-2" d="M108.48,20.31a.16.16,0,0,1,.16-.16h1a.16.16,0,0,1,.15.16v5.5a.16.16,0,0,1-.15.16h-1a.17.17,0,0,1-.16-.16Z"/><path class="cls-2" d="M110.47,25.75l2.6-5.59a.2.2,0,0,1,.15-.1h.08a.17.17,0,0,1,.14.1l2.6,5.59a.15.15,0,0,1-.14.22H115c-.15,0-.22,0-.29-.21l-.3-.66h-2.26l-.3.67a.31.31,0,0,1-.3.2h-.92A.15.15,0,0,1,110.47,25.75ZM113.89,24l-.63-1.37h0L112.63,24Z"/><path class="cls-2" d="M117.17,21.37H116a.16.16,0,0,1-.16-.16v-.9a.16.16,0,0,1,.16-.16h3.69a.16.16,0,0,1,.16.16v.9a.16.16,0,0,1-.16.16h-1.19v4.44a.16.16,0,0,1-.16.16h-1a.16.16,0,0,1-.16-.16Z"/><path class="cls-2" d="M120.66,20.31a.16.16,0,0,1,.15-.16h1a.16.16,0,0,1,.16.16v5.5a.17.17,0,0,1-.16.16h-1a.16.16,0,0,1-.15-.16Z"/><path class="cls-2" d="M122.65,20.36a.14.14,0,0,1,.14-.21h1.11a.18.18,0,0,1,.14.09l1.37,3h0l1.37-3a.16.16,0,0,1,.14-.09h1.11a.14.14,0,0,1,.14.21L125.61,26a.17.17,0,0,1-.14.09h-.09a.17.17,0,0,1-.14-.09Z"/><path class="cls-2" d="M128.9,20.31a.15.15,0,0,1,.15-.16h3.44a.15.15,0,0,1,.16.16v.9a.16.16,0,0,1-.16.16h-2.3v1h1.9a.16.16,0,0,1,.15.16v.9a.15.15,0,0,1-.15.16h-1.9v1.12h2.3a.16.16,0,0,1,.16.16v.91a.16.16,0,0,1-.16.16h-3.44a.16.16,0,0,1-.15-.16Z"/><path class="cls-1" d="M13.45,27A13.45,13.45,0,1,1,23,4L18.42,8.58a7,7,0,1,0,0,10L23,23.07A13.42,13.42,0,0,1,13.45,27Z"/><path class="cls-1" d="M37.3,26.91A13.46,13.46,0,0,1,37.3,0V6.42a7,7,0,1,0,7,7h6.42A13.48,13.48,0,0,1,37.3,26.91Z"/><rect class="cls-2" x="40.82" y="3.5" width="6.39" height="6.39" transform="translate(17.63 -29.16) rotate(45)"/></svg>