<svg xmlns="http://www.w3.org/2000/svg" width="260" height="43" viewBox="0 0 260 43"><path fill="#c90" d="M0 0h43v43H0z"/><path fill="#fff" d="M21.53 7.7l5.25 3a1.94 1.94 0 0 1 .75.65 1.77 1.77 0 0 1 .23.77v4.72a2.37 2.37 0 0 1-.15.92 1.46 1.46 0 0 1-.37.49l-4.84 2.9a2 2 0 0 1-.87.31 2.72 2.72 0 0 1-1-.31L16 18.49a1.3 1.3 0 0 1-.51-.43 1.61 1.61 0 0 1-.26-.93V12a1 1 0 0 1 .22-.64 1.66 1.66 0 0 1 .61-.56l5.47-3.1zM8.6 7.91V9.6h6.33l2.93-1.69H8.6zM34.4 7.91h-9.18l2.93 1.69h6.25V7.91zM29.49 13h4.91v-1.71h-4.93a.91.91 0 0 1 0 .16zM13.52 11.29H8.6V13h4.92v-1.71zM29.49 14.67h4.91v1.69h-4.91zM8.6 14.67v1.69h4.92v-1.69zM28.82 19.28l-.77.47h6.35v-1.69h-4.95a1.67 1.67 0 0 1-.16.59 1.75 1.75 0 0 1-.47.63zM13.85 19a1.84 1.84 0 0 1-.33-1H8.6v1.69h6.22l-.32-.19a1.75 1.75 0 0 1-.65-.5zM22.39 23.13h12v-1.69h-9.17L22.64 23a2.68 2.68 0 0 1-.25.13zM17.68 21.44H8.6v1.74h12l-.32-.18zM33.78 26.51a10 10 0 0 0 .45-1.69H22.36v1.69zM8.77 24.82a11.09 11.09 0 0 0 .45 1.69h11.42v-1.69zM10 28.2a13.87 13.87 0 0 0 1.09 1.69h9.58V28.2zM31.94 29.89A12.77 12.77 0 0 0 33 28.2H22.36v1.69zM12.56 31.58a16.66 16.66 0 0 0 2 1.69h6.08v-1.69zM28.44 33.27a17.6 17.6 0 0 0 2-1.69h-8.08v1.69zM17.32 35a25 25 0 0 0 3.32 1.63V35zM25.68 35h-3.32v1.63A24.37 24.37 0 0 0 25.68 35z"/><path fill="#000" d="M44.69 0H260v43H44.69z"/><path fill="#fff" d="M197.47 18.76A4 4 0 0 0 195 20.2c-.41.5-1.5 2.25-1.5 2.25v7.68h-1.33a.68.68 0 0 1-.75-.75v-12.5h1.3a.71.71 0 0 1 .78.75v2.18l.19-.29c1-1.53 2.16-2.64 3.88-2.64h.09a.72.72 0 0 1 .59.24.75.75 0 0 1 .17.51v1.13zM141.57 23.88c0 4.17-2.66 6.45-6.64 6.45-4.14 0-6.61-2.3-6.61-6.45V12.72a.7.7 0 0 1 .75-.75h1.52v11.91c0 3.23 1.89 4.46 4.33 4.46s4.36-1.23 4.36-4.46V12.72a.71.71 0 0 1 .76-.76h1.52v11.92zM175.47 20.3a15.08 15.08 0 0 1-4 9.84h-2.27c-1.33-1.14-3.78-5.31-3.78-9.84v-2.67a.69.69 0 0 1 .75-.75h1.33v3.42a12.26 12.26 0 0 0 2.93 8.31 12.36 12.36 0 0 0 2.93-8.31v-2.67a.7.7 0 0 1 .75-.75h1.34v3.42zM183.62 22.55c2.08 0 2.66-.75 2.66-2.06s-1-1.91-2.47-1.91c-2.28 0-3.59 1.14-3.59 3.8v.17zM178.14 25v-2.62a5.36 5.36 0 0 1 5.67-5.69c2.64 0 4.53 1.14 4.53 3.8 0 2.35-1.5 3.78-4.14 3.78h-4V25c0 2.47 1.51 3.42 3.59 3.42a14.34 14.34 0 0 0 3.78-.83v1.21c0 .49-.05.66-.46.85a9.93 9.93 0 0 1-3.32.68c-3.22 0-5.67-1.53-5.67-5.31M202.06 20.49c0 1.21.82 1.34 1.89 1.6l1.62.39c2.06.48 3.68 1.31 3.68 3.88 0 2.93-2.54 4-5.3 4a16.93 16.93 0 0 1-3.3-.34l-.57-.17v-1.19c0-.39.27-.55.61-.55a.93.93 0 0 1 .24 0 14.26 14.26 0 0 0 3 .34c2.08 0 3.22-.58 3.22-2.08 0-1.14-1-1.65-2.08-1.89l-2-.49c-1.79-.41-3.12-1.43-3.12-3.49 0-2.37 2-3.8 5.11-3.8a15.36 15.36 0 0 1 2.94.3 5.19 5.19 0 0 1 .58.13v1.25c0 .38-.29.53-.63.53a21.91 21.91 0 0 0-2.88-.29c-2 0-3 .58-3 1.91M235.8 26.72l-.94.94a5.19 5.19 0 0 1-3.86 1.72c-2.18 0-3.54-1.21-3.54-4.55v-7.2a.7.7 0 0 1 .75-.75h1.33v8c0 2 .83 2.66 2 2.66s2.69-1.33 3.44-2.08l.77-.77v-7a.69.69 0 0 1 .75-.75h1.34v11.5c0 4.53-2.67 6.25-7.2 6.25h-2.28V33.55a.7.7 0 0 1 .75-.77h1.52c3.59 0 5.11-1.12 5.11-4.17zM224.4 28.24a.74.74 0 0 1 .56.22.76.76 0 0 1 .19.53v1.14h-1.89a4 4 0 0 1-4.36-4.36V13.85h1.33a.7.7 0 0 1 .75.75v2.28h3a.68.68 0 0 1 .75.75v1.14H221v7a2.17 2.17 0 0 0 2.28 2.47zM162.18 13.49a.69.69 0 0 1-.75.75h-1.34v-1.52a.7.7 0 0 1 .77-.75h1.31v1.52zm0 15.89v.75h-1.31a.71.71 0 0 1-.77-.76v-10.6h-1.48a.66.66 0 0 1-.75-.75v-1.14h3.56a.69.69 0 0 1 .75.75zM215.51 13.49a.69.69 0 0 1-.75.75h-1.33v-1.52a.7.7 0 0 1 .77-.75h1.31v1.52zm0 15.89v.75h-1.31a.71.71 0 0 1-.77-.76v-10.6H212a.66.66 0 0 1-.75-.75v-1.14h3.56a.69.69 0 0 1 .75.75zM147.05 19.35l.95-.94a5.08 5.08 0 0 1 3.78-1.72c2.08 0 3.58 1.14 3.58 4.55v8.89h-1.31a.7.7 0 0 1-.77-.75v-8.14c0-2.08-.95-2.66-2.06-2.66-1.33 0-2.67 1.33-3.42 2.08l-.75.77v8.7h-1.33a.69.69 0 0 1-.75-.75v-12.5h1.31a.7.7 0 0 1 .77.75zM78.86 27.66l-.94 1a5.15 5.15 0 0 1-3.81 1.7c-2.08 0-3.58-1.14-3.58-4.56v-8.16a.7.7 0 0 1 .75-.75h1.33v8.89c0 2.09 1 2.67 2.09 2.67 1.3 0 2.64-1.33 3.39-2.08l.77-.76v-8a.69.69 0 0 1 .75-.75h1.33v12.5a.7.7 0 0 1-.77.75h-1.31v-2.45zM90.4 18.77a4 4 0 0 0-2.47 1.44c-.41.5-1.51 2.24-1.51 2.24v7.68h-1.33a.69.69 0 0 1-.75-.75V16.89h1.31a.71.71 0 0 1 .77.76v2.18l.2-.29c1-1.53 2.15-2.64 3.87-2.64h.1a.74.74 0 0 1 .58.23.79.79 0 0 1 .17.52v1.13zM98.93 28.25a.7.7 0 0 1 .56.22.74.74 0 0 1 .19.53v1.13h-1.89a4 4 0 0 1-4.36-4.36V13.86h1.33a.7.7 0 0 1 .75.75v2.28h3a.69.69 0 0 1 .75.75v1.13h-3.75v7a2.18 2.18 0 0 0 2.28 2.48zM106 13.49a.69.69 0 0 1-.75.76h-1.35v-1.53a.71.71 0 0 1 .78-.75H106v1.52zm0 15.89v.75h-1.31a.71.71 0 0 1-.78-.75v-10.6h-1.47a.67.67 0 0 1-.75-.76v-1.14h3.56a.69.69 0 0 1 .75.75zM111.47 19.36l1-.95a5.12 5.12 0 0 1 3.78-1.72c2.08 0 3.58 1.14 3.58 4.56v8.88h-1.31a.7.7 0 0 1-.77-.75v-8.13c0-2.09-1-2.67-2.06-2.67-1.33 0-2.67 1.33-3.42 2.08l-.75.78v8.69h-1.33a.69.69 0 0 1-.75-.75v-12.5h1.31a.7.7 0 0 1 .77.75zM65.38 11.95h.01-.01M65.39 12h.1-.1M63.13 13.76a9.6 9.6 0 0 1 2.11.21 16.52 16.52 0 0 1 1.69.56 1 1 0 0 0 .34.07c.24 0 .41-.15.41-.48v-1.47a3.83 3.83 0 0 0-.46-.19 11.08 11.08 0 0 0-1.73-.46h-.1a6.16 6.16 0 0 0-.89-.12h-.92c-5.3 0-8.7 2.83-8.7 8.13v2.28c0 4.72 2.45 8.14 8 8.14h1.14a10.48 10.48 0 0 0 3.29-.65c.2-.07.49-.2.49-.2V28.2c0-.34-.17-.49-.42-.49a1.46 1.46 0 0 0-.34.07 10 10 0 0 1-3 .56h-1.27c-3.61 0-5.69-2.18-5.69-6.15v-2.28c0-4.43 2.66-6.15 6.05-6.15"/></svg>